M48
;DRILL file {KiCad 5.0.1} date Sat 23 Feb 2019 18:21:48 CET
;FORMAT={-:-/ absolute / inch / decimal}
FMAT,2
INCH,TZ
T1C0.0157
T2C0.0197
T3C0.0315
T4C0.0354
T5C0.0394
T6C0.0398
T7C0.0433
T8C0.0437
T9C0.0472
T10C0.0551
T11C0.0787
T12C0.1181
%
G90
G05
M72
T1
X4.2786Y-4.0528
X4.5185Y-1.9939
X4.6218Y-3.8813
X4.7047Y-4.8819
X4.7378Y-3.976
X4.7867Y-4.0252
X4.828Y-4.2406
X4.9357Y-4.5669
X5.7768Y-2.4316
X6.1093Y-2.3306
X6.1192Y-3.0521
X6.7806Y-2.5517
X6.8033Y-2.4296
X7.0886Y-2.7357
X7.109Y-3.9559
X7.1916Y-3.4245
T2
X6.2771Y-3.7094
T3
X5.1181Y-3.0252
X5.1181Y-3.4252
X4.7244Y-5.6102
X4.7244Y-5.8071
X6.9685Y-4.3701
X6.9685Y-4.5669
X5.2756Y-3.0252
X5.2756Y-3.4252
X5.748Y-3.0252
X5.748Y-3.4252
X4.4488Y-2.6969
X4.4488Y-2.8937
X6.063Y-3.0252
X6.063Y-3.4252
X5.4331Y-3.0252
X5.4331Y-3.4252
X5.9055Y-3.0252
X5.9055Y-3.4252
X5.5906Y-3.0252
X5.5906Y-3.4252
T4
X3.5433Y-4.5669
X3.6433Y-4.5669
X3.5433Y-3.937
X3.6433Y-3.937
X3.5433Y-4.8819
X3.6433Y-4.8819
X3.5433Y-4.252
X3.6433Y-4.252
X3.5433Y-3.622
X3.6433Y-3.622
X3.5433Y-5.1969
X3.6433Y-5.1969
X3.5433Y-3.3071
X3.6433Y-3.3071
T5
X5.8Y-5.7
X4.8Y-5.1
X5.3Y-5.4
X6.Y-5.2
X5.4Y-5.2
X5.Y-5.2
X6.Y-5.4
X5.5Y-4.8
X4.8Y-5.2
X5.7Y-4.7
X5.9Y-4.8
X5.9Y-5.7
X5.3Y-4.5
X6.1Y-5.7
X5.2Y-4.7
X6.2Y-5.3
X5.6Y-4.5
X5.6Y-5.1
X6.Y-5.5
X6.6Y-5.1
X5.8Y-4.5
X6.Y-5.8
X6.3Y-5.1
X6.5Y-5.3
X5.5Y-5.
X4.8Y-5.
X6.2Y-5.6
X5.9Y-5.4
X5.9Y-4.7
X6.5Y-5.7
X6.Y-4.8
X5.3Y-5.3
X5.7Y-5.2
X4.9Y-5.1
X6.4Y-5.3
X5.1Y-4.8
X5.1Y-5.
X6.Y-4.6
X5.5Y-4.4
X5.9Y-4.5
X5.2Y-4.8
X6.1Y-5.6
X5.5Y-5.2
X6.1Y-5.4
X5.4Y-4.6
X5.5Y-4.9
X5.1Y-4.9
X5.8Y-5.6
X6.3Y-5.6
X6.Y-5.3
X4.7Y-5.1
X5.8Y-5.4
X5.5Y-5.4
X5.2Y-5.3
X6.2Y-5.1
X6.1024Y-5.3
X5.6Y-4.7
X6.Y-4.5
X5.9Y-5.6
X5.5Y-4.6
X5.5Y-4.7
X5.4Y-4.4
X5.3Y-4.6
X5.3Y-4.9
X5.3Y-5.2
X5.2Y-5.4
X5.Y-4.9
X5.8Y-5.
X6.3Y-5.2
X5.5Y-4.5
X5.6Y-4.6
X5.8Y-4.8
X6.1Y-4.4
X6.3Y-5.8
X5.2Y-4.9
X6.1614Y-4.0157
X6.1614Y-4.2126
X6.3583Y-4.0157
X6.3583Y-4.2126
X6.5Y-5.1
X5.3Y-5.1
X5.8Y-5.8
X6.4Y-5.7
X6.Y-4.4
X6.1Y-5.5
X4.9Y-5.2
X6.3Y-5.7
X5.9Y-5.5
X6.4Y-5.4
X5.4Y-5.3
X5.6Y-5.4
X6.5Y-5.5
X5.7Y-4.5
X6.2Y-5.5
X5.9Y-5.3
X5.9Y-4.6
X4.6Y-5.2
X5.3Y-4.8
X5.5Y-5.1
X6.2Y-5.4
X6.1Y-5.8
X5.Y-5.1
X6.Y-5.
X6.1Y-5.2
X5.8Y-4.9
X4.9Y-4.9
X5.8Y-4.4
X5.6Y-5.
X6.4Y-5.8
X6.5Y-5.6
X5.5Y-5.3
X5.2Y-5.2
X6.Y-5.7
X6.7Y-5.1
X6.1Y-4.5
X6.Y-4.7
X5.7Y-5.1
X5.8Y-4.6
X5.3Y-5.
X6.2Y-5.8
X5.8Y-5.1
X6.1Y-5.1
X6.3Y-5.4
X6.6Y-5.2
X6.4Y-5.2
X5.9Y-5.8
X5.4Y-4.7
X6.5Y-5.8
X5.7Y-5.
X4.9Y-5.
X5.1Y-4.7
X6.4Y-5.1
X5.6Y-4.8
X5.4Y-4.9
X6.4Y-5.6
X5.9Y-5.1
X5.6Y-5.3
X5.2Y-5.1
X5.9Y-5.
X5.8Y-4.7
X5.2Y-5.
X5.9Y-4.9
X5.4Y-5.1
X5.8Y-5.5
X6.5Y-5.4
X4.4488Y-2.0866
X4.4488Y-2.1866
X4.4488Y-2.2866
X4.4488Y-2.3866
X4.4488Y-2.4866
X4.7Y-5.2
X5.1Y-5.2
X5.7Y-4.8
X5.4Y-4.8
X6.3Y-5.3
X6.2Y-5.2
X6.Y-5.6
X5.2Y-4.6
X6.Y-4.9
X6.3Y-5.5
X5.4Y-5.
X5.7Y-4.9
X5.Y-5.
X5.8Y-5.2
X6.4Y-5.5
X6.5Y-5.2
X5.4Y-5.4
X5.3Y-4.7
X5.7Y-5.3
X5.1Y-5.1
X5.6Y-4.4
X5.Y-4.8
X5.4Y-4.5
X5.6Y-5.2
X5.6Y-4.9
X5.7Y-4.6
X6.2Y-5.7
X5.9Y-4.4
X5.7Y-4.4
T6
X3.9665Y-4.0921
X3.9665Y-4.1921
X3.9665Y-4.289
X3.9665Y-4.389
X7.1555Y-3.5921
X7.1555Y-3.6921
X7.1555Y-3.7921
X7.1555Y-3.8921
X7.1555Y-3.9921
X7.1555Y-4.0921
X7.1555Y-4.1921
X7.1555Y-4.2921
X7.1555Y-4.3921
X7.1555Y-4.4921
X7.1555Y-4.5921
X7.1555Y-4.6921
X7.1555Y-4.7921
X7.1555Y-4.8921
T7
X3.9764Y-2.874
X3.9764Y-3.0709
X4.1732Y-2.874
X4.1732Y-3.0709
X3.9764Y-5.4035
X3.9764Y-5.6004
X4.1732Y-5.4035
X4.1732Y-5.6004
X6.7717Y-2.9134
X6.7717Y-3.1102
X6.9685Y-2.9134
X6.9685Y-3.1102
X6.7717Y-5.3937
X6.7717Y-5.5906
X6.9685Y-5.3937
X6.9685Y-5.5906
T8
X5.0539Y-2.0685
X5.0539Y-2.1685
X5.1539Y-2.0685
X5.1539Y-2.1685
X5.2539Y-2.0685
X5.2539Y-2.1685
X5.3539Y-2.0685
X5.3539Y-2.1685
X5.4539Y-2.0685
X5.4539Y-2.1685
X5.5539Y-2.0685
X5.5539Y-2.1685
X5.6539Y-2.0685
X5.6539Y-2.1685
X5.7539Y-2.0685
X5.7539Y-2.1685
X5.8539Y-2.0685
X5.8539Y-2.1685
X5.9539Y-2.0685
X5.9539Y-2.1685
X6.0539Y-2.0685
X6.0539Y-2.1685
X6.1539Y-2.0685
X6.1539Y-2.1685
X6.2539Y-2.0685
X6.2539Y-2.1685
X6.3539Y-2.0685
X6.3539Y-2.1685
X6.4539Y-2.0685
X6.4539Y-2.1685
X6.5539Y-2.0685
X6.5539Y-2.1685
X6.6539Y-2.0685
X6.6539Y-2.1685
X6.7539Y-2.0685
X6.7539Y-2.1685
X6.8539Y-2.0685
X6.8539Y-2.1685
X6.8539Y-2.2685
X6.8539Y-2.3685
X6.9539Y-2.0685
X6.9539Y-2.1685
X6.9539Y-2.2685
X6.9539Y-2.3685
T9
X6.2795Y-4.685
X6.2795Y-4.8819
X4.9508Y-5.548
X4.9508Y-5.648
X4.9508Y-5.748
T10
X3.8189Y-2.2047
X4.0189Y-2.2047
T11
X6.437Y-2.4705
X6.2795Y-2.7067
X6.122Y-2.7067
X5.9646Y-2.4705
X6.2795Y-2.4705
X5.9646Y-2.7067
X6.437Y-2.7067
X6.122Y-2.4705
T12
X3.4843Y-2.1063
X3.4843Y-5.7677
X7.1457Y-5.7677
T0
M30
