G04 #@! TF.GenerationSoftware,KiCad,Pcbnew,5.0.1*
G04 #@! TF.CreationDate,2019-02-23T18:21:50+01:00*
G04 #@! TF.ProjectId,display,646973706C61792E6B696361645F7063,rev?*
G04 #@! TF.SameCoordinates,Original*
G04 #@! TF.FileFunction,Copper,L1,Top,Signal*
G04 #@! TF.FilePolarity,Positive*
%FSLAX46Y46*%
G04 Gerber Fmt 4.6, Leading zero omitted, Abs format (unit mm)*
G04 Created by KiCad (PCBNEW 5.0.1) date Sat 23 Feb 2019 18:21:50 CET*
%MOMM*%
%LPD*%
G01*
G04 APERTURE LIST*
G04 #@! TA.AperFunction,ComponentPad*
%ADD10C,1.700000*%
G04 #@! TD*
G04 #@! TA.AperFunction,ComponentPad*
%ADD11C,2.000000*%
G04 #@! TD*
G04 #@! TA.AperFunction,ComponentPad*
%ADD12C,1.600000*%
G04 #@! TD*
G04 #@! TA.AperFunction,ComponentPad*
%ADD13R,1.800000X1.800000*%
G04 #@! TD*
G04 #@! TA.AperFunction,ComponentPad*
%ADD14C,1.800000*%
G04 #@! TD*
G04 #@! TA.AperFunction,ComponentPad*
%ADD15O,1.600000X1.600000*%
G04 #@! TD*
G04 #@! TA.AperFunction,ComponentPad*
%ADD16C,3.000000*%
G04 #@! TD*
G04 #@! TA.AperFunction,ComponentPad*
%ADD17R,2.400000X2.400000*%
G04 #@! TD*
G04 #@! TA.AperFunction,ComponentPad*
%ADD18C,2.400000*%
G04 #@! TD*
G04 #@! TA.AperFunction,ComponentPad*
%ADD19O,2.000000X2.000000*%
G04 #@! TD*
G04 #@! TA.AperFunction,ComponentPad*
%ADD20R,2.000000X2.000000*%
G04 #@! TD*
G04 #@! TA.AperFunction,ComponentPad*
%ADD21R,1.665000X1.665000*%
G04 #@! TD*
G04 #@! TA.AperFunction,ComponentPad*
%ADD22C,1.665000*%
G04 #@! TD*
G04 #@! TA.AperFunction,Conductor*
%ADD23C,0.100000*%
G04 #@! TD*
G04 #@! TA.AperFunction,ComponentPad*
%ADD24C,2.080000*%
G04 #@! TD*
G04 #@! TA.AperFunction,ComponentPad*
%ADD25O,2.080000X3.600000*%
G04 #@! TD*
G04 #@! TA.AperFunction,ComponentPad*
%ADD26R,1.700000X1.700000*%
G04 #@! TD*
G04 #@! TA.AperFunction,ComponentPad*
%ADD27O,1.700000X1.700000*%
G04 #@! TD*
G04 #@! TA.AperFunction,ComponentPad*
%ADD28O,2.000000X1.905000*%
G04 #@! TD*
G04 #@! TA.AperFunction,ComponentPad*
%ADD29R,2.000000X1.905000*%
G04 #@! TD*
G04 #@! TA.AperFunction,ViaPad*
%ADD30C,3.100000*%
G04 #@! TD*
G04 #@! TA.AperFunction,ViaPad*
%ADD31C,0.800000*%
G04 #@! TD*
G04 #@! TA.AperFunction,ViaPad*
%ADD32C,1.000000*%
G04 #@! TD*
G04 #@! TA.AperFunction,Conductor*
%ADD33C,0.200000*%
G04 #@! TD*
G04 #@! TA.AperFunction,Conductor*
%ADD34C,1.000000*%
G04 #@! TD*
G04 #@! TA.AperFunction,Conductor*
%ADD35C,1.500000*%
G04 #@! TD*
G04 APERTURE END LIST*
D10*
G04 #@! TO.P,TFT\002A\002A,16*
G04 #@! TO.N,N/C*
X100750000Y-108940000D03*
G04 #@! TO.P,TFT\002A\002A,15*
X100750000Y-111480000D03*
G04 #@! TO.P,TFT\002A\002A,18*
X100750000Y-103940000D03*
G04 #@! TO.P,TFT\002A\002A,17*
X100750000Y-106480000D03*
G04 #@! TO.P,TFT\002A\002A,14*
X181750000Y-124260000D03*
G04 #@! TO.P,TFT\002A\002A,9*
X181750000Y-111560000D03*
G04 #@! TO.P,TFT\002A\002A,12*
X181750000Y-119180000D03*
G04 #@! TO.P,TFT\002A\002A,13*
X181750000Y-121720000D03*
G04 #@! TO.P,TFT\002A\002A,10*
X181750000Y-114100000D03*
G04 #@! TO.P,TFT\002A\002A,11*
X181750000Y-116640000D03*
G04 #@! TO.P,TFT\002A\002A,8*
X181750000Y-109020000D03*
G04 #@! TO.P,TFT\002A\002A,7*
X181750000Y-106480000D03*
G04 #@! TO.P,TFT\002A\002A,6*
X181750000Y-103940000D03*
G04 #@! TO.P,TFT\002A\002A,5*
X181750000Y-101400000D03*
G04 #@! TO.P,TFT\002A\002A,4*
X181750000Y-98860000D03*
G04 #@! TO.P,TFT\002A\002A,3*
X181750000Y-96320000D03*
G04 #@! TO.P,TFT\002A\002A,2*
X181750000Y-93780000D03*
G04 #@! TO.P,TFT\002A\002A,1*
X181750000Y-91240000D03*
G04 #@! TD*
D11*
G04 #@! TO.P,REF\002A\002A,1*
G04 #@! TO.N,GND*
X132080000Y-137160000D03*
G04 #@! TD*
G04 #@! TO.P,REF\002A\002A,1*
G04 #@! TO.N,GND*
X134620000Y-137160000D03*
G04 #@! TD*
G04 #@! TO.P,REF\002A\002A,1*
G04 #@! TO.N,GND*
X137160000Y-137160000D03*
G04 #@! TD*
G04 #@! TO.P,REF\002A\002A,1*
G04 #@! TO.N,GND*
X139700000Y-137160000D03*
G04 #@! TD*
G04 #@! TO.P,REF\002A\002A,1*
G04 #@! TO.N,GND*
X142240000Y-137160000D03*
G04 #@! TD*
G04 #@! TO.P,REF\002A\002A,1*
G04 #@! TO.N,+5V*
X144780000Y-134620000D03*
G04 #@! TD*
G04 #@! TO.P,REF\002A\002A,1*
G04 #@! TO.N,+5V*
X142240000Y-134620000D03*
G04 #@! TD*
G04 #@! TO.P,REF\002A\002A,1*
G04 #@! TO.N,+5V*
X139700000Y-134620000D03*
G04 #@! TD*
G04 #@! TO.P,REF\002A\002A,1*
G04 #@! TO.N,+5V*
X137160000Y-134620000D03*
G04 #@! TD*
G04 #@! TO.P,REF\002A\002A,1*
G04 #@! TO.N,+5V*
X134620000Y-134620000D03*
G04 #@! TD*
G04 #@! TO.P,REF\002A\002A,1*
G04 #@! TO.N,+5V*
X132080000Y-134620000D03*
G04 #@! TD*
G04 #@! TO.P,REF\002A\002A,1*
G04 #@! TO.N,GND*
X165100000Y-137160000D03*
G04 #@! TD*
G04 #@! TO.P,REF\002A\002A,1*
G04 #@! TO.N,GND*
X162560000Y-137160000D03*
G04 #@! TD*
G04 #@! TO.P,REF\002A\002A,1*
G04 #@! TO.N,GND*
X160020000Y-137160000D03*
G04 #@! TD*
G04 #@! TO.P,REF\002A\002A,1*
G04 #@! TO.N,GND*
X157480000Y-137160000D03*
G04 #@! TD*
G04 #@! TO.P,REF\002A\002A,1*
G04 #@! TO.N,GND*
X154940000Y-137160000D03*
G04 #@! TD*
G04 #@! TO.P,REF\002A\002A,1*
G04 #@! TO.N,GND*
X152400000Y-137160000D03*
G04 #@! TD*
G04 #@! TO.P,REF\002A\002A,1*
G04 #@! TO.N,GND*
X147320000Y-137160000D03*
G04 #@! TD*
G04 #@! TO.P,REF\002A\002A,1*
G04 #@! TO.N,GND*
X149860000Y-137160000D03*
G04 #@! TD*
G04 #@! TO.P,REF\002A\002A,1*
G04 #@! TO.N,+5V*
X165100000Y-134620000D03*
G04 #@! TD*
G04 #@! TO.P,REF\002A\002A,1*
G04 #@! TO.N,+5V*
X162560000Y-134620000D03*
G04 #@! TD*
G04 #@! TO.P,REF\002A\002A,1*
G04 #@! TO.N,+5V*
X160020000Y-134620000D03*
G04 #@! TD*
G04 #@! TO.P,REF\002A\002A,1*
G04 #@! TO.N,+5V*
X157480000Y-134620000D03*
G04 #@! TD*
G04 #@! TO.P,REF\002A\002A,1*
G04 #@! TO.N,+5V*
X155000000Y-134620000D03*
G04 #@! TD*
G04 #@! TO.P,REF\002A\002A,1*
G04 #@! TO.N,+5V*
X152400000Y-134620000D03*
G04 #@! TD*
G04 #@! TO.P,REF\002A\002A,1*
G04 #@! TO.N,+5V*
X149860000Y-134620000D03*
G04 #@! TD*
G04 #@! TO.P,REF\002A\002A,1*
G04 #@! TO.N,N/C*
X165100000Y-132080000D03*
G04 #@! TD*
G04 #@! TO.P,REF\002A\002A,1*
G04 #@! TO.N,N/C*
X154940000Y-132080000D03*
G04 #@! TD*
G04 #@! TO.P,REF\002A\002A,1*
G04 #@! TO.N,N/C*
X160020000Y-132080000D03*
G04 #@! TD*
G04 #@! TO.P,REF\002A\002A,1*
G04 #@! TO.N,N/C*
X157480000Y-132080000D03*
G04 #@! TD*
G04 #@! TO.P,REF\002A\002A,1*
G04 #@! TO.N,N/C*
X162560000Y-132080000D03*
G04 #@! TD*
G04 #@! TO.P,REF\002A\002A,1*
G04 #@! TO.N,N/C*
X152400000Y-132080000D03*
G04 #@! TD*
G04 #@! TO.P,REF\002A\002A,1*
G04 #@! TO.N,N/C*
X165100000Y-144780000D03*
G04 #@! TD*
G04 #@! TO.P,REF\002A\002A,1*
G04 #@! TO.N,N/C*
X162560000Y-142240000D03*
G04 #@! TD*
G04 #@! TO.P,REF\002A\002A,1*
G04 #@! TO.N,N/C*
X165100000Y-147320000D03*
G04 #@! TD*
G04 #@! TO.P,REF\002A\002A,1*
G04 #@! TO.N,N/C*
X160020000Y-144780000D03*
G04 #@! TD*
G04 #@! TO.P,REF\002A\002A,1*
G04 #@! TO.N,N/C*
X160020000Y-147320000D03*
G04 #@! TD*
G04 #@! TO.P,REF\002A\002A,1*
G04 #@! TO.N,N/C*
X162560000Y-147320000D03*
G04 #@! TD*
G04 #@! TO.P,REF\002A\002A,1*
G04 #@! TO.N,N/C*
X160020000Y-139700000D03*
G04 #@! TD*
G04 #@! TO.P,REF\002A\002A,1*
G04 #@! TO.N,N/C*
X157480000Y-147320000D03*
G04 #@! TD*
G04 #@! TO.P,REF\002A\002A,1*
G04 #@! TO.N,N/C*
X160020000Y-142240000D03*
G04 #@! TD*
G04 #@! TO.P,REF\002A\002A,1*
G04 #@! TO.N,N/C*
X165100000Y-142240000D03*
G04 #@! TD*
G04 #@! TO.P,REF\002A\002A,1*
G04 #@! TO.N,N/C*
X162560000Y-139700000D03*
G04 #@! TD*
G04 #@! TO.P,REF\002A\002A,1*
G04 #@! TO.N,N/C*
X157480000Y-139700000D03*
G04 #@! TD*
G04 #@! TO.P,REF\002A\002A,1*
G04 #@! TO.N,N/C*
X157480000Y-142240000D03*
G04 #@! TD*
G04 #@! TO.P,REF\002A\002A,1*
G04 #@! TO.N,N/C*
X165100000Y-139700000D03*
G04 #@! TD*
G04 #@! TO.P,REF\002A\002A,1*
G04 #@! TO.N,N/C*
X162560000Y-144780000D03*
G04 #@! TD*
G04 #@! TO.P,REF\002A\002A,1*
G04 #@! TO.N,N/C*
X157480000Y-144780000D03*
G04 #@! TD*
G04 #@! TO.P,REF\002A\002A,1*
G04 #@! TO.N,N/C*
X167640000Y-132080000D03*
G04 #@! TD*
G04 #@! TO.P,REF\002A\002A,1*
G04 #@! TO.N,N/C*
X124460000Y-124460000D03*
G04 #@! TD*
G04 #@! TO.P,REF\002A\002A,1*
G04 #@! TO.N,N/C*
X119380000Y-129540000D03*
G04 #@! TD*
G04 #@! TO.P,REF\002A\002A,1*
G04 #@! TO.N,N/C*
X121920000Y-127000000D03*
G04 #@! TD*
G04 #@! TO.P,REF\002A\002A,1*
G04 #@! TO.N,N/C*
X124460000Y-127000000D03*
G04 #@! TD*
G04 #@! TO.P,REF\002A\002A,1*
G04 #@! TO.N,N/C*
X121920000Y-129540000D03*
G04 #@! TD*
G04 #@! TO.P,REF\002A\002A,1*
G04 #@! TO.N,N/C*
X124460000Y-129540000D03*
G04 #@! TD*
G04 #@! TO.P,REF\002A\002A,1*
G04 #@! TO.N,N/C*
X167640000Y-129540000D03*
G04 #@! TD*
G04 #@! TO.P,REF\002A\002A,1*
G04 #@! TO.N,N/C*
X170180000Y-129540000D03*
G04 #@! TD*
G04 #@! TO.P,REF\002A\002A,1*
G04 #@! TO.N,N/C*
X162560000Y-129540000D03*
G04 #@! TD*
G04 #@! TO.P,REF\002A\002A,1*
G04 #@! TO.N,N/C*
X165100000Y-129540000D03*
G04 #@! TD*
G04 #@! TO.P,REF\002A\002A,1*
G04 #@! TO.N,N/C*
X157480000Y-129540000D03*
G04 #@! TD*
G04 #@! TO.P,REF\002A\002A,1*
G04 #@! TO.N,N/C*
X160020000Y-129540000D03*
G04 #@! TD*
G04 #@! TO.P,REF\002A\002A,1*
G04 #@! TO.N,N/C*
X142240000Y-132080000D03*
G04 #@! TD*
G04 #@! TO.P,REF\002A\002A,1*
G04 #@! TO.N,N/C*
X147320000Y-132080000D03*
G04 #@! TD*
G04 #@! TO.P,REF\002A\002A,1*
G04 #@! TO.N,N/C*
X144780000Y-132080000D03*
G04 #@! TD*
G04 #@! TO.P,REF\002A\002A,1*
G04 #@! TO.N,N/C*
X139700000Y-132080000D03*
G04 #@! TD*
G04 #@! TO.P,REF\002A\002A,1*
G04 #@! TO.N,N/C*
X129540000Y-132080000D03*
G04 #@! TD*
G04 #@! TO.P,REF\002A\002A,1*
G04 #@! TO.N,N/C*
X137160000Y-132080000D03*
G04 #@! TD*
G04 #@! TO.P,REF\002A\002A,1*
G04 #@! TO.N,N/C*
X134620000Y-132080000D03*
G04 #@! TD*
G04 #@! TO.P,REF\002A\002A,1*
G04 #@! TO.N,N/C*
X119380000Y-132080000D03*
G04 #@! TD*
G04 #@! TO.P,REF\002A\002A,1*
G04 #@! TO.N,N/C*
X127000000Y-132080000D03*
G04 #@! TD*
G04 #@! TO.P,REF\002A\002A,1*
G04 #@! TO.N,N/C*
X124460000Y-132080000D03*
G04 #@! TD*
G04 #@! TO.P,REF\002A\002A,1*
G04 #@! TO.N,N/C*
X132080000Y-132080000D03*
G04 #@! TD*
G04 #@! TO.P,REF\002A\002A,1*
G04 #@! TO.N,N/C*
X121920000Y-132080000D03*
G04 #@! TD*
G04 #@! TO.P,REF\002A\002A,1*
G04 #@! TO.N,N/C*
X116840000Y-132080000D03*
G04 #@! TD*
G04 #@! TO.P,REF\002A\002A,1*
G04 #@! TO.N,N/C*
X147320000Y-142240000D03*
G04 #@! TD*
G04 #@! TO.P,REF\002A\002A,1*
G04 #@! TO.N,N/C*
X149860000Y-147320000D03*
G04 #@! TD*
G04 #@! TO.P,REF\002A\002A,1*
G04 #@! TO.N,N/C*
X152400000Y-142240000D03*
G04 #@! TD*
G04 #@! TO.P,REF\002A\002A,1*
G04 #@! TO.N,N/C*
X154940000Y-139700000D03*
G04 #@! TD*
G04 #@! TO.P,REF\002A\002A,1*
G04 #@! TO.N,N/C*
X147320000Y-139700000D03*
G04 #@! TD*
G04 #@! TO.P,REF\002A\002A,1*
G04 #@! TO.N,N/C*
X147320000Y-147320000D03*
G04 #@! TD*
G04 #@! TO.P,REF\002A\002A,1*
G04 #@! TO.N,N/C*
X154940000Y-147320000D03*
G04 #@! TD*
G04 #@! TO.P,REF\002A\002A,1*
G04 #@! TO.N,N/C*
X152400000Y-144780000D03*
G04 #@! TD*
G04 #@! TO.P,REF\002A\002A,1*
G04 #@! TO.N,N/C*
X154940000Y-142240000D03*
G04 #@! TD*
G04 #@! TO.P,REF\002A\002A,1*
G04 #@! TO.N,N/C*
X152400000Y-139700000D03*
G04 #@! TD*
G04 #@! TO.P,REF\002A\002A,1*
G04 #@! TO.N,N/C*
X149860000Y-139700000D03*
G04 #@! TD*
G04 #@! TO.P,REF\002A\002A,1*
G04 #@! TO.N,N/C*
X152400000Y-147320000D03*
G04 #@! TD*
G04 #@! TO.P,REF\002A\002A,1*
G04 #@! TO.N,N/C*
X149860000Y-144780000D03*
G04 #@! TD*
G04 #@! TO.P,REF\002A\002A,1*
G04 #@! TO.N,N/C*
X147320000Y-144780000D03*
G04 #@! TD*
G04 #@! TO.P,REF\002A\002A,1*
G04 #@! TO.N,N/C*
X154940000Y-144780000D03*
G04 #@! TD*
G04 #@! TO.P,REF\002A\002A,1*
G04 #@! TO.N,N/C*
X149860000Y-142240000D03*
G04 #@! TD*
G04 #@! TO.P,REF\002A\002A,1*
G04 #@! TO.N,N/C*
X147320000Y-124460000D03*
G04 #@! TD*
G04 #@! TO.P,REF\002A\002A,1*
G04 #@! TO.N,N/C*
X149860000Y-129540000D03*
G04 #@! TD*
G04 #@! TO.P,REF\002A\002A,1*
G04 #@! TO.N,N/C*
X152400000Y-124460000D03*
G04 #@! TD*
G04 #@! TO.P,REF\002A\002A,1*
G04 #@! TO.N,N/C*
X147320000Y-121920000D03*
G04 #@! TD*
G04 #@! TO.P,REF\002A\002A,1*
G04 #@! TO.N,N/C*
X147320000Y-129540000D03*
G04 #@! TD*
G04 #@! TO.P,REF\002A\002A,1*
G04 #@! TO.N,N/C*
X154940000Y-129540000D03*
G04 #@! TD*
G04 #@! TO.P,REF\002A\002A,1*
G04 #@! TO.N,N/C*
X152400000Y-127000000D03*
G04 #@! TD*
G04 #@! TO.P,REF\002A\002A,1*
G04 #@! TO.N,N/C*
X152400000Y-121920000D03*
G04 #@! TD*
G04 #@! TO.P,REF\002A\002A,1*
G04 #@! TO.N,N/C*
X149860000Y-121920000D03*
G04 #@! TD*
G04 #@! TO.P,REF\002A\002A,1*
G04 #@! TO.N,N/C*
X149860000Y-127000000D03*
G04 #@! TD*
G04 #@! TO.P,REF\002A\002A,1*
G04 #@! TO.N,N/C*
X147320000Y-127000000D03*
G04 #@! TD*
G04 #@! TO.P,REF\002A\002A,1*
G04 #@! TO.N,N/C*
X149860000Y-124460000D03*
G04 #@! TD*
G04 #@! TO.P,REF\002A\002A,1*
G04 #@! TO.N,N/C*
X147320000Y-114300000D03*
G04 #@! TD*
G04 #@! TO.P,REF\002A\002A,1*
G04 #@! TO.N,N/C*
X149860000Y-119380000D03*
G04 #@! TD*
G04 #@! TO.P,REF\002A\002A,1*
G04 #@! TO.N,N/C*
X152400000Y-114300000D03*
G04 #@! TD*
G04 #@! TO.P,REF\002A\002A,1*
G04 #@! TO.N,N/C*
X154940000Y-111760000D03*
G04 #@! TD*
G04 #@! TO.P,REF\002A\002A,1*
G04 #@! TO.N,N/C*
X147320000Y-111760000D03*
G04 #@! TD*
G04 #@! TO.P,REF\002A\002A,1*
G04 #@! TO.N,N/C*
X147320000Y-119380000D03*
G04 #@! TD*
G04 #@! TO.P,REF\002A\002A,1*
G04 #@! TO.N,N/C*
X152400000Y-116840000D03*
G04 #@! TD*
G04 #@! TO.P,REF\002A\002A,1*
G04 #@! TO.N,N/C*
X154940000Y-114300000D03*
G04 #@! TD*
G04 #@! TO.P,REF\002A\002A,1*
G04 #@! TO.N,N/C*
X152400000Y-111760000D03*
G04 #@! TD*
G04 #@! TO.P,REF\002A\002A,1*
G04 #@! TO.N,N/C*
X149860000Y-111760000D03*
G04 #@! TD*
G04 #@! TO.P,REF\002A\002A,1*
G04 #@! TO.N,N/C*
X152400000Y-119380000D03*
G04 #@! TD*
G04 #@! TO.P,REF\002A\002A,1*
G04 #@! TO.N,N/C*
X149860000Y-116840000D03*
G04 #@! TD*
G04 #@! TO.P,REF\002A\002A,1*
G04 #@! TO.N,N/C*
X147320000Y-116840000D03*
G04 #@! TD*
G04 #@! TO.P,REF\002A\002A,1*
G04 #@! TO.N,N/C*
X149860000Y-114300000D03*
G04 #@! TD*
G04 #@! TO.P,REF\002A\002A,1*
G04 #@! TO.N,N/C*
X129540000Y-119380000D03*
G04 #@! TD*
G04 #@! TO.P,REF\002A\002A,1*
G04 #@! TO.N,N/C*
X134620000Y-119380000D03*
G04 #@! TD*
G04 #@! TO.P,REF\002A\002A,1*
G04 #@! TO.N,N/C*
X132080000Y-116840000D03*
G04 #@! TD*
G04 #@! TO.P,REF\002A\002A,1*
G04 #@! TO.N,N/C*
X134620000Y-114300000D03*
G04 #@! TD*
G04 #@! TO.P,REF\002A\002A,1*
G04 #@! TO.N,N/C*
X132080000Y-119380000D03*
G04 #@! TD*
G04 #@! TO.P,REF\002A\002A,1*
G04 #@! TO.N,N/C*
X134620000Y-116840000D03*
G04 #@! TD*
G04 #@! TO.P,REF\002A\002A,1*
G04 #@! TO.N,N/C*
X127000000Y-124460000D03*
G04 #@! TD*
G04 #@! TO.P,REF\002A\002A,1*
G04 #@! TO.N,N/C*
X129540000Y-129540000D03*
G04 #@! TD*
G04 #@! TO.P,REF\002A\002A,1*
G04 #@! TO.N,N/C*
X132080000Y-124460000D03*
G04 #@! TD*
G04 #@! TO.P,REF\002A\002A,1*
G04 #@! TO.N,N/C*
X134620000Y-121920000D03*
G04 #@! TD*
G04 #@! TO.P,REF\002A\002A,1*
G04 #@! TO.N,N/C*
X127000000Y-121920000D03*
G04 #@! TD*
G04 #@! TO.P,REF\002A\002A,1*
G04 #@! TO.N,N/C*
X127000000Y-129540000D03*
G04 #@! TD*
G04 #@! TO.P,REF\002A\002A,1*
G04 #@! TO.N,N/C*
X134620000Y-129540000D03*
G04 #@! TD*
G04 #@! TO.P,REF\002A\002A,1*
G04 #@! TO.N,N/C*
X132080000Y-127000000D03*
G04 #@! TD*
G04 #@! TO.P,REF\002A\002A,1*
G04 #@! TO.N,N/C*
X134620000Y-124460000D03*
G04 #@! TD*
G04 #@! TO.P,REF\002A\002A,1*
G04 #@! TO.N,N/C*
X132080000Y-121920000D03*
G04 #@! TD*
G04 #@! TO.P,REF\002A\002A,1*
G04 #@! TO.N,N/C*
X129540000Y-121920000D03*
G04 #@! TD*
G04 #@! TO.P,REF\002A\002A,1*
G04 #@! TO.N,N/C*
X132080000Y-129540000D03*
G04 #@! TD*
G04 #@! TO.P,REF\002A\002A,1*
G04 #@! TO.N,N/C*
X129540000Y-127000000D03*
G04 #@! TD*
G04 #@! TO.P,REF\002A\002A,1*
G04 #@! TO.N,N/C*
X127000000Y-127000000D03*
G04 #@! TD*
G04 #@! TO.P,REF\002A\002A,1*
G04 #@! TO.N,N/C*
X134620000Y-127000000D03*
G04 #@! TD*
G04 #@! TO.P,REF\002A\002A,1*
G04 #@! TO.N,N/C*
X129540000Y-124460000D03*
G04 #@! TD*
G04 #@! TO.P,REF\002A\002A,1*
G04 #@! TO.N,N/C*
X137160000Y-124460000D03*
G04 #@! TD*
G04 #@! TO.P,REF\002A\002A,1*
G04 #@! TO.N,N/C*
X139700000Y-129540000D03*
G04 #@! TD*
G04 #@! TO.P,REF\002A\002A,1*
G04 #@! TO.N,N/C*
X142240000Y-124460000D03*
G04 #@! TD*
G04 #@! TO.P,REF\002A\002A,1*
G04 #@! TO.N,N/C*
X144780000Y-121920000D03*
G04 #@! TD*
G04 #@! TO.P,REF\002A\002A,1*
G04 #@! TO.N,N/C*
X137160000Y-121920000D03*
G04 #@! TD*
G04 #@! TO.P,REF\002A\002A,1*
G04 #@! TO.N,N/C*
X137160000Y-129540000D03*
G04 #@! TD*
G04 #@! TO.P,REF\002A\002A,1*
G04 #@! TO.N,N/C*
X144780000Y-129540000D03*
G04 #@! TD*
G04 #@! TO.P,REF\002A\002A,1*
G04 #@! TO.N,N/C*
X142240000Y-127000000D03*
G04 #@! TD*
G04 #@! TO.P,REF\002A\002A,1*
G04 #@! TO.N,N/C*
X144780000Y-124460000D03*
G04 #@! TD*
G04 #@! TO.P,REF\002A\002A,1*
G04 #@! TO.N,N/C*
X142240000Y-121920000D03*
G04 #@! TD*
G04 #@! TO.P,REF\002A\002A,1*
G04 #@! TO.N,N/C*
X139700000Y-121920000D03*
G04 #@! TD*
G04 #@! TO.P,REF\002A\002A,1*
G04 #@! TO.N,N/C*
X142240000Y-129540000D03*
G04 #@! TD*
G04 #@! TO.P,REF\002A\002A,1*
G04 #@! TO.N,N/C*
X139700000Y-127000000D03*
G04 #@! TD*
G04 #@! TO.P,REF\002A\002A,1*
G04 #@! TO.N,N/C*
X137160000Y-127000000D03*
G04 #@! TD*
G04 #@! TO.P,REF\002A\002A,1*
G04 #@! TO.N,N/C*
X144780000Y-127000000D03*
G04 #@! TD*
G04 #@! TO.P,REF\002A\002A,1*
G04 #@! TO.N,N/C*
X139700000Y-124460000D03*
G04 #@! TD*
G04 #@! TO.P,REF\002A\002A,1*
G04 #@! TO.N,N/C*
X137160000Y-114300000D03*
G04 #@! TD*
G04 #@! TO.P,REF\002A\002A,1*
G04 #@! TO.N,N/C*
X139700000Y-119380000D03*
G04 #@! TD*
G04 #@! TO.P,REF\002A\002A,1*
G04 #@! TO.N,N/C*
X142240000Y-114300000D03*
G04 #@! TD*
G04 #@! TO.P,REF\002A\002A,1*
G04 #@! TO.N,N/C*
X144780000Y-111760000D03*
G04 #@! TD*
G04 #@! TO.P,REF\002A\002A,1*
G04 #@! TO.N,N/C*
X137160000Y-111760000D03*
G04 #@! TD*
G04 #@! TO.P,REF\002A\002A,1*
G04 #@! TO.N,N/C*
X137160000Y-119380000D03*
G04 #@! TD*
G04 #@! TO.P,REF\002A\002A,1*
G04 #@! TO.N,N/C*
X144780000Y-119380000D03*
G04 #@! TD*
G04 #@! TO.P,REF\002A\002A,1*
G04 #@! TO.N,N/C*
X142240000Y-116840000D03*
G04 #@! TD*
G04 #@! TO.P,REF\002A\002A,1*
G04 #@! TO.N,N/C*
X144780000Y-114300000D03*
G04 #@! TD*
G04 #@! TO.P,REF\002A\002A,1*
G04 #@! TO.N,N/C*
X142240000Y-111760000D03*
G04 #@! TD*
G04 #@! TO.P,REF\002A\002A,1*
G04 #@! TO.N,N/C*
X139700000Y-111760000D03*
G04 #@! TD*
G04 #@! TO.P,REF\002A\002A,1*
G04 #@! TO.N,N/C*
X142240000Y-119380000D03*
G04 #@! TD*
G04 #@! TO.P,REF\002A\002A,1*
G04 #@! TO.N,N/C*
X139700000Y-116840000D03*
G04 #@! TD*
G04 #@! TO.P,REF\002A\002A,1*
G04 #@! TO.N,N/C*
X137160000Y-116840000D03*
G04 #@! TD*
G04 #@! TO.P,REF\002A\002A,1*
G04 #@! TO.N,N/C*
X144780000Y-116840000D03*
G04 #@! TD*
G04 #@! TO.P,REF\002A\002A,1*
G04 #@! TO.N,N/C*
X139700000Y-114300000D03*
G04 #@! TD*
G04 #@! TO.P,SW3,1*
G04 #@! TO.N,GND*
X101000000Y-137250000D03*
G04 #@! TO.P,SW3,2*
G04 #@! TO.N,Net-(IC1-Pad31)*
X106000000Y-137250000D03*
G04 #@! TO.P,SW3,4*
X106000000Y-142250000D03*
G04 #@! TO.P,SW3,3*
G04 #@! TO.N,GND*
X101000000Y-142250000D03*
G04 #@! TD*
D12*
G04 #@! TO.P,C2,1*
G04 #@! TO.N,Net-(C1-Pad1)*
X120000000Y-147500000D03*
G04 #@! TO.P,C2,2*
G04 #@! TO.N,GND*
X120000000Y-142500000D03*
G04 #@! TD*
D13*
G04 #@! TO.P,D7,1*
G04 #@! TO.N,GND*
X90000000Y-124000000D03*
D14*
G04 #@! TO.P,D7,2*
G04 #@! TO.N,Net-(D7-Pad2)*
X92540000Y-124000000D03*
G04 #@! TD*
G04 #@! TO.P,D2,2*
G04 #@! TO.N,Net-(D2-Pad2)*
X92540000Y-84000000D03*
D13*
G04 #@! TO.P,D2,1*
G04 #@! TO.N,GND*
X90000000Y-84000000D03*
G04 #@! TD*
G04 #@! TO.P,D3,1*
G04 #@! TO.N,GND*
X90000000Y-92000000D03*
D14*
G04 #@! TO.P,D3,2*
G04 #@! TO.N,Net-(D3-Pad2)*
X92540000Y-92000000D03*
G04 #@! TD*
G04 #@! TO.P,D4,2*
G04 #@! TO.N,Net-(D4-Pad2)*
X92540000Y-100000000D03*
D13*
G04 #@! TO.P,D4,1*
G04 #@! TO.N,GND*
X90000000Y-100000000D03*
G04 #@! TD*
G04 #@! TO.P,D6,1*
G04 #@! TO.N,GND*
X90000000Y-116000000D03*
D14*
G04 #@! TO.P,D6,2*
G04 #@! TO.N,Net-(D6-Pad2)*
X92540000Y-116000000D03*
G04 #@! TD*
G04 #@! TO.P,D5,2*
G04 #@! TO.N,Net-(D5-Pad2)*
X92540000Y-108000000D03*
D13*
G04 #@! TO.P,D5,1*
G04 #@! TO.N,GND*
X90000000Y-108000000D03*
G04 #@! TD*
G04 #@! TO.P,D8,1*
G04 #@! TO.N,GND*
X90000000Y-132000000D03*
D14*
G04 #@! TO.P,D8,2*
G04 #@! TO.N,Net-(D8-Pad2)*
X92540000Y-132000000D03*
G04 #@! TD*
D12*
G04 #@! TO.P,R7,1*
G04 #@! TO.N,Net-(D8-Pad2)*
X154000000Y-87000000D03*
D15*
G04 #@! TO.P,R7,2*
G04 #@! TO.N,Net-(IC1-Pad24)*
X154000000Y-76840000D03*
G04 #@! TD*
G04 #@! TO.P,R5,2*
G04 #@! TO.N,Net-(IC1-Pad21)*
X146000000Y-76840000D03*
D12*
G04 #@! TO.P,R5,1*
G04 #@! TO.N,Net-(D6-Pad2)*
X146000000Y-87000000D03*
G04 #@! TD*
G04 #@! TO.P,R4,1*
G04 #@! TO.N,Net-(D5-Pad2)*
X142000000Y-87000000D03*
D15*
G04 #@! TO.P,R4,2*
G04 #@! TO.N,Net-(IC1-Pad19)*
X142000000Y-76840000D03*
G04 #@! TD*
G04 #@! TO.P,R1,2*
G04 #@! TO.N,Net-(IC1-Pad3)*
X130000000Y-76840000D03*
D12*
G04 #@! TO.P,R1,1*
G04 #@! TO.N,Net-(D2-Pad2)*
X130000000Y-87000000D03*
G04 #@! TD*
G04 #@! TO.P,R2,1*
G04 #@! TO.N,Net-(D3-Pad2)*
X134000000Y-87000000D03*
D15*
G04 #@! TO.P,R2,2*
G04 #@! TO.N,Net-(IC1-Pad5)*
X134000000Y-76840000D03*
G04 #@! TD*
G04 #@! TO.P,R3,2*
G04 #@! TO.N,Net-(IC1-Pad7)*
X138000000Y-76840000D03*
D12*
G04 #@! TO.P,R3,1*
G04 #@! TO.N,Net-(D4-Pad2)*
X138000000Y-87000000D03*
G04 #@! TD*
G04 #@! TO.P,R6,1*
G04 #@! TO.N,Net-(D7-Pad2)*
X150000000Y-87000000D03*
D15*
G04 #@! TO.P,R6,2*
G04 #@! TO.N,Net-(IC1-Pad23)*
X150000000Y-76840000D03*
G04 #@! TD*
D16*
G04 #@! TO.P,TP14,1*
G04 #@! TO.N,Net-(IC1-Pad43)*
X155500000Y-62750000D03*
G04 #@! TD*
G04 #@! TO.P,TP13,1*
G04 #@! TO.N,Net-(IC1-Pad42)*
X163500000Y-68750000D03*
G04 #@! TD*
G04 #@! TO.P,TP12,1*
G04 #@! TO.N,Net-(IC1-Pad41)*
X159500000Y-62750000D03*
G04 #@! TD*
G04 #@! TO.P,TP11,1*
G04 #@! TO.N,Net-(IC1-Pad28)*
X159500000Y-68750000D03*
G04 #@! TD*
G04 #@! TO.P,TP10,1*
G04 #@! TO.N,Net-(IC1-Pad27)*
X155500000Y-68750000D03*
G04 #@! TD*
G04 #@! TO.P,TP9,1*
G04 #@! TO.N,Net-(IC1-Pad26)*
X151500000Y-68750000D03*
G04 #@! TD*
G04 #@! TO.P,TP1,1*
G04 #@! TO.N,Net-(IC1-Pad1)*
X151500000Y-62750000D03*
G04 #@! TD*
G04 #@! TO.P,TP15,1*
G04 #@! TO.N,Net-(IC1-Pad44)*
X163500000Y-62750000D03*
G04 #@! TD*
D11*
G04 #@! TO.P,SW4,3*
G04 #@! TO.N,GND*
X172000000Y-142000000D03*
G04 #@! TO.P,SW4,4*
G04 #@! TO.N,Net-(IC1-Pad29)*
X177000000Y-142000000D03*
G04 #@! TO.P,SW4,2*
X177000000Y-137000000D03*
G04 #@! TO.P,SW4,1*
G04 #@! TO.N,GND*
X172000000Y-137000000D03*
G04 #@! TD*
G04 #@! TO.P,SW2,3*
G04 #@! TO.N,GND*
X172000000Y-79000000D03*
G04 #@! TO.P,SW2,4*
G04 #@! TO.N,Net-(IC1-Pad32)*
X177000000Y-79000000D03*
G04 #@! TO.P,SW2,2*
X177000000Y-74000000D03*
G04 #@! TO.P,SW2,1*
G04 #@! TO.N,GND*
X172000000Y-74000000D03*
G04 #@! TD*
G04 #@! TO.P,SW1,1*
G04 #@! TO.N,GND*
X101000000Y-73000000D03*
G04 #@! TO.P,SW1,2*
G04 #@! TO.N,Net-(IC1-Pad33)*
X106000000Y-73000000D03*
G04 #@! TO.P,SW1,4*
X106000000Y-78000000D03*
G04 #@! TO.P,SW1,3*
G04 #@! TO.N,GND*
X101000000Y-78000000D03*
G04 #@! TD*
D17*
G04 #@! TO.P,C1,1*
G04 #@! TO.N,Net-(C1-Pad1)*
X159500000Y-119000000D03*
D18*
G04 #@! TO.P,C1,2*
G04 #@! TO.N,GND*
X159500000Y-124000000D03*
G04 #@! TD*
D12*
G04 #@! TO.P,C3,2*
G04 #@! TO.N,GND*
X177000000Y-116000000D03*
G04 #@! TO.P,C3,1*
G04 #@! TO.N,+5V*
X177000000Y-111000000D03*
G04 #@! TD*
G04 #@! TO.P,C4,1*
G04 #@! TO.N,+5V*
X113000000Y-73500000D03*
G04 #@! TO.P,C4,2*
G04 #@! TO.N,GND*
X113000000Y-68500000D03*
G04 #@! TD*
D19*
G04 #@! TO.P,D1,4*
G04 #@! TO.N,Net-(D1-Pad4)*
X161500000Y-102000000D03*
G04 #@! TO.P,D1,2*
G04 #@! TO.N,Net-(D1-Pad2)*
X156500000Y-107000000D03*
G04 #@! TO.P,D1,3*
G04 #@! TO.N,GND*
X156500000Y-102000000D03*
D20*
G04 #@! TO.P,D1,1*
G04 #@! TO.N,Net-(C1-Pad1)*
X161500000Y-107000000D03*
G04 #@! TD*
D21*
G04 #@! TO.P,IC1,1*
G04 #@! TO.N,Net-(IC1-Pad1)*
X128370000Y-55080000D03*
D22*
G04 #@! TO.P,IC1,2*
G04 #@! TO.N,+5V*
X128370000Y-52540000D03*
G04 #@! TO.P,IC1,3*
G04 #@! TO.N,Net-(IC1-Pad3)*
X130910000Y-55080000D03*
G04 #@! TO.P,IC1,4*
G04 #@! TO.N,+5V*
X130910000Y-52540000D03*
G04 #@! TO.P,IC1,5*
G04 #@! TO.N,Net-(IC1-Pad5)*
X133450000Y-55080000D03*
G04 #@! TO.P,IC1,6*
G04 #@! TO.N,GND*
X133450000Y-52540000D03*
G04 #@! TO.P,IC1,7*
G04 #@! TO.N,Net-(IC1-Pad7)*
X135990000Y-55080000D03*
G04 #@! TO.P,IC1,8*
G04 #@! TO.N,Net-(IC1-Pad8)*
X135990000Y-52540000D03*
G04 #@! TO.P,IC1,9*
G04 #@! TO.N,GND*
X138530000Y-55080000D03*
G04 #@! TO.P,IC1,10*
G04 #@! TO.N,Net-(IC1-Pad10)*
X138530000Y-52540000D03*
G04 #@! TO.P,IC1,11*
G04 #@! TO.N,Net-(IC1-Pad11)*
X141070000Y-55080000D03*
G04 #@! TO.P,IC1,12*
G04 #@! TO.N,Net-(IC1-Pad12)*
X141070000Y-52540000D03*
G04 #@! TO.P,IC1,13*
G04 #@! TO.N,Net-(IC1-Pad13)*
X143610000Y-55080000D03*
G04 #@! TO.P,IC1,14*
G04 #@! TO.N,GND*
X143610000Y-52540000D03*
G04 #@! TO.P,IC1,15*
G04 #@! TO.N,Net-(IC1-Pad15)*
X146150000Y-55080000D03*
G04 #@! TO.P,IC1,16*
G04 #@! TO.N,Net-(IC1-Pad16)*
X146150000Y-52540000D03*
G04 #@! TO.P,IC1,17*
G04 #@! TO.N,Net-(IC1-Pad1)*
X148690000Y-55080000D03*
G04 #@! TO.P,IC1,18*
G04 #@! TO.N,Net-(IC1-Pad18)*
X148690000Y-52540000D03*
G04 #@! TO.P,IC1,19*
G04 #@! TO.N,Net-(IC1-Pad19)*
X151230000Y-55080000D03*
G04 #@! TO.P,IC1,20*
G04 #@! TO.N,GND*
X151230000Y-52540000D03*
G04 #@! TO.P,IC1,21*
G04 #@! TO.N,Net-(IC1-Pad21)*
X153770000Y-55080000D03*
G04 #@! TO.P,IC1,22*
G04 #@! TO.N,Net-(IC1-Pad22)*
X153770000Y-52540000D03*
G04 #@! TO.P,IC1,23*
G04 #@! TO.N,Net-(IC1-Pad23)*
X156310000Y-55080000D03*
G04 #@! TO.P,IC1,24*
G04 #@! TO.N,Net-(IC1-Pad24)*
X156310000Y-52540000D03*
G04 #@! TO.P,IC1,25*
G04 #@! TO.N,GND*
X158850000Y-55080000D03*
G04 #@! TO.P,IC1,26*
G04 #@! TO.N,Net-(IC1-Pad26)*
X158850000Y-52540000D03*
G04 #@! TO.P,IC1,27*
G04 #@! TO.N,Net-(IC1-Pad27)*
X161390000Y-55080000D03*
G04 #@! TO.P,IC1,28*
G04 #@! TO.N,Net-(IC1-Pad28)*
X161390000Y-52540000D03*
G04 #@! TO.P,IC1,29*
G04 #@! TO.N,Net-(IC1-Pad29)*
X163930000Y-55080000D03*
G04 #@! TO.P,IC1,30*
G04 #@! TO.N,GND*
X163930000Y-52540000D03*
G04 #@! TO.P,IC1,31*
G04 #@! TO.N,Net-(IC1-Pad31)*
X166470000Y-55080000D03*
G04 #@! TO.P,IC1,32*
G04 #@! TO.N,Net-(IC1-Pad32)*
X166470000Y-52540000D03*
G04 #@! TO.P,IC1,33*
G04 #@! TO.N,Net-(IC1-Pad33)*
X169010000Y-55080000D03*
G04 #@! TO.P,IC1,34*
G04 #@! TO.N,GND*
X169010000Y-52540000D03*
G04 #@! TO.P,IC1,35*
G04 #@! TO.N,MISO*
X171550000Y-55080000D03*
G04 #@! TO.P,IC1,36*
G04 #@! TO.N,Net-(IC1-Pad36)*
X171550000Y-52540000D03*
G04 #@! TO.P,IC1,37*
G04 #@! TO.N,Net-(IC1-Pad37)*
X174090000Y-55080000D03*
G04 #@! TO.P,IC1,38*
G04 #@! TO.N,MOSI*
X174090000Y-52540000D03*
G04 #@! TO.P,IC1,39*
G04 #@! TO.N,GND*
X176630000Y-55080000D03*
G04 #@! TO.P,IC1,40*
G04 #@! TO.N,SCK*
X176630000Y-52540000D03*
D21*
G04 #@! TO.P,IC1,41*
G04 #@! TO.N,Net-(IC1-Pad41)*
X176630000Y-57620000D03*
D22*
G04 #@! TO.P,IC1,42*
G04 #@! TO.N,Net-(IC1-Pad42)*
X174090000Y-57620000D03*
D21*
G04 #@! TO.P,IC1,43*
G04 #@! TO.N,Net-(IC1-Pad43)*
X174090000Y-60160000D03*
D22*
G04 #@! TO.P,IC1,44*
G04 #@! TO.N,Net-(IC1-Pad44)*
X176630000Y-60160000D03*
G04 #@! TD*
D23*
G04 #@! TO.N,Net-(D1-Pad2)*
G04 #@! TO.C,J1*
G36*
X97814505Y-54201204D02*
X97838773Y-54204804D01*
X97862572Y-54210765D01*
X97885671Y-54219030D01*
X97907850Y-54229520D01*
X97928893Y-54242132D01*
X97948599Y-54256747D01*
X97966777Y-54273223D01*
X97983253Y-54291401D01*
X97997868Y-54311107D01*
X98010480Y-54332150D01*
X98020970Y-54354329D01*
X98029235Y-54377428D01*
X98035196Y-54401227D01*
X98038796Y-54425495D01*
X98040000Y-54449999D01*
X98040000Y-57550001D01*
X98038796Y-57574505D01*
X98035196Y-57598773D01*
X98029235Y-57622572D01*
X98020970Y-57645671D01*
X98010480Y-57667850D01*
X97997868Y-57688893D01*
X97983253Y-57708599D01*
X97966777Y-57726777D01*
X97948599Y-57743253D01*
X97928893Y-57757868D01*
X97907850Y-57770480D01*
X97885671Y-57780970D01*
X97862572Y-57789235D01*
X97838773Y-57795196D01*
X97814505Y-57798796D01*
X97790001Y-57800000D01*
X96209999Y-57800000D01*
X96185495Y-57798796D01*
X96161227Y-57795196D01*
X96137428Y-57789235D01*
X96114329Y-57780970D01*
X96092150Y-57770480D01*
X96071107Y-57757868D01*
X96051401Y-57743253D01*
X96033223Y-57726777D01*
X96016747Y-57708599D01*
X96002132Y-57688893D01*
X95989520Y-57667850D01*
X95979030Y-57645671D01*
X95970765Y-57622572D01*
X95964804Y-57598773D01*
X95961204Y-57574505D01*
X95960000Y-57550001D01*
X95960000Y-54449999D01*
X95961204Y-54425495D01*
X95964804Y-54401227D01*
X95970765Y-54377428D01*
X95979030Y-54354329D01*
X95989520Y-54332150D01*
X96002132Y-54311107D01*
X96016747Y-54291401D01*
X96033223Y-54273223D01*
X96051401Y-54256747D01*
X96071107Y-54242132D01*
X96092150Y-54229520D01*
X96114329Y-54219030D01*
X96137428Y-54210765D01*
X96161227Y-54204804D01*
X96185495Y-54201204D01*
X96209999Y-54200000D01*
X97790001Y-54200000D01*
X97814505Y-54201204D01*
X97814505Y-54201204D01*
G37*
D24*
G04 #@! TD*
G04 #@! TO.P,J1,1*
G04 #@! TO.N,Net-(D1-Pad2)*
X97000000Y-56000000D03*
D25*
G04 #@! TO.P,J1,2*
G04 #@! TO.N,Net-(D1-Pad4)*
X102080000Y-56000000D03*
G04 #@! TD*
D26*
G04 #@! TO.P,J2,1*
G04 #@! TO.N,Net-(IC1-Pad8)*
X113000000Y-53000000D03*
D27*
G04 #@! TO.P,J2,2*
G04 #@! TO.N,Net-(IC1-Pad10)*
X113000000Y-55540000D03*
G04 #@! TO.P,J2,3*
G04 #@! TO.N,Net-(C1-Pad1)*
X113000000Y-58080000D03*
G04 #@! TO.P,J2,4*
G04 #@! TO.N,GND*
X113000000Y-60620000D03*
G04 #@! TO.P,J2,5*
G04 #@! TO.N,Net-(IC1-Pad13)*
X113000000Y-63160000D03*
G04 #@! TD*
D28*
G04 #@! TO.P,U1,3*
G04 #@! TO.N,+5V*
X125750000Y-140920000D03*
G04 #@! TO.P,U1,2*
G04 #@! TO.N,GND*
X125750000Y-143460000D03*
D29*
G04 #@! TO.P,U1,1*
G04 #@! TO.N,Net-(C1-Pad1)*
X125750000Y-146000000D03*
G04 #@! TD*
D30*
G04 #@! TO.N,*
X181500000Y-146500000D03*
X88500000Y-146500000D03*
X88500000Y-53500000D03*
D31*
G04 #@! TO.N,Net-(C1-Pad1)*
X108676500Y-102941400D03*
D32*
G04 #@! TO.N,+5V*
X159437100Y-94218400D03*
D31*
G04 #@! TO.N,Net-(IC1-Pad22)*
X146729500Y-61762600D03*
G04 #@! TO.N,Net-(IC1-Pad26)*
X155177200Y-59198400D03*
G04 #@! TO.N,Net-(IC1-Pad31)*
X155428000Y-77522800D03*
X172227000Y-64813700D03*
G04 #@! TO.N,Net-(IC1-Pad33)*
X114768900Y-50646100D03*
G04 #@! TO.N,Net-(IC1-Pad36)*
X182666200Y-86981400D03*
G04 #@! TO.N,Net-(IC1-Pad37)*
X180568100Y-100480200D03*
X180051600Y-69486000D03*
G04 #@! TO.N,Net-(IC1-Pad41)*
X172804700Y-61712000D03*
G04 #@! TO.N,Net-(D7-Pad2)*
X119500000Y-124000000D03*
G04 #@! TO.N,Net-(D4-Pad2)*
X121581700Y-102241100D03*
G04 #@! TO.N,Net-(D3-Pad2)*
X120340700Y-100991300D03*
G04 #@! TO.N,Net-(D2-Pad2)*
X117393800Y-98584100D03*
G04 #@! TO.N,Net-(D5-Pad2)*
X122631300Y-107710000D03*
G04 #@! TO.N,Net-(D6-Pad2)*
X125366000Y-116000000D03*
G04 #@! TD*
D33*
G04 #@! TO.N,Net-(C1-Pad1)*
X161500000Y-107000000D02*
X160199700Y-107000000D01*
X160199700Y-107000000D02*
X158068800Y-109130900D01*
X158068800Y-109130900D02*
X128904400Y-109130900D01*
X128904400Y-109130900D02*
X122714900Y-102941400D01*
X122714900Y-102941400D02*
X108676500Y-102941400D01*
X125750000Y-146000000D02*
X121500000Y-146000000D01*
X121500000Y-146000000D02*
X120000000Y-147500000D01*
D34*
G04 #@! TO.N,GND*
X120000000Y-142500000D02*
X117718700Y-140218700D01*
X117718700Y-140218700D02*
X103031300Y-140218700D01*
X103031300Y-140218700D02*
X101000000Y-142250000D01*
X125750000Y-143460000D02*
X120960000Y-143460000D01*
X120960000Y-143460000D02*
X120000000Y-142500000D01*
X113000000Y-68500000D02*
X105500000Y-68500000D01*
X105500000Y-68500000D02*
X101000000Y-73000000D01*
X90000000Y-132000000D02*
X90000000Y-133900300D01*
X90000000Y-133900300D02*
X97650300Y-133900300D01*
X97650300Y-133900300D02*
X101000000Y-137250000D01*
X165737600Y-104515700D02*
X165737600Y-104737600D01*
X165737600Y-104737600D02*
X177000000Y-116000000D01*
X172000000Y-79000000D02*
X172000000Y-98253300D01*
X172000000Y-98253300D02*
X165737600Y-104515700D01*
X158500300Y-102000000D02*
X158500300Y-102547000D01*
X158500300Y-102547000D02*
X160469000Y-104515700D01*
X160469000Y-104515700D02*
X165737600Y-104515700D01*
X172000000Y-74000000D02*
X172000000Y-79000000D01*
X176630000Y-55080000D02*
X177182600Y-55080000D01*
X177182600Y-55080000D02*
X178531200Y-56428600D01*
X178531200Y-56428600D02*
X178531200Y-67468800D01*
X178531200Y-67468800D02*
X172000000Y-74000000D01*
X159500000Y-124000000D02*
X161780000Y-121720000D01*
X161780000Y-121720000D02*
X181750000Y-121720000D01*
X156500000Y-102000000D02*
X158500300Y-102000000D01*
X138530000Y-55080000D02*
X138530000Y-55178000D01*
X138530000Y-55178000D02*
X133088000Y-60620000D01*
X133088000Y-60620000D02*
X113000000Y-60620000D01*
D33*
X142777501Y-53372499D02*
X143610000Y-52540000D01*
X139662501Y-53947499D02*
X142202501Y-53947499D01*
X142202501Y-53947499D02*
X142777501Y-53372499D01*
X138530000Y-55080000D02*
X139662501Y-53947499D01*
X151460000Y-52540000D02*
X151230000Y-52540000D01*
X152592501Y-51407499D02*
X151460000Y-52540000D01*
X162797499Y-51407499D02*
X152592501Y-51407499D01*
X163930000Y-52540000D02*
X162797499Y-51407499D01*
X167877499Y-51407499D02*
X168177501Y-51707501D01*
X165062501Y-51407499D02*
X167877499Y-51407499D01*
X168177501Y-51707501D02*
X169010000Y-52540000D01*
X163930000Y-52540000D02*
X165062501Y-51407499D01*
D34*
X125780000Y-143460000D02*
X125750000Y-143460000D01*
X132240000Y-137000000D02*
X127750010Y-141489990D01*
X172000000Y-137000000D02*
X132240000Y-137000000D01*
X127750010Y-141728756D02*
X126606256Y-142872510D01*
X127750010Y-141489990D02*
X127750010Y-141728756D01*
X126606256Y-142872510D02*
X126367490Y-142872510D01*
X126367490Y-142872510D02*
X125780000Y-143460000D01*
G04 #@! TO.N,+5V*
X181750000Y-124260000D02*
X181890500Y-124260000D01*
X181890500Y-124260000D02*
X183645500Y-122505000D01*
X183645500Y-122505000D02*
X183645500Y-108256700D01*
X183645500Y-108256700D02*
X181868800Y-106480000D01*
X181868800Y-106480000D02*
X181750000Y-106480000D01*
X113000000Y-73500000D02*
X133718400Y-94218400D01*
X133718400Y-94218400D02*
X159437100Y-94218400D01*
X177000000Y-111000000D02*
X181520000Y-106480000D01*
X181520000Y-106480000D02*
X181750000Y-106480000D01*
X128370000Y-52540000D02*
X130910000Y-52540000D01*
X178760001Y-127249999D02*
X181750000Y-124260000D01*
X175629999Y-127249999D02*
X178760001Y-127249999D01*
X125750000Y-138967200D02*
X130097200Y-134620000D01*
X130097200Y-134620000D02*
X155000000Y-134620000D01*
X167640000Y-134620000D02*
X172819999Y-129440001D01*
X125750000Y-140920000D02*
X125750000Y-138967200D01*
X173439997Y-129440001D02*
X175629999Y-127249999D01*
X172819999Y-129440001D02*
X173439997Y-129440001D01*
X155000000Y-134620000D02*
X167640000Y-134620000D01*
D35*
G04 #@! TO.N,Net-(D1-Pad4)*
X161500000Y-102000000D02*
X161500000Y-99249700D01*
X161500000Y-99249700D02*
X161687400Y-99062300D01*
X161687400Y-99062300D02*
X161687400Y-90999300D01*
X161687400Y-90999300D02*
X154967000Y-84278900D01*
X154967000Y-84278900D02*
X133780500Y-84278900D01*
X133780500Y-84278900D02*
X127050000Y-77548400D01*
X127050000Y-77548400D02*
X127050000Y-75563000D01*
X127050000Y-75563000D02*
X117342000Y-65855000D01*
X117342000Y-65855000D02*
X111935000Y-65855000D01*
X111935000Y-65855000D02*
X104870300Y-58790300D01*
X104870300Y-58790300D02*
X104870300Y-56000000D01*
X102080000Y-56000000D02*
X104870300Y-56000000D01*
G04 #@! TO.N,Net-(D1-Pad2)*
X156500000Y-107000000D02*
X129548600Y-107000000D01*
X129548600Y-107000000D02*
X104759400Y-82210800D01*
X104759400Y-82210800D02*
X101314200Y-82210800D01*
X101314200Y-82210800D02*
X97000000Y-77896600D01*
X97000000Y-77896600D02*
X97000000Y-56000000D01*
D33*
G04 #@! TO.N,Net-(IC1-Pad1)*
X128370000Y-55080000D02*
X129502800Y-55080000D01*
X129502800Y-55080000D02*
X129502800Y-55292400D01*
X129502800Y-55292400D02*
X130445200Y-56234800D01*
X130445200Y-56234800D02*
X133973400Y-56234800D01*
X133973400Y-56234800D02*
X134857100Y-55351100D01*
X134857100Y-55351100D02*
X134857100Y-54527400D01*
X134857100Y-54527400D02*
X135711600Y-53672900D01*
X135711600Y-53672900D02*
X136498100Y-53672900D01*
X136498100Y-53672900D02*
X137260000Y-52911000D01*
X137260000Y-52911000D02*
X137260000Y-52121700D01*
X137260000Y-52121700D02*
X138296600Y-51085100D01*
X138296600Y-51085100D02*
X146371800Y-51085100D01*
X146371800Y-51085100D02*
X147420000Y-52133300D01*
X147420000Y-52133300D02*
X147420000Y-53810000D01*
X147420000Y-53810000D02*
X148690000Y-55080000D01*
G04 #@! TO.N,Net-(IC1-Pad8)*
X113000000Y-53000000D02*
X114150300Y-53000000D01*
X114150300Y-53000000D02*
X116087900Y-51062400D01*
X116087900Y-51062400D02*
X134512400Y-51062400D01*
X134512400Y-51062400D02*
X135990000Y-52540000D01*
G04 #@! TO.N,Net-(IC1-Pad13)*
X113000000Y-63160000D02*
X135530000Y-63160000D01*
X135530000Y-63160000D02*
X143610000Y-55080000D01*
G04 #@! TO.N,Net-(IC1-Pad19)*
X151230000Y-55080000D02*
X142000000Y-64310000D01*
X142000000Y-64310000D02*
X142000000Y-75739700D01*
X142000000Y-76840000D02*
X142000000Y-75739700D01*
G04 #@! TO.N,Net-(IC1-Pad21)*
X146000000Y-75739700D02*
X147429800Y-74309900D01*
X147429800Y-74309900D02*
X147429800Y-61420200D01*
X147429800Y-61420200D02*
X153770000Y-55080000D01*
X146000000Y-76840000D02*
X146000000Y-75739700D01*
G04 #@! TO.N,Net-(IC1-Pad22)*
X153770000Y-52540000D02*
X152637100Y-53672900D01*
X152637100Y-53672900D02*
X152637100Y-55646600D01*
X152637100Y-55646600D02*
X146729500Y-61554200D01*
X146729500Y-61554200D02*
X146729500Y-61762600D01*
G04 #@! TO.N,Net-(IC1-Pad23)*
X150000000Y-76840000D02*
X150000000Y-75739700D01*
X156310000Y-55080000D02*
X149621600Y-61768400D01*
X149621600Y-61768400D02*
X149621600Y-75361300D01*
X149621600Y-75361300D02*
X150000000Y-75739700D01*
G04 #@! TO.N,Net-(IC1-Pad24)*
X154000000Y-76840000D02*
X152899700Y-76840000D01*
X156310000Y-52540000D02*
X155177100Y-53672900D01*
X155177100Y-53672900D02*
X155177100Y-55275100D01*
X155177100Y-55275100D02*
X148897200Y-61555000D01*
X148897200Y-61555000D02*
X148897200Y-77297800D01*
X148897200Y-77297800D02*
X149540700Y-77941300D01*
X149540700Y-77941300D02*
X151798400Y-77941300D01*
X151798400Y-77941300D02*
X152899700Y-76840000D01*
G04 #@! TO.N,Net-(IC1-Pad26)*
X151500000Y-68750000D02*
X151500000Y-66183700D01*
X151500000Y-66183700D02*
X153358400Y-64325300D01*
X153358400Y-64325300D02*
X153358400Y-61017200D01*
X153358400Y-61017200D02*
X155177200Y-59198400D01*
G04 #@! TO.N,Net-(IC1-Pad27)*
X161390000Y-55080000D02*
X157699600Y-58770400D01*
X157699600Y-58770400D02*
X157699600Y-66550400D01*
X157699600Y-66550400D02*
X155500000Y-68750000D01*
G04 #@! TO.N,Net-(IC1-Pad28)*
X161390000Y-52540000D02*
X162565000Y-53715000D01*
X162565000Y-53715000D02*
X162565000Y-60494700D01*
X162565000Y-60494700D02*
X161651700Y-61408000D01*
X161651700Y-61408000D02*
X161651700Y-66598300D01*
X161651700Y-66598300D02*
X159500000Y-68750000D01*
G04 #@! TO.N,Net-(IC1-Pad31)*
X172227000Y-64813700D02*
X159517900Y-77522800D01*
X159517900Y-77522800D02*
X155428000Y-77522800D01*
G04 #@! TO.N,Net-(IC1-Pad33)*
X169010000Y-55080000D02*
X170280000Y-53810000D01*
X170280000Y-53810000D02*
X171965600Y-53810000D01*
X171965600Y-53810000D02*
X172682900Y-53092700D01*
X172682900Y-53092700D02*
X172682900Y-52016700D01*
X172682900Y-52016700D02*
X171312300Y-50646100D01*
X171312300Y-50646100D02*
X114768900Y-50646100D01*
G04 #@! TO.N,MISO*
X100750000Y-106480000D02*
X99565500Y-105295500D01*
X99565500Y-105295500D02*
X99565500Y-103436600D01*
X99565500Y-103436600D02*
X100261200Y-102740900D01*
X100261200Y-102740900D02*
X106208200Y-102740900D01*
X106208200Y-102740900D02*
X107407300Y-103940000D01*
X107407300Y-103940000D02*
X123147200Y-103940000D01*
X123147200Y-103940000D02*
X128796300Y-109589100D01*
X128796300Y-109589100D02*
X168608500Y-109589100D01*
X168608500Y-109589100D02*
X176432300Y-117412900D01*
X176432300Y-117412900D02*
X177576500Y-117412900D01*
X177576500Y-117412900D02*
X178400400Y-116589000D01*
X178400400Y-116589000D02*
X178400400Y-115419900D01*
X178400400Y-115419900D02*
X175593300Y-112612800D01*
X175593300Y-112612800D02*
X175593300Y-110096700D01*
X175593300Y-110096700D02*
X181750000Y-103940000D01*
G04 #@! TO.N,Net-(IC1-Pad36)*
X181750000Y-98860000D02*
X182900400Y-97709600D01*
X182900400Y-97709600D02*
X182900400Y-87215600D01*
X182900400Y-87215600D02*
X182666200Y-86981400D01*
G04 #@! TO.N,Net-(IC1-Pad37)*
X180568100Y-100480200D02*
X179789200Y-99701300D01*
X179789200Y-99701300D02*
X179789200Y-69748400D01*
X179789200Y-69748400D02*
X180051600Y-69486000D01*
G04 #@! TO.N,MOSI*
X100750000Y-108940000D02*
X102341300Y-110531300D01*
X102341300Y-110531300D02*
X168418500Y-110531300D01*
X168418500Y-110531300D02*
X176100700Y-118213500D01*
X176100700Y-118213500D02*
X177908100Y-118213500D01*
X177908100Y-118213500D02*
X180360400Y-115761200D01*
X180360400Y-115761200D02*
X180360400Y-112949600D01*
X180360400Y-112949600D02*
X181750000Y-111560000D01*
G04 #@! TO.N,SCK*
X100750000Y-103940000D02*
X101150300Y-104340300D01*
X101150300Y-104340300D02*
X122981400Y-104340300D01*
X122981400Y-104340300D02*
X128772100Y-110131000D01*
X128772100Y-110131000D02*
X168584300Y-110131000D01*
X168584300Y-110131000D02*
X176266500Y-117813200D01*
X176266500Y-117813200D02*
X177742300Y-117813200D01*
X177742300Y-117813200D02*
X178800700Y-116754800D01*
X178800700Y-116754800D02*
X178800700Y-111969300D01*
X178800700Y-111969300D02*
X181750000Y-109020000D01*
G04 #@! TO.N,Net-(IC1-Pad41)*
X159500000Y-62750000D02*
X159500000Y-65549600D01*
X159500000Y-65549600D02*
X157650000Y-67399600D01*
X157650000Y-67399600D02*
X157650000Y-69449600D01*
X157650000Y-69449600D02*
X158787300Y-70586900D01*
X158787300Y-70586900D02*
X164254400Y-70586900D01*
X164254400Y-70586900D02*
X172804700Y-62036600D01*
X172804700Y-62036600D02*
X172804700Y-61712000D01*
G04 #@! TO.N,Net-(IC1-Pad42)*
X174090000Y-57620000D02*
X163500000Y-68210000D01*
X163500000Y-68210000D02*
X163500000Y-68750000D01*
G04 #@! TO.N,Net-(IC1-Pad43)*
X155500000Y-62750000D02*
X153659900Y-64590100D01*
X153659900Y-64590100D02*
X153659900Y-69467600D01*
X153659900Y-69467600D02*
X155179500Y-70987200D01*
X155179500Y-70987200D02*
X164519900Y-70987200D01*
X164519900Y-70987200D02*
X174090000Y-61417100D01*
X174090000Y-61417100D02*
X174090000Y-61292800D01*
X174090000Y-60160000D02*
X174090000Y-61292800D01*
G04 #@! TO.N,Net-(IC1-Pad44)*
X176630000Y-60160000D02*
X175360000Y-58890000D01*
X175360000Y-58890000D02*
X175360000Y-57234100D01*
X175360000Y-57234100D02*
X174586400Y-56460500D01*
X174586400Y-56460500D02*
X169789500Y-56460500D01*
X169789500Y-56460500D02*
X163500000Y-62750000D01*
G04 #@! TO.N,Net-(D7-Pad2)*
X92540000Y-124000000D02*
X119500000Y-124000000D01*
G04 #@! TO.N,Net-(D4-Pad2)*
X92540000Y-100000000D02*
X94781100Y-102241100D01*
X94781100Y-102241100D02*
X121581700Y-102241100D01*
G04 #@! TO.N,Net-(D3-Pad2)*
X120340700Y-100991300D02*
X101531300Y-100991300D01*
X101531300Y-100991300D02*
X92540000Y-92000000D01*
G04 #@! TO.N,Net-(D2-Pad2)*
X117393800Y-98584100D02*
X107124100Y-98584100D01*
X107124100Y-98584100D02*
X92540000Y-84000000D01*
G04 #@! TO.N,Net-(D5-Pad2)*
X92540000Y-108000000D02*
X92830000Y-107710000D01*
X92830000Y-107710000D02*
X122631300Y-107710000D01*
G04 #@! TO.N,Net-(D6-Pad2)*
X92540000Y-116000000D02*
X125366000Y-116000000D01*
G04 #@! TD*
M02*
