G04 #@! TF.GenerationSoftware,KiCad,Pcbnew,5.0.1*
G04 #@! TF.CreationDate,2019-02-23T16:19:39+01:00*
G04 #@! TF.ProjectId,display,646973706C61792E6B696361645F7063,rev?*
G04 #@! TF.SameCoordinates,Original*
G04 #@! TF.FileFunction,Copper,L2,Bot,Signal*
G04 #@! TF.FilePolarity,Positive*
%FSLAX46Y46*%
G04 Gerber Fmt 4.6, Leading zero omitted, Abs format (unit mm)*
G04 Created by KiCad (PCBNEW 5.0.1) date Sat 23 Feb 2019 16:19:39 CET*
%MOMM*%
%LPD*%
G01*
G04 APERTURE LIST*
G04 #@! TA.AperFunction,ComponentPad*
%ADD10C,2.000000*%
G04 #@! TD*
G04 #@! TA.AperFunction,ComponentPad*
%ADD11C,1.700000*%
G04 #@! TD*
G04 #@! TA.AperFunction,ComponentPad*
%ADD12C,1.600000*%
G04 #@! TD*
G04 #@! TA.AperFunction,ComponentPad*
%ADD13R,1.800000X1.800000*%
G04 #@! TD*
G04 #@! TA.AperFunction,ComponentPad*
%ADD14C,1.800000*%
G04 #@! TD*
G04 #@! TA.AperFunction,ComponentPad*
%ADD15O,1.600000X1.600000*%
G04 #@! TD*
G04 #@! TA.AperFunction,ComponentPad*
%ADD16C,3.000000*%
G04 #@! TD*
G04 #@! TA.AperFunction,ComponentPad*
%ADD17R,2.400000X2.400000*%
G04 #@! TD*
G04 #@! TA.AperFunction,ComponentPad*
%ADD18C,2.400000*%
G04 #@! TD*
G04 #@! TA.AperFunction,ComponentPad*
%ADD19O,2.000000X2.000000*%
G04 #@! TD*
G04 #@! TA.AperFunction,ComponentPad*
%ADD20R,2.000000X2.000000*%
G04 #@! TD*
G04 #@! TA.AperFunction,ComponentPad*
%ADD21C,1.665000*%
G04 #@! TD*
G04 #@! TA.AperFunction,ComponentPad*
%ADD22R,1.665000X1.665000*%
G04 #@! TD*
G04 #@! TA.AperFunction,Conductor*
%ADD23C,0.100000*%
G04 #@! TD*
G04 #@! TA.AperFunction,ComponentPad*
%ADD24C,2.080000*%
G04 #@! TD*
G04 #@! TA.AperFunction,ComponentPad*
%ADD25O,2.080000X3.600000*%
G04 #@! TD*
G04 #@! TA.AperFunction,ComponentPad*
%ADD26R,1.700000X1.700000*%
G04 #@! TD*
G04 #@! TA.AperFunction,ComponentPad*
%ADD27O,1.700000X1.700000*%
G04 #@! TD*
G04 #@! TA.AperFunction,ComponentPad*
%ADD28R,2.000000X1.905000*%
G04 #@! TD*
G04 #@! TA.AperFunction,ComponentPad*
%ADD29O,2.000000X1.905000*%
G04 #@! TD*
G04 #@! TA.AperFunction,ViaPad*
%ADD30C,0.800000*%
G04 #@! TD*
G04 #@! TA.AperFunction,ViaPad*
%ADD31C,1.000000*%
G04 #@! TD*
G04 #@! TA.AperFunction,Conductor*
%ADD32C,0.200000*%
G04 #@! TD*
G04 #@! TA.AperFunction,Conductor*
%ADD33C,1.000000*%
G04 #@! TD*
G04 APERTURE END LIST*
D10*
G04 #@! TO.P,SW3,1*
G04 #@! TO.N,GND*
X101000000Y-137250000D03*
G04 #@! TO.P,SW3,2*
G04 #@! TO.N,Net-(IC1-Pad31)*
X106000000Y-137250000D03*
G04 #@! TO.P,SW3,4*
X106000000Y-142250000D03*
G04 #@! TO.P,SW3,3*
G04 #@! TO.N,GND*
X101000000Y-142250000D03*
G04 #@! TD*
D11*
G04 #@! TO.P,TFT1,1*
G04 #@! TO.N,Net-(IC1-Pad15)*
X181750000Y-91240000D03*
G04 #@! TO.P,TFT1,2*
G04 #@! TO.N,Net-(IC1-Pad16)*
X181750000Y-93780000D03*
G04 #@! TO.P,TFT1,3*
G04 #@! TO.N,Net-(IC1-Pad18)*
X181750000Y-96320000D03*
G04 #@! TO.P,TFT1,4*
G04 #@! TO.N,Net-(IC1-Pad36)*
X181750000Y-98860000D03*
G04 #@! TO.P,TFT1,5*
G04 #@! TO.N,SCK*
X181750000Y-101400000D03*
G04 #@! TO.P,TFT1,6*
G04 #@! TO.N,MISO*
X181750000Y-103940000D03*
G04 #@! TO.P,TFT1,7*
G04 #@! TO.N,+5V*
X181750000Y-106480000D03*
G04 #@! TO.P,TFT1,8*
G04 #@! TO.N,SCK*
X181750000Y-109020000D03*
G04 #@! TO.P,TFT1,11*
G04 #@! TO.N,Net-(IC1-Pad22)*
X181750000Y-116640000D03*
G04 #@! TO.P,TFT1,10*
G04 #@! TO.N,Net-(IC1-Pad37)*
X181750000Y-114100000D03*
G04 #@! TO.P,TFT1,13*
G04 #@! TO.N,GND*
X181750000Y-121720000D03*
G04 #@! TO.P,TFT1,12*
G04 #@! TO.N,Net-(IC1-Pad12)*
X181750000Y-119180000D03*
G04 #@! TO.P,TFT1,9*
G04 #@! TO.N,MOSI*
X181750000Y-111560000D03*
G04 #@! TO.P,TFT1,14*
G04 #@! TO.N,+5V*
X181750000Y-124260000D03*
G04 #@! TO.P,TFT1,17*
G04 #@! TO.N,MISO*
X100750000Y-106480000D03*
G04 #@! TO.P,TFT1,18*
G04 #@! TO.N,SCK*
X100750000Y-103940000D03*
G04 #@! TO.P,TFT1,15*
G04 #@! TO.N,Net-(IC1-Pad11)*
X100750000Y-111480000D03*
G04 #@! TO.P,TFT1,16*
G04 #@! TO.N,MOSI*
X100750000Y-108940000D03*
G04 #@! TD*
D12*
G04 #@! TO.P,C2,1*
G04 #@! TO.N,Net-(C1-Pad1)*
X120000000Y-147500000D03*
G04 #@! TO.P,C2,2*
G04 #@! TO.N,GND*
X120000000Y-142500000D03*
G04 #@! TD*
D13*
G04 #@! TO.P,D7,1*
G04 #@! TO.N,GND*
X90000000Y-124000000D03*
D14*
G04 #@! TO.P,D7,2*
G04 #@! TO.N,Net-(D7-Pad2)*
X92540000Y-124000000D03*
G04 #@! TD*
G04 #@! TO.P,D2,2*
G04 #@! TO.N,Net-(D2-Pad2)*
X92540000Y-84000000D03*
D13*
G04 #@! TO.P,D2,1*
G04 #@! TO.N,GND*
X90000000Y-84000000D03*
G04 #@! TD*
G04 #@! TO.P,D3,1*
G04 #@! TO.N,GND*
X90000000Y-92000000D03*
D14*
G04 #@! TO.P,D3,2*
G04 #@! TO.N,Net-(D3-Pad2)*
X92540000Y-92000000D03*
G04 #@! TD*
G04 #@! TO.P,D4,2*
G04 #@! TO.N,Net-(D4-Pad2)*
X92540000Y-100000000D03*
D13*
G04 #@! TO.P,D4,1*
G04 #@! TO.N,GND*
X90000000Y-100000000D03*
G04 #@! TD*
G04 #@! TO.P,D6,1*
G04 #@! TO.N,GND*
X90000000Y-116000000D03*
D14*
G04 #@! TO.P,D6,2*
G04 #@! TO.N,Net-(D6-Pad2)*
X92540000Y-116000000D03*
G04 #@! TD*
G04 #@! TO.P,D5,2*
G04 #@! TO.N,Net-(D5-Pad2)*
X92540000Y-108000000D03*
D13*
G04 #@! TO.P,D5,1*
G04 #@! TO.N,GND*
X90000000Y-108000000D03*
G04 #@! TD*
G04 #@! TO.P,D8,1*
G04 #@! TO.N,GND*
X90000000Y-132000000D03*
D14*
G04 #@! TO.P,D8,2*
G04 #@! TO.N,Net-(D8-Pad2)*
X92540000Y-132000000D03*
G04 #@! TD*
D12*
G04 #@! TO.P,R7,1*
G04 #@! TO.N,Net-(D8-Pad2)*
X154000000Y-87000000D03*
D15*
G04 #@! TO.P,R7,2*
G04 #@! TO.N,Net-(IC1-Pad24)*
X154000000Y-76840000D03*
G04 #@! TD*
G04 #@! TO.P,R5,2*
G04 #@! TO.N,Net-(IC1-Pad21)*
X146000000Y-76840000D03*
D12*
G04 #@! TO.P,R5,1*
G04 #@! TO.N,Net-(D6-Pad2)*
X146000000Y-87000000D03*
G04 #@! TD*
G04 #@! TO.P,R4,1*
G04 #@! TO.N,Net-(D5-Pad2)*
X142000000Y-87000000D03*
D15*
G04 #@! TO.P,R4,2*
G04 #@! TO.N,Net-(IC1-Pad19)*
X142000000Y-76840000D03*
G04 #@! TD*
G04 #@! TO.P,R1,2*
G04 #@! TO.N,Net-(IC1-Pad3)*
X130000000Y-76840000D03*
D12*
G04 #@! TO.P,R1,1*
G04 #@! TO.N,Net-(D2-Pad2)*
X130000000Y-87000000D03*
G04 #@! TD*
G04 #@! TO.P,R2,1*
G04 #@! TO.N,Net-(D3-Pad2)*
X134000000Y-87000000D03*
D15*
G04 #@! TO.P,R2,2*
G04 #@! TO.N,Net-(IC1-Pad5)*
X134000000Y-76840000D03*
G04 #@! TD*
G04 #@! TO.P,R3,2*
G04 #@! TO.N,Net-(IC1-Pad7)*
X138000000Y-76840000D03*
D12*
G04 #@! TO.P,R3,1*
G04 #@! TO.N,Net-(D4-Pad2)*
X138000000Y-87000000D03*
G04 #@! TD*
G04 #@! TO.P,R6,1*
G04 #@! TO.N,Net-(D7-Pad2)*
X150000000Y-87000000D03*
D15*
G04 #@! TO.P,R6,2*
G04 #@! TO.N,Net-(IC1-Pad23)*
X150000000Y-76840000D03*
G04 #@! TD*
D16*
G04 #@! TO.P,TP14,1*
G04 #@! TO.N,Net-(IC1-Pad43)*
X155500000Y-62750000D03*
G04 #@! TD*
G04 #@! TO.P,TP13,1*
G04 #@! TO.N,Net-(IC1-Pad42)*
X163500000Y-68750000D03*
G04 #@! TD*
G04 #@! TO.P,TP12,1*
G04 #@! TO.N,Net-(IC1-Pad41)*
X159500000Y-62750000D03*
G04 #@! TD*
G04 #@! TO.P,TP11,1*
G04 #@! TO.N,Net-(IC1-Pad28)*
X159500000Y-68750000D03*
G04 #@! TD*
G04 #@! TO.P,TP10,1*
G04 #@! TO.N,Net-(IC1-Pad27)*
X155500000Y-68750000D03*
G04 #@! TD*
G04 #@! TO.P,TP9,1*
G04 #@! TO.N,Net-(IC1-Pad26)*
X151500000Y-68750000D03*
G04 #@! TD*
G04 #@! TO.P,TP1,1*
G04 #@! TO.N,Net-(IC1-Pad1)*
X151500000Y-62750000D03*
G04 #@! TD*
G04 #@! TO.P,TP15,1*
G04 #@! TO.N,Net-(IC1-Pad44)*
X163500000Y-62750000D03*
G04 #@! TD*
D10*
G04 #@! TO.P,SW4,3*
G04 #@! TO.N,GND*
X172000000Y-142000000D03*
G04 #@! TO.P,SW4,4*
G04 #@! TO.N,Net-(IC1-Pad29)*
X177000000Y-142000000D03*
G04 #@! TO.P,SW4,2*
X177000000Y-137000000D03*
G04 #@! TO.P,SW4,1*
G04 #@! TO.N,GND*
X172000000Y-137000000D03*
G04 #@! TD*
G04 #@! TO.P,SW2,3*
G04 #@! TO.N,GND*
X172000000Y-79000000D03*
G04 #@! TO.P,SW2,4*
G04 #@! TO.N,Net-(IC1-Pad32)*
X177000000Y-79000000D03*
G04 #@! TO.P,SW2,2*
X177000000Y-74000000D03*
G04 #@! TO.P,SW2,1*
G04 #@! TO.N,GND*
X172000000Y-74000000D03*
G04 #@! TD*
G04 #@! TO.P,SW1,1*
G04 #@! TO.N,GND*
X101000000Y-73000000D03*
G04 #@! TO.P,SW1,2*
G04 #@! TO.N,Net-(IC1-Pad33)*
X106000000Y-73000000D03*
G04 #@! TO.P,SW1,4*
X106000000Y-78000000D03*
G04 #@! TO.P,SW1,3*
G04 #@! TO.N,GND*
X101000000Y-78000000D03*
G04 #@! TD*
D17*
G04 #@! TO.P,C1,1*
G04 #@! TO.N,Net-(C1-Pad1)*
X159500000Y-119000000D03*
D18*
G04 #@! TO.P,C1,2*
G04 #@! TO.N,GND*
X159500000Y-124000000D03*
G04 #@! TD*
D12*
G04 #@! TO.P,C3,2*
G04 #@! TO.N,GND*
X177000000Y-116000000D03*
G04 #@! TO.P,C3,1*
G04 #@! TO.N,+5V*
X177000000Y-111000000D03*
G04 #@! TD*
G04 #@! TO.P,C4,1*
G04 #@! TO.N,+5V*
X113000000Y-73500000D03*
G04 #@! TO.P,C4,2*
G04 #@! TO.N,GND*
X113000000Y-68500000D03*
G04 #@! TD*
D19*
G04 #@! TO.P,D1,4*
G04 #@! TO.N,Net-(D1-Pad4)*
X161500000Y-102000000D03*
G04 #@! TO.P,D1,2*
G04 #@! TO.N,Net-(D1-Pad2)*
X156500000Y-107000000D03*
G04 #@! TO.P,D1,3*
G04 #@! TO.N,GND*
X156500000Y-102000000D03*
D20*
G04 #@! TO.P,D1,1*
G04 #@! TO.N,Net-(C1-Pad1)*
X161500000Y-107000000D03*
G04 #@! TD*
D21*
G04 #@! TO.P,IC1,44*
G04 #@! TO.N,Net-(IC1-Pad44)*
X176630000Y-60160000D03*
D22*
G04 #@! TO.P,IC1,43*
G04 #@! TO.N,Net-(IC1-Pad43)*
X174090000Y-60160000D03*
D21*
G04 #@! TO.P,IC1,42*
G04 #@! TO.N,Net-(IC1-Pad42)*
X174090000Y-57620000D03*
D22*
G04 #@! TO.P,IC1,41*
G04 #@! TO.N,Net-(IC1-Pad41)*
X176630000Y-57620000D03*
D21*
G04 #@! TO.P,IC1,40*
G04 #@! TO.N,SCK*
X176630000Y-52540000D03*
G04 #@! TO.P,IC1,39*
G04 #@! TO.N,GND*
X176630000Y-55080000D03*
G04 #@! TO.P,IC1,38*
G04 #@! TO.N,MOSI*
X174090000Y-52540000D03*
G04 #@! TO.P,IC1,37*
G04 #@! TO.N,Net-(IC1-Pad37)*
X174090000Y-55080000D03*
G04 #@! TO.P,IC1,36*
G04 #@! TO.N,Net-(IC1-Pad36)*
X171550000Y-52540000D03*
G04 #@! TO.P,IC1,35*
G04 #@! TO.N,MISO*
X171550000Y-55080000D03*
G04 #@! TO.P,IC1,34*
G04 #@! TO.N,GND*
X169010000Y-52540000D03*
G04 #@! TO.P,IC1,33*
G04 #@! TO.N,Net-(IC1-Pad33)*
X169010000Y-55080000D03*
G04 #@! TO.P,IC1,32*
G04 #@! TO.N,Net-(IC1-Pad32)*
X166470000Y-52540000D03*
G04 #@! TO.P,IC1,31*
G04 #@! TO.N,Net-(IC1-Pad31)*
X166470000Y-55080000D03*
G04 #@! TO.P,IC1,30*
G04 #@! TO.N,GND*
X163930000Y-52540000D03*
G04 #@! TO.P,IC1,29*
G04 #@! TO.N,Net-(IC1-Pad29)*
X163930000Y-55080000D03*
G04 #@! TO.P,IC1,28*
G04 #@! TO.N,Net-(IC1-Pad28)*
X161390000Y-52540000D03*
G04 #@! TO.P,IC1,27*
G04 #@! TO.N,Net-(IC1-Pad27)*
X161390000Y-55080000D03*
G04 #@! TO.P,IC1,26*
G04 #@! TO.N,Net-(IC1-Pad26)*
X158850000Y-52540000D03*
G04 #@! TO.P,IC1,25*
G04 #@! TO.N,GND*
X158850000Y-55080000D03*
G04 #@! TO.P,IC1,24*
G04 #@! TO.N,Net-(IC1-Pad24)*
X156310000Y-52540000D03*
G04 #@! TO.P,IC1,23*
G04 #@! TO.N,Net-(IC1-Pad23)*
X156310000Y-55080000D03*
G04 #@! TO.P,IC1,22*
G04 #@! TO.N,Net-(IC1-Pad22)*
X153770000Y-52540000D03*
G04 #@! TO.P,IC1,21*
G04 #@! TO.N,Net-(IC1-Pad21)*
X153770000Y-55080000D03*
G04 #@! TO.P,IC1,20*
G04 #@! TO.N,GND*
X151230000Y-52540000D03*
G04 #@! TO.P,IC1,19*
G04 #@! TO.N,Net-(IC1-Pad19)*
X151230000Y-55080000D03*
G04 #@! TO.P,IC1,18*
G04 #@! TO.N,Net-(IC1-Pad18)*
X148690000Y-52540000D03*
G04 #@! TO.P,IC1,17*
G04 #@! TO.N,Net-(IC1-Pad1)*
X148690000Y-55080000D03*
G04 #@! TO.P,IC1,16*
G04 #@! TO.N,Net-(IC1-Pad16)*
X146150000Y-52540000D03*
G04 #@! TO.P,IC1,15*
G04 #@! TO.N,Net-(IC1-Pad15)*
X146150000Y-55080000D03*
G04 #@! TO.P,IC1,14*
G04 #@! TO.N,GND*
X143610000Y-52540000D03*
G04 #@! TO.P,IC1,13*
G04 #@! TO.N,Net-(IC1-Pad13)*
X143610000Y-55080000D03*
G04 #@! TO.P,IC1,12*
G04 #@! TO.N,Net-(IC1-Pad12)*
X141070000Y-52540000D03*
G04 #@! TO.P,IC1,11*
G04 #@! TO.N,Net-(IC1-Pad11)*
X141070000Y-55080000D03*
G04 #@! TO.P,IC1,10*
G04 #@! TO.N,Net-(IC1-Pad10)*
X138530000Y-52540000D03*
G04 #@! TO.P,IC1,9*
G04 #@! TO.N,GND*
X138530000Y-55080000D03*
G04 #@! TO.P,IC1,8*
G04 #@! TO.N,Net-(IC1-Pad8)*
X135990000Y-52540000D03*
G04 #@! TO.P,IC1,7*
G04 #@! TO.N,Net-(IC1-Pad7)*
X135990000Y-55080000D03*
G04 #@! TO.P,IC1,6*
G04 #@! TO.N,GND*
X133450000Y-52540000D03*
G04 #@! TO.P,IC1,5*
G04 #@! TO.N,Net-(IC1-Pad5)*
X133450000Y-55080000D03*
G04 #@! TO.P,IC1,4*
G04 #@! TO.N,+5V*
X130910000Y-52540000D03*
G04 #@! TO.P,IC1,3*
G04 #@! TO.N,Net-(IC1-Pad3)*
X130910000Y-55080000D03*
G04 #@! TO.P,IC1,2*
G04 #@! TO.N,+5V*
X128370000Y-52540000D03*
D22*
G04 #@! TO.P,IC1,1*
G04 #@! TO.N,Net-(IC1-Pad1)*
X128370000Y-55080000D03*
G04 #@! TD*
D23*
G04 #@! TO.N,Net-(D1-Pad2)*
G04 #@! TO.C,J1*
G36*
X97814505Y-54201204D02*
X97838773Y-54204804D01*
X97862572Y-54210765D01*
X97885671Y-54219030D01*
X97907850Y-54229520D01*
X97928893Y-54242132D01*
X97948599Y-54256747D01*
X97966777Y-54273223D01*
X97983253Y-54291401D01*
X97997868Y-54311107D01*
X98010480Y-54332150D01*
X98020970Y-54354329D01*
X98029235Y-54377428D01*
X98035196Y-54401227D01*
X98038796Y-54425495D01*
X98040000Y-54449999D01*
X98040000Y-57550001D01*
X98038796Y-57574505D01*
X98035196Y-57598773D01*
X98029235Y-57622572D01*
X98020970Y-57645671D01*
X98010480Y-57667850D01*
X97997868Y-57688893D01*
X97983253Y-57708599D01*
X97966777Y-57726777D01*
X97948599Y-57743253D01*
X97928893Y-57757868D01*
X97907850Y-57770480D01*
X97885671Y-57780970D01*
X97862572Y-57789235D01*
X97838773Y-57795196D01*
X97814505Y-57798796D01*
X97790001Y-57800000D01*
X96209999Y-57800000D01*
X96185495Y-57798796D01*
X96161227Y-57795196D01*
X96137428Y-57789235D01*
X96114329Y-57780970D01*
X96092150Y-57770480D01*
X96071107Y-57757868D01*
X96051401Y-57743253D01*
X96033223Y-57726777D01*
X96016747Y-57708599D01*
X96002132Y-57688893D01*
X95989520Y-57667850D01*
X95979030Y-57645671D01*
X95970765Y-57622572D01*
X95964804Y-57598773D01*
X95961204Y-57574505D01*
X95960000Y-57550001D01*
X95960000Y-54449999D01*
X95961204Y-54425495D01*
X95964804Y-54401227D01*
X95970765Y-54377428D01*
X95979030Y-54354329D01*
X95989520Y-54332150D01*
X96002132Y-54311107D01*
X96016747Y-54291401D01*
X96033223Y-54273223D01*
X96051401Y-54256747D01*
X96071107Y-54242132D01*
X96092150Y-54229520D01*
X96114329Y-54219030D01*
X96137428Y-54210765D01*
X96161227Y-54204804D01*
X96185495Y-54201204D01*
X96209999Y-54200000D01*
X97790001Y-54200000D01*
X97814505Y-54201204D01*
X97814505Y-54201204D01*
G37*
D24*
G04 #@! TD*
G04 #@! TO.P,J1,1*
G04 #@! TO.N,Net-(D1-Pad2)*
X97000000Y-56000000D03*
D25*
G04 #@! TO.P,J1,2*
G04 #@! TO.N,Net-(D1-Pad4)*
X102080000Y-56000000D03*
G04 #@! TD*
D26*
G04 #@! TO.P,J2,1*
G04 #@! TO.N,Net-(IC1-Pad8)*
X113000000Y-53000000D03*
D27*
G04 #@! TO.P,J2,2*
G04 #@! TO.N,Net-(IC1-Pad10)*
X113000000Y-55540000D03*
G04 #@! TO.P,J2,3*
G04 #@! TO.N,Net-(C1-Pad1)*
X113000000Y-58080000D03*
G04 #@! TO.P,J2,4*
G04 #@! TO.N,GND*
X113000000Y-60620000D03*
G04 #@! TO.P,J2,5*
G04 #@! TO.N,Net-(IC1-Pad13)*
X113000000Y-63160000D03*
G04 #@! TD*
D28*
G04 #@! TO.P,U1,1*
G04 #@! TO.N,Net-(C1-Pad1)*
X125750000Y-146000000D03*
D29*
G04 #@! TO.P,U1,2*
G04 #@! TO.N,GND*
X125750000Y-143460000D03*
G04 #@! TO.P,U1,3*
G04 #@! TO.N,+5V*
X125750000Y-140920000D03*
G04 #@! TD*
D30*
G04 #@! TO.N,Net-(C1-Pad1)*
X108676500Y-102941400D03*
D31*
G04 #@! TO.N,+5V*
X159437100Y-94218400D03*
D30*
G04 #@! TO.N,Net-(IC1-Pad22)*
X146729500Y-61762600D03*
G04 #@! TO.N,Net-(IC1-Pad26)*
X155177200Y-59198400D03*
G04 #@! TO.N,Net-(IC1-Pad31)*
X155428000Y-77522800D03*
X172227000Y-64813700D03*
G04 #@! TO.N,Net-(IC1-Pad33)*
X114768900Y-50646100D03*
G04 #@! TO.N,Net-(IC1-Pad36)*
X182666200Y-86981400D03*
G04 #@! TO.N,Net-(IC1-Pad37)*
X180568100Y-100480200D03*
X180051600Y-69486000D03*
G04 #@! TO.N,Net-(IC1-Pad41)*
X172804700Y-61712000D03*
G04 #@! TO.N,Net-(D7-Pad2)*
X124768900Y-124000000D03*
G04 #@! TO.N,Net-(D4-Pad2)*
X121581700Y-102241100D03*
G04 #@! TO.N,Net-(D3-Pad2)*
X120340700Y-100991300D03*
G04 #@! TO.N,Net-(D2-Pad2)*
X117393800Y-98584100D03*
G04 #@! TO.N,Net-(D5-Pad2)*
X122631300Y-107710000D03*
G04 #@! TO.N,Net-(D6-Pad2)*
X125366000Y-116000000D03*
G04 #@! TD*
D32*
G04 #@! TO.N,Net-(C1-Pad1)*
X108676500Y-102941400D02*
X108676500Y-62403500D01*
X108676500Y-62403500D02*
X113000000Y-58080000D01*
X159500000Y-118249800D02*
X153500200Y-118249800D01*
X153500200Y-118249800D02*
X125750000Y-146000000D01*
X159500000Y-118249800D02*
X159500000Y-117499700D01*
X159500000Y-119000000D02*
X159500000Y-118249800D01*
X161500000Y-107000000D02*
X161500000Y-115499700D01*
X161500000Y-115499700D02*
X159500000Y-117499700D01*
D33*
G04 #@! TO.N,GND*
X158850000Y-55080000D02*
X158850000Y-55205800D01*
X158850000Y-55205800D02*
X160792500Y-57148300D01*
X160792500Y-57148300D02*
X161503300Y-57148300D01*
X161503300Y-57148300D02*
X172000000Y-67645000D01*
X172000000Y-67645000D02*
X172000000Y-74000000D01*
X101000000Y-142250000D02*
X101000000Y-137250000D01*
X101000000Y-78000000D02*
X94099700Y-78000000D01*
X94099700Y-78000000D02*
X90000000Y-82099700D01*
X90000000Y-84000000D02*
X90000000Y-82099700D01*
X101000000Y-78000000D02*
X101000000Y-73000000D01*
X90000000Y-116000000D02*
X90000000Y-124000000D01*
X90000000Y-108000000D02*
X90000000Y-116000000D01*
X90000000Y-100000000D02*
X90000000Y-92000000D01*
X90000000Y-108000000D02*
X90000000Y-100000000D01*
X90000000Y-132000000D02*
X90000000Y-124000000D01*
X90000000Y-84000000D02*
X90000000Y-92000000D01*
X181460400Y-121520900D02*
X181659500Y-121720000D01*
X181659500Y-121720000D02*
X181750000Y-121720000D01*
X177000000Y-116000000D02*
X177000000Y-117060500D01*
X177000000Y-117060500D02*
X181460400Y-121520900D01*
X172000000Y-137000000D02*
X172000000Y-130981300D01*
X172000000Y-130981300D02*
X181460400Y-121520900D01*
X172000000Y-142000000D02*
X172000000Y-137000000D01*
X113000000Y-60620000D02*
X114850300Y-60620000D01*
X114850300Y-60620000D02*
X114850300Y-66649700D01*
X114850300Y-66649700D02*
X113000000Y-68500000D01*
D32*
X137697501Y-54247501D02*
X138530000Y-55080000D01*
X137122501Y-53672501D02*
X137697501Y-54247501D01*
X134582501Y-53672501D02*
X137122501Y-53672501D01*
X133450000Y-52540000D02*
X134582501Y-53672501D01*
X162522501Y-53947499D02*
X163097501Y-53372499D01*
X159982501Y-53947499D02*
X162522501Y-53947499D01*
X163097501Y-53372499D02*
X163930000Y-52540000D01*
X158850000Y-55080000D02*
X159982501Y-53947499D01*
D33*
G04 #@! TO.N,+5V*
X159437100Y-94218400D02*
X160218400Y-94218400D01*
X160218400Y-94218400D02*
X177000000Y-111000000D01*
X128370000Y-52540000D02*
X127826300Y-52540000D01*
X127826300Y-52540000D02*
X126537100Y-53829200D01*
X126537100Y-53829200D02*
X126537100Y-59962900D01*
X126537100Y-59962900D02*
X113000000Y-73500000D01*
D32*
G04 #@! TO.N,Net-(IC1-Pad1)*
X151500000Y-62750000D02*
X148690000Y-59940000D01*
X148690000Y-59940000D02*
X148690000Y-55080000D01*
G04 #@! TO.N,Net-(IC1-Pad3)*
X130000000Y-76840000D02*
X130000000Y-75739700D01*
X130910000Y-55080000D02*
X130910000Y-74829700D01*
X130910000Y-74829700D02*
X130000000Y-75739700D01*
G04 #@! TO.N,Net-(IC1-Pad5)*
X134000000Y-76840000D02*
X134000000Y-75739700D01*
X133450000Y-55080000D02*
X133450000Y-75189700D01*
X133450000Y-75189700D02*
X134000000Y-75739700D01*
G04 #@! TO.N,Net-(IC1-Pad7)*
X138000000Y-76840000D02*
X138000000Y-75739700D01*
X135990000Y-55080000D02*
X135990000Y-73729700D01*
X135990000Y-73729700D02*
X138000000Y-75739700D01*
G04 #@! TO.N,Net-(IC1-Pad10)*
X113000000Y-55540000D02*
X117641500Y-55540000D01*
X117641500Y-55540000D02*
X122086700Y-51094800D01*
X122086700Y-51094800D02*
X137084800Y-51094800D01*
X137084800Y-51094800D02*
X138530000Y-52540000D01*
G04 #@! TO.N,Net-(IC1-Pad11)*
X100750000Y-111480000D02*
X101128300Y-111480000D01*
X101128300Y-111480000D02*
X134425000Y-78183300D01*
X134425000Y-78183300D02*
X138309900Y-78183300D01*
X138309900Y-78183300D02*
X141070000Y-75423200D01*
X141070000Y-75423200D02*
X141070000Y-55080000D01*
G04 #@! TO.N,Net-(IC1-Pad12)*
X141070000Y-52540000D02*
X142340000Y-53810000D01*
X142340000Y-53810000D02*
X142340000Y-63314100D01*
X142340000Y-63314100D02*
X178674700Y-99648800D01*
X178674700Y-99648800D02*
X178674700Y-116104700D01*
X178674700Y-116104700D02*
X181750000Y-119180000D01*
G04 #@! TO.N,Net-(IC1-Pad15)*
X181750000Y-91240000D02*
X179384900Y-91240000D01*
X179384900Y-91240000D02*
X157500100Y-69355200D01*
X157500100Y-69355200D02*
X157500100Y-68175100D01*
X157500100Y-68175100D02*
X154304200Y-64979200D01*
X154304200Y-64979200D02*
X151114100Y-64979200D01*
X151114100Y-64979200D02*
X147830100Y-61695200D01*
X147830100Y-61695200D02*
X147830100Y-56760100D01*
X147830100Y-56760100D02*
X146150000Y-55080000D01*
G04 #@! TO.N,Net-(IC1-Pad16)*
X181750000Y-93780000D02*
X177928700Y-93780000D01*
X177928700Y-93780000D02*
X153500100Y-69351400D01*
X153500100Y-69351400D02*
X153500100Y-67931200D01*
X153500100Y-67931200D02*
X153500000Y-67931200D01*
X153500000Y-67931200D02*
X147429800Y-61861000D01*
X147429800Y-61861000D02*
X147429800Y-61472500D01*
X147429800Y-61472500D02*
X145010300Y-59053000D01*
X145010300Y-59053000D02*
X145010300Y-53679700D01*
X145010300Y-53679700D02*
X146150000Y-52540000D01*
G04 #@! TO.N,Net-(IC1-Pad18)*
X148690000Y-52540000D02*
X149960000Y-53810000D01*
X149960000Y-53810000D02*
X149960000Y-55483200D01*
X149960000Y-55483200D02*
X155058100Y-60581300D01*
X155058100Y-60581300D02*
X155977600Y-60581300D01*
X155977600Y-60581300D02*
X157442900Y-62046600D01*
X157442900Y-62046600D02*
X157442900Y-63255900D01*
X157442900Y-63255900D02*
X161500000Y-67313000D01*
X161500000Y-67313000D02*
X161500000Y-70808700D01*
X161500000Y-70808700D02*
X172533800Y-81842500D01*
X172533800Y-81842500D02*
X175535800Y-81842500D01*
X175535800Y-81842500D02*
X182920500Y-89227200D01*
X182920500Y-89227200D02*
X182920500Y-95149500D01*
X182920500Y-95149500D02*
X181750000Y-96320000D01*
G04 #@! TO.N,Net-(IC1-Pad22)*
X146729500Y-61762600D02*
X146729500Y-67031800D01*
X146729500Y-67031800D02*
X179075000Y-99377300D01*
X179075000Y-99377300D02*
X179075000Y-113965000D01*
X179075000Y-113965000D02*
X181750000Y-116640000D01*
G04 #@! TO.N,Net-(IC1-Pad26)*
X158850000Y-52540000D02*
X157580000Y-53810000D01*
X157580000Y-53810000D02*
X155894500Y-53810000D01*
X155894500Y-53810000D02*
X155177200Y-54527300D01*
X155177200Y-54527300D02*
X155177200Y-59198400D01*
G04 #@! TO.N,Net-(IC1-Pad29)*
X163930000Y-55080000D02*
X163930000Y-57628300D01*
X163930000Y-57628300D02*
X174388900Y-68087200D01*
X174388900Y-68087200D02*
X174388900Y-79865600D01*
X174388900Y-79865600D02*
X183320800Y-88797500D01*
X183320800Y-88797500D02*
X183320800Y-96400900D01*
X183320800Y-96400900D02*
X182131700Y-97590000D01*
X182131700Y-97590000D02*
X181353800Y-97590000D01*
X181353800Y-97590000D02*
X179475300Y-99468500D01*
X179475300Y-99468500D02*
X179475300Y-113528200D01*
X179475300Y-113528200D02*
X181436700Y-115489600D01*
X181436700Y-115489600D02*
X182249000Y-115489600D01*
X182249000Y-115489600D02*
X183250300Y-116490900D01*
X183250300Y-116490900D02*
X183250300Y-130749700D01*
X183250300Y-130749700D02*
X177000000Y-137000000D01*
X177000000Y-137000000D02*
X177000000Y-142000000D01*
G04 #@! TO.N,Net-(IC1-Pad31)*
X166470000Y-55080000D02*
X166470000Y-59056700D01*
X166470000Y-59056700D02*
X172227000Y-64813700D01*
X155428000Y-77522800D02*
X155428000Y-94333200D01*
X155428000Y-94333200D02*
X112511200Y-137250000D01*
X112511200Y-137250000D02*
X106000000Y-137250000D01*
X106000000Y-142250000D02*
X106000000Y-137250000D01*
G04 #@! TO.N,Net-(IC1-Pad32)*
X166470000Y-52540000D02*
X167740000Y-53810000D01*
X167740000Y-53810000D02*
X167740000Y-59336100D01*
X167740000Y-59336100D02*
X177000000Y-68596100D01*
X177000000Y-68596100D02*
X177000000Y-74000000D01*
X177000000Y-74000000D02*
X177000000Y-79000000D01*
G04 #@! TO.N,Net-(IC1-Pad33)*
X106000000Y-73000000D02*
X106000000Y-60859800D01*
X106000000Y-60859800D02*
X112709400Y-54150400D01*
X112709400Y-54150400D02*
X113975900Y-54150400D01*
X113975900Y-54150400D02*
X114768900Y-53357400D01*
X114768900Y-53357400D02*
X114768900Y-50646100D01*
X106000000Y-78000000D02*
X106000000Y-73000000D01*
G04 #@! TO.N,MISO*
X171550000Y-55080000D02*
X171550000Y-62013900D01*
X171550000Y-62013900D02*
X183721100Y-74185000D01*
X183721100Y-74185000D02*
X183721100Y-101968900D01*
X183721100Y-101968900D02*
X181750000Y-103940000D01*
G04 #@! TO.N,Net-(IC1-Pad36)*
X171550000Y-52540000D02*
X170413700Y-53676300D01*
X170413700Y-53676300D02*
X170413700Y-61443700D01*
X170413700Y-61443700D02*
X178300400Y-69330400D01*
X178300400Y-69330400D02*
X178300400Y-82615600D01*
X178300400Y-82615600D02*
X182666200Y-86981400D01*
G04 #@! TO.N,Net-(IC1-Pad37)*
X174090000Y-55080000D02*
X172100100Y-57069900D01*
X172100100Y-57069900D02*
X172100100Y-61997900D01*
X172100100Y-61997900D02*
X179588200Y-69486000D01*
X179588200Y-69486000D02*
X180051600Y-69486000D01*
X181750000Y-114100000D02*
X179875600Y-112225600D01*
X179875600Y-112225600D02*
X179875600Y-101172700D01*
X179875600Y-101172700D02*
X180568100Y-100480200D01*
G04 #@! TO.N,MOSI*
X174090000Y-52540000D02*
X175230400Y-51399600D01*
X175230400Y-51399600D02*
X177136700Y-51399600D01*
X177136700Y-51399600D02*
X179702500Y-53965400D01*
X179702500Y-53965400D02*
X179702500Y-54777000D01*
X179702500Y-54777000D02*
X184521900Y-59596400D01*
X184521900Y-59596400D02*
X184521900Y-108788100D01*
X184521900Y-108788100D02*
X181750000Y-111560000D01*
G04 #@! TO.N,SCK*
X181750000Y-109020000D02*
X180291800Y-107561800D01*
X180291800Y-107561800D02*
X180291800Y-102858200D01*
X180291800Y-102858200D02*
X181750000Y-101400000D01*
X181750000Y-109020000D02*
X184121400Y-106648600D01*
X184121400Y-106648600D02*
X184121400Y-60031400D01*
X184121400Y-60031400D02*
X176630000Y-52540000D01*
G04 #@! TO.N,Net-(IC1-Pad41)*
X175497200Y-57620000D02*
X175497200Y-57832500D01*
X175497200Y-57832500D02*
X174576900Y-58752800D01*
X174576900Y-58752800D02*
X173373000Y-58752800D01*
X173373000Y-58752800D02*
X172804700Y-59321100D01*
X172804700Y-59321100D02*
X172804700Y-61712000D01*
X176630000Y-57620000D02*
X175497200Y-57620000D01*
G04 #@! TO.N,Net-(D7-Pad2)*
X150000000Y-87000000D02*
X150000000Y-98768900D01*
X150000000Y-98768900D02*
X124768900Y-124000000D01*
G04 #@! TO.N,Net-(D4-Pad2)*
X138000000Y-87000000D02*
X122758900Y-102241100D01*
X122758900Y-102241100D02*
X121581700Y-102241100D01*
G04 #@! TO.N,Net-(D3-Pad2)*
X134000000Y-87000000D02*
X120340700Y-100659300D01*
X120340700Y-100659300D02*
X120340700Y-100991300D01*
G04 #@! TO.N,Net-(D2-Pad2)*
X130000000Y-87000000D02*
X128977900Y-87000000D01*
X128977900Y-87000000D02*
X117393800Y-98584100D01*
G04 #@! TO.N,Net-(D5-Pad2)*
X142000000Y-87000000D02*
X122631300Y-106368700D01*
X122631300Y-106368700D02*
X122631300Y-107710000D01*
G04 #@! TO.N,Net-(D6-Pad2)*
X146000000Y-87000000D02*
X125366000Y-107634000D01*
X125366000Y-107634000D02*
X125366000Y-116000000D01*
G04 #@! TO.N,Net-(D8-Pad2)*
X154000000Y-87000000D02*
X152832100Y-85832100D01*
X152832100Y-85832100D02*
X145571600Y-85832100D01*
X145571600Y-85832100D02*
X106203300Y-125200400D01*
X106203300Y-125200400D02*
X99339600Y-125200400D01*
X99339600Y-125200400D02*
X92540000Y-132000000D01*
G04 #@! TD*
M02*
