G04 #@! TF.GenerationSoftware,KiCad,Pcbnew,5.0.1*
G04 #@! TF.CreationDate,2019-02-23T18:21:50+01:00*
G04 #@! TF.ProjectId,display,646973706C61792E6B696361645F7063,rev?*
G04 #@! TF.SameCoordinates,Original*
G04 #@! TF.FileFunction,Legend,Bot*
G04 #@! TF.FilePolarity,Positive*
%FSLAX46Y46*%
G04 Gerber Fmt 4.6, Leading zero omitted, Abs format (unit mm)*
G04 Created by KiCad (PCBNEW 5.0.1) date Sat 23 Feb 2019 18:21:50 CET*
%MOMM*%
%LPD*%
G01*
G04 APERTURE LIST*
%ADD10C,0.300000*%
%ADD11C,0.120000*%
%ADD12C,0.150000*%
G04 APERTURE END LIST*
D10*
X129412857Y-136410000D02*
X129555714Y-136338571D01*
X129770000Y-136338571D01*
X129984285Y-136410000D01*
X130127142Y-136552857D01*
X130198571Y-136695714D01*
X130270000Y-136981428D01*
X130270000Y-137195714D01*
X130198571Y-137481428D01*
X130127142Y-137624285D01*
X129984285Y-137767142D01*
X129770000Y-137838571D01*
X129627142Y-137838571D01*
X129412857Y-137767142D01*
X129341428Y-137695714D01*
X129341428Y-137195714D01*
X129627142Y-137195714D01*
X128698571Y-137838571D02*
X128698571Y-136338571D01*
X127841428Y-137838571D01*
X127841428Y-136338571D01*
X127127142Y-137838571D02*
X127127142Y-136338571D01*
X126770000Y-136338571D01*
X126555714Y-136410000D01*
X126412857Y-136552857D01*
X126341428Y-136695714D01*
X126270000Y-136981428D01*
X126270000Y-137195714D01*
X126341428Y-137481428D01*
X126412857Y-137624285D01*
X126555714Y-137767142D01*
X126770000Y-137838571D01*
X127127142Y-137838571D01*
X129825714Y-133798571D02*
X130540000Y-133798571D01*
X130611428Y-134512857D01*
X130540000Y-134441428D01*
X130397142Y-134370000D01*
X130040000Y-134370000D01*
X129897142Y-134441428D01*
X129825714Y-134512857D01*
X129754285Y-134655714D01*
X129754285Y-135012857D01*
X129825714Y-135155714D01*
X129897142Y-135227142D01*
X130040000Y-135298571D01*
X130397142Y-135298571D01*
X130540000Y-135227142D01*
X130611428Y-135155714D01*
X129325714Y-133798571D02*
X128825714Y-135298571D01*
X128325714Y-133798571D01*
D11*
G04 #@! TO.C,C2*
X121370000Y-147470000D02*
X121370000Y-142530000D01*
X118630000Y-147470000D02*
X118630000Y-142530000D01*
X121370000Y-147470000D02*
X121055000Y-147470000D01*
X118945000Y-147470000D02*
X118630000Y-147470000D01*
X121370000Y-142530000D02*
X121055000Y-142530000D01*
X118945000Y-142530000D02*
X118630000Y-142530000D01*
G04 #@! TO.C,R7*
X155370000Y-85190000D02*
X152630000Y-85190000D01*
X152630000Y-85190000D02*
X152630000Y-78650000D01*
X152630000Y-78650000D02*
X155370000Y-78650000D01*
X155370000Y-78650000D02*
X155370000Y-85190000D01*
X154000000Y-85960000D02*
X154000000Y-85190000D01*
X154000000Y-77880000D02*
X154000000Y-78650000D01*
G04 #@! TO.C,R5*
X146000000Y-77880000D02*
X146000000Y-78650000D01*
X146000000Y-85960000D02*
X146000000Y-85190000D01*
X147370000Y-78650000D02*
X147370000Y-85190000D01*
X144630000Y-78650000D02*
X147370000Y-78650000D01*
X144630000Y-85190000D02*
X144630000Y-78650000D01*
X147370000Y-85190000D02*
X144630000Y-85190000D01*
G04 #@! TO.C,R4*
X143370000Y-85190000D02*
X140630000Y-85190000D01*
X140630000Y-85190000D02*
X140630000Y-78650000D01*
X140630000Y-78650000D02*
X143370000Y-78650000D01*
X143370000Y-78650000D02*
X143370000Y-85190000D01*
X142000000Y-85960000D02*
X142000000Y-85190000D01*
X142000000Y-77880000D02*
X142000000Y-78650000D01*
G04 #@! TO.C,R1*
X130000000Y-77880000D02*
X130000000Y-78650000D01*
X130000000Y-85960000D02*
X130000000Y-85190000D01*
X131370000Y-78650000D02*
X131370000Y-85190000D01*
X128630000Y-78650000D02*
X131370000Y-78650000D01*
X128630000Y-85190000D02*
X128630000Y-78650000D01*
X131370000Y-85190000D02*
X128630000Y-85190000D01*
G04 #@! TO.C,R2*
X135370000Y-85190000D02*
X132630000Y-85190000D01*
X132630000Y-85190000D02*
X132630000Y-78650000D01*
X132630000Y-78650000D02*
X135370000Y-78650000D01*
X135370000Y-78650000D02*
X135370000Y-85190000D01*
X134000000Y-85960000D02*
X134000000Y-85190000D01*
X134000000Y-77880000D02*
X134000000Y-78650000D01*
G04 #@! TO.C,R3*
X138000000Y-77880000D02*
X138000000Y-78650000D01*
X138000000Y-85960000D02*
X138000000Y-85190000D01*
X139370000Y-78650000D02*
X139370000Y-85190000D01*
X136630000Y-78650000D02*
X139370000Y-78650000D01*
X136630000Y-85190000D02*
X136630000Y-78650000D01*
X139370000Y-85190000D02*
X136630000Y-85190000D01*
G04 #@! TO.C,R6*
X151370000Y-85190000D02*
X148630000Y-85190000D01*
X148630000Y-85190000D02*
X148630000Y-78650000D01*
X148630000Y-78650000D02*
X151370000Y-78650000D01*
X151370000Y-78650000D02*
X151370000Y-85190000D01*
X150000000Y-85960000D02*
X150000000Y-85190000D01*
X150000000Y-77880000D02*
X150000000Y-78650000D01*
G04 #@! TO.C,C1*
X165870000Y-121500000D02*
G75*
G03X165870000Y-121500000I-6370000J0D01*
G01*
X153170000Y-121500000D02*
X165830000Y-121500000D01*
X153170000Y-121540000D02*
X165830000Y-121540000D01*
X153170000Y-121580000D02*
X165830000Y-121580000D01*
X153171000Y-121620000D02*
X165829000Y-121620000D01*
X153172000Y-121660000D02*
X165828000Y-121660000D01*
X153173000Y-121700000D02*
X165827000Y-121700000D01*
X153174000Y-121740000D02*
X165826000Y-121740000D01*
X153176000Y-121780000D02*
X165824000Y-121780000D01*
X153178000Y-121820000D02*
X165822000Y-121820000D01*
X153180000Y-121860000D02*
X165820000Y-121860000D01*
X153182000Y-121900000D02*
X165818000Y-121900000D01*
X153185000Y-121940000D02*
X165815000Y-121940000D01*
X153188000Y-121980000D02*
X165812000Y-121980000D01*
X153191000Y-122020000D02*
X165809000Y-122020000D01*
X153194000Y-122060000D02*
X165806000Y-122060000D01*
X153198000Y-122100000D02*
X165802000Y-122100000D01*
X153202000Y-122140000D02*
X165798000Y-122140000D01*
X153206000Y-122180000D02*
X165794000Y-122180000D01*
X153210000Y-122221000D02*
X165790000Y-122221000D01*
X153215000Y-122261000D02*
X165785000Y-122261000D01*
X153220000Y-122301000D02*
X165780000Y-122301000D01*
X153225000Y-122341000D02*
X165775000Y-122341000D01*
X153231000Y-122381000D02*
X165769000Y-122381000D01*
X153236000Y-122421000D02*
X165764000Y-122421000D01*
X153242000Y-122461000D02*
X165758000Y-122461000D01*
X153248000Y-122501000D02*
X165752000Y-122501000D01*
X153255000Y-122541000D02*
X165745000Y-122541000D01*
X153262000Y-122581000D02*
X158060000Y-122581000D01*
X160940000Y-122581000D02*
X165738000Y-122581000D01*
X153269000Y-122621000D02*
X158060000Y-122621000D01*
X160940000Y-122621000D02*
X165731000Y-122621000D01*
X153276000Y-122661000D02*
X158060000Y-122661000D01*
X160940000Y-122661000D02*
X165724000Y-122661000D01*
X153284000Y-122701000D02*
X158060000Y-122701000D01*
X160940000Y-122701000D02*
X165716000Y-122701000D01*
X153291000Y-122741000D02*
X158060000Y-122741000D01*
X160940000Y-122741000D02*
X165709000Y-122741000D01*
X153299000Y-122781000D02*
X158060000Y-122781000D01*
X160940000Y-122781000D02*
X165701000Y-122781000D01*
X153308000Y-122821000D02*
X158060000Y-122821000D01*
X160940000Y-122821000D02*
X165692000Y-122821000D01*
X153316000Y-122861000D02*
X158060000Y-122861000D01*
X160940000Y-122861000D02*
X165684000Y-122861000D01*
X153325000Y-122901000D02*
X158060000Y-122901000D01*
X160940000Y-122901000D02*
X165675000Y-122901000D01*
X153334000Y-122941000D02*
X158060000Y-122941000D01*
X160940000Y-122941000D02*
X165666000Y-122941000D01*
X153344000Y-122981000D02*
X158060000Y-122981000D01*
X160940000Y-122981000D02*
X165656000Y-122981000D01*
X153354000Y-123021000D02*
X158060000Y-123021000D01*
X160940000Y-123021000D02*
X165646000Y-123021000D01*
X153363000Y-123061000D02*
X158060000Y-123061000D01*
X160940000Y-123061000D02*
X165637000Y-123061000D01*
X153374000Y-123101000D02*
X158060000Y-123101000D01*
X160940000Y-123101000D02*
X165626000Y-123101000D01*
X153384000Y-123141000D02*
X158060000Y-123141000D01*
X160940000Y-123141000D02*
X165616000Y-123141000D01*
X153395000Y-123181000D02*
X158060000Y-123181000D01*
X160940000Y-123181000D02*
X165605000Y-123181000D01*
X153406000Y-123221000D02*
X158060000Y-123221000D01*
X160940000Y-123221000D02*
X165594000Y-123221000D01*
X153417000Y-123261000D02*
X158060000Y-123261000D01*
X160940000Y-123261000D02*
X165583000Y-123261000D01*
X153429000Y-123301000D02*
X158060000Y-123301000D01*
X160940000Y-123301000D02*
X165571000Y-123301000D01*
X153441000Y-123341000D02*
X158060000Y-123341000D01*
X160940000Y-123341000D02*
X165559000Y-123341000D01*
X153453000Y-123381000D02*
X158060000Y-123381000D01*
X160940000Y-123381000D02*
X165547000Y-123381000D01*
X153466000Y-123421000D02*
X158060000Y-123421000D01*
X160940000Y-123421000D02*
X165534000Y-123421000D01*
X153479000Y-123461000D02*
X158060000Y-123461000D01*
X160940000Y-123461000D02*
X165521000Y-123461000D01*
X153492000Y-123501000D02*
X158060000Y-123501000D01*
X160940000Y-123501000D02*
X165508000Y-123501000D01*
X153505000Y-123541000D02*
X158060000Y-123541000D01*
X160940000Y-123541000D02*
X165495000Y-123541000D01*
X153519000Y-123581000D02*
X158060000Y-123581000D01*
X160940000Y-123581000D02*
X165481000Y-123581000D01*
X153533000Y-123621000D02*
X158060000Y-123621000D01*
X160940000Y-123621000D02*
X165467000Y-123621000D01*
X153547000Y-123661000D02*
X158060000Y-123661000D01*
X160940000Y-123661000D02*
X165453000Y-123661000D01*
X153561000Y-123701000D02*
X158060000Y-123701000D01*
X160940000Y-123701000D02*
X165439000Y-123701000D01*
X153576000Y-123741000D02*
X158060000Y-123741000D01*
X160940000Y-123741000D02*
X165424000Y-123741000D01*
X153592000Y-123781000D02*
X158060000Y-123781000D01*
X160940000Y-123781000D02*
X165408000Y-123781000D01*
X153607000Y-123821000D02*
X158060000Y-123821000D01*
X160940000Y-123821000D02*
X165393000Y-123821000D01*
X153623000Y-123861000D02*
X158060000Y-123861000D01*
X160940000Y-123861000D02*
X165377000Y-123861000D01*
X153639000Y-123901000D02*
X158060000Y-123901000D01*
X160940000Y-123901000D02*
X165361000Y-123901000D01*
X153655000Y-123941000D02*
X158060000Y-123941000D01*
X160940000Y-123941000D02*
X165345000Y-123941000D01*
X153672000Y-123981000D02*
X158060000Y-123981000D01*
X160940000Y-123981000D02*
X165328000Y-123981000D01*
X153689000Y-124021000D02*
X158060000Y-124021000D01*
X160940000Y-124021000D02*
X165311000Y-124021000D01*
X153707000Y-124061000D02*
X158060000Y-124061000D01*
X160940000Y-124061000D02*
X165293000Y-124061000D01*
X153724000Y-124101000D02*
X158060000Y-124101000D01*
X160940000Y-124101000D02*
X165276000Y-124101000D01*
X153742000Y-124141000D02*
X158060000Y-124141000D01*
X160940000Y-124141000D02*
X165258000Y-124141000D01*
X153761000Y-124181000D02*
X158060000Y-124181000D01*
X160940000Y-124181000D02*
X165239000Y-124181000D01*
X153779000Y-124221000D02*
X158060000Y-124221000D01*
X160940000Y-124221000D02*
X165221000Y-124221000D01*
X153798000Y-124261000D02*
X158060000Y-124261000D01*
X160940000Y-124261000D02*
X165202000Y-124261000D01*
X153818000Y-124301000D02*
X158060000Y-124301000D01*
X160940000Y-124301000D02*
X165182000Y-124301000D01*
X153838000Y-124341000D02*
X158060000Y-124341000D01*
X160940000Y-124341000D02*
X165162000Y-124341000D01*
X153858000Y-124381000D02*
X158060000Y-124381000D01*
X160940000Y-124381000D02*
X165142000Y-124381000D01*
X153878000Y-124421000D02*
X158060000Y-124421000D01*
X160940000Y-124421000D02*
X165122000Y-124421000D01*
X153899000Y-124461000D02*
X158060000Y-124461000D01*
X160940000Y-124461000D02*
X165101000Y-124461000D01*
X153920000Y-124501000D02*
X158060000Y-124501000D01*
X160940000Y-124501000D02*
X165080000Y-124501000D01*
X153942000Y-124541000D02*
X158060000Y-124541000D01*
X160940000Y-124541000D02*
X165058000Y-124541000D01*
X153964000Y-124581000D02*
X158060000Y-124581000D01*
X160940000Y-124581000D02*
X165036000Y-124581000D01*
X153986000Y-124621000D02*
X158060000Y-124621000D01*
X160940000Y-124621000D02*
X165014000Y-124621000D01*
X154009000Y-124661000D02*
X158060000Y-124661000D01*
X160940000Y-124661000D02*
X164991000Y-124661000D01*
X154032000Y-124701000D02*
X158060000Y-124701000D01*
X160940000Y-124701000D02*
X164968000Y-124701000D01*
X154055000Y-124741000D02*
X158060000Y-124741000D01*
X160940000Y-124741000D02*
X164945000Y-124741000D01*
X154079000Y-124781000D02*
X158060000Y-124781000D01*
X160940000Y-124781000D02*
X164921000Y-124781000D01*
X154103000Y-124821000D02*
X158060000Y-124821000D01*
X160940000Y-124821000D02*
X164897000Y-124821000D01*
X154128000Y-124861000D02*
X158060000Y-124861000D01*
X160940000Y-124861000D02*
X164872000Y-124861000D01*
X154153000Y-124901000D02*
X158060000Y-124901000D01*
X160940000Y-124901000D02*
X164847000Y-124901000D01*
X154178000Y-124941000D02*
X158060000Y-124941000D01*
X160940000Y-124941000D02*
X164822000Y-124941000D01*
X154204000Y-124981000D02*
X158060000Y-124981000D01*
X160940000Y-124981000D02*
X164796000Y-124981000D01*
X154230000Y-125021000D02*
X158060000Y-125021000D01*
X160940000Y-125021000D02*
X164770000Y-125021000D01*
X154257000Y-125061000D02*
X158060000Y-125061000D01*
X160940000Y-125061000D02*
X164743000Y-125061000D01*
X154284000Y-125101000D02*
X158060000Y-125101000D01*
X160940000Y-125101000D02*
X164716000Y-125101000D01*
X154312000Y-125141000D02*
X158060000Y-125141000D01*
X160940000Y-125141000D02*
X164688000Y-125141000D01*
X154340000Y-125181000D02*
X158060000Y-125181000D01*
X160940000Y-125181000D02*
X164660000Y-125181000D01*
X154369000Y-125221000D02*
X158060000Y-125221000D01*
X160940000Y-125221000D02*
X164631000Y-125221000D01*
X154398000Y-125261000D02*
X158060000Y-125261000D01*
X160940000Y-125261000D02*
X164602000Y-125261000D01*
X154427000Y-125301000D02*
X158060000Y-125301000D01*
X160940000Y-125301000D02*
X164573000Y-125301000D01*
X154457000Y-125341000D02*
X158060000Y-125341000D01*
X160940000Y-125341000D02*
X164543000Y-125341000D01*
X154488000Y-125381000D02*
X158060000Y-125381000D01*
X160940000Y-125381000D02*
X164512000Y-125381000D01*
X154518000Y-125421000D02*
X158060000Y-125421000D01*
X160940000Y-125421000D02*
X164482000Y-125421000D01*
X154550000Y-125461000D02*
X164450000Y-125461000D01*
X154582000Y-125501000D02*
X164418000Y-125501000D01*
X154615000Y-125541000D02*
X164385000Y-125541000D01*
X154648000Y-125581000D02*
X164352000Y-125581000D01*
X154681000Y-125621000D02*
X164319000Y-125621000D01*
X154715000Y-125661000D02*
X164285000Y-125661000D01*
X154750000Y-125701000D02*
X164250000Y-125701000D01*
X154786000Y-125741000D02*
X164214000Y-125741000D01*
X154822000Y-125781000D02*
X164178000Y-125781000D01*
X154858000Y-125821000D02*
X164142000Y-125821000D01*
X154895000Y-125861000D02*
X164105000Y-125861000D01*
X154933000Y-125901000D02*
X164067000Y-125901000D01*
X154972000Y-125941000D02*
X164028000Y-125941000D01*
X155011000Y-125981000D02*
X163989000Y-125981000D01*
X155051000Y-126021000D02*
X163949000Y-126021000D01*
X155092000Y-126061000D02*
X163908000Y-126061000D01*
X155133000Y-126101000D02*
X163867000Y-126101000D01*
X155175000Y-126141000D02*
X163825000Y-126141000D01*
X155218000Y-126181000D02*
X163782000Y-126181000D01*
X155262000Y-126221000D02*
X163738000Y-126221000D01*
X155306000Y-126261000D02*
X163694000Y-126261000D01*
X155352000Y-126301000D02*
X163648000Y-126301000D01*
X155398000Y-126341000D02*
X163602000Y-126341000D01*
X155445000Y-126381000D02*
X163555000Y-126381000D01*
X155493000Y-126421000D02*
X163507000Y-126421000D01*
X155543000Y-126461000D02*
X163457000Y-126461000D01*
X155593000Y-126501000D02*
X163407000Y-126501000D01*
X155644000Y-126541000D02*
X163356000Y-126541000D01*
X155696000Y-126581000D02*
X163304000Y-126581000D01*
X155750000Y-126621000D02*
X163250000Y-126621000D01*
X155804000Y-126661000D02*
X163196000Y-126661000D01*
X155860000Y-126701000D02*
X163140000Y-126701000D01*
X155917000Y-126741000D02*
X163083000Y-126741000D01*
X155976000Y-126781000D02*
X163024000Y-126781000D01*
X156036000Y-126821000D02*
X162964000Y-126821000D01*
X156098000Y-126861000D02*
X162902000Y-126861000D01*
X156161000Y-126901000D02*
X162839000Y-126901000D01*
X156225000Y-126941000D02*
X162775000Y-126941000D01*
X156292000Y-126981000D02*
X162708000Y-126981000D01*
X156360000Y-127021000D02*
X162640000Y-127021000D01*
X156431000Y-127061000D02*
X162569000Y-127061000D01*
X156504000Y-127101000D02*
X162496000Y-127101000D01*
X156579000Y-127141000D02*
X162421000Y-127141000D01*
X156656000Y-127181000D02*
X162344000Y-127181000D01*
X156736000Y-127221000D02*
X162264000Y-127221000D01*
X156819000Y-127261000D02*
X162181000Y-127261000D01*
X156906000Y-127301000D02*
X162094000Y-127301000D01*
X156996000Y-127341000D02*
X162004000Y-127341000D01*
X157090000Y-127381000D02*
X161910000Y-127381000D01*
X157188000Y-127421000D02*
X161812000Y-127421000D01*
X157291000Y-127461000D02*
X161709000Y-127461000D01*
X157400000Y-127501000D02*
X161600000Y-127501000D01*
X157516000Y-127541000D02*
X161484000Y-127541000D01*
X157639000Y-127581000D02*
X161361000Y-127581000D01*
X157772000Y-127621000D02*
X161228000Y-127621000D01*
X157917000Y-127661000D02*
X161083000Y-127661000D01*
X158078000Y-127701000D02*
X160922000Y-127701000D01*
X158259000Y-127741000D02*
X160741000Y-127741000D01*
X158472000Y-127781000D02*
X160528000Y-127781000D01*
X158743000Y-127821000D02*
X160257000Y-127821000D01*
X159183000Y-127861000D02*
X159817000Y-127861000D01*
X155925000Y-114682918D02*
X155925000Y-115932918D01*
X155300000Y-115307918D02*
X156550000Y-115307918D01*
G04 #@! TO.C,C3*
X178055000Y-115970000D02*
X178370000Y-115970000D01*
X175630000Y-115970000D02*
X175945000Y-115970000D01*
X178055000Y-111030000D02*
X178370000Y-111030000D01*
X175630000Y-111030000D02*
X175945000Y-111030000D01*
X178370000Y-111030000D02*
X178370000Y-115970000D01*
X175630000Y-111030000D02*
X175630000Y-115970000D01*
G04 #@! TO.C,C4*
X114370000Y-73470000D02*
X114370000Y-68530000D01*
X111630000Y-73470000D02*
X111630000Y-68530000D01*
X114370000Y-73470000D02*
X114055000Y-73470000D01*
X111945000Y-73470000D02*
X111630000Y-73470000D01*
X114370000Y-68530000D02*
X114055000Y-68530000D01*
X111945000Y-68530000D02*
X111630000Y-68530000D01*
G04 #@! TO.C,D1*
X161683757Y-108954487D02*
G75*
G03X163350000Y-107350000I-2683757J4454487D01*
G01*
X161586109Y-108329431D02*
G75*
G02X156300000Y-108250000I-2586109J3829431D01*
G01*
X155121200Y-106991467D02*
G75*
G02X155300000Y-101750000I3878800J2491467D01*
G01*
X156301739Y-100752416D02*
G75*
G02X161550000Y-100650000I2698261J-3747584D01*
G01*
X162689371Y-101745269D02*
G75*
G02X162800000Y-107100000I-3689371J-2754731D01*
G01*
G04 #@! TO.C,J1*
X98986841Y-53784179D02*
G75*
G03X95000000Y-53800000I-1986841J-1665821D01*
G01*
X104066841Y-53784179D02*
G75*
G03X100080000Y-53800000I-1986841J-1665821D01*
G01*
X93350000Y-60910000D02*
X93350000Y-52090000D01*
X93350000Y-52090000D02*
X105730000Y-52090000D01*
X105730000Y-52090000D02*
X105730000Y-60910000D01*
X105730000Y-60910000D02*
X93350000Y-60910000D01*
X93350000Y-60100000D02*
X95890000Y-60100000D01*
X105730000Y-60100000D02*
X103190000Y-60100000D01*
X98000000Y-60100000D02*
X101080000Y-60100000D01*
X96000000Y-59100000D02*
X96000000Y-60910000D01*
X96000000Y-60910000D02*
X98000000Y-60910000D01*
X98000000Y-60910000D02*
X98000000Y-59100000D01*
X98000000Y-59100000D02*
X96000000Y-59100000D01*
X101080000Y-59100000D02*
X101080000Y-60910000D01*
X101080000Y-60910000D02*
X103080000Y-60910000D01*
X103080000Y-60910000D02*
X103080000Y-59100000D01*
X103080000Y-59100000D02*
X101080000Y-59100000D01*
X99000000Y-53800000D02*
X100080000Y-53800000D01*
X95000000Y-53800000D02*
X94260000Y-53800000D01*
X94260000Y-53800000D02*
X94260000Y-59100000D01*
X94260000Y-59100000D02*
X104820000Y-59100000D01*
X104820000Y-59100000D02*
X104820000Y-53800000D01*
X104820000Y-53800000D02*
X104080000Y-53800000D01*
X97300000Y-61710000D02*
X97000000Y-61110000D01*
X97000000Y-61110000D02*
X96700000Y-61710000D01*
X96700000Y-61710000D02*
X97300000Y-61710000D01*
G04 #@! TO.C,J2*
X114330000Y-54270000D02*
X111670000Y-54270000D01*
X114330000Y-54270000D02*
X114330000Y-64490000D01*
X114330000Y-64490000D02*
X111670000Y-64490000D01*
X111670000Y-54270000D02*
X111670000Y-64490000D01*
X111670000Y-51670000D02*
X111670000Y-53000000D01*
X113000000Y-51670000D02*
X111670000Y-51670000D01*
G04 #@! TO.C,U1*
X128860000Y-140920000D02*
X126900000Y-140920000D01*
X128860000Y-143460000D02*
X126900000Y-143460000D01*
X128860000Y-146000000D02*
X126900000Y-146000000D01*
X144970000Y-138210000D02*
X128860000Y-138210000D01*
X144970000Y-148710000D02*
X128860000Y-148710000D01*
X144970000Y-148710000D02*
X144970000Y-138210000D01*
X128860000Y-148710000D02*
X128860000Y-138210000D01*
G04 #@! TO.C,C2*
D12*
X122857142Y-144833333D02*
X122904761Y-144785714D01*
X122952380Y-144642857D01*
X122952380Y-144547619D01*
X122904761Y-144404761D01*
X122809523Y-144309523D01*
X122714285Y-144261904D01*
X122523809Y-144214285D01*
X122380952Y-144214285D01*
X122190476Y-144261904D01*
X122095238Y-144309523D01*
X122000000Y-144404761D01*
X121952380Y-144547619D01*
X121952380Y-144642857D01*
X122000000Y-144785714D01*
X122047619Y-144833333D01*
X122047619Y-145214285D02*
X122000000Y-145261904D01*
X121952380Y-145357142D01*
X121952380Y-145595238D01*
X122000000Y-145690476D01*
X122047619Y-145738095D01*
X122142857Y-145785714D01*
X122238095Y-145785714D01*
X122380952Y-145738095D01*
X122952380Y-145166666D01*
X122952380Y-145785714D01*
G04 #@! TO.C,R7*
X156822380Y-81753333D02*
X156346190Y-81420000D01*
X156822380Y-81181904D02*
X155822380Y-81181904D01*
X155822380Y-81562857D01*
X155870000Y-81658095D01*
X155917619Y-81705714D01*
X156012857Y-81753333D01*
X156155714Y-81753333D01*
X156250952Y-81705714D01*
X156298571Y-81658095D01*
X156346190Y-81562857D01*
X156346190Y-81181904D01*
X155822380Y-82086666D02*
X155822380Y-82753333D01*
X156822380Y-82324761D01*
G04 #@! TO.C,R5*
X148822380Y-81753333D02*
X148346190Y-81420000D01*
X148822380Y-81181904D02*
X147822380Y-81181904D01*
X147822380Y-81562857D01*
X147870000Y-81658095D01*
X147917619Y-81705714D01*
X148012857Y-81753333D01*
X148155714Y-81753333D01*
X148250952Y-81705714D01*
X148298571Y-81658095D01*
X148346190Y-81562857D01*
X148346190Y-81181904D01*
X147822380Y-82658095D02*
X147822380Y-82181904D01*
X148298571Y-82134285D01*
X148250952Y-82181904D01*
X148203333Y-82277142D01*
X148203333Y-82515238D01*
X148250952Y-82610476D01*
X148298571Y-82658095D01*
X148393809Y-82705714D01*
X148631904Y-82705714D01*
X148727142Y-82658095D01*
X148774761Y-82610476D01*
X148822380Y-82515238D01*
X148822380Y-82277142D01*
X148774761Y-82181904D01*
X148727142Y-82134285D01*
G04 #@! TO.C,R4*
X144822380Y-81753333D02*
X144346190Y-81420000D01*
X144822380Y-81181904D02*
X143822380Y-81181904D01*
X143822380Y-81562857D01*
X143870000Y-81658095D01*
X143917619Y-81705714D01*
X144012857Y-81753333D01*
X144155714Y-81753333D01*
X144250952Y-81705714D01*
X144298571Y-81658095D01*
X144346190Y-81562857D01*
X144346190Y-81181904D01*
X144155714Y-82610476D02*
X144822380Y-82610476D01*
X143774761Y-82372380D02*
X144489047Y-82134285D01*
X144489047Y-82753333D01*
G04 #@! TO.C,R1*
X132822380Y-81753333D02*
X132346190Y-81420000D01*
X132822380Y-81181904D02*
X131822380Y-81181904D01*
X131822380Y-81562857D01*
X131870000Y-81658095D01*
X131917619Y-81705714D01*
X132012857Y-81753333D01*
X132155714Y-81753333D01*
X132250952Y-81705714D01*
X132298571Y-81658095D01*
X132346190Y-81562857D01*
X132346190Y-81181904D01*
X132822380Y-82705714D02*
X132822380Y-82134285D01*
X132822380Y-82420000D02*
X131822380Y-82420000D01*
X131965238Y-82324761D01*
X132060476Y-82229523D01*
X132108095Y-82134285D01*
G04 #@! TO.C,R2*
X136822380Y-81753333D02*
X136346190Y-81420000D01*
X136822380Y-81181904D02*
X135822380Y-81181904D01*
X135822380Y-81562857D01*
X135870000Y-81658095D01*
X135917619Y-81705714D01*
X136012857Y-81753333D01*
X136155714Y-81753333D01*
X136250952Y-81705714D01*
X136298571Y-81658095D01*
X136346190Y-81562857D01*
X136346190Y-81181904D01*
X135917619Y-82134285D02*
X135870000Y-82181904D01*
X135822380Y-82277142D01*
X135822380Y-82515238D01*
X135870000Y-82610476D01*
X135917619Y-82658095D01*
X136012857Y-82705714D01*
X136108095Y-82705714D01*
X136250952Y-82658095D01*
X136822380Y-82086666D01*
X136822380Y-82705714D01*
G04 #@! TO.C,R3*
X140822380Y-81753333D02*
X140346190Y-81420000D01*
X140822380Y-81181904D02*
X139822380Y-81181904D01*
X139822380Y-81562857D01*
X139870000Y-81658095D01*
X139917619Y-81705714D01*
X140012857Y-81753333D01*
X140155714Y-81753333D01*
X140250952Y-81705714D01*
X140298571Y-81658095D01*
X140346190Y-81562857D01*
X140346190Y-81181904D01*
X139822380Y-82086666D02*
X139822380Y-82705714D01*
X140203333Y-82372380D01*
X140203333Y-82515238D01*
X140250952Y-82610476D01*
X140298571Y-82658095D01*
X140393809Y-82705714D01*
X140631904Y-82705714D01*
X140727142Y-82658095D01*
X140774761Y-82610476D01*
X140822380Y-82515238D01*
X140822380Y-82229523D01*
X140774761Y-82134285D01*
X140727142Y-82086666D01*
G04 #@! TO.C,R6*
X152822380Y-81753333D02*
X152346190Y-81420000D01*
X152822380Y-81181904D02*
X151822380Y-81181904D01*
X151822380Y-81562857D01*
X151870000Y-81658095D01*
X151917619Y-81705714D01*
X152012857Y-81753333D01*
X152155714Y-81753333D01*
X152250952Y-81705714D01*
X152298571Y-81658095D01*
X152346190Y-81562857D01*
X152346190Y-81181904D01*
X151822380Y-82610476D02*
X151822380Y-82420000D01*
X151870000Y-82324761D01*
X151917619Y-82277142D01*
X152060476Y-82181904D01*
X152250952Y-82134285D01*
X152631904Y-82134285D01*
X152727142Y-82181904D01*
X152774761Y-82229523D01*
X152822380Y-82324761D01*
X152822380Y-82515238D01*
X152774761Y-82610476D01*
X152727142Y-82658095D01*
X152631904Y-82705714D01*
X152393809Y-82705714D01*
X152298571Y-82658095D01*
X152250952Y-82610476D01*
X152203333Y-82515238D01*
X152203333Y-82324761D01*
X152250952Y-82229523D01*
X152298571Y-82181904D01*
X152393809Y-82134285D01*
G04 #@! TO.C,C1*
X162917142Y-119213333D02*
X162964761Y-119165714D01*
X163012380Y-119022857D01*
X163012380Y-118927619D01*
X162964761Y-118784761D01*
X162869523Y-118689523D01*
X162774285Y-118641904D01*
X162583809Y-118594285D01*
X162440952Y-118594285D01*
X162250476Y-118641904D01*
X162155238Y-118689523D01*
X162060000Y-118784761D01*
X162012380Y-118927619D01*
X162012380Y-119022857D01*
X162060000Y-119165714D01*
X162107619Y-119213333D01*
X163012380Y-120165714D02*
X163012380Y-119594285D01*
X163012380Y-119880000D02*
X162012380Y-119880000D01*
X162155238Y-119784761D01*
X162250476Y-119689523D01*
X162298095Y-119594285D01*
G04 #@! TO.C,C3*
X174857142Y-113333333D02*
X174904761Y-113285714D01*
X174952380Y-113142857D01*
X174952380Y-113047619D01*
X174904761Y-112904761D01*
X174809523Y-112809523D01*
X174714285Y-112761904D01*
X174523809Y-112714285D01*
X174380952Y-112714285D01*
X174190476Y-112761904D01*
X174095238Y-112809523D01*
X174000000Y-112904761D01*
X173952380Y-113047619D01*
X173952380Y-113142857D01*
X174000000Y-113285714D01*
X174047619Y-113333333D01*
X173952380Y-113666666D02*
X173952380Y-114285714D01*
X174333333Y-113952380D01*
X174333333Y-114095238D01*
X174380952Y-114190476D01*
X174428571Y-114238095D01*
X174523809Y-114285714D01*
X174761904Y-114285714D01*
X174857142Y-114238095D01*
X174904761Y-114190476D01*
X174952380Y-114095238D01*
X174952380Y-113809523D01*
X174904761Y-113714285D01*
X174857142Y-113666666D01*
G04 #@! TO.C,C4*
X115857142Y-70833333D02*
X115904761Y-70785714D01*
X115952380Y-70642857D01*
X115952380Y-70547619D01*
X115904761Y-70404761D01*
X115809523Y-70309523D01*
X115714285Y-70261904D01*
X115523809Y-70214285D01*
X115380952Y-70214285D01*
X115190476Y-70261904D01*
X115095238Y-70309523D01*
X115000000Y-70404761D01*
X114952380Y-70547619D01*
X114952380Y-70642857D01*
X115000000Y-70785714D01*
X115047619Y-70833333D01*
X115285714Y-71690476D02*
X115952380Y-71690476D01*
X114904761Y-71452380D02*
X115619047Y-71214285D01*
X115619047Y-71833333D01*
G04 #@! TO.C,D1*
X164746380Y-103721904D02*
X163746380Y-103721904D01*
X163746380Y-103960000D01*
X163794000Y-104102857D01*
X163889238Y-104198095D01*
X163984476Y-104245714D01*
X164174952Y-104293333D01*
X164317809Y-104293333D01*
X164508285Y-104245714D01*
X164603523Y-104198095D01*
X164698761Y-104102857D01*
X164746380Y-103960000D01*
X164746380Y-103721904D01*
X164746380Y-105245714D02*
X164746380Y-104674285D01*
X164746380Y-104960000D02*
X163746380Y-104960000D01*
X163889238Y-104864761D01*
X163984476Y-104769523D01*
X164032095Y-104674285D01*
G04 #@! TO.C,J1*
X99873333Y-61452380D02*
X99873333Y-62166666D01*
X99920952Y-62309523D01*
X100016190Y-62404761D01*
X100159047Y-62452380D01*
X100254285Y-62452380D01*
X98873333Y-62452380D02*
X99444761Y-62452380D01*
X99159047Y-62452380D02*
X99159047Y-61452380D01*
X99254285Y-61595238D01*
X99349523Y-61690476D01*
X99444761Y-61738095D01*
G04 #@! TO.C,J2*
X113333333Y-49682380D02*
X113333333Y-50396666D01*
X113380952Y-50539523D01*
X113476190Y-50634761D01*
X113619047Y-50682380D01*
X113714285Y-50682380D01*
X112904761Y-49777619D02*
X112857142Y-49730000D01*
X112761904Y-49682380D01*
X112523809Y-49682380D01*
X112428571Y-49730000D01*
X112380952Y-49777619D01*
X112333333Y-49872857D01*
X112333333Y-49968095D01*
X112380952Y-50110952D01*
X112952380Y-50682380D01*
X112333333Y-50682380D01*
G04 #@! TO.C,U1*
X145422380Y-142698095D02*
X146231904Y-142698095D01*
X146327142Y-142745714D01*
X146374761Y-142793333D01*
X146422380Y-142888571D01*
X146422380Y-143079047D01*
X146374761Y-143174285D01*
X146327142Y-143221904D01*
X146231904Y-143269523D01*
X145422380Y-143269523D01*
X146422380Y-144269523D02*
X146422380Y-143698095D01*
X146422380Y-143983809D02*
X145422380Y-143983809D01*
X145565238Y-143888571D01*
X145660476Y-143793333D01*
X145708095Y-143698095D01*
G04 #@! TD*
M02*
