M48
;DRILL file {KiCad 5.0.1} date Sat 23 Feb 2019 17:41:02 CET
;FORMAT={-:-/ absolute / inch / decimal}
FMAT,2
INCH,TZ
T1C0.0295
T2C0.0315
T3C0.0354
T4C0.0394
T5C0.0472
T6C0.0551
T7C0.0591
T8C0.0669
T9C0.1181
%
G90
G05
M72
T1
X4.1732Y-5.215
X4.1732Y-5.265
X4.1732Y-5.315
T2
X3.8976Y-2.5591
X3.8976Y-2.6591
X3.8976Y-2.7591
X3.8976Y-2.8591
X3.8976Y-2.9591
X3.8976Y-3.0591
X3.8976Y-3.1591
X3.8976Y-3.2591
X3.8976Y-3.3591
X3.8976Y-3.4591
X3.8976Y-3.5591
X3.8976Y-3.6591
X3.8976Y-3.7591
X3.8976Y-3.8591
X3.8976Y-3.9591
X4.4976Y-2.5591
X4.4976Y-2.6591
X4.4976Y-2.7591
X4.4976Y-2.8591
X4.4976Y-2.9591
X4.4976Y-3.0591
X4.4976Y-3.1591
X4.4976Y-3.2591
X4.4976Y-3.3591
X4.4976Y-3.4591
X4.4976Y-3.5591
X4.4976Y-3.6591
X4.4976Y-3.7591
X4.4976Y-3.8591
X4.4976Y-3.9591
X5.9843Y-4.6654
X6.7717Y-4.6654
X5.4528Y-4.4488
X5.4528Y-4.5488
X5.4528Y-4.6488
X5.7528Y-4.4488
X5.7528Y-4.6488
X4.4094Y-5.3543
X4.6063Y-5.3543
X4.4094Y-5.1575
X4.6063Y-5.1575
X5.4528Y-4.0748
X5.4528Y-4.1748
X5.4528Y-4.2748
X5.7528Y-4.0748
X5.7528Y-4.2748
X5.9843Y-3.7992
X6.7717Y-3.7992
X5.4528Y-4.9409
X5.4528Y-5.0409
X5.4528Y-5.1409
X5.7528Y-4.9409
X5.7528Y-5.1409
X5.4528Y-5.315
X5.4528Y-5.415
X5.4528Y-5.515
X5.7528Y-5.315
X5.7528Y-5.515
X5.4528Y-2.3425
X5.4528Y-2.4425
X5.4528Y-2.5425
X5.7528Y-2.3425
X5.7528Y-2.5425
X4.7047Y-2.4016
X4.7047Y-2.5984
X5.9843Y-2.3425
X6.7717Y-2.3425
X5.9843Y-3.2087
X6.7717Y-3.2087
X5.4528Y-3.5827
X5.4528Y-3.6827
X5.4528Y-3.7827
X5.7528Y-3.5827
X5.7528Y-3.7827
X5.9843Y-4.0748
X6.7717Y-4.0748
X5.9843Y-5.5315
X6.7717Y-5.5315
X5.4528Y-2.7165
X5.4528Y-2.8165
X5.4528Y-2.9165
X5.7528Y-2.7165
X5.7528Y-2.9165
X5.4528Y-3.2087
X5.4528Y-3.3087
X5.4528Y-3.4087
X5.7528Y-3.2087
X5.7528Y-3.4087
X5.9843Y-4.9409
X6.7717Y-4.9409
X7.3425Y-5.748
X7.3996Y-5.4528
X5.9843Y-2.9331
X6.7717Y-2.9331
T3
X4.5276Y-4.4488
X4.5276Y-4.8488
X5.1953Y-5.0787
X5.2953Y-5.0787
X5.1953Y-5.3346
X5.2953Y-5.3346
X5.1953Y-4.2126
X5.2953Y-4.2126
X5.1953Y-2.7362
X5.2953Y-2.7362
X5.1953Y-3.3465
X5.2953Y-3.3465
X4.3307Y-4.4488
X4.3307Y-4.8488
X5.1953Y-2.4803
X5.2953Y-2.4803
X5.1953Y-3.6024
X5.2953Y-3.6024
X5.1953Y-4.4685
X5.2953Y-4.4685
T4
X3.6811Y-2.6488
X3.6811Y-2.7488
X3.6811Y-2.8488
X3.6811Y-2.9488
X3.6811Y-3.0488
X3.6811Y-3.1488
X3.6811Y-3.2488
X3.6811Y-3.3488
X3.6811Y-3.4488
X3.6811Y-3.5488
X3.6811Y-3.6961
X3.6811Y-3.7961
X3.6811Y-3.8961
X3.6811Y-3.9961
X4.0551Y-2.2835
X4.1551Y-2.2835
X4.2551Y-2.2835
X4.3551Y-2.2835
X4.4551Y-2.2835
T5
X4.815Y-3.1299
X5.315Y-3.1299
X6.2598Y-4.2913
X6.7598Y-4.2913
X4.815Y-2.9528
X5.315Y-2.9528
X4.815Y-3.8189
X5.315Y-3.8189
X3.9173Y-4.4488
X3.9173Y-4.9488
X4.815Y-4.685
X5.315Y-4.685
X3.7402Y-4.4488
X3.7402Y-4.9488
X4.0945Y-4.4488
X4.0945Y-4.9488
X4.0354Y-5.5315
X4.5354Y-5.5315
X6.2598Y-3.4252
X6.7598Y-3.4252
X6.2598Y-2.5591
X6.7598Y-2.5591
X4.815Y-2.2638
X5.315Y-2.2638
X4.815Y-5.5512
X5.315Y-5.5512
X6.2598Y-4.4488
X6.7598Y-4.4488
X4.815Y-4.8622
X5.315Y-4.8622
X6.2598Y-5.1575
X6.7598Y-5.1575
X6.2598Y-5.315
X6.7598Y-5.315
X4.815Y-3.9961
X5.315Y-3.9961
X6.2598Y-2.7165
X6.7598Y-2.7165
X6.2598Y-3.5827
X6.7598Y-3.5827
T6
X7.0472Y-2.3228
X7.0472Y-2.5197
X7.0472Y-2.7165
X7.0472Y-2.9134
X7.0472Y-3.1496
X7.0472Y-3.3465
X7.0472Y-3.5433
X7.0472Y-3.7402
X7.0472Y-3.9764
X7.0472Y-4.1732
X7.0472Y-4.3701
X7.0472Y-4.5669
X7.0472Y-4.8031
X7.0472Y-5.
X7.0472Y-5.1969
X7.0472Y-5.3937
T7
X5.3701Y-5.8858
X6.2598Y-5.8858
X3.8543Y-5.8661
X4.7441Y-5.8661
T8
X3.7795Y-5.1378
X3.7795Y-5.3346
X3.7795Y-5.5315
X6.6142Y-5.8661
X6.811Y-5.8661
X7.0079Y-5.8661
T9
X3.6417Y-2.2638
X3.6417Y-4.1339
X3.6417Y-6.0039
X7.3819Y-2.2638
X7.3819Y-4.1339
X7.3819Y-6.0039
T0
M30
