G04 #@! TF.GenerationSoftware,KiCad,Pcbnew,(5.1.4)-1*
G04 #@! TF.CreationDate,2019-10-01T21:30:36+02:00*
G04 #@! TF.ProjectId,regulator board,72656775-6c61-4746-9f72-20626f617264,rev?*
G04 #@! TF.SameCoordinates,Original*
G04 #@! TF.FileFunction,Copper,L1,Top*
G04 #@! TF.FilePolarity,Positive*
%FSLAX46Y46*%
G04 Gerber Fmt 4.6, Leading zero omitted, Abs format (unit mm)*
G04 Created by KiCad (PCBNEW (5.1.4)-1) date 2019-10-01 21:30:36*
%MOMM*%
%LPD*%
G04 APERTURE LIST*
%ADD10R,3.000000X3.000000*%
%ADD11C,3.000000*%
%ADD12O,1.700000X1.700000*%
%ADD13R,1.700000X1.700000*%
%ADD14C,1.600000*%
%ADD15C,2.400000*%
%ADD16C,1.800000*%
%ADD17R,1.800000X1.800000*%
%ADD18R,4.500880X4.500880*%
%ADD19C,4.500880*%
%ADD20C,0.100000*%
%ADD21C,2.000000*%
%ADD22O,3.600000X2.000000*%
%ADD23R,0.800000X0.900000*%
%ADD24C,1.400000*%
%ADD25O,1.400000X1.400000*%
%ADD26C,1.700000*%
%ADD27R,1.600000X1.600000*%
%ADD28O,1.600000X1.600000*%
%ADD29R,1.100000X4.600000*%
%ADD30R,10.800000X9.400000*%
%ADD31R,5.000000X5.000000*%
%ADD32R,0.900000X2.000000*%
%ADD33R,2.000000X0.900000*%
%ADD34C,0.650000*%
%ADD35C,0.800000*%
%ADD36C,0.800000*%
%ADD37C,1.500000*%
%ADD38C,0.400000*%
G04 APERTURE END LIST*
D10*
X194500000Y-46300000D03*
D11*
X149500000Y-33500000D03*
X194500000Y-25500000D03*
X149500000Y-25500000D03*
D12*
X101960000Y-32500000D03*
D13*
X104500000Y-32500000D03*
D12*
X109500000Y-32500000D03*
D13*
X112040000Y-32500000D03*
D12*
X116960000Y-32500000D03*
D13*
X119500000Y-32500000D03*
D12*
X58640000Y-32500000D03*
X61180000Y-32500000D03*
X63720000Y-32500000D03*
X66260000Y-32500000D03*
X68800000Y-32500000D03*
X71340000Y-32500000D03*
X73880000Y-32500000D03*
X76420000Y-32500000D03*
X78960000Y-32500000D03*
X81500000Y-32500000D03*
X84040000Y-32500000D03*
X86580000Y-32500000D03*
X89120000Y-32500000D03*
X91660000Y-32500000D03*
X94200000Y-32500000D03*
D13*
X96740000Y-32500000D03*
D14*
X76500000Y-50500000D03*
X81500000Y-50500000D03*
X132000000Y-76000000D03*
X137000000Y-76000000D03*
X104000000Y-52000000D03*
X104000000Y-57000000D03*
X73000000Y-90000000D03*
X73000000Y-95000000D03*
X136000000Y-48000000D03*
X136000000Y-53000000D03*
X54000000Y-75000000D03*
X54000000Y-80000000D03*
D15*
X182000000Y-54000000D03*
X197000000Y-54000000D03*
X197000000Y-71000000D03*
X182000000Y-71000000D03*
X197000000Y-78000000D03*
X182000000Y-78000000D03*
X182000000Y-95000000D03*
X197000000Y-95000000D03*
X197000000Y-102000000D03*
X182000000Y-102000000D03*
X182000000Y-119000000D03*
X197000000Y-119000000D03*
X197000000Y-126000000D03*
X182000000Y-126000000D03*
X182000000Y-143000000D03*
X197000000Y-143000000D03*
D16*
X161460000Y-60000000D03*
D17*
X164000000Y-60000000D03*
D16*
X161460000Y-68000000D03*
D17*
X164000000Y-68000000D03*
X164000000Y-84000000D03*
D16*
X161460000Y-84000000D03*
D17*
X164000000Y-92000000D03*
D16*
X161460000Y-92000000D03*
D17*
X164000000Y-108000000D03*
D16*
X161460000Y-108000000D03*
D17*
X164000000Y-116000000D03*
D16*
X161460000Y-116000000D03*
X161460000Y-132000000D03*
D17*
X164000000Y-132000000D03*
D16*
X161460000Y-140000000D03*
D17*
X164000000Y-140000000D03*
D16*
X78000000Y-93540000D03*
D17*
X78000000Y-91000000D03*
D16*
X85000000Y-93540000D03*
D17*
X85000000Y-91000000D03*
D16*
X92000000Y-93540000D03*
D17*
X92000000Y-91000000D03*
D16*
X99000000Y-93540000D03*
D17*
X99000000Y-91000000D03*
X106000000Y-91000000D03*
D16*
X106000000Y-93540000D03*
D17*
X113000000Y-91000000D03*
D16*
X113000000Y-93540000D03*
D17*
X120000000Y-91000000D03*
D16*
X120000000Y-93540000D03*
D17*
X127000000Y-91000000D03*
D16*
X127000000Y-93540000D03*
D18*
X209000000Y-30000000D03*
D19*
X209000000Y-35715000D03*
X209000000Y-41430000D03*
D20*
G36*
X208574504Y-54001204D02*
G01*
X208598773Y-54004804D01*
X208622571Y-54010765D01*
X208645671Y-54019030D01*
X208667849Y-54029520D01*
X208688893Y-54042133D01*
X208708598Y-54056747D01*
X208726777Y-54073223D01*
X208743253Y-54091402D01*
X208757867Y-54111107D01*
X208770480Y-54132151D01*
X208780970Y-54154329D01*
X208789235Y-54177429D01*
X208795196Y-54201227D01*
X208798796Y-54225496D01*
X208800000Y-54250000D01*
X208800000Y-55750000D01*
X208798796Y-55774504D01*
X208795196Y-55798773D01*
X208789235Y-55822571D01*
X208780970Y-55845671D01*
X208770480Y-55867849D01*
X208757867Y-55888893D01*
X208743253Y-55908598D01*
X208726777Y-55926777D01*
X208708598Y-55943253D01*
X208688893Y-55957867D01*
X208667849Y-55970480D01*
X208645671Y-55980970D01*
X208622571Y-55989235D01*
X208598773Y-55995196D01*
X208574504Y-55998796D01*
X208550000Y-56000000D01*
X205450000Y-56000000D01*
X205425496Y-55998796D01*
X205401227Y-55995196D01*
X205377429Y-55989235D01*
X205354329Y-55980970D01*
X205332151Y-55970480D01*
X205311107Y-55957867D01*
X205291402Y-55943253D01*
X205273223Y-55926777D01*
X205256747Y-55908598D01*
X205242133Y-55888893D01*
X205229520Y-55867849D01*
X205219030Y-55845671D01*
X205210765Y-55822571D01*
X205204804Y-55798773D01*
X205201204Y-55774504D01*
X205200000Y-55750000D01*
X205200000Y-54250000D01*
X205201204Y-54225496D01*
X205204804Y-54201227D01*
X205210765Y-54177429D01*
X205219030Y-54154329D01*
X205229520Y-54132151D01*
X205242133Y-54111107D01*
X205256747Y-54091402D01*
X205273223Y-54073223D01*
X205291402Y-54056747D01*
X205311107Y-54042133D01*
X205332151Y-54029520D01*
X205354329Y-54019030D01*
X205377429Y-54010765D01*
X205401227Y-54004804D01*
X205425496Y-54001204D01*
X205450000Y-54000000D01*
X208550000Y-54000000D01*
X208574504Y-54001204D01*
X208574504Y-54001204D01*
G37*
D21*
X207000000Y-55000000D03*
D22*
X207000000Y-60000000D03*
X207000000Y-65000000D03*
X207000000Y-70000000D03*
D13*
X50000000Y-65000000D03*
D12*
X50000000Y-62460000D03*
X50000000Y-59920000D03*
X50000000Y-57380000D03*
D22*
X207000000Y-94000000D03*
X207000000Y-89000000D03*
X207000000Y-84000000D03*
D20*
G36*
X208574504Y-78001204D02*
G01*
X208598773Y-78004804D01*
X208622571Y-78010765D01*
X208645671Y-78019030D01*
X208667849Y-78029520D01*
X208688893Y-78042133D01*
X208708598Y-78056747D01*
X208726777Y-78073223D01*
X208743253Y-78091402D01*
X208757867Y-78111107D01*
X208770480Y-78132151D01*
X208780970Y-78154329D01*
X208789235Y-78177429D01*
X208795196Y-78201227D01*
X208798796Y-78225496D01*
X208800000Y-78250000D01*
X208800000Y-79750000D01*
X208798796Y-79774504D01*
X208795196Y-79798773D01*
X208789235Y-79822571D01*
X208780970Y-79845671D01*
X208770480Y-79867849D01*
X208757867Y-79888893D01*
X208743253Y-79908598D01*
X208726777Y-79926777D01*
X208708598Y-79943253D01*
X208688893Y-79957867D01*
X208667849Y-79970480D01*
X208645671Y-79980970D01*
X208622571Y-79989235D01*
X208598773Y-79995196D01*
X208574504Y-79998796D01*
X208550000Y-80000000D01*
X205450000Y-80000000D01*
X205425496Y-79998796D01*
X205401227Y-79995196D01*
X205377429Y-79989235D01*
X205354329Y-79980970D01*
X205332151Y-79970480D01*
X205311107Y-79957867D01*
X205291402Y-79943253D01*
X205273223Y-79926777D01*
X205256747Y-79908598D01*
X205242133Y-79888893D01*
X205229520Y-79867849D01*
X205219030Y-79845671D01*
X205210765Y-79822571D01*
X205204804Y-79798773D01*
X205201204Y-79774504D01*
X205200000Y-79750000D01*
X205200000Y-78250000D01*
X205201204Y-78225496D01*
X205204804Y-78201227D01*
X205210765Y-78177429D01*
X205219030Y-78154329D01*
X205229520Y-78132151D01*
X205242133Y-78111107D01*
X205256747Y-78091402D01*
X205273223Y-78073223D01*
X205291402Y-78056747D01*
X205311107Y-78042133D01*
X205332151Y-78029520D01*
X205354329Y-78019030D01*
X205377429Y-78010765D01*
X205401227Y-78004804D01*
X205425496Y-78001204D01*
X205450000Y-78000000D01*
X208550000Y-78000000D01*
X208574504Y-78001204D01*
X208574504Y-78001204D01*
G37*
D21*
X207000000Y-79000000D03*
D20*
G36*
X208574504Y-102001204D02*
G01*
X208598773Y-102004804D01*
X208622571Y-102010765D01*
X208645671Y-102019030D01*
X208667849Y-102029520D01*
X208688893Y-102042133D01*
X208708598Y-102056747D01*
X208726777Y-102073223D01*
X208743253Y-102091402D01*
X208757867Y-102111107D01*
X208770480Y-102132151D01*
X208780970Y-102154329D01*
X208789235Y-102177429D01*
X208795196Y-102201227D01*
X208798796Y-102225496D01*
X208800000Y-102250000D01*
X208800000Y-103750000D01*
X208798796Y-103774504D01*
X208795196Y-103798773D01*
X208789235Y-103822571D01*
X208780970Y-103845671D01*
X208770480Y-103867849D01*
X208757867Y-103888893D01*
X208743253Y-103908598D01*
X208726777Y-103926777D01*
X208708598Y-103943253D01*
X208688893Y-103957867D01*
X208667849Y-103970480D01*
X208645671Y-103980970D01*
X208622571Y-103989235D01*
X208598773Y-103995196D01*
X208574504Y-103998796D01*
X208550000Y-104000000D01*
X205450000Y-104000000D01*
X205425496Y-103998796D01*
X205401227Y-103995196D01*
X205377429Y-103989235D01*
X205354329Y-103980970D01*
X205332151Y-103970480D01*
X205311107Y-103957867D01*
X205291402Y-103943253D01*
X205273223Y-103926777D01*
X205256747Y-103908598D01*
X205242133Y-103888893D01*
X205229520Y-103867849D01*
X205219030Y-103845671D01*
X205210765Y-103822571D01*
X205204804Y-103798773D01*
X205201204Y-103774504D01*
X205200000Y-103750000D01*
X205200000Y-102250000D01*
X205201204Y-102225496D01*
X205204804Y-102201227D01*
X205210765Y-102177429D01*
X205219030Y-102154329D01*
X205229520Y-102132151D01*
X205242133Y-102111107D01*
X205256747Y-102091402D01*
X205273223Y-102073223D01*
X205291402Y-102056747D01*
X205311107Y-102042133D01*
X205332151Y-102029520D01*
X205354329Y-102019030D01*
X205377429Y-102010765D01*
X205401227Y-102004804D01*
X205425496Y-102001204D01*
X205450000Y-102000000D01*
X208550000Y-102000000D01*
X208574504Y-102001204D01*
X208574504Y-102001204D01*
G37*
D21*
X207000000Y-103000000D03*
D22*
X207000000Y-108000000D03*
X207000000Y-113000000D03*
X207000000Y-118000000D03*
X207000000Y-142000000D03*
X207000000Y-137000000D03*
X207000000Y-132000000D03*
D20*
G36*
X208574504Y-126001204D02*
G01*
X208598773Y-126004804D01*
X208622571Y-126010765D01*
X208645671Y-126019030D01*
X208667849Y-126029520D01*
X208688893Y-126042133D01*
X208708598Y-126056747D01*
X208726777Y-126073223D01*
X208743253Y-126091402D01*
X208757867Y-126111107D01*
X208770480Y-126132151D01*
X208780970Y-126154329D01*
X208789235Y-126177429D01*
X208795196Y-126201227D01*
X208798796Y-126225496D01*
X208800000Y-126250000D01*
X208800000Y-127750000D01*
X208798796Y-127774504D01*
X208795196Y-127798773D01*
X208789235Y-127822571D01*
X208780970Y-127845671D01*
X208770480Y-127867849D01*
X208757867Y-127888893D01*
X208743253Y-127908598D01*
X208726777Y-127926777D01*
X208708598Y-127943253D01*
X208688893Y-127957867D01*
X208667849Y-127970480D01*
X208645671Y-127980970D01*
X208622571Y-127989235D01*
X208598773Y-127995196D01*
X208574504Y-127998796D01*
X208550000Y-128000000D01*
X205450000Y-128000000D01*
X205425496Y-127998796D01*
X205401227Y-127995196D01*
X205377429Y-127989235D01*
X205354329Y-127980970D01*
X205332151Y-127970480D01*
X205311107Y-127957867D01*
X205291402Y-127943253D01*
X205273223Y-127926777D01*
X205256747Y-127908598D01*
X205242133Y-127888893D01*
X205229520Y-127867849D01*
X205219030Y-127845671D01*
X205210765Y-127822571D01*
X205204804Y-127798773D01*
X205201204Y-127774504D01*
X205200000Y-127750000D01*
X205200000Y-126250000D01*
X205201204Y-126225496D01*
X205204804Y-126201227D01*
X205210765Y-126177429D01*
X205219030Y-126154329D01*
X205229520Y-126132151D01*
X205242133Y-126111107D01*
X205256747Y-126091402D01*
X205273223Y-126073223D01*
X205291402Y-126056747D01*
X205311107Y-126042133D01*
X205332151Y-126029520D01*
X205354329Y-126019030D01*
X205377429Y-126010765D01*
X205401227Y-126004804D01*
X205425496Y-126001204D01*
X205450000Y-126000000D01*
X208550000Y-126000000D01*
X208574504Y-126001204D01*
X208574504Y-126001204D01*
G37*
D21*
X207000000Y-127000000D03*
D23*
X146000000Y-89000000D03*
X146950000Y-91000000D03*
X145050000Y-91000000D03*
X127450000Y-40500000D03*
X125550000Y-40500000D03*
X126500000Y-42500000D03*
X119450000Y-41000000D03*
X117550000Y-41000000D03*
X118500000Y-43000000D03*
D24*
X146000000Y-55000000D03*
D25*
X140920000Y-55000000D03*
X192080000Y-60000000D03*
D24*
X187000000Y-60000000D03*
D25*
X140920000Y-58000000D03*
D24*
X146000000Y-58000000D03*
D25*
X192080000Y-65000000D03*
D24*
X187000000Y-65000000D03*
X146000000Y-61000000D03*
D25*
X140920000Y-61000000D03*
D24*
X61000000Y-68000000D03*
D25*
X61000000Y-62920000D03*
X192080000Y-84000000D03*
D24*
X187000000Y-84000000D03*
D25*
X140920000Y-64000000D03*
D24*
X146000000Y-64000000D03*
X187000000Y-89000000D03*
D25*
X192080000Y-89000000D03*
D24*
X146000000Y-67000000D03*
D25*
X140920000Y-67000000D03*
X192080000Y-108000000D03*
D24*
X187000000Y-108000000D03*
D25*
X140920000Y-70000000D03*
D24*
X146000000Y-70000000D03*
D25*
X192080000Y-113000000D03*
D24*
X187000000Y-113000000D03*
X111500000Y-41500000D03*
D25*
X106420000Y-41500000D03*
X106420000Y-37500000D03*
D24*
X111500000Y-37500000D03*
X146000000Y-73000000D03*
D25*
X140920000Y-73000000D03*
X192080000Y-132000000D03*
D24*
X187000000Y-132000000D03*
D25*
X140920000Y-76000000D03*
D24*
X146000000Y-76000000D03*
D25*
X192080000Y-137000000D03*
D24*
X187000000Y-137000000D03*
D25*
X95000000Y-98920000D03*
D24*
X95000000Y-104000000D03*
X98000000Y-104000000D03*
D25*
X98000000Y-98920000D03*
X101000000Y-98920000D03*
D24*
X101000000Y-104000000D03*
X125500000Y-37500000D03*
D25*
X130580000Y-37500000D03*
D24*
X104000000Y-104000000D03*
D25*
X104000000Y-98920000D03*
X107000000Y-98920000D03*
D24*
X107000000Y-104000000D03*
X110000000Y-104000000D03*
D25*
X110000000Y-98920000D03*
X113000000Y-98920000D03*
D24*
X113000000Y-104000000D03*
X116000000Y-104000000D03*
D25*
X116000000Y-98920000D03*
D24*
X51000000Y-91000000D03*
D25*
X51000000Y-85920000D03*
D24*
X116000000Y-37500000D03*
D25*
X121080000Y-37500000D03*
D24*
X54000000Y-91000000D03*
D25*
X54000000Y-85920000D03*
D24*
X57000000Y-91000000D03*
D25*
X57000000Y-85920000D03*
D24*
X60000000Y-91000000D03*
D25*
X60000000Y-85920000D03*
D16*
X202000000Y-37000000D03*
X203400000Y-29500000D03*
D26*
X54000000Y-69000000D03*
X54000000Y-62500000D03*
X58500000Y-69000000D03*
X58500000Y-62500000D03*
X58500000Y-52500000D03*
X58500000Y-59000000D03*
X54000000Y-52500000D03*
X54000000Y-59000000D03*
D21*
X51000000Y-102000000D03*
X56000000Y-102000000D03*
X56000000Y-97000000D03*
X51000000Y-97000000D03*
X51000000Y-111000000D03*
X56000000Y-111000000D03*
X56000000Y-116000000D03*
X51000000Y-116000000D03*
X51000000Y-130000000D03*
X56000000Y-130000000D03*
X56000000Y-125000000D03*
X51000000Y-125000000D03*
X51000000Y-139000000D03*
X56000000Y-139000000D03*
X56000000Y-144000000D03*
X51000000Y-144000000D03*
D26*
X146000000Y-105490000D03*
X146000000Y-108030000D03*
X146000000Y-110570000D03*
X146000000Y-113110000D03*
X146000000Y-115650000D03*
X146000000Y-118190000D03*
X146000000Y-120730000D03*
X146000000Y-123270000D03*
X146000000Y-130890000D03*
X146000000Y-128350000D03*
X146000000Y-135970000D03*
X146000000Y-133430000D03*
X146000000Y-125810000D03*
X146000000Y-138510000D03*
X65000000Y-120730000D03*
X65000000Y-118190000D03*
X65000000Y-125730000D03*
X65000000Y-123190000D03*
D27*
X168000000Y-57000000D03*
D28*
X175620000Y-62080000D03*
X168000000Y-59540000D03*
X175620000Y-59540000D03*
X168000000Y-62080000D03*
X175620000Y-57000000D03*
D29*
X141040000Y-30725000D03*
X138500000Y-30725000D03*
X135960000Y-30725000D03*
D30*
X138500000Y-39875000D03*
D28*
X127000000Y-64620000D03*
X109220000Y-57000000D03*
X124460000Y-64620000D03*
X111760000Y-57000000D03*
X121920000Y-64620000D03*
X114300000Y-57000000D03*
X119380000Y-64620000D03*
X116840000Y-57000000D03*
X116840000Y-64620000D03*
X119380000Y-57000000D03*
X114300000Y-64620000D03*
X121920000Y-57000000D03*
X111760000Y-64620000D03*
X124460000Y-57000000D03*
X109220000Y-64620000D03*
D27*
X127000000Y-57000000D03*
D28*
X175620000Y-66000000D03*
X168000000Y-71080000D03*
X175620000Y-68540000D03*
X168000000Y-68540000D03*
X175620000Y-71080000D03*
D27*
X168000000Y-66000000D03*
X168000000Y-81000000D03*
D28*
X175620000Y-86080000D03*
X168000000Y-83540000D03*
X175620000Y-83540000D03*
X168000000Y-86080000D03*
X175620000Y-81000000D03*
X175620000Y-90000000D03*
X168000000Y-95080000D03*
X175620000Y-92540000D03*
X168000000Y-92540000D03*
X175620000Y-95080000D03*
D27*
X168000000Y-90000000D03*
X168000000Y-105000000D03*
D28*
X175620000Y-110080000D03*
X168000000Y-107540000D03*
X175620000Y-107540000D03*
X168000000Y-110080000D03*
X175620000Y-105000000D03*
D31*
X87245000Y-70000000D03*
D32*
X79745000Y-77500000D03*
X81015000Y-77500000D03*
X82285000Y-77500000D03*
X83555000Y-77500000D03*
X84825000Y-77500000D03*
X86095000Y-77500000D03*
X87365000Y-77500000D03*
X88635000Y-77500000D03*
X89905000Y-77500000D03*
X91175000Y-77500000D03*
X92445000Y-77500000D03*
X93715000Y-77500000D03*
X94985000Y-77500000D03*
X96255000Y-77500000D03*
D33*
X97255000Y-74715000D03*
X97255000Y-73445000D03*
X97255000Y-72175000D03*
X97255000Y-70905000D03*
X97255000Y-69635000D03*
X97255000Y-68365000D03*
X97255000Y-67095000D03*
X97255000Y-65825000D03*
X97255000Y-64555000D03*
X97255000Y-63285000D03*
D32*
X96255000Y-60500000D03*
X94985000Y-60500000D03*
X93715000Y-60500000D03*
X92445000Y-60500000D03*
X91175000Y-60500000D03*
X89905000Y-60500000D03*
X88635000Y-60500000D03*
X87365000Y-60500000D03*
X86095000Y-60500000D03*
X84825000Y-60500000D03*
X83555000Y-60500000D03*
X82285000Y-60500000D03*
X81015000Y-60500000D03*
X79745000Y-60500000D03*
D28*
X175620000Y-114000000D03*
X168000000Y-119080000D03*
X175620000Y-116540000D03*
X168000000Y-116540000D03*
X175620000Y-119080000D03*
D27*
X168000000Y-114000000D03*
X168000000Y-129000000D03*
D28*
X175620000Y-134080000D03*
X168000000Y-131540000D03*
X175620000Y-131540000D03*
X168000000Y-134080000D03*
X175620000Y-129000000D03*
X175620000Y-138000000D03*
X168000000Y-143080000D03*
X175620000Y-140540000D03*
X168000000Y-140540000D03*
X175620000Y-143080000D03*
D27*
X168000000Y-138000000D03*
X109000000Y-80000000D03*
D28*
X126780000Y-72380000D03*
X111540000Y-80000000D03*
X124240000Y-72380000D03*
X114080000Y-80000000D03*
X121700000Y-72380000D03*
X116620000Y-80000000D03*
X119160000Y-72380000D03*
X119160000Y-80000000D03*
X116620000Y-72380000D03*
X121700000Y-80000000D03*
X114080000Y-72380000D03*
X124240000Y-80000000D03*
X111540000Y-72380000D03*
X126780000Y-80000000D03*
X109000000Y-72380000D03*
X101500000Y-46120000D03*
X83720000Y-38500000D03*
X98960000Y-46120000D03*
X86260000Y-38500000D03*
X96420000Y-46120000D03*
X88800000Y-38500000D03*
X93880000Y-46120000D03*
X91340000Y-38500000D03*
X91340000Y-46120000D03*
X93880000Y-38500000D03*
X88800000Y-46120000D03*
X96420000Y-38500000D03*
X86260000Y-46120000D03*
X98960000Y-38500000D03*
X83720000Y-46120000D03*
D27*
X101500000Y-38500000D03*
D20*
G36*
X126303428Y-47270782D02*
G01*
X126319202Y-47273122D01*
X126334671Y-47276997D01*
X126349686Y-47282370D01*
X126364102Y-47289188D01*
X126377780Y-47297386D01*
X126390589Y-47306886D01*
X126402405Y-47317595D01*
X126413114Y-47329411D01*
X126422614Y-47342220D01*
X126430812Y-47355898D01*
X126437630Y-47370314D01*
X126443003Y-47385329D01*
X126446878Y-47400798D01*
X126449218Y-47416572D01*
X126450000Y-47432500D01*
X126450000Y-47757500D01*
X126449218Y-47773428D01*
X126446878Y-47789202D01*
X126443003Y-47804671D01*
X126437630Y-47819686D01*
X126430812Y-47834102D01*
X126422614Y-47847780D01*
X126413114Y-47860589D01*
X126402405Y-47872405D01*
X126390589Y-47883114D01*
X126377780Y-47892614D01*
X126364102Y-47900812D01*
X126349686Y-47907630D01*
X126334671Y-47913003D01*
X126319202Y-47916878D01*
X126303428Y-47919218D01*
X126287500Y-47920000D01*
X124637500Y-47920000D01*
X124621572Y-47919218D01*
X124605798Y-47916878D01*
X124590329Y-47913003D01*
X124575314Y-47907630D01*
X124560898Y-47900812D01*
X124547220Y-47892614D01*
X124534411Y-47883114D01*
X124522595Y-47872405D01*
X124511886Y-47860589D01*
X124502386Y-47847780D01*
X124494188Y-47834102D01*
X124487370Y-47819686D01*
X124481997Y-47804671D01*
X124478122Y-47789202D01*
X124475782Y-47773428D01*
X124475000Y-47757500D01*
X124475000Y-47432500D01*
X124475782Y-47416572D01*
X124478122Y-47400798D01*
X124481997Y-47385329D01*
X124487370Y-47370314D01*
X124494188Y-47355898D01*
X124502386Y-47342220D01*
X124511886Y-47329411D01*
X124522595Y-47317595D01*
X124534411Y-47306886D01*
X124547220Y-47297386D01*
X124560898Y-47289188D01*
X124575314Y-47282370D01*
X124590329Y-47276997D01*
X124605798Y-47273122D01*
X124621572Y-47270782D01*
X124637500Y-47270000D01*
X126287500Y-47270000D01*
X126303428Y-47270782D01*
X126303428Y-47270782D01*
G37*
D34*
X125462500Y-47595000D03*
D20*
G36*
X126303428Y-48540782D02*
G01*
X126319202Y-48543122D01*
X126334671Y-48546997D01*
X126349686Y-48552370D01*
X126364102Y-48559188D01*
X126377780Y-48567386D01*
X126390589Y-48576886D01*
X126402405Y-48587595D01*
X126413114Y-48599411D01*
X126422614Y-48612220D01*
X126430812Y-48625898D01*
X126437630Y-48640314D01*
X126443003Y-48655329D01*
X126446878Y-48670798D01*
X126449218Y-48686572D01*
X126450000Y-48702500D01*
X126450000Y-49027500D01*
X126449218Y-49043428D01*
X126446878Y-49059202D01*
X126443003Y-49074671D01*
X126437630Y-49089686D01*
X126430812Y-49104102D01*
X126422614Y-49117780D01*
X126413114Y-49130589D01*
X126402405Y-49142405D01*
X126390589Y-49153114D01*
X126377780Y-49162614D01*
X126364102Y-49170812D01*
X126349686Y-49177630D01*
X126334671Y-49183003D01*
X126319202Y-49186878D01*
X126303428Y-49189218D01*
X126287500Y-49190000D01*
X124637500Y-49190000D01*
X124621572Y-49189218D01*
X124605798Y-49186878D01*
X124590329Y-49183003D01*
X124575314Y-49177630D01*
X124560898Y-49170812D01*
X124547220Y-49162614D01*
X124534411Y-49153114D01*
X124522595Y-49142405D01*
X124511886Y-49130589D01*
X124502386Y-49117780D01*
X124494188Y-49104102D01*
X124487370Y-49089686D01*
X124481997Y-49074671D01*
X124478122Y-49059202D01*
X124475782Y-49043428D01*
X124475000Y-49027500D01*
X124475000Y-48702500D01*
X124475782Y-48686572D01*
X124478122Y-48670798D01*
X124481997Y-48655329D01*
X124487370Y-48640314D01*
X124494188Y-48625898D01*
X124502386Y-48612220D01*
X124511886Y-48599411D01*
X124522595Y-48587595D01*
X124534411Y-48576886D01*
X124547220Y-48567386D01*
X124560898Y-48559188D01*
X124575314Y-48552370D01*
X124590329Y-48546997D01*
X124605798Y-48543122D01*
X124621572Y-48540782D01*
X124637500Y-48540000D01*
X126287500Y-48540000D01*
X126303428Y-48540782D01*
X126303428Y-48540782D01*
G37*
D34*
X125462500Y-48865000D03*
D20*
G36*
X126303428Y-49810782D02*
G01*
X126319202Y-49813122D01*
X126334671Y-49816997D01*
X126349686Y-49822370D01*
X126364102Y-49829188D01*
X126377780Y-49837386D01*
X126390589Y-49846886D01*
X126402405Y-49857595D01*
X126413114Y-49869411D01*
X126422614Y-49882220D01*
X126430812Y-49895898D01*
X126437630Y-49910314D01*
X126443003Y-49925329D01*
X126446878Y-49940798D01*
X126449218Y-49956572D01*
X126450000Y-49972500D01*
X126450000Y-50297500D01*
X126449218Y-50313428D01*
X126446878Y-50329202D01*
X126443003Y-50344671D01*
X126437630Y-50359686D01*
X126430812Y-50374102D01*
X126422614Y-50387780D01*
X126413114Y-50400589D01*
X126402405Y-50412405D01*
X126390589Y-50423114D01*
X126377780Y-50432614D01*
X126364102Y-50440812D01*
X126349686Y-50447630D01*
X126334671Y-50453003D01*
X126319202Y-50456878D01*
X126303428Y-50459218D01*
X126287500Y-50460000D01*
X124637500Y-50460000D01*
X124621572Y-50459218D01*
X124605798Y-50456878D01*
X124590329Y-50453003D01*
X124575314Y-50447630D01*
X124560898Y-50440812D01*
X124547220Y-50432614D01*
X124534411Y-50423114D01*
X124522595Y-50412405D01*
X124511886Y-50400589D01*
X124502386Y-50387780D01*
X124494188Y-50374102D01*
X124487370Y-50359686D01*
X124481997Y-50344671D01*
X124478122Y-50329202D01*
X124475782Y-50313428D01*
X124475000Y-50297500D01*
X124475000Y-49972500D01*
X124475782Y-49956572D01*
X124478122Y-49940798D01*
X124481997Y-49925329D01*
X124487370Y-49910314D01*
X124494188Y-49895898D01*
X124502386Y-49882220D01*
X124511886Y-49869411D01*
X124522595Y-49857595D01*
X124534411Y-49846886D01*
X124547220Y-49837386D01*
X124560898Y-49829188D01*
X124575314Y-49822370D01*
X124590329Y-49816997D01*
X124605798Y-49813122D01*
X124621572Y-49810782D01*
X124637500Y-49810000D01*
X126287500Y-49810000D01*
X126303428Y-49810782D01*
X126303428Y-49810782D01*
G37*
D34*
X125462500Y-50135000D03*
D20*
G36*
X126303428Y-51080782D02*
G01*
X126319202Y-51083122D01*
X126334671Y-51086997D01*
X126349686Y-51092370D01*
X126364102Y-51099188D01*
X126377780Y-51107386D01*
X126390589Y-51116886D01*
X126402405Y-51127595D01*
X126413114Y-51139411D01*
X126422614Y-51152220D01*
X126430812Y-51165898D01*
X126437630Y-51180314D01*
X126443003Y-51195329D01*
X126446878Y-51210798D01*
X126449218Y-51226572D01*
X126450000Y-51242500D01*
X126450000Y-51567500D01*
X126449218Y-51583428D01*
X126446878Y-51599202D01*
X126443003Y-51614671D01*
X126437630Y-51629686D01*
X126430812Y-51644102D01*
X126422614Y-51657780D01*
X126413114Y-51670589D01*
X126402405Y-51682405D01*
X126390589Y-51693114D01*
X126377780Y-51702614D01*
X126364102Y-51710812D01*
X126349686Y-51717630D01*
X126334671Y-51723003D01*
X126319202Y-51726878D01*
X126303428Y-51729218D01*
X126287500Y-51730000D01*
X124637500Y-51730000D01*
X124621572Y-51729218D01*
X124605798Y-51726878D01*
X124590329Y-51723003D01*
X124575314Y-51717630D01*
X124560898Y-51710812D01*
X124547220Y-51702614D01*
X124534411Y-51693114D01*
X124522595Y-51682405D01*
X124511886Y-51670589D01*
X124502386Y-51657780D01*
X124494188Y-51644102D01*
X124487370Y-51629686D01*
X124481997Y-51614671D01*
X124478122Y-51599202D01*
X124475782Y-51583428D01*
X124475000Y-51567500D01*
X124475000Y-51242500D01*
X124475782Y-51226572D01*
X124478122Y-51210798D01*
X124481997Y-51195329D01*
X124487370Y-51180314D01*
X124494188Y-51165898D01*
X124502386Y-51152220D01*
X124511886Y-51139411D01*
X124522595Y-51127595D01*
X124534411Y-51116886D01*
X124547220Y-51107386D01*
X124560898Y-51099188D01*
X124575314Y-51092370D01*
X124590329Y-51086997D01*
X124605798Y-51083122D01*
X124621572Y-51080782D01*
X124637500Y-51080000D01*
X126287500Y-51080000D01*
X126303428Y-51080782D01*
X126303428Y-51080782D01*
G37*
D34*
X125462500Y-51405000D03*
D20*
G36*
X131378428Y-51080782D02*
G01*
X131394202Y-51083122D01*
X131409671Y-51086997D01*
X131424686Y-51092370D01*
X131439102Y-51099188D01*
X131452780Y-51107386D01*
X131465589Y-51116886D01*
X131477405Y-51127595D01*
X131488114Y-51139411D01*
X131497614Y-51152220D01*
X131505812Y-51165898D01*
X131512630Y-51180314D01*
X131518003Y-51195329D01*
X131521878Y-51210798D01*
X131524218Y-51226572D01*
X131525000Y-51242500D01*
X131525000Y-51567500D01*
X131524218Y-51583428D01*
X131521878Y-51599202D01*
X131518003Y-51614671D01*
X131512630Y-51629686D01*
X131505812Y-51644102D01*
X131497614Y-51657780D01*
X131488114Y-51670589D01*
X131477405Y-51682405D01*
X131465589Y-51693114D01*
X131452780Y-51702614D01*
X131439102Y-51710812D01*
X131424686Y-51717630D01*
X131409671Y-51723003D01*
X131394202Y-51726878D01*
X131378428Y-51729218D01*
X131362500Y-51730000D01*
X129712500Y-51730000D01*
X129696572Y-51729218D01*
X129680798Y-51726878D01*
X129665329Y-51723003D01*
X129650314Y-51717630D01*
X129635898Y-51710812D01*
X129622220Y-51702614D01*
X129609411Y-51693114D01*
X129597595Y-51682405D01*
X129586886Y-51670589D01*
X129577386Y-51657780D01*
X129569188Y-51644102D01*
X129562370Y-51629686D01*
X129556997Y-51614671D01*
X129553122Y-51599202D01*
X129550782Y-51583428D01*
X129550000Y-51567500D01*
X129550000Y-51242500D01*
X129550782Y-51226572D01*
X129553122Y-51210798D01*
X129556997Y-51195329D01*
X129562370Y-51180314D01*
X129569188Y-51165898D01*
X129577386Y-51152220D01*
X129586886Y-51139411D01*
X129597595Y-51127595D01*
X129609411Y-51116886D01*
X129622220Y-51107386D01*
X129635898Y-51099188D01*
X129650314Y-51092370D01*
X129665329Y-51086997D01*
X129680798Y-51083122D01*
X129696572Y-51080782D01*
X129712500Y-51080000D01*
X131362500Y-51080000D01*
X131378428Y-51080782D01*
X131378428Y-51080782D01*
G37*
D34*
X130537500Y-51405000D03*
D20*
G36*
X131378428Y-49810782D02*
G01*
X131394202Y-49813122D01*
X131409671Y-49816997D01*
X131424686Y-49822370D01*
X131439102Y-49829188D01*
X131452780Y-49837386D01*
X131465589Y-49846886D01*
X131477405Y-49857595D01*
X131488114Y-49869411D01*
X131497614Y-49882220D01*
X131505812Y-49895898D01*
X131512630Y-49910314D01*
X131518003Y-49925329D01*
X131521878Y-49940798D01*
X131524218Y-49956572D01*
X131525000Y-49972500D01*
X131525000Y-50297500D01*
X131524218Y-50313428D01*
X131521878Y-50329202D01*
X131518003Y-50344671D01*
X131512630Y-50359686D01*
X131505812Y-50374102D01*
X131497614Y-50387780D01*
X131488114Y-50400589D01*
X131477405Y-50412405D01*
X131465589Y-50423114D01*
X131452780Y-50432614D01*
X131439102Y-50440812D01*
X131424686Y-50447630D01*
X131409671Y-50453003D01*
X131394202Y-50456878D01*
X131378428Y-50459218D01*
X131362500Y-50460000D01*
X129712500Y-50460000D01*
X129696572Y-50459218D01*
X129680798Y-50456878D01*
X129665329Y-50453003D01*
X129650314Y-50447630D01*
X129635898Y-50440812D01*
X129622220Y-50432614D01*
X129609411Y-50423114D01*
X129597595Y-50412405D01*
X129586886Y-50400589D01*
X129577386Y-50387780D01*
X129569188Y-50374102D01*
X129562370Y-50359686D01*
X129556997Y-50344671D01*
X129553122Y-50329202D01*
X129550782Y-50313428D01*
X129550000Y-50297500D01*
X129550000Y-49972500D01*
X129550782Y-49956572D01*
X129553122Y-49940798D01*
X129556997Y-49925329D01*
X129562370Y-49910314D01*
X129569188Y-49895898D01*
X129577386Y-49882220D01*
X129586886Y-49869411D01*
X129597595Y-49857595D01*
X129609411Y-49846886D01*
X129622220Y-49837386D01*
X129635898Y-49829188D01*
X129650314Y-49822370D01*
X129665329Y-49816997D01*
X129680798Y-49813122D01*
X129696572Y-49810782D01*
X129712500Y-49810000D01*
X131362500Y-49810000D01*
X131378428Y-49810782D01*
X131378428Y-49810782D01*
G37*
D34*
X130537500Y-50135000D03*
D20*
G36*
X131378428Y-48540782D02*
G01*
X131394202Y-48543122D01*
X131409671Y-48546997D01*
X131424686Y-48552370D01*
X131439102Y-48559188D01*
X131452780Y-48567386D01*
X131465589Y-48576886D01*
X131477405Y-48587595D01*
X131488114Y-48599411D01*
X131497614Y-48612220D01*
X131505812Y-48625898D01*
X131512630Y-48640314D01*
X131518003Y-48655329D01*
X131521878Y-48670798D01*
X131524218Y-48686572D01*
X131525000Y-48702500D01*
X131525000Y-49027500D01*
X131524218Y-49043428D01*
X131521878Y-49059202D01*
X131518003Y-49074671D01*
X131512630Y-49089686D01*
X131505812Y-49104102D01*
X131497614Y-49117780D01*
X131488114Y-49130589D01*
X131477405Y-49142405D01*
X131465589Y-49153114D01*
X131452780Y-49162614D01*
X131439102Y-49170812D01*
X131424686Y-49177630D01*
X131409671Y-49183003D01*
X131394202Y-49186878D01*
X131378428Y-49189218D01*
X131362500Y-49190000D01*
X129712500Y-49190000D01*
X129696572Y-49189218D01*
X129680798Y-49186878D01*
X129665329Y-49183003D01*
X129650314Y-49177630D01*
X129635898Y-49170812D01*
X129622220Y-49162614D01*
X129609411Y-49153114D01*
X129597595Y-49142405D01*
X129586886Y-49130589D01*
X129577386Y-49117780D01*
X129569188Y-49104102D01*
X129562370Y-49089686D01*
X129556997Y-49074671D01*
X129553122Y-49059202D01*
X129550782Y-49043428D01*
X129550000Y-49027500D01*
X129550000Y-48702500D01*
X129550782Y-48686572D01*
X129553122Y-48670798D01*
X129556997Y-48655329D01*
X129562370Y-48640314D01*
X129569188Y-48625898D01*
X129577386Y-48612220D01*
X129586886Y-48599411D01*
X129597595Y-48587595D01*
X129609411Y-48576886D01*
X129622220Y-48567386D01*
X129635898Y-48559188D01*
X129650314Y-48552370D01*
X129665329Y-48546997D01*
X129680798Y-48543122D01*
X129696572Y-48540782D01*
X129712500Y-48540000D01*
X131362500Y-48540000D01*
X131378428Y-48540782D01*
X131378428Y-48540782D01*
G37*
D34*
X130537500Y-48865000D03*
D20*
G36*
X131378428Y-47270782D02*
G01*
X131394202Y-47273122D01*
X131409671Y-47276997D01*
X131424686Y-47282370D01*
X131439102Y-47289188D01*
X131452780Y-47297386D01*
X131465589Y-47306886D01*
X131477405Y-47317595D01*
X131488114Y-47329411D01*
X131497614Y-47342220D01*
X131505812Y-47355898D01*
X131512630Y-47370314D01*
X131518003Y-47385329D01*
X131521878Y-47400798D01*
X131524218Y-47416572D01*
X131525000Y-47432500D01*
X131525000Y-47757500D01*
X131524218Y-47773428D01*
X131521878Y-47789202D01*
X131518003Y-47804671D01*
X131512630Y-47819686D01*
X131505812Y-47834102D01*
X131497614Y-47847780D01*
X131488114Y-47860589D01*
X131477405Y-47872405D01*
X131465589Y-47883114D01*
X131452780Y-47892614D01*
X131439102Y-47900812D01*
X131424686Y-47907630D01*
X131409671Y-47913003D01*
X131394202Y-47916878D01*
X131378428Y-47919218D01*
X131362500Y-47920000D01*
X129712500Y-47920000D01*
X129696572Y-47919218D01*
X129680798Y-47916878D01*
X129665329Y-47913003D01*
X129650314Y-47907630D01*
X129635898Y-47900812D01*
X129622220Y-47892614D01*
X129609411Y-47883114D01*
X129597595Y-47872405D01*
X129586886Y-47860589D01*
X129577386Y-47847780D01*
X129569188Y-47834102D01*
X129562370Y-47819686D01*
X129556997Y-47804671D01*
X129553122Y-47789202D01*
X129550782Y-47773428D01*
X129550000Y-47757500D01*
X129550000Y-47432500D01*
X129550782Y-47416572D01*
X129553122Y-47400798D01*
X129556997Y-47385329D01*
X129562370Y-47370314D01*
X129569188Y-47355898D01*
X129577386Y-47342220D01*
X129586886Y-47329411D01*
X129597595Y-47317595D01*
X129609411Y-47306886D01*
X129622220Y-47297386D01*
X129635898Y-47289188D01*
X129650314Y-47282370D01*
X129665329Y-47276997D01*
X129680798Y-47273122D01*
X129696572Y-47270782D01*
X129712500Y-47270000D01*
X131362500Y-47270000D01*
X131378428Y-47270782D01*
X131378428Y-47270782D01*
G37*
D34*
X130537500Y-47595000D03*
D20*
G36*
X121878428Y-47270782D02*
G01*
X121894202Y-47273122D01*
X121909671Y-47276997D01*
X121924686Y-47282370D01*
X121939102Y-47289188D01*
X121952780Y-47297386D01*
X121965589Y-47306886D01*
X121977405Y-47317595D01*
X121988114Y-47329411D01*
X121997614Y-47342220D01*
X122005812Y-47355898D01*
X122012630Y-47370314D01*
X122018003Y-47385329D01*
X122021878Y-47400798D01*
X122024218Y-47416572D01*
X122025000Y-47432500D01*
X122025000Y-47757500D01*
X122024218Y-47773428D01*
X122021878Y-47789202D01*
X122018003Y-47804671D01*
X122012630Y-47819686D01*
X122005812Y-47834102D01*
X121997614Y-47847780D01*
X121988114Y-47860589D01*
X121977405Y-47872405D01*
X121965589Y-47883114D01*
X121952780Y-47892614D01*
X121939102Y-47900812D01*
X121924686Y-47907630D01*
X121909671Y-47913003D01*
X121894202Y-47916878D01*
X121878428Y-47919218D01*
X121862500Y-47920000D01*
X120212500Y-47920000D01*
X120196572Y-47919218D01*
X120180798Y-47916878D01*
X120165329Y-47913003D01*
X120150314Y-47907630D01*
X120135898Y-47900812D01*
X120122220Y-47892614D01*
X120109411Y-47883114D01*
X120097595Y-47872405D01*
X120086886Y-47860589D01*
X120077386Y-47847780D01*
X120069188Y-47834102D01*
X120062370Y-47819686D01*
X120056997Y-47804671D01*
X120053122Y-47789202D01*
X120050782Y-47773428D01*
X120050000Y-47757500D01*
X120050000Y-47432500D01*
X120050782Y-47416572D01*
X120053122Y-47400798D01*
X120056997Y-47385329D01*
X120062370Y-47370314D01*
X120069188Y-47355898D01*
X120077386Y-47342220D01*
X120086886Y-47329411D01*
X120097595Y-47317595D01*
X120109411Y-47306886D01*
X120122220Y-47297386D01*
X120135898Y-47289188D01*
X120150314Y-47282370D01*
X120165329Y-47276997D01*
X120180798Y-47273122D01*
X120196572Y-47270782D01*
X120212500Y-47270000D01*
X121862500Y-47270000D01*
X121878428Y-47270782D01*
X121878428Y-47270782D01*
G37*
D34*
X121037500Y-47595000D03*
D20*
G36*
X121878428Y-48540782D02*
G01*
X121894202Y-48543122D01*
X121909671Y-48546997D01*
X121924686Y-48552370D01*
X121939102Y-48559188D01*
X121952780Y-48567386D01*
X121965589Y-48576886D01*
X121977405Y-48587595D01*
X121988114Y-48599411D01*
X121997614Y-48612220D01*
X122005812Y-48625898D01*
X122012630Y-48640314D01*
X122018003Y-48655329D01*
X122021878Y-48670798D01*
X122024218Y-48686572D01*
X122025000Y-48702500D01*
X122025000Y-49027500D01*
X122024218Y-49043428D01*
X122021878Y-49059202D01*
X122018003Y-49074671D01*
X122012630Y-49089686D01*
X122005812Y-49104102D01*
X121997614Y-49117780D01*
X121988114Y-49130589D01*
X121977405Y-49142405D01*
X121965589Y-49153114D01*
X121952780Y-49162614D01*
X121939102Y-49170812D01*
X121924686Y-49177630D01*
X121909671Y-49183003D01*
X121894202Y-49186878D01*
X121878428Y-49189218D01*
X121862500Y-49190000D01*
X120212500Y-49190000D01*
X120196572Y-49189218D01*
X120180798Y-49186878D01*
X120165329Y-49183003D01*
X120150314Y-49177630D01*
X120135898Y-49170812D01*
X120122220Y-49162614D01*
X120109411Y-49153114D01*
X120097595Y-49142405D01*
X120086886Y-49130589D01*
X120077386Y-49117780D01*
X120069188Y-49104102D01*
X120062370Y-49089686D01*
X120056997Y-49074671D01*
X120053122Y-49059202D01*
X120050782Y-49043428D01*
X120050000Y-49027500D01*
X120050000Y-48702500D01*
X120050782Y-48686572D01*
X120053122Y-48670798D01*
X120056997Y-48655329D01*
X120062370Y-48640314D01*
X120069188Y-48625898D01*
X120077386Y-48612220D01*
X120086886Y-48599411D01*
X120097595Y-48587595D01*
X120109411Y-48576886D01*
X120122220Y-48567386D01*
X120135898Y-48559188D01*
X120150314Y-48552370D01*
X120165329Y-48546997D01*
X120180798Y-48543122D01*
X120196572Y-48540782D01*
X120212500Y-48540000D01*
X121862500Y-48540000D01*
X121878428Y-48540782D01*
X121878428Y-48540782D01*
G37*
D34*
X121037500Y-48865000D03*
D20*
G36*
X121878428Y-49810782D02*
G01*
X121894202Y-49813122D01*
X121909671Y-49816997D01*
X121924686Y-49822370D01*
X121939102Y-49829188D01*
X121952780Y-49837386D01*
X121965589Y-49846886D01*
X121977405Y-49857595D01*
X121988114Y-49869411D01*
X121997614Y-49882220D01*
X122005812Y-49895898D01*
X122012630Y-49910314D01*
X122018003Y-49925329D01*
X122021878Y-49940798D01*
X122024218Y-49956572D01*
X122025000Y-49972500D01*
X122025000Y-50297500D01*
X122024218Y-50313428D01*
X122021878Y-50329202D01*
X122018003Y-50344671D01*
X122012630Y-50359686D01*
X122005812Y-50374102D01*
X121997614Y-50387780D01*
X121988114Y-50400589D01*
X121977405Y-50412405D01*
X121965589Y-50423114D01*
X121952780Y-50432614D01*
X121939102Y-50440812D01*
X121924686Y-50447630D01*
X121909671Y-50453003D01*
X121894202Y-50456878D01*
X121878428Y-50459218D01*
X121862500Y-50460000D01*
X120212500Y-50460000D01*
X120196572Y-50459218D01*
X120180798Y-50456878D01*
X120165329Y-50453003D01*
X120150314Y-50447630D01*
X120135898Y-50440812D01*
X120122220Y-50432614D01*
X120109411Y-50423114D01*
X120097595Y-50412405D01*
X120086886Y-50400589D01*
X120077386Y-50387780D01*
X120069188Y-50374102D01*
X120062370Y-50359686D01*
X120056997Y-50344671D01*
X120053122Y-50329202D01*
X120050782Y-50313428D01*
X120050000Y-50297500D01*
X120050000Y-49972500D01*
X120050782Y-49956572D01*
X120053122Y-49940798D01*
X120056997Y-49925329D01*
X120062370Y-49910314D01*
X120069188Y-49895898D01*
X120077386Y-49882220D01*
X120086886Y-49869411D01*
X120097595Y-49857595D01*
X120109411Y-49846886D01*
X120122220Y-49837386D01*
X120135898Y-49829188D01*
X120150314Y-49822370D01*
X120165329Y-49816997D01*
X120180798Y-49813122D01*
X120196572Y-49810782D01*
X120212500Y-49810000D01*
X121862500Y-49810000D01*
X121878428Y-49810782D01*
X121878428Y-49810782D01*
G37*
D34*
X121037500Y-50135000D03*
D20*
G36*
X121878428Y-51080782D02*
G01*
X121894202Y-51083122D01*
X121909671Y-51086997D01*
X121924686Y-51092370D01*
X121939102Y-51099188D01*
X121952780Y-51107386D01*
X121965589Y-51116886D01*
X121977405Y-51127595D01*
X121988114Y-51139411D01*
X121997614Y-51152220D01*
X122005812Y-51165898D01*
X122012630Y-51180314D01*
X122018003Y-51195329D01*
X122021878Y-51210798D01*
X122024218Y-51226572D01*
X122025000Y-51242500D01*
X122025000Y-51567500D01*
X122024218Y-51583428D01*
X122021878Y-51599202D01*
X122018003Y-51614671D01*
X122012630Y-51629686D01*
X122005812Y-51644102D01*
X121997614Y-51657780D01*
X121988114Y-51670589D01*
X121977405Y-51682405D01*
X121965589Y-51693114D01*
X121952780Y-51702614D01*
X121939102Y-51710812D01*
X121924686Y-51717630D01*
X121909671Y-51723003D01*
X121894202Y-51726878D01*
X121878428Y-51729218D01*
X121862500Y-51730000D01*
X120212500Y-51730000D01*
X120196572Y-51729218D01*
X120180798Y-51726878D01*
X120165329Y-51723003D01*
X120150314Y-51717630D01*
X120135898Y-51710812D01*
X120122220Y-51702614D01*
X120109411Y-51693114D01*
X120097595Y-51682405D01*
X120086886Y-51670589D01*
X120077386Y-51657780D01*
X120069188Y-51644102D01*
X120062370Y-51629686D01*
X120056997Y-51614671D01*
X120053122Y-51599202D01*
X120050782Y-51583428D01*
X120050000Y-51567500D01*
X120050000Y-51242500D01*
X120050782Y-51226572D01*
X120053122Y-51210798D01*
X120056997Y-51195329D01*
X120062370Y-51180314D01*
X120069188Y-51165898D01*
X120077386Y-51152220D01*
X120086886Y-51139411D01*
X120097595Y-51127595D01*
X120109411Y-51116886D01*
X120122220Y-51107386D01*
X120135898Y-51099188D01*
X120150314Y-51092370D01*
X120165329Y-51086997D01*
X120180798Y-51083122D01*
X120196572Y-51080782D01*
X120212500Y-51080000D01*
X121862500Y-51080000D01*
X121878428Y-51080782D01*
X121878428Y-51080782D01*
G37*
D34*
X121037500Y-51405000D03*
D20*
G36*
X116803428Y-51080782D02*
G01*
X116819202Y-51083122D01*
X116834671Y-51086997D01*
X116849686Y-51092370D01*
X116864102Y-51099188D01*
X116877780Y-51107386D01*
X116890589Y-51116886D01*
X116902405Y-51127595D01*
X116913114Y-51139411D01*
X116922614Y-51152220D01*
X116930812Y-51165898D01*
X116937630Y-51180314D01*
X116943003Y-51195329D01*
X116946878Y-51210798D01*
X116949218Y-51226572D01*
X116950000Y-51242500D01*
X116950000Y-51567500D01*
X116949218Y-51583428D01*
X116946878Y-51599202D01*
X116943003Y-51614671D01*
X116937630Y-51629686D01*
X116930812Y-51644102D01*
X116922614Y-51657780D01*
X116913114Y-51670589D01*
X116902405Y-51682405D01*
X116890589Y-51693114D01*
X116877780Y-51702614D01*
X116864102Y-51710812D01*
X116849686Y-51717630D01*
X116834671Y-51723003D01*
X116819202Y-51726878D01*
X116803428Y-51729218D01*
X116787500Y-51730000D01*
X115137500Y-51730000D01*
X115121572Y-51729218D01*
X115105798Y-51726878D01*
X115090329Y-51723003D01*
X115075314Y-51717630D01*
X115060898Y-51710812D01*
X115047220Y-51702614D01*
X115034411Y-51693114D01*
X115022595Y-51682405D01*
X115011886Y-51670589D01*
X115002386Y-51657780D01*
X114994188Y-51644102D01*
X114987370Y-51629686D01*
X114981997Y-51614671D01*
X114978122Y-51599202D01*
X114975782Y-51583428D01*
X114975000Y-51567500D01*
X114975000Y-51242500D01*
X114975782Y-51226572D01*
X114978122Y-51210798D01*
X114981997Y-51195329D01*
X114987370Y-51180314D01*
X114994188Y-51165898D01*
X115002386Y-51152220D01*
X115011886Y-51139411D01*
X115022595Y-51127595D01*
X115034411Y-51116886D01*
X115047220Y-51107386D01*
X115060898Y-51099188D01*
X115075314Y-51092370D01*
X115090329Y-51086997D01*
X115105798Y-51083122D01*
X115121572Y-51080782D01*
X115137500Y-51080000D01*
X116787500Y-51080000D01*
X116803428Y-51080782D01*
X116803428Y-51080782D01*
G37*
D34*
X115962500Y-51405000D03*
D20*
G36*
X116803428Y-49810782D02*
G01*
X116819202Y-49813122D01*
X116834671Y-49816997D01*
X116849686Y-49822370D01*
X116864102Y-49829188D01*
X116877780Y-49837386D01*
X116890589Y-49846886D01*
X116902405Y-49857595D01*
X116913114Y-49869411D01*
X116922614Y-49882220D01*
X116930812Y-49895898D01*
X116937630Y-49910314D01*
X116943003Y-49925329D01*
X116946878Y-49940798D01*
X116949218Y-49956572D01*
X116950000Y-49972500D01*
X116950000Y-50297500D01*
X116949218Y-50313428D01*
X116946878Y-50329202D01*
X116943003Y-50344671D01*
X116937630Y-50359686D01*
X116930812Y-50374102D01*
X116922614Y-50387780D01*
X116913114Y-50400589D01*
X116902405Y-50412405D01*
X116890589Y-50423114D01*
X116877780Y-50432614D01*
X116864102Y-50440812D01*
X116849686Y-50447630D01*
X116834671Y-50453003D01*
X116819202Y-50456878D01*
X116803428Y-50459218D01*
X116787500Y-50460000D01*
X115137500Y-50460000D01*
X115121572Y-50459218D01*
X115105798Y-50456878D01*
X115090329Y-50453003D01*
X115075314Y-50447630D01*
X115060898Y-50440812D01*
X115047220Y-50432614D01*
X115034411Y-50423114D01*
X115022595Y-50412405D01*
X115011886Y-50400589D01*
X115002386Y-50387780D01*
X114994188Y-50374102D01*
X114987370Y-50359686D01*
X114981997Y-50344671D01*
X114978122Y-50329202D01*
X114975782Y-50313428D01*
X114975000Y-50297500D01*
X114975000Y-49972500D01*
X114975782Y-49956572D01*
X114978122Y-49940798D01*
X114981997Y-49925329D01*
X114987370Y-49910314D01*
X114994188Y-49895898D01*
X115002386Y-49882220D01*
X115011886Y-49869411D01*
X115022595Y-49857595D01*
X115034411Y-49846886D01*
X115047220Y-49837386D01*
X115060898Y-49829188D01*
X115075314Y-49822370D01*
X115090329Y-49816997D01*
X115105798Y-49813122D01*
X115121572Y-49810782D01*
X115137500Y-49810000D01*
X116787500Y-49810000D01*
X116803428Y-49810782D01*
X116803428Y-49810782D01*
G37*
D34*
X115962500Y-50135000D03*
D20*
G36*
X116803428Y-48540782D02*
G01*
X116819202Y-48543122D01*
X116834671Y-48546997D01*
X116849686Y-48552370D01*
X116864102Y-48559188D01*
X116877780Y-48567386D01*
X116890589Y-48576886D01*
X116902405Y-48587595D01*
X116913114Y-48599411D01*
X116922614Y-48612220D01*
X116930812Y-48625898D01*
X116937630Y-48640314D01*
X116943003Y-48655329D01*
X116946878Y-48670798D01*
X116949218Y-48686572D01*
X116950000Y-48702500D01*
X116950000Y-49027500D01*
X116949218Y-49043428D01*
X116946878Y-49059202D01*
X116943003Y-49074671D01*
X116937630Y-49089686D01*
X116930812Y-49104102D01*
X116922614Y-49117780D01*
X116913114Y-49130589D01*
X116902405Y-49142405D01*
X116890589Y-49153114D01*
X116877780Y-49162614D01*
X116864102Y-49170812D01*
X116849686Y-49177630D01*
X116834671Y-49183003D01*
X116819202Y-49186878D01*
X116803428Y-49189218D01*
X116787500Y-49190000D01*
X115137500Y-49190000D01*
X115121572Y-49189218D01*
X115105798Y-49186878D01*
X115090329Y-49183003D01*
X115075314Y-49177630D01*
X115060898Y-49170812D01*
X115047220Y-49162614D01*
X115034411Y-49153114D01*
X115022595Y-49142405D01*
X115011886Y-49130589D01*
X115002386Y-49117780D01*
X114994188Y-49104102D01*
X114987370Y-49089686D01*
X114981997Y-49074671D01*
X114978122Y-49059202D01*
X114975782Y-49043428D01*
X114975000Y-49027500D01*
X114975000Y-48702500D01*
X114975782Y-48686572D01*
X114978122Y-48670798D01*
X114981997Y-48655329D01*
X114987370Y-48640314D01*
X114994188Y-48625898D01*
X115002386Y-48612220D01*
X115011886Y-48599411D01*
X115022595Y-48587595D01*
X115034411Y-48576886D01*
X115047220Y-48567386D01*
X115060898Y-48559188D01*
X115075314Y-48552370D01*
X115090329Y-48546997D01*
X115105798Y-48543122D01*
X115121572Y-48540782D01*
X115137500Y-48540000D01*
X116787500Y-48540000D01*
X116803428Y-48540782D01*
X116803428Y-48540782D01*
G37*
D34*
X115962500Y-48865000D03*
D20*
G36*
X116803428Y-47270782D02*
G01*
X116819202Y-47273122D01*
X116834671Y-47276997D01*
X116849686Y-47282370D01*
X116864102Y-47289188D01*
X116877780Y-47297386D01*
X116890589Y-47306886D01*
X116902405Y-47317595D01*
X116913114Y-47329411D01*
X116922614Y-47342220D01*
X116930812Y-47355898D01*
X116937630Y-47370314D01*
X116943003Y-47385329D01*
X116946878Y-47400798D01*
X116949218Y-47416572D01*
X116950000Y-47432500D01*
X116950000Y-47757500D01*
X116949218Y-47773428D01*
X116946878Y-47789202D01*
X116943003Y-47804671D01*
X116937630Y-47819686D01*
X116930812Y-47834102D01*
X116922614Y-47847780D01*
X116913114Y-47860589D01*
X116902405Y-47872405D01*
X116890589Y-47883114D01*
X116877780Y-47892614D01*
X116864102Y-47900812D01*
X116849686Y-47907630D01*
X116834671Y-47913003D01*
X116819202Y-47916878D01*
X116803428Y-47919218D01*
X116787500Y-47920000D01*
X115137500Y-47920000D01*
X115121572Y-47919218D01*
X115105798Y-47916878D01*
X115090329Y-47913003D01*
X115075314Y-47907630D01*
X115060898Y-47900812D01*
X115047220Y-47892614D01*
X115034411Y-47883114D01*
X115022595Y-47872405D01*
X115011886Y-47860589D01*
X115002386Y-47847780D01*
X114994188Y-47834102D01*
X114987370Y-47819686D01*
X114981997Y-47804671D01*
X114978122Y-47789202D01*
X114975782Y-47773428D01*
X114975000Y-47757500D01*
X114975000Y-47432500D01*
X114975782Y-47416572D01*
X114978122Y-47400798D01*
X114981997Y-47385329D01*
X114987370Y-47370314D01*
X114994188Y-47355898D01*
X115002386Y-47342220D01*
X115011886Y-47329411D01*
X115022595Y-47317595D01*
X115034411Y-47306886D01*
X115047220Y-47297386D01*
X115060898Y-47289188D01*
X115075314Y-47282370D01*
X115090329Y-47276997D01*
X115105798Y-47273122D01*
X115121572Y-47270782D01*
X115137500Y-47270000D01*
X116787500Y-47270000D01*
X116803428Y-47270782D01*
X116803428Y-47270782D01*
G37*
D34*
X115962500Y-47595000D03*
D27*
X76500000Y-38500000D03*
D28*
X58720000Y-46120000D03*
X73960000Y-38500000D03*
X61260000Y-46120000D03*
X71420000Y-38500000D03*
X63800000Y-46120000D03*
X68880000Y-38500000D03*
X66340000Y-46120000D03*
X66340000Y-38500000D03*
X68880000Y-46120000D03*
X63800000Y-38500000D03*
X71420000Y-46120000D03*
X61260000Y-38500000D03*
X73960000Y-46120000D03*
X58720000Y-38500000D03*
X76500000Y-46120000D03*
D35*
X82249000Y-73649900D03*
X144799700Y-89000000D03*
X80698400Y-79300300D03*
X83213400Y-58734100D03*
X85300500Y-42576900D03*
X132505000Y-73767200D03*
X113540000Y-81796700D03*
X107510300Y-83250000D03*
X90068900Y-62224400D03*
X88588600Y-62219400D03*
X92752600Y-62240400D03*
X93852900Y-62224400D03*
X91208000Y-62251300D03*
X87409000Y-65512900D03*
X90359000Y-64562700D03*
X124948200Y-52488200D03*
X82204900Y-56777000D03*
X123722400Y-51349200D03*
X129628300Y-52489700D03*
X117114700Y-42748900D03*
X119325500Y-50135000D03*
D36*
X114080000Y-80000000D02*
X113140300Y-80000000D01*
X126780000Y-80000000D02*
X125175000Y-78395000D01*
X125175000Y-78395000D02*
X115685000Y-78395000D01*
X115685000Y-78395000D02*
X114080000Y-80000000D01*
X111540000Y-80000000D02*
X113140300Y-80000000D01*
X136000000Y-53000000D02*
X136617600Y-53000000D01*
X136617600Y-53000000D02*
X144712800Y-44904800D01*
X144712800Y-44904800D02*
X144712800Y-32112000D01*
X144712800Y-32112000D02*
X143800400Y-31199600D01*
X127288000Y-53371800D02*
X127658300Y-53742100D01*
X127658300Y-53742100D02*
X135257900Y-53742100D01*
X135257900Y-53742100D02*
X136000000Y-53000000D01*
X143800400Y-31199600D02*
X149500000Y-25500000D01*
X141040000Y-31199600D02*
X143800400Y-31199600D01*
X130537500Y-48865000D02*
X129299200Y-48865000D01*
X129299200Y-48865000D02*
X127288000Y-50876200D01*
X127288000Y-50876200D02*
X127288000Y-53371800D01*
X125462500Y-50135000D02*
X126546800Y-50135000D01*
X126546800Y-50135000D02*
X127288000Y-50876200D01*
X130537500Y-48865000D02*
X130537500Y-47595000D01*
X124460000Y-56199800D02*
X127288000Y-53371800D01*
X121037500Y-48865000D02*
X122176700Y-48865000D01*
X122176700Y-48865000D02*
X123446700Y-50135000D01*
X123446700Y-50135000D02*
X125462500Y-50135000D01*
X58500000Y-52500000D02*
X58134800Y-52500000D01*
X58134800Y-52500000D02*
X51829400Y-58805400D01*
X51829400Y-58805400D02*
X51829400Y-60630600D01*
X51829400Y-60630600D02*
X50000000Y-62460000D01*
X141040000Y-30725000D02*
X141040000Y-31199600D01*
X115962500Y-50135000D02*
X117426700Y-50135000D01*
X117426700Y-50135000D02*
X118696700Y-48865000D01*
X118696700Y-48865000D02*
X121037500Y-48865000D01*
X81500000Y-50500000D02*
X79745000Y-52255000D01*
X79745000Y-52255000D02*
X79745000Y-60500000D01*
X121920000Y-57000000D02*
X123520300Y-57000000D01*
X124460000Y-56199800D02*
X124320500Y-56199800D01*
X124320500Y-56199800D02*
X123520300Y-57000000D01*
X124460000Y-57000000D02*
X124460000Y-56199800D01*
X121920000Y-57000000D02*
X120278400Y-55358400D01*
X120278400Y-55358400D02*
X110861600Y-55358400D01*
X110861600Y-55358400D02*
X109220000Y-57000000D01*
X115962500Y-50135000D02*
X114854200Y-50135000D01*
X114854200Y-50135000D02*
X109500000Y-44780800D01*
X109500000Y-44780800D02*
X109500000Y-34150300D01*
X82249000Y-74715000D02*
X82249000Y-73649900D01*
X79745000Y-75699700D02*
X81264300Y-75699700D01*
X81264300Y-75699700D02*
X82249000Y-74715000D01*
X82249000Y-74715000D02*
X95454700Y-74715000D01*
X97255000Y-74715000D02*
X95454700Y-74715000D01*
X79745000Y-77500000D02*
X79745000Y-75699700D01*
X56000000Y-116000000D02*
X54199600Y-117800400D01*
X54199600Y-117800400D02*
X54199600Y-128199600D01*
X54199600Y-128199600D02*
X56000000Y-130000000D01*
X56000000Y-130000000D02*
X54187300Y-131812700D01*
X54187300Y-131812700D02*
X54187300Y-142187300D01*
X54187300Y-142187300D02*
X56000000Y-144000000D01*
X56000000Y-102000000D02*
X54199600Y-103800400D01*
X54199600Y-103800400D02*
X54199600Y-114199600D01*
X54199600Y-114199600D02*
X56000000Y-116000000D01*
X109500000Y-32500000D02*
X109500000Y-34150300D01*
X73000000Y-90000000D02*
X68000000Y-90000000D01*
X68000000Y-90000000D02*
X56000000Y-102000000D01*
X109220000Y-57000000D02*
X104000000Y-57000000D01*
X83720000Y-38500000D02*
X82119700Y-38500000D01*
X82119700Y-38500000D02*
X80519400Y-36899700D01*
X80519400Y-36899700D02*
X71420000Y-36899700D01*
X58720000Y-38500000D02*
X60320300Y-36899700D01*
X60320300Y-36899700D02*
X71420000Y-36899700D01*
X71420000Y-38500000D02*
X71420000Y-36899700D01*
X111540000Y-80000000D02*
X109000000Y-80000000D01*
X146000000Y-89000000D02*
X147200300Y-89000000D01*
X146000000Y-138510000D02*
X148395600Y-136114400D01*
X148395600Y-136114400D02*
X148395600Y-90195300D01*
X148395600Y-90195300D02*
X147200300Y-89000000D01*
X146000000Y-89000000D02*
X144799700Y-89000000D01*
X138500000Y-39875000D02*
X138500000Y-45375300D01*
X136000000Y-48000000D02*
X136000000Y-47875300D01*
X136000000Y-47875300D02*
X138500000Y-45375300D01*
X81015000Y-79300300D02*
X80698400Y-79300300D01*
X81015000Y-77500000D02*
X81015000Y-79300300D01*
X61000000Y-68000000D02*
X58000000Y-65000000D01*
X58000000Y-65000000D02*
X50000000Y-65000000D01*
X54000000Y-85920000D02*
X51000000Y-85920000D01*
X57000000Y-85920000D02*
X54000000Y-85920000D01*
X138500000Y-30725000D02*
X138500000Y-39875000D01*
D37*
X197000000Y-71000000D02*
X197000000Y-78000000D01*
X197000000Y-126000000D02*
X197000000Y-119000000D01*
X202000000Y-37000000D02*
X207715000Y-37000000D01*
X207715000Y-37000000D02*
X209000000Y-35715000D01*
X192080000Y-108000000D02*
X186080000Y-102000000D01*
X186080000Y-102000000D02*
X182000000Y-102000000D01*
X182000000Y-119000000D02*
X184274500Y-119000000D01*
X184274500Y-119000000D02*
X189829700Y-113444800D01*
X189829700Y-113444800D02*
X189829700Y-113000000D01*
X192080000Y-113000000D02*
X189829700Y-113000000D01*
X192080000Y-132000000D02*
X186080000Y-126000000D01*
X186080000Y-126000000D02*
X182000000Y-126000000D01*
X182000000Y-143000000D02*
X184274500Y-143000000D01*
X184274500Y-143000000D02*
X189829700Y-137444800D01*
X189829700Y-137444800D02*
X189829700Y-137000000D01*
X192080000Y-137000000D02*
X189829700Y-137000000D01*
D38*
X168000000Y-66000000D02*
X166699700Y-66000000D01*
X164000000Y-68000000D02*
X165400300Y-68000000D01*
X166699700Y-66000000D02*
X166699700Y-66700600D01*
X166699700Y-66700600D02*
X165400300Y-68000000D01*
X168000000Y-90000000D02*
X166699700Y-90000000D01*
X164000000Y-92000000D02*
X165400300Y-92000000D01*
X166699700Y-90000000D02*
X166699700Y-90700600D01*
X166699700Y-90700600D02*
X165400300Y-92000000D01*
X164000000Y-132000000D02*
X164000000Y-130599700D01*
X168000000Y-129000000D02*
X166699700Y-129000000D01*
X166699700Y-129000000D02*
X165100000Y-130599700D01*
X165100000Y-130599700D02*
X164000000Y-130599700D01*
X168000000Y-138000000D02*
X166699700Y-138000000D01*
X164000000Y-140000000D02*
X165400300Y-140000000D01*
X166699700Y-138000000D02*
X166699700Y-138700600D01*
X166699700Y-138700600D02*
X165400300Y-140000000D01*
X95000000Y-98920000D02*
X83380000Y-98920000D01*
X83380000Y-98920000D02*
X78000000Y-93540000D01*
X98000000Y-98920000D02*
X96799700Y-98920000D01*
X96799700Y-98920000D02*
X95599400Y-97719700D01*
X95599400Y-97719700D02*
X89179700Y-97719700D01*
X89179700Y-97719700D02*
X85000000Y-93540000D01*
X101000000Y-98920000D02*
X99799700Y-98920000D01*
X99799700Y-98920000D02*
X94419700Y-93540000D01*
X94419700Y-93540000D02*
X92000000Y-93540000D01*
X107000000Y-98920000D02*
X107000000Y-97719700D01*
X107000000Y-97719700D02*
X106000000Y-96719700D01*
X106000000Y-96719700D02*
X106000000Y-93540000D01*
X113000000Y-98920000D02*
X114200300Y-98920000D01*
X114200300Y-98920000D02*
X119580300Y-93540000D01*
X119580300Y-93540000D02*
X120000000Y-93540000D01*
D37*
X175620000Y-81000000D02*
X177970300Y-81000000D01*
X175620000Y-90000000D02*
X177970300Y-87649700D01*
X177970300Y-87649700D02*
X177970300Y-81000000D01*
X175620000Y-105000000D02*
X177970300Y-105000000D01*
X175620000Y-114000000D02*
X177970300Y-111649700D01*
X177970300Y-111649700D02*
X177970300Y-105000000D01*
X203400000Y-30000000D02*
X203400000Y-29500000D01*
X192974900Y-46300000D02*
X192974900Y-40425100D01*
X192974900Y-40425100D02*
X203400000Y-30000000D01*
X203400000Y-30000000D02*
X205199300Y-30000000D01*
X209000000Y-30000000D02*
X205199300Y-30000000D01*
X192974900Y-46300000D02*
X191449700Y-46300000D01*
X194500000Y-46300000D02*
X192974900Y-46300000D01*
X175620000Y-129000000D02*
X177970300Y-129000000D01*
X175620000Y-138000000D02*
X177970300Y-135649700D01*
X177970300Y-135649700D02*
X177970300Y-129000000D01*
X177970300Y-57000000D02*
X182941400Y-57000000D01*
X182941400Y-57000000D02*
X191449700Y-48491700D01*
X191449700Y-48491700D02*
X191449700Y-46300000D01*
X175620000Y-66000000D02*
X177970300Y-63649700D01*
X177970300Y-63649700D02*
X177970300Y-57000000D01*
X175620000Y-57000000D02*
X177970300Y-57000000D01*
D38*
X83555000Y-58999700D02*
X83289400Y-58734100D01*
X83289400Y-58734100D02*
X83213400Y-58734100D01*
X83555000Y-60500000D02*
X83555000Y-58999700D01*
X50000000Y-57380000D02*
X51350300Y-57380000D01*
X84825000Y-60500000D02*
X84825000Y-51827800D01*
X84825000Y-51827800D02*
X82075900Y-49078700D01*
X82075900Y-49078700D02*
X59651600Y-49078700D01*
X59651600Y-49078700D02*
X51350300Y-57380000D01*
D37*
X187000000Y-89000000D02*
X189296400Y-86703600D01*
X189296400Y-86703600D02*
X201353300Y-86703600D01*
X201353300Y-86703600D02*
X203649700Y-89000000D01*
X177970300Y-95080000D02*
X184050300Y-89000000D01*
X184050300Y-89000000D02*
X187000000Y-89000000D01*
X207000000Y-89000000D02*
X203649700Y-89000000D01*
X175620000Y-95080000D02*
X177970300Y-95080000D01*
X207000000Y-79000000D02*
X205187500Y-80812500D01*
X205187500Y-80812500D02*
X190187500Y-80812500D01*
X190187500Y-80812500D02*
X187000000Y-84000000D01*
X187000000Y-108000000D02*
X189318700Y-110318700D01*
X189318700Y-110318700D02*
X199681300Y-110318700D01*
X199681300Y-110318700D02*
X207000000Y-103000000D01*
X175620000Y-119080000D02*
X177970300Y-119080000D01*
X177970300Y-119080000D02*
X184050300Y-113000000D01*
X184050300Y-113000000D02*
X187000000Y-113000000D01*
D38*
X83720000Y-46120000D02*
X83720000Y-44819700D01*
X83720000Y-44819700D02*
X85300500Y-43239200D01*
X85300500Y-43239200D02*
X85300500Y-42576900D01*
X166699700Y-59540000D02*
X165759400Y-58599700D01*
X165759400Y-58599700D02*
X153862700Y-58599700D01*
X153862700Y-58599700D02*
X153154600Y-59307800D01*
X153154600Y-59307800D02*
X133220300Y-59307800D01*
X133220300Y-59307800D02*
X132494800Y-58582300D01*
X132494800Y-58582300D02*
X120962300Y-58582300D01*
X120962300Y-58582300D02*
X119380000Y-57000000D01*
X168000000Y-59540000D02*
X166699700Y-59540000D01*
X166699700Y-68540000D02*
X165839300Y-69400400D01*
X165839300Y-69400400D02*
X153862800Y-69400400D01*
X153862800Y-69400400D02*
X153144600Y-68682200D01*
X153144600Y-68682200D02*
X140738000Y-68682200D01*
X140738000Y-68682200D02*
X131517700Y-59461900D01*
X131517700Y-59461900D02*
X119301900Y-59461900D01*
X119301900Y-59461900D02*
X116840000Y-57000000D01*
X168000000Y-68540000D02*
X166699700Y-68540000D01*
X166699700Y-83540000D02*
X154659700Y-71500000D01*
X154659700Y-71500000D02*
X138393100Y-71500000D01*
X138393100Y-71500000D02*
X127576300Y-60683200D01*
X127576300Y-60683200D02*
X117983200Y-60683200D01*
X117983200Y-60683200D02*
X114300000Y-57000000D01*
X168000000Y-83540000D02*
X166699700Y-83540000D01*
X61000000Y-62920000D02*
X59799700Y-62920000D01*
X58500000Y-62500000D02*
X59379700Y-62500000D01*
X59379700Y-62500000D02*
X59799700Y-62920000D01*
X61000000Y-62920000D02*
X61000000Y-64120300D01*
X82285000Y-77500000D02*
X82285000Y-79487800D01*
X82285000Y-79487800D02*
X78262600Y-83510200D01*
X78262600Y-83510200D02*
X66765700Y-83510200D01*
X66765700Y-83510200D02*
X63872900Y-80617400D01*
X63872900Y-80617400D02*
X63872900Y-66993200D01*
X63872900Y-66993200D02*
X61000000Y-64120300D01*
X168000000Y-92540000D02*
X166699700Y-92540000D01*
X166699700Y-92540000D02*
X165831700Y-93408000D01*
X165831700Y-93408000D02*
X156489100Y-93408000D01*
X156489100Y-93408000D02*
X128701500Y-65620400D01*
X128701500Y-65620400D02*
X128701500Y-64270000D01*
X128701500Y-64270000D02*
X126131200Y-61699700D01*
X126131200Y-61699700D02*
X116459700Y-61699700D01*
X116459700Y-61699700D02*
X111760000Y-57000000D01*
X132505000Y-73767200D02*
X137678200Y-78940400D01*
X137678200Y-78940400D02*
X140620000Y-78940400D01*
X140620000Y-78940400D02*
X161517600Y-99838000D01*
X161517600Y-99838000D02*
X161517600Y-101057600D01*
X161517600Y-101057600D02*
X168000000Y-107540000D01*
X111760000Y-65920300D02*
X107571700Y-70108600D01*
X107571700Y-70108600D02*
X107571700Y-72966700D01*
X107571700Y-72966700D02*
X109126200Y-74521200D01*
X109126200Y-74521200D02*
X127289100Y-74521200D01*
X127289100Y-74521200D02*
X137878700Y-85110800D01*
X137878700Y-85110800D02*
X145799900Y-85110800D01*
X145799900Y-85110800D02*
X160817200Y-100128100D01*
X160817200Y-100128100D02*
X160817200Y-102134900D01*
X160817200Y-102134900D02*
X166699600Y-108017300D01*
X166699600Y-108017300D02*
X166699600Y-115239600D01*
X166699600Y-115239600D02*
X168000000Y-116540000D01*
X111760000Y-64620000D02*
X111760000Y-65920300D01*
X114300000Y-64620000D02*
X112974400Y-63294400D01*
X112974400Y-63294400D02*
X108691100Y-63294400D01*
X108691100Y-63294400D02*
X106871300Y-65114200D01*
X106871300Y-65114200D02*
X106871300Y-73256800D01*
X106871300Y-73256800D02*
X108836100Y-75221600D01*
X108836100Y-75221600D02*
X126447900Y-75221600D01*
X126447900Y-75221600D02*
X137737700Y-86511400D01*
X137737700Y-86511400D02*
X146210000Y-86511400D01*
X146210000Y-86511400D02*
X157855100Y-98156500D01*
X157855100Y-98156500D02*
X157855100Y-130385300D01*
X157855100Y-130385300D02*
X160870200Y-133400400D01*
X160870200Y-133400400D02*
X165108700Y-133400400D01*
X165108700Y-133400400D02*
X166699700Y-131809400D01*
X166699700Y-131809400D02*
X166699700Y-131540000D01*
X168000000Y-131540000D02*
X166699700Y-131540000D01*
X83555000Y-79000300D02*
X83555000Y-79208400D01*
X83555000Y-79208400D02*
X78262800Y-84500600D01*
X78262800Y-84500600D02*
X63980800Y-84500600D01*
X63980800Y-84500600D02*
X60898900Y-87582500D01*
X60898900Y-87582500D02*
X54417500Y-87582500D01*
X54417500Y-87582500D02*
X51000000Y-91000000D01*
X83555000Y-77500000D02*
X83555000Y-79000300D01*
X84825000Y-79000300D02*
X78298800Y-85526500D01*
X78298800Y-85526500D02*
X64440100Y-85526500D01*
X64440100Y-85526500D02*
X61385200Y-88581400D01*
X61385200Y-88581400D02*
X56418600Y-88581400D01*
X56418600Y-88581400D02*
X54000000Y-91000000D01*
X84825000Y-77500000D02*
X84825000Y-79000300D01*
X86095000Y-79000300D02*
X78868400Y-86226900D01*
X78868400Y-86226900D02*
X65225300Y-86226900D01*
X65225300Y-86226900D02*
X62159200Y-89293000D01*
X62159200Y-89293000D02*
X58707000Y-89293000D01*
X58707000Y-89293000D02*
X57000000Y-91000000D01*
X86095000Y-77500000D02*
X86095000Y-79000300D01*
X57000000Y-91000000D02*
X52554700Y-95445300D01*
X52554700Y-95445300D02*
X52554700Y-123445300D01*
X52554700Y-123445300D02*
X51000000Y-125000000D01*
X87365000Y-77500000D02*
X87365000Y-79000300D01*
X87365000Y-79000300D02*
X78607200Y-87758100D01*
X78607200Y-87758100D02*
X66508400Y-87758100D01*
X66508400Y-87758100D02*
X63266500Y-91000000D01*
X63266500Y-91000000D02*
X60000000Y-91000000D01*
X54000000Y-59000000D02*
X58511100Y-54488900D01*
X58511100Y-54488900D02*
X78220800Y-54488900D01*
X78220800Y-54488900D02*
X78519200Y-54787300D01*
X78519200Y-54787300D02*
X78519200Y-61590600D01*
X78519200Y-61590600D02*
X83341800Y-66413200D01*
X83341800Y-66413200D02*
X92021400Y-66413200D01*
X92021400Y-66413200D02*
X95652000Y-62782600D01*
X95652000Y-62782600D02*
X95652000Y-62603300D01*
X95652000Y-62603300D02*
X96255000Y-62000300D01*
X96255000Y-60500000D02*
X96255000Y-62000300D01*
X91175000Y-79000300D02*
X93971400Y-81796700D01*
X93971400Y-81796700D02*
X113540000Y-81796700D01*
X91175000Y-77500000D02*
X91175000Y-79000300D01*
X92445000Y-79000300D02*
X107549200Y-79000300D01*
X107549200Y-79000300D02*
X109167200Y-77382300D01*
X109167200Y-77382300D02*
X126145500Y-77382300D01*
X126145500Y-77382300D02*
X144000500Y-95237300D01*
X144000500Y-95237300D02*
X144000500Y-106030500D01*
X144000500Y-106030500D02*
X146000000Y-108030000D01*
X92445000Y-77500000D02*
X92445000Y-79000300D01*
X88635000Y-77500000D02*
X88635000Y-79000300D01*
X88635000Y-79000300D02*
X79176800Y-88458500D01*
X79176800Y-88458500D02*
X78002500Y-88458500D01*
X78002500Y-88458500D02*
X76527500Y-89933500D01*
X76527500Y-89933500D02*
X76527500Y-94050900D01*
X76527500Y-94050900D02*
X84749300Y-102272700D01*
X84749300Y-102272700D02*
X137702700Y-102272700D01*
X137702700Y-102272700D02*
X146000000Y-110570000D01*
X89905000Y-79000300D02*
X94154700Y-83250000D01*
X94154700Y-83250000D02*
X107510300Y-83250000D01*
X89905000Y-77500000D02*
X89905000Y-79000300D01*
X89905000Y-60500000D02*
X89905000Y-62000300D01*
X89905000Y-62000300D02*
X90068900Y-62164200D01*
X90068900Y-62164200D02*
X90068900Y-62224400D01*
X65000000Y-118190000D02*
X143460000Y-118190000D01*
X143460000Y-118190000D02*
X146000000Y-115650000D01*
X88635000Y-62000300D02*
X88635000Y-62173000D01*
X88635000Y-62173000D02*
X88588600Y-62219400D01*
X88635000Y-60500000D02*
X88635000Y-62000300D01*
X65000000Y-120730000D02*
X143460000Y-120730000D01*
X143460000Y-120730000D02*
X146000000Y-118190000D01*
X92445000Y-62000300D02*
X92512500Y-62000300D01*
X92512500Y-62000300D02*
X92752600Y-62240400D01*
X92445000Y-60500000D02*
X92445000Y-62000300D01*
X93715000Y-62000300D02*
X93852900Y-62138200D01*
X93852900Y-62138200D02*
X93852900Y-62224400D01*
X93715000Y-60500000D02*
X93715000Y-62000300D01*
X91175000Y-62000300D02*
X91208000Y-62033300D01*
X91208000Y-62033300D02*
X91208000Y-62251300D01*
X91175000Y-60500000D02*
X91175000Y-62000300D01*
X81015000Y-60500000D02*
X81015000Y-62000300D01*
X81015000Y-62000300D02*
X83896400Y-62000300D01*
X83896400Y-62000300D02*
X87409000Y-65512900D01*
X65000000Y-123190000D02*
X67620000Y-125810000D01*
X67620000Y-125810000D02*
X146000000Y-125810000D01*
X94985000Y-60500000D02*
X94985000Y-62000300D01*
X94985000Y-62000300D02*
X94753300Y-62232000D01*
X94753300Y-62232000D02*
X94753300Y-62647200D01*
X94753300Y-62647200D02*
X92837800Y-64562700D01*
X92837800Y-64562700D02*
X90359000Y-64562700D01*
X115962500Y-51405000D02*
X116815100Y-52257600D01*
X116815100Y-52257600D02*
X124609900Y-52257600D01*
X124609900Y-52257600D02*
X124663800Y-52203700D01*
X106420000Y-38700300D02*
X108307700Y-40588000D01*
X108307700Y-40588000D02*
X108307700Y-45003300D01*
X108307700Y-45003300D02*
X114709400Y-51405000D01*
X114709400Y-51405000D02*
X115962500Y-51405000D01*
X124663800Y-52203700D02*
X125462500Y-51405000D01*
X124663800Y-52203700D02*
X124948200Y-52488200D01*
X121920000Y-64620000D02*
X114160000Y-72380000D01*
X114160000Y-72380000D02*
X114080000Y-72380000D01*
X96420000Y-46120000D02*
X103839700Y-38700300D01*
X103839700Y-38700300D02*
X106420000Y-38700300D01*
X106420000Y-37500000D02*
X106420000Y-38700300D01*
X82285000Y-60500000D02*
X82285000Y-58999700D01*
X82204900Y-56777000D02*
X82204900Y-58919600D01*
X82204900Y-58919600D02*
X82285000Y-58999700D01*
X124460000Y-64620000D02*
X124460000Y-65920300D01*
X124460000Y-65920300D02*
X128082500Y-69542800D01*
X128082500Y-69542800D02*
X128082500Y-72920200D01*
X128082500Y-72920200D02*
X127294500Y-73708200D01*
X127294500Y-73708200D02*
X112868200Y-73708200D01*
X112868200Y-73708200D02*
X111540000Y-72380000D01*
X98960000Y-53961900D02*
X107398200Y-62400100D01*
X107398200Y-62400100D02*
X122240100Y-62400100D01*
X122240100Y-62400100D02*
X124460000Y-64620000D01*
X121037500Y-51405000D02*
X123666600Y-51405000D01*
X123666600Y-51405000D02*
X123722400Y-51349200D01*
X130537500Y-51405000D02*
X129628300Y-52314200D01*
X129628300Y-52314200D02*
X129628300Y-52489700D01*
X98960000Y-44819700D02*
X102279700Y-41500000D01*
X102279700Y-41500000D02*
X105219700Y-41500000D01*
X89003200Y-55015500D02*
X82000000Y-48012300D01*
X82000000Y-48012300D02*
X75852300Y-48012300D01*
X75852300Y-48012300D02*
X73960000Y-46120000D01*
X86095000Y-58999700D02*
X89003200Y-56091500D01*
X89003200Y-56091500D02*
X89003200Y-55015500D01*
X98960000Y-53961900D02*
X90056800Y-53961900D01*
X90056800Y-53961900D02*
X89003200Y-55015500D01*
X98960000Y-53961900D02*
X98960000Y-46120000D01*
X86095000Y-60500000D02*
X86095000Y-58999700D01*
X98960000Y-46120000D02*
X98960000Y-44819700D01*
X106420000Y-41500000D02*
X105219700Y-41500000D01*
D36*
X137000000Y-76000000D02*
X127220300Y-66220300D01*
X127220300Y-66220300D02*
X127000000Y-66220300D01*
X140920000Y-55000000D02*
X140920000Y-53499700D01*
X140920000Y-53499700D02*
X149500000Y-44919700D01*
X149500000Y-44919700D02*
X149500000Y-33500000D01*
X127000000Y-64620000D02*
X127000000Y-66220300D01*
X123799700Y-47595000D02*
X125462500Y-47595000D01*
X121037500Y-47595000D02*
X123799700Y-47595000D01*
X123799700Y-47595000D02*
X123799700Y-38181500D01*
X123799700Y-38181500D02*
X123855400Y-38125800D01*
X123855400Y-38125800D02*
X124874200Y-38125800D01*
X124874200Y-38125800D02*
X125500000Y-37500000D01*
X116000000Y-37500000D02*
X117511000Y-35989000D01*
X117511000Y-35989000D02*
X121718600Y-35989000D01*
X121718600Y-35989000D02*
X123855400Y-38125800D01*
X115962500Y-47595000D02*
X121037500Y-47595000D01*
X135960000Y-30725000D02*
X135960000Y-33825300D01*
X112040000Y-32500000D02*
X113690300Y-32500000D01*
X113690300Y-32500000D02*
X115354400Y-30835900D01*
X115354400Y-30835900D02*
X131620300Y-30835900D01*
X131620300Y-30835900D02*
X134609700Y-33825300D01*
X134609700Y-33825300D02*
X135960000Y-33825300D01*
X78907900Y-40115200D02*
X78907900Y-42111800D01*
X78907900Y-42111800D02*
X76500000Y-44519700D01*
X78100300Y-38500000D02*
X78907900Y-39307600D01*
X78907900Y-39307600D02*
X78907900Y-40115200D01*
X78907900Y-40115200D02*
X97344800Y-40115200D01*
X97344800Y-40115200D02*
X98960000Y-38500000D01*
X76500000Y-46120000D02*
X76500000Y-44519700D01*
X101000000Y-104000000D02*
X104000000Y-104000000D01*
X98000000Y-104000000D02*
X101000000Y-104000000D01*
X95000000Y-104000000D02*
X98000000Y-104000000D01*
X73000000Y-95000000D02*
X82000000Y-104000000D01*
X82000000Y-104000000D02*
X95000000Y-104000000D01*
X76500000Y-38500000D02*
X78100300Y-38500000D01*
X73960000Y-38500000D02*
X76500000Y-38500000D01*
X98960000Y-38500000D02*
X98960000Y-36899700D01*
X104500000Y-32500000D02*
X104500000Y-34150300D01*
X104500000Y-34150300D02*
X101709400Y-34150300D01*
X101709400Y-34150300D02*
X98960000Y-36899700D01*
X107000000Y-104000000D02*
X104000000Y-104000000D01*
X110000000Y-104000000D02*
X107000000Y-104000000D01*
X113000000Y-104000000D02*
X110000000Y-104000000D01*
X116000000Y-104000000D02*
X113000000Y-104000000D01*
X140920000Y-58000000D02*
X139419700Y-58000000D01*
X127000000Y-57000000D02*
X138419700Y-57000000D01*
X138419700Y-57000000D02*
X139419700Y-58000000D01*
X101500000Y-46120000D02*
X101500000Y-49500000D01*
X101500000Y-49500000D02*
X104000000Y-52000000D01*
D38*
X79400300Y-91000000D02*
X86249900Y-84150400D01*
X86249900Y-84150400D02*
X112469600Y-84150400D01*
X112469600Y-84150400D02*
X116620000Y-80000000D01*
X78000000Y-91000000D02*
X79400300Y-91000000D01*
X86400300Y-91000000D02*
X92549600Y-84850700D01*
X92549600Y-84850700D02*
X114309300Y-84850700D01*
X114309300Y-84850700D02*
X119160000Y-80000000D01*
X85000000Y-91000000D02*
X86400300Y-91000000D01*
X93400300Y-91000000D02*
X97306600Y-87093700D01*
X97306600Y-87093700D02*
X114606300Y-87093700D01*
X114606300Y-87093700D02*
X121700000Y-80000000D01*
X92000000Y-91000000D02*
X93400300Y-91000000D01*
X99000000Y-91000000D02*
X100400300Y-91000000D01*
X124240000Y-80000000D02*
X116385100Y-87854900D01*
X116385100Y-87854900D02*
X103545400Y-87854900D01*
X103545400Y-87854900D02*
X100400300Y-91000000D01*
X116000000Y-98920000D02*
X121620000Y-98920000D01*
X121620000Y-98920000D02*
X127000000Y-93540000D01*
D37*
X187000000Y-60000000D02*
X189550400Y-57449600D01*
X189550400Y-57449600D02*
X204550400Y-57449600D01*
X204550400Y-57449600D02*
X207000000Y-55000000D01*
X187000000Y-65000000D02*
X189296400Y-62703600D01*
X189296400Y-62703600D02*
X201353300Y-62703600D01*
X201353300Y-62703600D02*
X203649700Y-65000000D01*
X177970300Y-71080000D02*
X184050300Y-65000000D01*
X184050300Y-65000000D02*
X187000000Y-65000000D01*
X207000000Y-65000000D02*
X203649700Y-65000000D01*
X175620000Y-71080000D02*
X177970300Y-71080000D01*
X175620000Y-143080000D02*
X177970300Y-143080000D01*
X177970300Y-143080000D02*
X184050300Y-137000000D01*
X184050300Y-137000000D02*
X187000000Y-137000000D01*
X187000000Y-132000000D02*
X189318700Y-134318700D01*
X189318700Y-134318700D02*
X199681300Y-134318700D01*
X199681300Y-134318700D02*
X207000000Y-127000000D01*
D38*
X58640000Y-32500000D02*
X58640000Y-33850300D01*
X66340000Y-46120000D02*
X61759400Y-41539400D01*
X61759400Y-41539400D02*
X59760800Y-41539400D01*
X59760800Y-41539400D02*
X57290100Y-39068700D01*
X57290100Y-39068700D02*
X57290100Y-35200200D01*
X57290100Y-35200200D02*
X58640000Y-33850300D01*
X61180000Y-32500000D02*
X59819800Y-31139800D01*
X59819800Y-31139800D02*
X58079400Y-31139800D01*
X58079400Y-31139800D02*
X56589500Y-32629700D01*
X56589500Y-32629700D02*
X56589500Y-39451900D01*
X56589500Y-39451900D02*
X60521000Y-43383400D01*
X60521000Y-43383400D02*
X61063400Y-43383400D01*
X61063400Y-43383400D02*
X63800000Y-46120000D01*
X63720000Y-32500000D02*
X61659500Y-30439500D01*
X61659500Y-30439500D02*
X57789400Y-30439500D01*
X57789400Y-30439500D02*
X55889200Y-32339700D01*
X55889200Y-32339700D02*
X55889200Y-39756600D01*
X55889200Y-39756600D02*
X60952300Y-44819700D01*
X60952300Y-44819700D02*
X61260000Y-44819700D01*
X61260000Y-46120000D02*
X61260000Y-44819700D01*
X66260000Y-32500000D02*
X63499200Y-29739200D01*
X63499200Y-29739200D02*
X57499400Y-29739200D01*
X57499400Y-29739200D02*
X55188900Y-32049700D01*
X55188900Y-32049700D02*
X55188900Y-41288600D01*
X55188900Y-41288600D02*
X58720000Y-44819700D01*
X58720000Y-46120000D02*
X58720000Y-44819700D01*
X116649700Y-41000000D02*
X114673400Y-39023700D01*
X114673400Y-39023700D02*
X114673400Y-36136900D01*
X114673400Y-36136900D02*
X116960000Y-33850300D01*
X116960000Y-32500000D02*
X116960000Y-33850300D01*
X115962500Y-48865000D02*
X115129400Y-48865000D01*
X115129400Y-48865000D02*
X114366800Y-48102400D01*
X114366800Y-48102400D02*
X114366800Y-43282900D01*
X114366800Y-43282900D02*
X116649700Y-41000000D01*
X117550000Y-41000000D02*
X116649700Y-41000000D01*
X125550000Y-40500000D02*
X126800400Y-39249600D01*
X126800400Y-39249600D02*
X126800400Y-36955800D01*
X126800400Y-36955800D02*
X122344600Y-32500000D01*
X122344600Y-32500000D02*
X119500000Y-32500000D01*
X125462500Y-48865000D02*
X126356700Y-48865000D01*
X126356700Y-48865000D02*
X127119900Y-48101800D01*
X127119900Y-48101800D02*
X127119900Y-47103100D01*
X127119900Y-47103100D02*
X124849800Y-44833000D01*
X124849800Y-44833000D02*
X124849800Y-41200200D01*
X124849800Y-41200200D02*
X125550000Y-40500000D01*
X146950000Y-91950300D02*
X147360700Y-92361000D01*
X147360700Y-92361000D02*
X147360700Y-119369300D01*
X147360700Y-119369300D02*
X146000000Y-120730000D01*
X146950000Y-91000000D02*
X146950000Y-91950300D01*
X93715000Y-75999700D02*
X126115700Y-75999700D01*
X126115700Y-75999700D02*
X141116000Y-91000000D01*
X141116000Y-91000000D02*
X145050000Y-91000000D01*
X93715000Y-77500000D02*
X93715000Y-75999700D01*
X126500000Y-42500000D02*
X127400300Y-42500000D01*
X130580000Y-37500000D02*
X130580000Y-39320300D01*
X130580000Y-39320300D02*
X127400300Y-42500000D01*
X127450000Y-40500000D02*
X126549700Y-40500000D01*
X130537500Y-50135000D02*
X131354500Y-50135000D01*
X131354500Y-50135000D02*
X132141800Y-49347700D01*
X132141800Y-49347700D02*
X132141800Y-47111700D01*
X132141800Y-47111700D02*
X129622400Y-44592300D01*
X129622400Y-44592300D02*
X127029900Y-44592300D01*
X127029900Y-44592300D02*
X125599600Y-43162000D01*
X125599600Y-43162000D02*
X125599600Y-41799800D01*
X125599600Y-41799800D02*
X125849800Y-41549600D01*
X125849800Y-41549600D02*
X126125100Y-41549600D01*
X126125100Y-41549600D02*
X126549700Y-41125000D01*
X126549700Y-41125000D02*
X126549700Y-40500000D01*
X118500000Y-43000000D02*
X119400300Y-43000000D01*
X121080000Y-37500000D02*
X121080000Y-41320300D01*
X121080000Y-41320300D02*
X119400300Y-43000000D01*
X121037500Y-50135000D02*
X119325500Y-50135000D01*
X117114700Y-42748900D02*
X117814000Y-42049600D01*
X117814000Y-42049600D02*
X118107200Y-42049600D01*
X118107200Y-42049600D02*
X118549700Y-41607100D01*
X118549700Y-41607100D02*
X118549700Y-41000000D01*
X119450000Y-41000000D02*
X118549700Y-41000000D01*
M02*
