G04 #@! TF.GenerationSoftware,KiCad,Pcbnew,(5.1.4)-1*
G04 #@! TF.CreationDate,2019-09-29T20:04:36+02:00*
G04 #@! TF.ProjectId,regulator board,72656775-6c61-4746-9f72-20626f617264,rev?*
G04 #@! TF.SameCoordinates,Original*
G04 #@! TF.FileFunction,Legend,Top*
G04 #@! TF.FilePolarity,Positive*
%FSLAX46Y46*%
G04 Gerber Fmt 4.6, Leading zero omitted, Abs format (unit mm)*
G04 Created by KiCad (PCBNEW (5.1.4)-1) date 2019-09-29 20:04:36*
%MOMM*%
%LPD*%
G04 APERTURE LIST*
%ADD10C,0.150000*%
%ADD11C,0.300000*%
%ADD12C,0.120000*%
G04 APERTURE END LIST*
D10*
X192857142Y-28452380D02*
X192857142Y-27452380D01*
X193428571Y-28452380D01*
X193428571Y-27452380D01*
X193904761Y-27928571D02*
X194238095Y-27928571D01*
X194380952Y-28452380D02*
X193904761Y-28452380D01*
X193904761Y-27452380D01*
X194380952Y-27452380D01*
X194809523Y-27452380D02*
X194809523Y-28261904D01*
X194857142Y-28357142D01*
X194904761Y-28404761D01*
X195000000Y-28452380D01*
X195190476Y-28452380D01*
X195285714Y-28404761D01*
X195333333Y-28357142D01*
X195380952Y-28261904D01*
X195380952Y-27452380D01*
X195714285Y-27452380D02*
X196285714Y-27452380D01*
X196000000Y-28452380D02*
X196000000Y-27452380D01*
D11*
X193142857Y-43178571D02*
X192428571Y-43178571D01*
X192428571Y-41678571D01*
X193642857Y-43178571D02*
X193642857Y-41678571D01*
X194357142Y-43178571D02*
X194357142Y-41678571D01*
X195214285Y-43178571D01*
X195214285Y-41678571D01*
X195928571Y-42392857D02*
X196428571Y-42392857D01*
X196642857Y-43178571D02*
X195928571Y-43178571D01*
X195928571Y-41678571D01*
X196642857Y-41678571D01*
X151642857Y-33607142D02*
X152785714Y-33607142D01*
X152214285Y-34178571D02*
X152214285Y-33035714D01*
X154214285Y-32678571D02*
X153500000Y-32678571D01*
X153428571Y-33392857D01*
X153500000Y-33321428D01*
X153642857Y-33250000D01*
X154000000Y-33250000D01*
X154142857Y-33321428D01*
X154214285Y-33392857D01*
X154285714Y-33535714D01*
X154285714Y-33892857D01*
X154214285Y-34035714D01*
X154142857Y-34107142D01*
X154000000Y-34178571D01*
X153642857Y-34178571D01*
X153500000Y-34107142D01*
X153428571Y-34035714D01*
X154785714Y-33178571D02*
X155142857Y-34178571D01*
X155500000Y-33178571D01*
X152857142Y-24750000D02*
X152714285Y-24678571D01*
X152500000Y-24678571D01*
X152285714Y-24750000D01*
X152142857Y-24892857D01*
X152071428Y-25035714D01*
X152000000Y-25321428D01*
X152000000Y-25535714D01*
X152071428Y-25821428D01*
X152142857Y-25964285D01*
X152285714Y-26107142D01*
X152500000Y-26178571D01*
X152642857Y-26178571D01*
X152857142Y-26107142D01*
X152928571Y-26035714D01*
X152928571Y-25535714D01*
X152642857Y-25535714D01*
X153571428Y-26178571D02*
X153571428Y-24678571D01*
X154428571Y-26178571D01*
X154428571Y-24678571D01*
X155142857Y-26178571D02*
X155142857Y-24678571D01*
X155500000Y-24678571D01*
X155714285Y-24750000D01*
X155857142Y-24892857D01*
X155928571Y-25035714D01*
X156000000Y-25321428D01*
X156000000Y-25535714D01*
X155928571Y-25821428D01*
X155857142Y-25964285D01*
X155714285Y-26107142D01*
X155500000Y-26178571D01*
X155142857Y-26178571D01*
D10*
X116190476Y-27627380D02*
X116761904Y-27627380D01*
X116476190Y-28627380D02*
X116476190Y-27627380D01*
X117095238Y-28103571D02*
X117428571Y-28103571D01*
X117571428Y-28627380D02*
X117095238Y-28627380D01*
X117095238Y-27627380D01*
X117571428Y-27627380D01*
X118000000Y-28627380D02*
X118000000Y-27627380D01*
X118333333Y-28341666D01*
X118666666Y-27627380D01*
X118666666Y-28627380D01*
X119142857Y-28627380D02*
X119142857Y-27627380D01*
X119523809Y-27627380D01*
X119619047Y-27675000D01*
X119666666Y-27722619D01*
X119714285Y-27817857D01*
X119714285Y-27960714D01*
X119666666Y-28055952D01*
X119619047Y-28103571D01*
X119523809Y-28151190D01*
X119142857Y-28151190D01*
X117047619Y-30277380D02*
X116476190Y-30277380D01*
X116761904Y-30277380D02*
X116761904Y-29277380D01*
X116666666Y-29420238D01*
X116571428Y-29515476D01*
X116476190Y-29563095D01*
X118952380Y-29372619D02*
X119000000Y-29325000D01*
X119095238Y-29277380D01*
X119333333Y-29277380D01*
X119428571Y-29325000D01*
X119476190Y-29372619D01*
X119523809Y-29467857D01*
X119523809Y-29563095D01*
X119476190Y-29705952D01*
X118904761Y-30277380D01*
X119523809Y-30277380D01*
X214428571Y-73023809D02*
X214428571Y-72690476D01*
X214952380Y-72547619D02*
X214952380Y-73023809D01*
X213952380Y-73023809D01*
X213952380Y-72547619D01*
X214666666Y-72166666D02*
X214666666Y-71690476D01*
X214952380Y-72261904D02*
X213952380Y-71928571D01*
X214952380Y-71595238D01*
X214952380Y-70690476D02*
X214476190Y-71023809D01*
X214952380Y-71261904D02*
X213952380Y-71261904D01*
X213952380Y-70880952D01*
X214000000Y-70785714D01*
X214047619Y-70738095D01*
X214142857Y-70690476D01*
X214285714Y-70690476D01*
X214380952Y-70738095D01*
X214428571Y-70785714D01*
X214476190Y-70880952D01*
X214476190Y-71261904D01*
X213952380Y-70404761D02*
X213952380Y-69833333D01*
X214952380Y-70119047D02*
X213952380Y-70119047D01*
X214952380Y-69500000D02*
X213952380Y-69500000D01*
X214428571Y-69500000D02*
X214428571Y-68928571D01*
X214952380Y-68928571D02*
X213952380Y-68928571D01*
X214952380Y-66452380D02*
X214952380Y-66928571D01*
X213952380Y-66928571D01*
X214428571Y-66119047D02*
X214428571Y-65785714D01*
X214952380Y-65642857D02*
X214952380Y-66119047D01*
X213952380Y-66119047D01*
X213952380Y-65642857D01*
X214428571Y-64880952D02*
X214428571Y-65214285D01*
X214952380Y-65214285D02*
X213952380Y-65214285D01*
X213952380Y-64738095D01*
X213952380Y-64500000D02*
X213952380Y-63928571D01*
X214952380Y-64214285D02*
X213952380Y-64214285D01*
X214952380Y-62071428D02*
X213952380Y-62071428D01*
X214952380Y-61500000D01*
X213952380Y-61500000D01*
X214428571Y-61023809D02*
X214428571Y-60690476D01*
X214952380Y-60547619D02*
X214952380Y-61023809D01*
X213952380Y-61023809D01*
X213952380Y-60547619D01*
X213952380Y-60119047D02*
X214761904Y-60119047D01*
X214857142Y-60071428D01*
X214904761Y-60023809D01*
X214952380Y-59928571D01*
X214952380Y-59738095D01*
X214904761Y-59642857D01*
X214857142Y-59595238D01*
X214761904Y-59547619D01*
X213952380Y-59547619D01*
X213952380Y-59214285D02*
X213952380Y-58642857D01*
X214952380Y-58928571D02*
X213952380Y-58928571D01*
X214952380Y-56214285D02*
X214476190Y-56547619D01*
X214952380Y-56785714D02*
X213952380Y-56785714D01*
X213952380Y-56404761D01*
X214000000Y-56309523D01*
X214047619Y-56261904D01*
X214142857Y-56214285D01*
X214285714Y-56214285D01*
X214380952Y-56261904D01*
X214428571Y-56309523D01*
X214476190Y-56404761D01*
X214476190Y-56785714D01*
X214952380Y-55785714D02*
X213952380Y-55785714D01*
X214000000Y-54785714D02*
X213952380Y-54880952D01*
X213952380Y-55023809D01*
X214000000Y-55166666D01*
X214095238Y-55261904D01*
X214190476Y-55309523D01*
X214380952Y-55357142D01*
X214523809Y-55357142D01*
X214714285Y-55309523D01*
X214809523Y-55261904D01*
X214904761Y-55166666D01*
X214952380Y-55023809D01*
X214952380Y-54928571D01*
X214904761Y-54785714D01*
X214857142Y-54738095D01*
X214523809Y-54738095D01*
X214523809Y-54928571D01*
X214952380Y-54309523D02*
X213952380Y-54309523D01*
X214428571Y-54309523D02*
X214428571Y-53738095D01*
X214952380Y-53738095D02*
X213952380Y-53738095D01*
X213952380Y-53404761D02*
X213952380Y-52833333D01*
X214952380Y-53119047D02*
X213952380Y-53119047D01*
X214428571Y-97023809D02*
X214428571Y-96690476D01*
X214952380Y-96547619D02*
X214952380Y-97023809D01*
X213952380Y-97023809D01*
X213952380Y-96547619D01*
X214666666Y-96166666D02*
X214666666Y-95690476D01*
X214952380Y-96261904D02*
X213952380Y-95928571D01*
X214952380Y-95595238D01*
X214952380Y-94690476D02*
X214476190Y-95023809D01*
X214952380Y-95261904D02*
X213952380Y-95261904D01*
X213952380Y-94880952D01*
X214000000Y-94785714D01*
X214047619Y-94738095D01*
X214142857Y-94690476D01*
X214285714Y-94690476D01*
X214380952Y-94738095D01*
X214428571Y-94785714D01*
X214476190Y-94880952D01*
X214476190Y-95261904D01*
X213952380Y-94404761D02*
X213952380Y-93833333D01*
X214952380Y-94119047D02*
X213952380Y-94119047D01*
X214952380Y-93500000D02*
X213952380Y-93500000D01*
X214428571Y-93500000D02*
X214428571Y-92928571D01*
X214952380Y-92928571D02*
X213952380Y-92928571D01*
X214952380Y-90452380D02*
X214952380Y-90928571D01*
X213952380Y-90928571D01*
X214428571Y-90119047D02*
X214428571Y-89785714D01*
X214952380Y-89642857D02*
X214952380Y-90119047D01*
X213952380Y-90119047D01*
X213952380Y-89642857D01*
X214428571Y-88880952D02*
X214428571Y-89214285D01*
X214952380Y-89214285D02*
X213952380Y-89214285D01*
X213952380Y-88738095D01*
X213952380Y-88500000D02*
X213952380Y-87928571D01*
X214952380Y-88214285D02*
X213952380Y-88214285D01*
X214952380Y-86071428D02*
X213952380Y-86071428D01*
X214952380Y-85500000D01*
X213952380Y-85500000D01*
X214428571Y-85023809D02*
X214428571Y-84690476D01*
X214952380Y-84547619D02*
X214952380Y-85023809D01*
X213952380Y-85023809D01*
X213952380Y-84547619D01*
X213952380Y-84119047D02*
X214761904Y-84119047D01*
X214857142Y-84071428D01*
X214904761Y-84023809D01*
X214952380Y-83928571D01*
X214952380Y-83738095D01*
X214904761Y-83642857D01*
X214857142Y-83595238D01*
X214761904Y-83547619D01*
X213952380Y-83547619D01*
X213952380Y-83214285D02*
X213952380Y-82642857D01*
X214952380Y-82928571D02*
X213952380Y-82928571D01*
X214952380Y-80214285D02*
X214476190Y-80547619D01*
X214952380Y-80785714D02*
X213952380Y-80785714D01*
X213952380Y-80404761D01*
X214000000Y-80309523D01*
X214047619Y-80261904D01*
X214142857Y-80214285D01*
X214285714Y-80214285D01*
X214380952Y-80261904D01*
X214428571Y-80309523D01*
X214476190Y-80404761D01*
X214476190Y-80785714D01*
X214952380Y-79785714D02*
X213952380Y-79785714D01*
X214000000Y-78785714D02*
X213952380Y-78880952D01*
X213952380Y-79023809D01*
X214000000Y-79166666D01*
X214095238Y-79261904D01*
X214190476Y-79309523D01*
X214380952Y-79357142D01*
X214523809Y-79357142D01*
X214714285Y-79309523D01*
X214809523Y-79261904D01*
X214904761Y-79166666D01*
X214952380Y-79023809D01*
X214952380Y-78928571D01*
X214904761Y-78785714D01*
X214857142Y-78738095D01*
X214523809Y-78738095D01*
X214523809Y-78928571D01*
X214952380Y-78309523D02*
X213952380Y-78309523D01*
X214428571Y-78309523D02*
X214428571Y-77738095D01*
X214952380Y-77738095D02*
X213952380Y-77738095D01*
X213952380Y-77404761D02*
X213952380Y-76833333D01*
X214952380Y-77119047D02*
X213952380Y-77119047D01*
X214428571Y-121023809D02*
X214428571Y-120690476D01*
X214952380Y-120547619D02*
X214952380Y-121023809D01*
X213952380Y-121023809D01*
X213952380Y-120547619D01*
X214666666Y-120166666D02*
X214666666Y-119690476D01*
X214952380Y-120261904D02*
X213952380Y-119928571D01*
X214952380Y-119595238D01*
X214952380Y-118690476D02*
X214476190Y-119023809D01*
X214952380Y-119261904D02*
X213952380Y-119261904D01*
X213952380Y-118880952D01*
X214000000Y-118785714D01*
X214047619Y-118738095D01*
X214142857Y-118690476D01*
X214285714Y-118690476D01*
X214380952Y-118738095D01*
X214428571Y-118785714D01*
X214476190Y-118880952D01*
X214476190Y-119261904D01*
X213952380Y-118404761D02*
X213952380Y-117833333D01*
X214952380Y-118119047D02*
X213952380Y-118119047D01*
X214952380Y-117500000D02*
X213952380Y-117500000D01*
X214428571Y-117500000D02*
X214428571Y-116928571D01*
X214952380Y-116928571D02*
X213952380Y-116928571D01*
X214952380Y-114452380D02*
X214952380Y-114928571D01*
X213952380Y-114928571D01*
X214428571Y-114119047D02*
X214428571Y-113785714D01*
X214952380Y-113642857D02*
X214952380Y-114119047D01*
X213952380Y-114119047D01*
X213952380Y-113642857D01*
X214428571Y-112880952D02*
X214428571Y-113214285D01*
X214952380Y-113214285D02*
X213952380Y-113214285D01*
X213952380Y-112738095D01*
X213952380Y-112500000D02*
X213952380Y-111928571D01*
X214952380Y-112214285D02*
X213952380Y-112214285D01*
X214952380Y-110071428D02*
X213952380Y-110071428D01*
X214952380Y-109500000D01*
X213952380Y-109500000D01*
X214428571Y-109023809D02*
X214428571Y-108690476D01*
X214952380Y-108547619D02*
X214952380Y-109023809D01*
X213952380Y-109023809D01*
X213952380Y-108547619D01*
X213952380Y-108119047D02*
X214761904Y-108119047D01*
X214857142Y-108071428D01*
X214904761Y-108023809D01*
X214952380Y-107928571D01*
X214952380Y-107738095D01*
X214904761Y-107642857D01*
X214857142Y-107595238D01*
X214761904Y-107547619D01*
X213952380Y-107547619D01*
X213952380Y-107214285D02*
X213952380Y-106642857D01*
X214952380Y-106928571D02*
X213952380Y-106928571D01*
X214952380Y-104214285D02*
X214476190Y-104547619D01*
X214952380Y-104785714D02*
X213952380Y-104785714D01*
X213952380Y-104404761D01*
X214000000Y-104309523D01*
X214047619Y-104261904D01*
X214142857Y-104214285D01*
X214285714Y-104214285D01*
X214380952Y-104261904D01*
X214428571Y-104309523D01*
X214476190Y-104404761D01*
X214476190Y-104785714D01*
X214952380Y-103785714D02*
X213952380Y-103785714D01*
X214000000Y-102785714D02*
X213952380Y-102880952D01*
X213952380Y-103023809D01*
X214000000Y-103166666D01*
X214095238Y-103261904D01*
X214190476Y-103309523D01*
X214380952Y-103357142D01*
X214523809Y-103357142D01*
X214714285Y-103309523D01*
X214809523Y-103261904D01*
X214904761Y-103166666D01*
X214952380Y-103023809D01*
X214952380Y-102928571D01*
X214904761Y-102785714D01*
X214857142Y-102738095D01*
X214523809Y-102738095D01*
X214523809Y-102928571D01*
X214952380Y-102309523D02*
X213952380Y-102309523D01*
X214428571Y-102309523D02*
X214428571Y-101738095D01*
X214952380Y-101738095D02*
X213952380Y-101738095D01*
X213952380Y-101404761D02*
X213952380Y-100833333D01*
X214952380Y-101119047D02*
X213952380Y-101119047D01*
X214428571Y-145023809D02*
X214428571Y-144690476D01*
X214952380Y-144547619D02*
X214952380Y-145023809D01*
X213952380Y-145023809D01*
X213952380Y-144547619D01*
X214666666Y-144166666D02*
X214666666Y-143690476D01*
X214952380Y-144261904D02*
X213952380Y-143928571D01*
X214952380Y-143595238D01*
X214952380Y-142690476D02*
X214476190Y-143023809D01*
X214952380Y-143261904D02*
X213952380Y-143261904D01*
X213952380Y-142880952D01*
X214000000Y-142785714D01*
X214047619Y-142738095D01*
X214142857Y-142690476D01*
X214285714Y-142690476D01*
X214380952Y-142738095D01*
X214428571Y-142785714D01*
X214476190Y-142880952D01*
X214476190Y-143261904D01*
X213952380Y-142404761D02*
X213952380Y-141833333D01*
X214952380Y-142119047D02*
X213952380Y-142119047D01*
X214952380Y-141500000D02*
X213952380Y-141500000D01*
X214428571Y-141500000D02*
X214428571Y-140928571D01*
X214952380Y-140928571D02*
X213952380Y-140928571D01*
X214952380Y-138452380D02*
X214952380Y-138928571D01*
X213952380Y-138928571D01*
X214428571Y-138119047D02*
X214428571Y-137785714D01*
X214952380Y-137642857D02*
X214952380Y-138119047D01*
X213952380Y-138119047D01*
X213952380Y-137642857D01*
X214428571Y-136880952D02*
X214428571Y-137214285D01*
X214952380Y-137214285D02*
X213952380Y-137214285D01*
X213952380Y-136738095D01*
X213952380Y-136500000D02*
X213952380Y-135928571D01*
X214952380Y-136214285D02*
X213952380Y-136214285D01*
X214952380Y-134071428D02*
X213952380Y-134071428D01*
X214952380Y-133500000D01*
X213952380Y-133500000D01*
X214428571Y-133023809D02*
X214428571Y-132690476D01*
X214952380Y-132547619D02*
X214952380Y-133023809D01*
X213952380Y-133023809D01*
X213952380Y-132547619D01*
X213952380Y-132119047D02*
X214761904Y-132119047D01*
X214857142Y-132071428D01*
X214904761Y-132023809D01*
X214952380Y-131928571D01*
X214952380Y-131738095D01*
X214904761Y-131642857D01*
X214857142Y-131595238D01*
X214761904Y-131547619D01*
X213952380Y-131547619D01*
X213952380Y-131214285D02*
X213952380Y-130642857D01*
X214952380Y-130928571D02*
X213952380Y-130928571D01*
X214952380Y-128214285D02*
X214476190Y-128547619D01*
X214952380Y-128785714D02*
X213952380Y-128785714D01*
X213952380Y-128404761D01*
X214000000Y-128309523D01*
X214047619Y-128261904D01*
X214142857Y-128214285D01*
X214285714Y-128214285D01*
X214380952Y-128261904D01*
X214428571Y-128309523D01*
X214476190Y-128404761D01*
X214476190Y-128785714D01*
X214952380Y-127785714D02*
X213952380Y-127785714D01*
X214000000Y-126785714D02*
X213952380Y-126880952D01*
X213952380Y-127023809D01*
X214000000Y-127166666D01*
X214095238Y-127261904D01*
X214190476Y-127309523D01*
X214380952Y-127357142D01*
X214523809Y-127357142D01*
X214714285Y-127309523D01*
X214809523Y-127261904D01*
X214904761Y-127166666D01*
X214952380Y-127023809D01*
X214952380Y-126928571D01*
X214904761Y-126785714D01*
X214857142Y-126738095D01*
X214523809Y-126738095D01*
X214523809Y-126928571D01*
X214952380Y-126309523D02*
X213952380Y-126309523D01*
X214428571Y-126309523D02*
X214428571Y-125738095D01*
X214952380Y-125738095D02*
X213952380Y-125738095D01*
X213952380Y-125404761D02*
X213952380Y-124833333D01*
X214952380Y-125119047D02*
X213952380Y-125119047D01*
X214428571Y-42809523D02*
X214428571Y-42476190D01*
X214952380Y-42333333D02*
X214952380Y-42809523D01*
X213952380Y-42809523D01*
X213952380Y-42333333D01*
X214666666Y-41952380D02*
X214666666Y-41476190D01*
X214952380Y-42047619D02*
X213952380Y-41714285D01*
X214952380Y-41380952D01*
X214952380Y-40476190D02*
X214476190Y-40809523D01*
X214952380Y-41047619D02*
X213952380Y-41047619D01*
X213952380Y-40666666D01*
X214000000Y-40571428D01*
X214047619Y-40523809D01*
X214142857Y-40476190D01*
X214285714Y-40476190D01*
X214380952Y-40523809D01*
X214428571Y-40571428D01*
X214476190Y-40666666D01*
X214476190Y-41047619D01*
X213952380Y-40190476D02*
X213952380Y-39619047D01*
X214952380Y-39904761D02*
X213952380Y-39904761D01*
X214952380Y-39285714D02*
X213952380Y-39285714D01*
X214428571Y-39285714D02*
X214428571Y-38714285D01*
X214952380Y-38714285D02*
X213952380Y-38714285D01*
X214952380Y-37476190D02*
X213952380Y-37476190D01*
X214952380Y-36904761D01*
X213952380Y-36904761D01*
X214428571Y-36428571D02*
X214428571Y-36095238D01*
X214952380Y-35952380D02*
X214952380Y-36428571D01*
X213952380Y-36428571D01*
X213952380Y-35952380D01*
X213952380Y-35523809D02*
X214761904Y-35523809D01*
X214857142Y-35476190D01*
X214904761Y-35428571D01*
X214952380Y-35333333D01*
X214952380Y-35142857D01*
X214904761Y-35047619D01*
X214857142Y-35000000D01*
X214761904Y-34952380D01*
X213952380Y-34952380D01*
X213952380Y-34619047D02*
X213952380Y-34047619D01*
X214952380Y-34333333D02*
X213952380Y-34333333D01*
X214952380Y-32476190D02*
X214952380Y-32952380D01*
X213952380Y-32952380D01*
X214952380Y-32142857D02*
X213952380Y-32142857D01*
X214952380Y-31666666D02*
X213952380Y-31666666D01*
X214952380Y-31095238D01*
X213952380Y-31095238D01*
X214428571Y-30619047D02*
X214428571Y-30285714D01*
X214952380Y-30142857D02*
X214952380Y-30619047D01*
X213952380Y-30619047D01*
X213952380Y-30142857D01*
X108333333Y-29000000D02*
X108238095Y-28952380D01*
X108095238Y-28952380D01*
X107952380Y-29000000D01*
X107857142Y-29095238D01*
X107809523Y-29190476D01*
X107761904Y-29380952D01*
X107761904Y-29523809D01*
X107809523Y-29714285D01*
X107857142Y-29809523D01*
X107952380Y-29904761D01*
X108095238Y-29952380D01*
X108190476Y-29952380D01*
X108333333Y-29904761D01*
X108380952Y-29857142D01*
X108380952Y-29523809D01*
X108190476Y-29523809D01*
X108809523Y-29952380D02*
X108809523Y-28952380D01*
X109380952Y-29952380D01*
X109380952Y-28952380D01*
X109857142Y-29952380D02*
X109857142Y-28952380D01*
X110095238Y-28952380D01*
X110238095Y-29000000D01*
X110333333Y-29095238D01*
X110380952Y-29190476D01*
X110428571Y-29380952D01*
X110428571Y-29523809D01*
X110380952Y-29714285D01*
X110333333Y-29809523D01*
X110238095Y-29904761D01*
X110095238Y-29952380D01*
X109857142Y-29952380D01*
X111619047Y-29571428D02*
X112380952Y-29571428D01*
X112000000Y-29952380D02*
X112000000Y-29190476D01*
X113333333Y-28952380D02*
X112857142Y-28952380D01*
X112809523Y-29428571D01*
X112857142Y-29380952D01*
X112952380Y-29333333D01*
X113190476Y-29333333D01*
X113285714Y-29380952D01*
X113333333Y-29428571D01*
X113380952Y-29523809D01*
X113380952Y-29761904D01*
X113333333Y-29857142D01*
X113285714Y-29904761D01*
X113190476Y-29952380D01*
X112952380Y-29952380D01*
X112857142Y-29904761D01*
X112809523Y-29857142D01*
X113666666Y-28952380D02*
X114000000Y-29952380D01*
X114333333Y-28952380D01*
X100333333Y-29000000D02*
X100238095Y-28952380D01*
X100095238Y-28952380D01*
X99952380Y-29000000D01*
X99857142Y-29095238D01*
X99809523Y-29190476D01*
X99761904Y-29380952D01*
X99761904Y-29523809D01*
X99809523Y-29714285D01*
X99857142Y-29809523D01*
X99952380Y-29904761D01*
X100095238Y-29952380D01*
X100190476Y-29952380D01*
X100333333Y-29904761D01*
X100380952Y-29857142D01*
X100380952Y-29523809D01*
X100190476Y-29523809D01*
X100809523Y-29952380D02*
X100809523Y-28952380D01*
X101380952Y-29952380D01*
X101380952Y-28952380D01*
X101857142Y-29952380D02*
X101857142Y-28952380D01*
X102095238Y-28952380D01*
X102238095Y-29000000D01*
X102333333Y-29095238D01*
X102380952Y-29190476D01*
X102428571Y-29380952D01*
X102428571Y-29523809D01*
X102380952Y-29714285D01*
X102333333Y-29809523D01*
X102238095Y-29904761D01*
X102095238Y-29952380D01*
X101857142Y-29952380D01*
X103619047Y-29571428D02*
X104380952Y-29571428D01*
X104000000Y-29952380D02*
X104000000Y-29190476D01*
X105333333Y-28952380D02*
X104857142Y-28952380D01*
X104809523Y-29428571D01*
X104857142Y-29380952D01*
X104952380Y-29333333D01*
X105190476Y-29333333D01*
X105285714Y-29380952D01*
X105333333Y-29428571D01*
X105380952Y-29523809D01*
X105380952Y-29761904D01*
X105333333Y-29857142D01*
X105285714Y-29904761D01*
X105190476Y-29952380D01*
X104952380Y-29952380D01*
X104857142Y-29904761D01*
X104809523Y-29857142D01*
X105666666Y-28952380D02*
X106000000Y-29952380D01*
X106333333Y-28952380D01*
X63952380Y-57452380D02*
X63476190Y-57785714D01*
X63952380Y-58023809D02*
X62952380Y-58023809D01*
X62952380Y-57642857D01*
X63000000Y-57547619D01*
X63047619Y-57500000D01*
X63142857Y-57452380D01*
X63285714Y-57452380D01*
X63380952Y-57500000D01*
X63428571Y-57547619D01*
X63476190Y-57642857D01*
X63476190Y-58023809D01*
X63428571Y-57023809D02*
X63428571Y-56690476D01*
X63952380Y-56547619D02*
X63952380Y-57023809D01*
X62952380Y-57023809D01*
X62952380Y-56547619D01*
X63904761Y-56166666D02*
X63952380Y-56023809D01*
X63952380Y-55785714D01*
X63904761Y-55690476D01*
X63857142Y-55642857D01*
X63761904Y-55595238D01*
X63666666Y-55595238D01*
X63571428Y-55642857D01*
X63523809Y-55690476D01*
X63476190Y-55785714D01*
X63428571Y-55976190D01*
X63380952Y-56071428D01*
X63333333Y-56119047D01*
X63238095Y-56166666D01*
X63142857Y-56166666D01*
X63047619Y-56119047D01*
X63000000Y-56071428D01*
X62952380Y-55976190D01*
X62952380Y-55738095D01*
X63000000Y-55595238D01*
X63428571Y-55166666D02*
X63428571Y-54833333D01*
X63952380Y-54690476D02*
X63952380Y-55166666D01*
X62952380Y-55166666D01*
X62952380Y-54690476D01*
X62952380Y-54404761D02*
X62952380Y-53833333D01*
X63952380Y-54119047D02*
X62952380Y-54119047D01*
X63428571Y-68023809D02*
X63428571Y-67690476D01*
X63952380Y-67547619D02*
X63952380Y-68023809D01*
X62952380Y-68023809D01*
X62952380Y-67547619D01*
X63952380Y-67119047D02*
X62952380Y-67119047D01*
X63952380Y-66547619D01*
X62952380Y-66547619D01*
X63666666Y-66119047D02*
X63666666Y-65642857D01*
X63952380Y-66214285D02*
X62952380Y-65880952D01*
X63952380Y-65547619D01*
X63428571Y-64880952D02*
X63476190Y-64738095D01*
X63523809Y-64690476D01*
X63619047Y-64642857D01*
X63761904Y-64642857D01*
X63857142Y-64690476D01*
X63904761Y-64738095D01*
X63952380Y-64833333D01*
X63952380Y-65214285D01*
X62952380Y-65214285D01*
X62952380Y-64880952D01*
X63000000Y-64785714D01*
X63047619Y-64738095D01*
X63142857Y-64690476D01*
X63238095Y-64690476D01*
X63333333Y-64738095D01*
X63380952Y-64785714D01*
X63428571Y-64880952D01*
X63428571Y-65214285D01*
X63952380Y-63738095D02*
X63952380Y-64214285D01*
X62952380Y-64214285D01*
X63428571Y-63404761D02*
X63428571Y-63071428D01*
X63952380Y-62928571D02*
X63952380Y-63404761D01*
X62952380Y-63404761D01*
X62952380Y-62928571D01*
X46452380Y-67190476D02*
X46452380Y-66571428D01*
X46833333Y-66904761D01*
X46833333Y-66761904D01*
X46880952Y-66666666D01*
X46928571Y-66619047D01*
X47023809Y-66571428D01*
X47261904Y-66571428D01*
X47357142Y-66619047D01*
X47404761Y-66666666D01*
X47452380Y-66761904D01*
X47452380Y-67047619D01*
X47404761Y-67142857D01*
X47357142Y-67190476D01*
X46785714Y-66238095D02*
X47452380Y-66000000D01*
X46785714Y-65761904D01*
X46452380Y-65476190D02*
X46452380Y-64857142D01*
X46833333Y-65190476D01*
X46833333Y-65047619D01*
X46880952Y-64952380D01*
X46928571Y-64904761D01*
X47023809Y-64857142D01*
X47261904Y-64857142D01*
X47357142Y-64904761D01*
X47404761Y-64952380D01*
X47452380Y-65047619D01*
X47452380Y-65333333D01*
X47404761Y-65428571D01*
X47357142Y-65476190D01*
X46500000Y-63142857D02*
X46452380Y-63238095D01*
X46452380Y-63380952D01*
X46500000Y-63523809D01*
X46595238Y-63619047D01*
X46690476Y-63666666D01*
X46880952Y-63714285D01*
X47023809Y-63714285D01*
X47214285Y-63666666D01*
X47309523Y-63619047D01*
X47404761Y-63523809D01*
X47452380Y-63380952D01*
X47452380Y-63285714D01*
X47404761Y-63142857D01*
X47357142Y-63095238D01*
X47023809Y-63095238D01*
X47023809Y-63285714D01*
X47452380Y-62666666D02*
X46452380Y-62666666D01*
X47452380Y-62095238D01*
X46452380Y-62095238D01*
X47452380Y-61619047D02*
X46452380Y-61619047D01*
X46452380Y-61380952D01*
X46500000Y-61238095D01*
X46595238Y-61142857D01*
X46690476Y-61095238D01*
X46880952Y-61047619D01*
X47023809Y-61047619D01*
X47214285Y-61095238D01*
X47309523Y-61142857D01*
X47404761Y-61238095D01*
X47452380Y-61380952D01*
X47452380Y-61619047D01*
X46452380Y-60000000D02*
X46452380Y-59428571D01*
X47452380Y-59714285D02*
X46452380Y-59714285D01*
X46452380Y-59190476D02*
X47452380Y-58523809D01*
X46452380Y-58523809D02*
X47452380Y-59190476D01*
X47452380Y-56809523D02*
X46976190Y-57142857D01*
X47452380Y-57380952D02*
X46452380Y-57380952D01*
X46452380Y-57000000D01*
X46500000Y-56904761D01*
X46547619Y-56857142D01*
X46642857Y-56809523D01*
X46785714Y-56809523D01*
X46880952Y-56857142D01*
X46928571Y-56904761D01*
X46976190Y-57000000D01*
X46976190Y-57380952D01*
X46452380Y-56476190D02*
X47452380Y-55809523D01*
X46452380Y-55809523D02*
X47452380Y-56476190D01*
D12*
X198020000Y-49620000D02*
X198020000Y-22180000D01*
X198020000Y-22180000D02*
X145380000Y-22180000D01*
X198020000Y-49620000D02*
X145380000Y-49620000D01*
X145380000Y-49620000D02*
X145380000Y-22180000D01*
X193500000Y-49950000D02*
X195500000Y-49950000D01*
X105830000Y-32500000D02*
X105830000Y-33830000D01*
X105830000Y-33830000D02*
X104500000Y-33830000D01*
X103230000Y-33830000D02*
X100630000Y-33830000D01*
X100630000Y-31170000D02*
X100630000Y-33830000D01*
X103230000Y-31170000D02*
X100630000Y-31170000D01*
X103230000Y-31170000D02*
X103230000Y-33830000D01*
X113370000Y-32500000D02*
X113370000Y-33830000D01*
X113370000Y-33830000D02*
X112040000Y-33830000D01*
X110770000Y-33830000D02*
X108170000Y-33830000D01*
X108170000Y-31170000D02*
X108170000Y-33830000D01*
X110770000Y-31170000D02*
X108170000Y-31170000D01*
X110770000Y-31170000D02*
X110770000Y-33830000D01*
X120830000Y-32500000D02*
X120830000Y-33830000D01*
X120830000Y-33830000D02*
X119500000Y-33830000D01*
X118230000Y-33830000D02*
X115630000Y-33830000D01*
X115630000Y-31170000D02*
X115630000Y-33830000D01*
X118230000Y-31170000D02*
X115630000Y-31170000D01*
X118230000Y-31170000D02*
X118230000Y-33830000D01*
X98070000Y-32500000D02*
X98070000Y-33830000D01*
X98070000Y-33830000D02*
X96740000Y-33830000D01*
X95470000Y-33830000D02*
X57310000Y-33830000D01*
X57310000Y-31170000D02*
X57310000Y-33830000D01*
X95470000Y-31170000D02*
X57310000Y-31170000D01*
X95470000Y-31170000D02*
X95470000Y-33830000D01*
X75380000Y-49380000D02*
X82620000Y-49380000D01*
X75380000Y-51620000D02*
X82620000Y-51620000D01*
X75380000Y-49380000D02*
X75380000Y-51620000D01*
X82620000Y-49380000D02*
X82620000Y-51620000D01*
X130880000Y-77120000D02*
X130880000Y-74880000D01*
X138120000Y-77120000D02*
X138120000Y-74880000D01*
X138120000Y-74880000D02*
X130880000Y-74880000D01*
X138120000Y-77120000D02*
X130880000Y-77120000D01*
X105120000Y-50880000D02*
X105120000Y-58120000D01*
X102880000Y-50880000D02*
X102880000Y-58120000D01*
X105120000Y-50880000D02*
X102880000Y-50880000D01*
X105120000Y-58120000D02*
X102880000Y-58120000D01*
X71880000Y-88880000D02*
X74120000Y-88880000D01*
X71880000Y-96120000D02*
X74120000Y-96120000D01*
X74120000Y-96120000D02*
X74120000Y-88880000D01*
X71880000Y-96120000D02*
X71880000Y-88880000D01*
X137120000Y-46880000D02*
X137120000Y-54120000D01*
X134880000Y-46880000D02*
X134880000Y-54120000D01*
X137120000Y-46880000D02*
X134880000Y-46880000D01*
X137120000Y-54120000D02*
X134880000Y-54120000D01*
X52880000Y-73880000D02*
X55120000Y-73880000D01*
X52880000Y-81120000D02*
X55120000Y-81120000D01*
X55120000Y-81120000D02*
X55120000Y-73880000D01*
X52880000Y-81120000D02*
X52880000Y-73880000D01*
X180380000Y-56620000D02*
X180380000Y-51380000D01*
X198620000Y-56620000D02*
X198620000Y-51380000D01*
X198620000Y-51380000D02*
X180380000Y-51380000D01*
X198620000Y-56620000D02*
X180380000Y-56620000D01*
X198620000Y-73620000D02*
X180380000Y-73620000D01*
X198620000Y-68380000D02*
X180380000Y-68380000D01*
X198620000Y-73620000D02*
X198620000Y-68380000D01*
X180380000Y-73620000D02*
X180380000Y-68380000D01*
X198620000Y-80620000D02*
X180380000Y-80620000D01*
X198620000Y-75380000D02*
X180380000Y-75380000D01*
X198620000Y-80620000D02*
X198620000Y-75380000D01*
X180380000Y-80620000D02*
X180380000Y-75380000D01*
X180380000Y-97620000D02*
X180380000Y-92380000D01*
X198620000Y-97620000D02*
X198620000Y-92380000D01*
X198620000Y-92380000D02*
X180380000Y-92380000D01*
X198620000Y-97620000D02*
X180380000Y-97620000D01*
X198620000Y-104620000D02*
X180380000Y-104620000D01*
X198620000Y-99380000D02*
X180380000Y-99380000D01*
X198620000Y-104620000D02*
X198620000Y-99380000D01*
X180380000Y-104620000D02*
X180380000Y-99380000D01*
X180380000Y-121620000D02*
X180380000Y-116380000D01*
X198620000Y-121620000D02*
X198620000Y-116380000D01*
X198620000Y-116380000D02*
X180380000Y-116380000D01*
X198620000Y-121620000D02*
X180380000Y-121620000D01*
X198620000Y-128620000D02*
X180380000Y-128620000D01*
X198620000Y-123380000D02*
X180380000Y-123380000D01*
X198620000Y-128620000D02*
X198620000Y-123380000D01*
X180380000Y-128620000D02*
X180380000Y-123380000D01*
X180380000Y-145620000D02*
X180380000Y-140380000D01*
X198620000Y-145620000D02*
X198620000Y-140380000D01*
X198620000Y-140380000D02*
X180380000Y-140380000D01*
X198620000Y-145620000D02*
X180380000Y-145620000D01*
X165290000Y-61545000D02*
X165290000Y-58455000D01*
X165230000Y-60000000D02*
G75*
G03X165230000Y-60000000I-2500000J0D01*
G01*
X159740000Y-60000462D02*
G75*
G02X165290000Y-58455170I2990000J462D01*
G01*
X159740000Y-59999538D02*
G75*
G03X165290000Y-61544830I2990000J-462D01*
G01*
X165290000Y-69545000D02*
X165290000Y-66455000D01*
X165230000Y-68000000D02*
G75*
G03X165230000Y-68000000I-2500000J0D01*
G01*
X159740000Y-68000462D02*
G75*
G02X165290000Y-66455170I2990000J462D01*
G01*
X159740000Y-67999538D02*
G75*
G03X165290000Y-69544830I2990000J-462D01*
G01*
X159740000Y-83999538D02*
G75*
G03X165290000Y-85544830I2990000J-462D01*
G01*
X159740000Y-84000462D02*
G75*
G02X165290000Y-82455170I2990000J462D01*
G01*
X165230000Y-84000000D02*
G75*
G03X165230000Y-84000000I-2500000J0D01*
G01*
X165290000Y-85545000D02*
X165290000Y-82455000D01*
X159740000Y-91999538D02*
G75*
G03X165290000Y-93544830I2990000J-462D01*
G01*
X159740000Y-92000462D02*
G75*
G02X165290000Y-90455170I2990000J462D01*
G01*
X165230000Y-92000000D02*
G75*
G03X165230000Y-92000000I-2500000J0D01*
G01*
X165290000Y-93545000D02*
X165290000Y-90455000D01*
X159740000Y-107999538D02*
G75*
G03X165290000Y-109544830I2990000J-462D01*
G01*
X159740000Y-108000462D02*
G75*
G02X165290000Y-106455170I2990000J462D01*
G01*
X165230000Y-108000000D02*
G75*
G03X165230000Y-108000000I-2500000J0D01*
G01*
X165290000Y-109545000D02*
X165290000Y-106455000D01*
X159740000Y-115999538D02*
G75*
G03X165290000Y-117544830I2990000J-462D01*
G01*
X159740000Y-116000462D02*
G75*
G02X165290000Y-114455170I2990000J462D01*
G01*
X165230000Y-116000000D02*
G75*
G03X165230000Y-116000000I-2500000J0D01*
G01*
X165290000Y-117545000D02*
X165290000Y-114455000D01*
X165290000Y-133545000D02*
X165290000Y-130455000D01*
X165230000Y-132000000D02*
G75*
G03X165230000Y-132000000I-2500000J0D01*
G01*
X159740000Y-132000462D02*
G75*
G02X165290000Y-130455170I2990000J462D01*
G01*
X159740000Y-131999538D02*
G75*
G03X165290000Y-133544830I2990000J-462D01*
G01*
X165290000Y-141545000D02*
X165290000Y-138455000D01*
X165230000Y-140000000D02*
G75*
G03X165230000Y-140000000I-2500000J0D01*
G01*
X159740000Y-140000462D02*
G75*
G02X165290000Y-138455170I2990000J462D01*
G01*
X159740000Y-139999538D02*
G75*
G03X165290000Y-141544830I2990000J-462D01*
G01*
X79545000Y-89710000D02*
X76455000Y-89710000D01*
X80500000Y-92270000D02*
G75*
G03X80500000Y-92270000I-2500000J0D01*
G01*
X78000462Y-95260000D02*
G75*
G02X76455170Y-89710000I-462J2990000D01*
G01*
X77999538Y-95260000D02*
G75*
G03X79544830Y-89710000I462J2990000D01*
G01*
X86545000Y-89710000D02*
X83455000Y-89710000D01*
X87500000Y-92270000D02*
G75*
G03X87500000Y-92270000I-2500000J0D01*
G01*
X85000462Y-95260000D02*
G75*
G02X83455170Y-89710000I-462J2990000D01*
G01*
X84999538Y-95260000D02*
G75*
G03X86544830Y-89710000I462J2990000D01*
G01*
X93545000Y-89710000D02*
X90455000Y-89710000D01*
X94500000Y-92270000D02*
G75*
G03X94500000Y-92270000I-2500000J0D01*
G01*
X92000462Y-95260000D02*
G75*
G02X90455170Y-89710000I-462J2990000D01*
G01*
X91999538Y-95260000D02*
G75*
G03X93544830Y-89710000I462J2990000D01*
G01*
X100545000Y-89710000D02*
X97455000Y-89710000D01*
X101500000Y-92270000D02*
G75*
G03X101500000Y-92270000I-2500000J0D01*
G01*
X99000462Y-95260000D02*
G75*
G02X97455170Y-89710000I-462J2990000D01*
G01*
X98999538Y-95260000D02*
G75*
G03X100544830Y-89710000I462J2990000D01*
G01*
X105999538Y-95260000D02*
G75*
G03X107544830Y-89710000I462J2990000D01*
G01*
X106000462Y-95260000D02*
G75*
G02X104455170Y-89710000I-462J2990000D01*
G01*
X108500000Y-92270000D02*
G75*
G03X108500000Y-92270000I-2500000J0D01*
G01*
X107545000Y-89710000D02*
X104455000Y-89710000D01*
X112999538Y-95260000D02*
G75*
G03X114544830Y-89710000I462J2990000D01*
G01*
X113000462Y-95260000D02*
G75*
G02X111455170Y-89710000I-462J2990000D01*
G01*
X115500000Y-92270000D02*
G75*
G03X115500000Y-92270000I-2500000J0D01*
G01*
X114545000Y-89710000D02*
X111455000Y-89710000D01*
X119999538Y-95260000D02*
G75*
G03X121544830Y-89710000I462J2990000D01*
G01*
X120000462Y-95260000D02*
G75*
G02X118455170Y-89710000I-462J2990000D01*
G01*
X122500000Y-92270000D02*
G75*
G03X122500000Y-92270000I-2500000J0D01*
G01*
X121545000Y-89710000D02*
X118455000Y-89710000D01*
X126999538Y-95260000D02*
G75*
G03X128544830Y-89710000I462J2990000D01*
G01*
X127000462Y-95260000D02*
G75*
G02X125455170Y-89710000I-462J2990000D01*
G01*
X129500000Y-92270000D02*
G75*
G03X129500000Y-92270000I-2500000J0D01*
G01*
X128545000Y-89710000D02*
X125455000Y-89710000D01*
X204784179Y-56986841D02*
G75*
G02X204800000Y-53000000I1665821J1986841D01*
G01*
X204784179Y-61986841D02*
G75*
G02X204800000Y-58000000I1665821J1986841D01*
G01*
X204784179Y-66986841D02*
G75*
G02X204800000Y-63000000I1665821J1986841D01*
G01*
X204784179Y-71986841D02*
G75*
G02X204800000Y-68000000I1665821J1986841D01*
G01*
X211910000Y-51390000D02*
X203090000Y-51390000D01*
X203090000Y-51390000D02*
X203090000Y-73610000D01*
X203090000Y-73610000D02*
X211910000Y-73610000D01*
X211910000Y-73610000D02*
X211910000Y-51390000D01*
X211100000Y-51390000D02*
X211100000Y-53890000D01*
X211100000Y-73610000D02*
X211100000Y-71110000D01*
X211100000Y-56000000D02*
X211100000Y-59000000D01*
X211100000Y-61000000D02*
X211100000Y-64000000D01*
X211100000Y-66000000D02*
X211100000Y-69000000D01*
X210100000Y-54000000D02*
X211910000Y-54000000D01*
X211910000Y-54000000D02*
X211910000Y-56000000D01*
X211910000Y-56000000D02*
X210100000Y-56000000D01*
X210100000Y-56000000D02*
X210100000Y-54000000D01*
X210100000Y-59000000D02*
X211910000Y-59000000D01*
X211910000Y-59000000D02*
X211910000Y-61000000D01*
X211910000Y-61000000D02*
X210100000Y-61000000D01*
X210100000Y-61000000D02*
X210100000Y-59000000D01*
X210100000Y-64000000D02*
X211910000Y-64000000D01*
X211910000Y-64000000D02*
X211910000Y-66000000D01*
X211910000Y-66000000D02*
X210100000Y-66000000D01*
X210100000Y-66000000D02*
X210100000Y-64000000D01*
X210100000Y-69000000D02*
X211910000Y-69000000D01*
X211910000Y-69000000D02*
X211910000Y-71000000D01*
X211910000Y-71000000D02*
X210100000Y-71000000D01*
X210100000Y-71000000D02*
X210100000Y-69000000D01*
X204800000Y-57000000D02*
X204800000Y-58000000D01*
X204800000Y-62000000D02*
X204800000Y-63000000D01*
X204800000Y-67000000D02*
X204800000Y-68000000D01*
X204800000Y-53000000D02*
X204800000Y-52300000D01*
X204800000Y-52300000D02*
X210100000Y-52300000D01*
X210100000Y-52300000D02*
X210100000Y-72700000D01*
X210100000Y-72700000D02*
X204800000Y-72700000D01*
X204800000Y-72700000D02*
X204800000Y-72000000D01*
X212710000Y-55300000D02*
X212110000Y-55000000D01*
X212110000Y-55000000D02*
X212710000Y-54700000D01*
X212710000Y-54700000D02*
X212710000Y-55300000D01*
X51330000Y-63730000D02*
X48670000Y-63730000D01*
X51330000Y-63730000D02*
X51330000Y-56050000D01*
X51330000Y-56050000D02*
X48670000Y-56050000D01*
X48670000Y-63730000D02*
X48670000Y-56050000D01*
X48670000Y-66330000D02*
X48670000Y-65000000D01*
X50000000Y-66330000D02*
X48670000Y-66330000D01*
X212710000Y-78700000D02*
X212710000Y-79300000D01*
X212110000Y-79000000D02*
X212710000Y-78700000D01*
X212710000Y-79300000D02*
X212110000Y-79000000D01*
X204800000Y-96700000D02*
X204800000Y-96000000D01*
X210100000Y-96700000D02*
X204800000Y-96700000D01*
X210100000Y-76300000D02*
X210100000Y-96700000D01*
X204800000Y-76300000D02*
X210100000Y-76300000D01*
X204800000Y-77000000D02*
X204800000Y-76300000D01*
X204800000Y-91000000D02*
X204800000Y-92000000D01*
X204800000Y-86000000D02*
X204800000Y-87000000D01*
X204800000Y-81000000D02*
X204800000Y-82000000D01*
X210100000Y-95000000D02*
X210100000Y-93000000D01*
X211910000Y-95000000D02*
X210100000Y-95000000D01*
X211910000Y-93000000D02*
X211910000Y-95000000D01*
X210100000Y-93000000D02*
X211910000Y-93000000D01*
X210100000Y-90000000D02*
X210100000Y-88000000D01*
X211910000Y-90000000D02*
X210100000Y-90000000D01*
X211910000Y-88000000D02*
X211910000Y-90000000D01*
X210100000Y-88000000D02*
X211910000Y-88000000D01*
X210100000Y-85000000D02*
X210100000Y-83000000D01*
X211910000Y-85000000D02*
X210100000Y-85000000D01*
X211910000Y-83000000D02*
X211910000Y-85000000D01*
X210100000Y-83000000D02*
X211910000Y-83000000D01*
X210100000Y-80000000D02*
X210100000Y-78000000D01*
X211910000Y-80000000D02*
X210100000Y-80000000D01*
X211910000Y-78000000D02*
X211910000Y-80000000D01*
X210100000Y-78000000D02*
X211910000Y-78000000D01*
X211100000Y-90000000D02*
X211100000Y-93000000D01*
X211100000Y-85000000D02*
X211100000Y-88000000D01*
X211100000Y-80000000D02*
X211100000Y-83000000D01*
X211100000Y-97610000D02*
X211100000Y-95110000D01*
X211100000Y-75390000D02*
X211100000Y-77890000D01*
X211910000Y-97610000D02*
X211910000Y-75390000D01*
X203090000Y-97610000D02*
X211910000Y-97610000D01*
X203090000Y-75390000D02*
X203090000Y-97610000D01*
X211910000Y-75390000D02*
X203090000Y-75390000D01*
X204784179Y-95986841D02*
G75*
G02X204800000Y-92000000I1665821J1986841D01*
G01*
X204784179Y-90986841D02*
G75*
G02X204800000Y-87000000I1665821J1986841D01*
G01*
X204784179Y-85986841D02*
G75*
G02X204800000Y-82000000I1665821J1986841D01*
G01*
X204784179Y-80986841D02*
G75*
G02X204800000Y-77000000I1665821J1986841D01*
G01*
X204784179Y-104986841D02*
G75*
G02X204800000Y-101000000I1665821J1986841D01*
G01*
X204784179Y-109986841D02*
G75*
G02X204800000Y-106000000I1665821J1986841D01*
G01*
X204784179Y-114986841D02*
G75*
G02X204800000Y-111000000I1665821J1986841D01*
G01*
X204784179Y-119986841D02*
G75*
G02X204800000Y-116000000I1665821J1986841D01*
G01*
X211910000Y-99390000D02*
X203090000Y-99390000D01*
X203090000Y-99390000D02*
X203090000Y-121610000D01*
X203090000Y-121610000D02*
X211910000Y-121610000D01*
X211910000Y-121610000D02*
X211910000Y-99390000D01*
X211100000Y-99390000D02*
X211100000Y-101890000D01*
X211100000Y-121610000D02*
X211100000Y-119110000D01*
X211100000Y-104000000D02*
X211100000Y-107000000D01*
X211100000Y-109000000D02*
X211100000Y-112000000D01*
X211100000Y-114000000D02*
X211100000Y-117000000D01*
X210100000Y-102000000D02*
X211910000Y-102000000D01*
X211910000Y-102000000D02*
X211910000Y-104000000D01*
X211910000Y-104000000D02*
X210100000Y-104000000D01*
X210100000Y-104000000D02*
X210100000Y-102000000D01*
X210100000Y-107000000D02*
X211910000Y-107000000D01*
X211910000Y-107000000D02*
X211910000Y-109000000D01*
X211910000Y-109000000D02*
X210100000Y-109000000D01*
X210100000Y-109000000D02*
X210100000Y-107000000D01*
X210100000Y-112000000D02*
X211910000Y-112000000D01*
X211910000Y-112000000D02*
X211910000Y-114000000D01*
X211910000Y-114000000D02*
X210100000Y-114000000D01*
X210100000Y-114000000D02*
X210100000Y-112000000D01*
X210100000Y-117000000D02*
X211910000Y-117000000D01*
X211910000Y-117000000D02*
X211910000Y-119000000D01*
X211910000Y-119000000D02*
X210100000Y-119000000D01*
X210100000Y-119000000D02*
X210100000Y-117000000D01*
X204800000Y-105000000D02*
X204800000Y-106000000D01*
X204800000Y-110000000D02*
X204800000Y-111000000D01*
X204800000Y-115000000D02*
X204800000Y-116000000D01*
X204800000Y-101000000D02*
X204800000Y-100300000D01*
X204800000Y-100300000D02*
X210100000Y-100300000D01*
X210100000Y-100300000D02*
X210100000Y-120700000D01*
X210100000Y-120700000D02*
X204800000Y-120700000D01*
X204800000Y-120700000D02*
X204800000Y-120000000D01*
X212710000Y-103300000D02*
X212110000Y-103000000D01*
X212110000Y-103000000D02*
X212710000Y-102700000D01*
X212710000Y-102700000D02*
X212710000Y-103300000D01*
X212710000Y-126700000D02*
X212710000Y-127300000D01*
X212110000Y-127000000D02*
X212710000Y-126700000D01*
X212710000Y-127300000D02*
X212110000Y-127000000D01*
X204800000Y-144700000D02*
X204800000Y-144000000D01*
X210100000Y-144700000D02*
X204800000Y-144700000D01*
X210100000Y-124300000D02*
X210100000Y-144700000D01*
X204800000Y-124300000D02*
X210100000Y-124300000D01*
X204800000Y-125000000D02*
X204800000Y-124300000D01*
X204800000Y-139000000D02*
X204800000Y-140000000D01*
X204800000Y-134000000D02*
X204800000Y-135000000D01*
X204800000Y-129000000D02*
X204800000Y-130000000D01*
X210100000Y-143000000D02*
X210100000Y-141000000D01*
X211910000Y-143000000D02*
X210100000Y-143000000D01*
X211910000Y-141000000D02*
X211910000Y-143000000D01*
X210100000Y-141000000D02*
X211910000Y-141000000D01*
X210100000Y-138000000D02*
X210100000Y-136000000D01*
X211910000Y-138000000D02*
X210100000Y-138000000D01*
X211910000Y-136000000D02*
X211910000Y-138000000D01*
X210100000Y-136000000D02*
X211910000Y-136000000D01*
X210100000Y-133000000D02*
X210100000Y-131000000D01*
X211910000Y-133000000D02*
X210100000Y-133000000D01*
X211910000Y-131000000D02*
X211910000Y-133000000D01*
X210100000Y-131000000D02*
X211910000Y-131000000D01*
X210100000Y-128000000D02*
X210100000Y-126000000D01*
X211910000Y-128000000D02*
X210100000Y-128000000D01*
X211910000Y-126000000D02*
X211910000Y-128000000D01*
X210100000Y-126000000D02*
X211910000Y-126000000D01*
X211100000Y-138000000D02*
X211100000Y-141000000D01*
X211100000Y-133000000D02*
X211100000Y-136000000D01*
X211100000Y-128000000D02*
X211100000Y-131000000D01*
X211100000Y-145610000D02*
X211100000Y-143110000D01*
X211100000Y-123390000D02*
X211100000Y-125890000D01*
X211910000Y-145610000D02*
X211910000Y-123390000D01*
X203090000Y-145610000D02*
X211910000Y-145610000D01*
X203090000Y-123390000D02*
X203090000Y-145610000D01*
X211910000Y-123390000D02*
X203090000Y-123390000D01*
X204784179Y-143986841D02*
G75*
G02X204800000Y-140000000I1665821J1986841D01*
G01*
X204784179Y-138986841D02*
G75*
G02X204800000Y-135000000I1665821J1986841D01*
G01*
X204784179Y-133986841D02*
G75*
G02X204800000Y-130000000I1665821J1986841D01*
G01*
X204784179Y-128986841D02*
G75*
G02X204800000Y-125000000I1665821J1986841D01*
G01*
X147580000Y-89240000D02*
X147580000Y-90700000D01*
X144420000Y-89240000D02*
X144420000Y-91400000D01*
X144420000Y-89240000D02*
X145350000Y-89240000D01*
X147580000Y-89240000D02*
X146650000Y-89240000D01*
X124920000Y-42260000D02*
X125850000Y-42260000D01*
X128080000Y-42260000D02*
X127150000Y-42260000D01*
X128080000Y-42260000D02*
X128080000Y-40100000D01*
X124920000Y-42260000D02*
X124920000Y-40800000D01*
X116920000Y-42760000D02*
X117850000Y-42760000D01*
X120080000Y-42760000D02*
X119150000Y-42760000D01*
X120080000Y-42760000D02*
X120080000Y-40600000D01*
X116920000Y-42760000D02*
X116920000Y-41300000D01*
X145380000Y-55920000D02*
X141540000Y-55920000D01*
X145380000Y-54080000D02*
X141540000Y-54080000D01*
X187620000Y-60920000D02*
X191460000Y-60920000D01*
X187620000Y-59080000D02*
X191460000Y-59080000D01*
X145380000Y-57080000D02*
X141540000Y-57080000D01*
X145380000Y-58920000D02*
X141540000Y-58920000D01*
X187620000Y-65920000D02*
X191460000Y-65920000D01*
X187620000Y-64080000D02*
X191460000Y-64080000D01*
X145380000Y-61920000D02*
X141540000Y-61920000D01*
X145380000Y-60080000D02*
X141540000Y-60080000D01*
X60080000Y-67380000D02*
X60080000Y-63540000D01*
X61920000Y-67380000D02*
X61920000Y-63540000D01*
X187620000Y-84920000D02*
X191460000Y-84920000D01*
X187620000Y-83080000D02*
X191460000Y-83080000D01*
X145380000Y-63080000D02*
X141540000Y-63080000D01*
X145380000Y-64920000D02*
X141540000Y-64920000D01*
X187620000Y-88080000D02*
X191460000Y-88080000D01*
X187620000Y-89920000D02*
X191460000Y-89920000D01*
X145380000Y-67920000D02*
X141540000Y-67920000D01*
X145380000Y-66080000D02*
X141540000Y-66080000D01*
X187620000Y-108920000D02*
X191460000Y-108920000D01*
X187620000Y-107080000D02*
X191460000Y-107080000D01*
X145380000Y-69080000D02*
X141540000Y-69080000D01*
X145380000Y-70920000D02*
X141540000Y-70920000D01*
X187620000Y-113920000D02*
X191460000Y-113920000D01*
X187620000Y-112080000D02*
X191460000Y-112080000D01*
X110880000Y-42420000D02*
X107040000Y-42420000D01*
X110880000Y-40580000D02*
X107040000Y-40580000D01*
X110880000Y-36580000D02*
X107040000Y-36580000D01*
X110880000Y-38420000D02*
X107040000Y-38420000D01*
X145380000Y-73920000D02*
X141540000Y-73920000D01*
X145380000Y-72080000D02*
X141540000Y-72080000D01*
X187620000Y-132920000D02*
X191460000Y-132920000D01*
X187620000Y-131080000D02*
X191460000Y-131080000D01*
X145380000Y-75080000D02*
X141540000Y-75080000D01*
X145380000Y-76920000D02*
X141540000Y-76920000D01*
X187620000Y-137920000D02*
X191460000Y-137920000D01*
X187620000Y-136080000D02*
X191460000Y-136080000D01*
X95920000Y-103380000D02*
X95920000Y-99540000D01*
X94080000Y-103380000D02*
X94080000Y-99540000D01*
X97080000Y-103380000D02*
X97080000Y-99540000D01*
X98920000Y-103380000D02*
X98920000Y-99540000D01*
X101920000Y-103380000D02*
X101920000Y-99540000D01*
X100080000Y-103380000D02*
X100080000Y-99540000D01*
X126120000Y-36580000D02*
X129960000Y-36580000D01*
X126120000Y-38420000D02*
X129960000Y-38420000D01*
X103080000Y-103380000D02*
X103080000Y-99540000D01*
X104920000Y-103380000D02*
X104920000Y-99540000D01*
X107920000Y-103380000D02*
X107920000Y-99540000D01*
X106080000Y-103380000D02*
X106080000Y-99540000D01*
X109080000Y-103380000D02*
X109080000Y-99540000D01*
X110920000Y-103380000D02*
X110920000Y-99540000D01*
X113920000Y-103380000D02*
X113920000Y-99540000D01*
X112080000Y-103380000D02*
X112080000Y-99540000D01*
X115080000Y-103380000D02*
X115080000Y-99540000D01*
X116920000Y-103380000D02*
X116920000Y-99540000D01*
X50080000Y-90380000D02*
X50080000Y-86540000D01*
X51920000Y-90380000D02*
X51920000Y-86540000D01*
X116620000Y-36580000D02*
X120460000Y-36580000D01*
X116620000Y-38420000D02*
X120460000Y-38420000D01*
X53080000Y-90380000D02*
X53080000Y-86540000D01*
X54920000Y-90380000D02*
X54920000Y-86540000D01*
X56080000Y-90380000D02*
X56080000Y-86540000D01*
X57920000Y-90380000D02*
X57920000Y-86540000D01*
X59080000Y-90380000D02*
X59080000Y-86540000D01*
X60920000Y-90380000D02*
X60920000Y-86540000D01*
D10*
X204650000Y-39250000D02*
X204650000Y-27250000D01*
X200750000Y-39250000D02*
X200750000Y-27250000D01*
X200750000Y-27250000D02*
X204650000Y-27250000D01*
X200750000Y-39250000D02*
X204650000Y-39250000D01*
D12*
X54910000Y-62630000D02*
X57590000Y-62630000D01*
X57590000Y-68870000D02*
X54910000Y-68870000D01*
X53130000Y-68720000D02*
X53130000Y-62780000D01*
X59370000Y-68720000D02*
X59370000Y-62780000D01*
X57664214Y-65750000D02*
G75*
G03X57664214Y-65750000I-1414214J0D01*
G01*
X57664214Y-55750000D02*
G75*
G03X57664214Y-55750000I-1414214J0D01*
G01*
X59370000Y-58720000D02*
X59370000Y-52780000D01*
X53130000Y-58720000D02*
X53130000Y-52780000D01*
X57590000Y-58870000D02*
X54910000Y-58870000D01*
X54910000Y-52630000D02*
X57590000Y-52630000D01*
D10*
X55896843Y-105137095D02*
G75*
G03X51110000Y-105140000I-2396843J5637095D01*
G01*
X55890000Y-105140000D02*
X51110000Y-105140000D01*
X55890000Y-119140000D02*
X51110000Y-119140000D01*
X55896843Y-119137095D02*
G75*
G03X51110000Y-119140000I-2396843J5637095D01*
G01*
X55896843Y-133137095D02*
G75*
G03X51110000Y-133140000I-2396843J5637095D01*
G01*
X55890000Y-133140000D02*
X51110000Y-133140000D01*
X55890000Y-147140000D02*
X51110000Y-147140000D01*
X55896843Y-147137095D02*
G75*
G03X51110000Y-147140000I-2396843J5637095D01*
G01*
X148500000Y-96500000D02*
X148500000Y-99500000D01*
X148500000Y-96500000D02*
X145500000Y-96500000D01*
X148500000Y-147500000D02*
X145500000Y-147500000D01*
X148500000Y-147500000D02*
X148500000Y-144500000D01*
X61500000Y-147500000D02*
X64500000Y-147500000D01*
X61500000Y-147500000D02*
X61500000Y-144500000D01*
X61500000Y-96500000D02*
X61500000Y-99500000D01*
X61500000Y-96500000D02*
X64500000Y-96500000D01*
D12*
X172810000Y-55670000D02*
G75*
G02X170810000Y-55670000I-1000000J0D01*
G01*
X170810000Y-55670000D02*
X169160000Y-55670000D01*
X169160000Y-55670000D02*
X169160000Y-63410000D01*
X169160000Y-63410000D02*
X174460000Y-63410000D01*
X174460000Y-63410000D02*
X174460000Y-55670000D01*
X174460000Y-55670000D02*
X172810000Y-55670000D01*
X166670000Y-55610000D02*
X166670000Y-63470000D01*
X166670000Y-63470000D02*
X176950000Y-63470000D01*
X176950000Y-63470000D02*
X176950000Y-55610000D01*
X176950000Y-55610000D02*
X166670000Y-55610000D01*
X143700000Y-35050000D02*
X143700000Y-33550000D01*
X143700000Y-33550000D02*
X141890000Y-33550000D01*
X141890000Y-33550000D02*
X141890000Y-28425000D01*
X133300000Y-35050000D02*
X133300000Y-33550000D01*
X133300000Y-33550000D02*
X135110000Y-33550000D01*
X135110000Y-33550000D02*
X135110000Y-32450000D01*
X128330000Y-63460000D02*
X128330000Y-61810000D01*
X107890000Y-63460000D02*
X128330000Y-63460000D01*
X107890000Y-58160000D02*
X107890000Y-63460000D01*
X128330000Y-58160000D02*
X107890000Y-58160000D01*
X128330000Y-59810000D02*
X128330000Y-58160000D01*
X128330000Y-61810000D02*
G75*
G02X128330000Y-59810000I0J1000000D01*
G01*
X176950000Y-64610000D02*
X166670000Y-64610000D01*
X176950000Y-72470000D02*
X176950000Y-64610000D01*
X166670000Y-72470000D02*
X176950000Y-72470000D01*
X166670000Y-64610000D02*
X166670000Y-72470000D01*
X174460000Y-64670000D02*
X172810000Y-64670000D01*
X174460000Y-72410000D02*
X174460000Y-64670000D01*
X169160000Y-72410000D02*
X174460000Y-72410000D01*
X169160000Y-64670000D02*
X169160000Y-72410000D01*
X170810000Y-64670000D02*
X169160000Y-64670000D01*
X172810000Y-64670000D02*
G75*
G02X170810000Y-64670000I-1000000J0D01*
G01*
X172810000Y-79670000D02*
G75*
G02X170810000Y-79670000I-1000000J0D01*
G01*
X170810000Y-79670000D02*
X169160000Y-79670000D01*
X169160000Y-79670000D02*
X169160000Y-87410000D01*
X169160000Y-87410000D02*
X174460000Y-87410000D01*
X174460000Y-87410000D02*
X174460000Y-79670000D01*
X174460000Y-79670000D02*
X172810000Y-79670000D01*
X166670000Y-79610000D02*
X166670000Y-87470000D01*
X166670000Y-87470000D02*
X176950000Y-87470000D01*
X176950000Y-87470000D02*
X176950000Y-79610000D01*
X176950000Y-79610000D02*
X166670000Y-79610000D01*
X176950000Y-88610000D02*
X166670000Y-88610000D01*
X176950000Y-96470000D02*
X176950000Y-88610000D01*
X166670000Y-96470000D02*
X176950000Y-96470000D01*
X166670000Y-88610000D02*
X166670000Y-96470000D01*
X174460000Y-88670000D02*
X172810000Y-88670000D01*
X174460000Y-96410000D02*
X174460000Y-88670000D01*
X169160000Y-96410000D02*
X174460000Y-96410000D01*
X169160000Y-88670000D02*
X169160000Y-96410000D01*
X170810000Y-88670000D02*
X169160000Y-88670000D01*
X172810000Y-88670000D02*
G75*
G02X170810000Y-88670000I-1000000J0D01*
G01*
X172810000Y-103670000D02*
G75*
G02X170810000Y-103670000I-1000000J0D01*
G01*
X170810000Y-103670000D02*
X169160000Y-103670000D01*
X169160000Y-103670000D02*
X169160000Y-111410000D01*
X169160000Y-111410000D02*
X174460000Y-111410000D01*
X174460000Y-111410000D02*
X174460000Y-103670000D01*
X174460000Y-103670000D02*
X172810000Y-103670000D01*
X166670000Y-103610000D02*
X166670000Y-111470000D01*
X166670000Y-111470000D02*
X176950000Y-111470000D01*
X176950000Y-111470000D02*
X176950000Y-103610000D01*
X176950000Y-103610000D02*
X166670000Y-103610000D01*
X97100000Y-78120000D02*
X97880000Y-78120000D01*
X97880000Y-78120000D02*
X97880000Y-77120000D01*
X97100000Y-59880000D02*
X97880000Y-59880000D01*
X97880000Y-59880000D02*
X97880000Y-60880000D01*
X72135000Y-78120000D02*
X72135000Y-59880000D01*
X72135000Y-59880000D02*
X78555000Y-59880000D01*
X72135000Y-78120000D02*
X78555000Y-78120000D01*
X78555000Y-78120000D02*
X78555000Y-78500000D01*
X176950000Y-112610000D02*
X166670000Y-112610000D01*
X176950000Y-120470000D02*
X176950000Y-112610000D01*
X166670000Y-120470000D02*
X176950000Y-120470000D01*
X166670000Y-112610000D02*
X166670000Y-120470000D01*
X174460000Y-112670000D02*
X172810000Y-112670000D01*
X174460000Y-120410000D02*
X174460000Y-112670000D01*
X169160000Y-120410000D02*
X174460000Y-120410000D01*
X169160000Y-112670000D02*
X169160000Y-120410000D01*
X170810000Y-112670000D02*
X169160000Y-112670000D01*
X172810000Y-112670000D02*
G75*
G02X170810000Y-112670000I-1000000J0D01*
G01*
X172810000Y-127670000D02*
G75*
G02X170810000Y-127670000I-1000000J0D01*
G01*
X170810000Y-127670000D02*
X169160000Y-127670000D01*
X169160000Y-127670000D02*
X169160000Y-135410000D01*
X169160000Y-135410000D02*
X174460000Y-135410000D01*
X174460000Y-135410000D02*
X174460000Y-127670000D01*
X174460000Y-127670000D02*
X172810000Y-127670000D01*
X166670000Y-127610000D02*
X166670000Y-135470000D01*
X166670000Y-135470000D02*
X176950000Y-135470000D01*
X176950000Y-135470000D02*
X176950000Y-127610000D01*
X176950000Y-127610000D02*
X166670000Y-127610000D01*
X176950000Y-136610000D02*
X166670000Y-136610000D01*
X176950000Y-144470000D02*
X176950000Y-136610000D01*
X166670000Y-144470000D02*
X176950000Y-144470000D01*
X166670000Y-136610000D02*
X166670000Y-144470000D01*
X174460000Y-136670000D02*
X172810000Y-136670000D01*
X174460000Y-144410000D02*
X174460000Y-136670000D01*
X169160000Y-144410000D02*
X174460000Y-144410000D01*
X169160000Y-136670000D02*
X169160000Y-144410000D01*
X170810000Y-136670000D02*
X169160000Y-136670000D01*
X172810000Y-136670000D02*
G75*
G02X170810000Y-136670000I-1000000J0D01*
G01*
X107670000Y-75190000D02*
G75*
G02X107670000Y-77190000I0J-1000000D01*
G01*
X107670000Y-77190000D02*
X107670000Y-78840000D01*
X107670000Y-78840000D02*
X128110000Y-78840000D01*
X128110000Y-78840000D02*
X128110000Y-73540000D01*
X128110000Y-73540000D02*
X107670000Y-73540000D01*
X107670000Y-73540000D02*
X107670000Y-75190000D01*
X102830000Y-44960000D02*
X102830000Y-43310000D01*
X82390000Y-44960000D02*
X102830000Y-44960000D01*
X82390000Y-39660000D02*
X82390000Y-44960000D01*
X102830000Y-39660000D02*
X82390000Y-39660000D01*
X102830000Y-41310000D02*
X102830000Y-39660000D01*
X102830000Y-43310000D02*
G75*
G02X102830000Y-41310000I0J1000000D01*
G01*
X128000000Y-52090000D02*
X129880000Y-52090000D01*
X128000000Y-52090000D02*
X126120000Y-52090000D01*
X128000000Y-46910000D02*
X129880000Y-46910000D01*
X128000000Y-46910000D02*
X124475000Y-46910000D01*
X118500000Y-46910000D02*
X114975000Y-46910000D01*
X118500000Y-46910000D02*
X120380000Y-46910000D01*
X118500000Y-52090000D02*
X116620000Y-52090000D01*
X118500000Y-52090000D02*
X120380000Y-52090000D01*
X77830000Y-43310000D02*
G75*
G02X77830000Y-41310000I0J1000000D01*
G01*
X77830000Y-41310000D02*
X77830000Y-39660000D01*
X77830000Y-39660000D02*
X57390000Y-39660000D01*
X57390000Y-39660000D02*
X57390000Y-44960000D01*
X57390000Y-44960000D02*
X77830000Y-44960000D01*
X77830000Y-44960000D02*
X77830000Y-43310000D01*
D10*
X184952380Y-44514285D02*
X183952380Y-44514285D01*
X183952380Y-44133333D01*
X184000000Y-44038095D01*
X184047619Y-43990476D01*
X184142857Y-43942857D01*
X184285714Y-43942857D01*
X184380952Y-43990476D01*
X184428571Y-44038095D01*
X184476190Y-44133333D01*
X184476190Y-44514285D01*
X184904761Y-43561904D02*
X184952380Y-43419047D01*
X184952380Y-43180952D01*
X184904761Y-43085714D01*
X184857142Y-43038095D01*
X184761904Y-42990476D01*
X184666666Y-42990476D01*
X184571428Y-43038095D01*
X184523809Y-43085714D01*
X184476190Y-43180952D01*
X184428571Y-43371428D01*
X184380952Y-43466666D01*
X184333333Y-43514285D01*
X184238095Y-43561904D01*
X184142857Y-43561904D01*
X184047619Y-43514285D01*
X184000000Y-43466666D01*
X183952380Y-43371428D01*
X183952380Y-43133333D01*
X184000000Y-42990476D01*
X184952380Y-42038095D02*
X184952380Y-42609523D01*
X184952380Y-42323809D02*
X183952380Y-42323809D01*
X184095238Y-42419047D01*
X184190476Y-42514285D01*
X184238095Y-42609523D01*
X106722380Y-32833333D02*
X107436666Y-32833333D01*
X107579523Y-32880952D01*
X107674761Y-32976190D01*
X107722380Y-33119047D01*
X107722380Y-33214285D01*
X106722380Y-32452380D02*
X106722380Y-31785714D01*
X107722380Y-32214285D01*
X114262380Y-32833333D02*
X114976666Y-32833333D01*
X115119523Y-32880952D01*
X115214761Y-32976190D01*
X115262380Y-33119047D01*
X115262380Y-33214285D01*
X115262380Y-32309523D02*
X115262380Y-32119047D01*
X115214761Y-32023809D01*
X115167142Y-31976190D01*
X115024285Y-31880952D01*
X114833809Y-31833333D01*
X114452857Y-31833333D01*
X114357619Y-31880952D01*
X114310000Y-31928571D01*
X114262380Y-32023809D01*
X114262380Y-32214285D01*
X114310000Y-32309523D01*
X114357619Y-32357142D01*
X114452857Y-32404761D01*
X114690952Y-32404761D01*
X114786190Y-32357142D01*
X114833809Y-32309523D01*
X114881428Y-32214285D01*
X114881428Y-32023809D01*
X114833809Y-31928571D01*
X114786190Y-31880952D01*
X114690952Y-31833333D01*
X121722380Y-33309523D02*
X122436666Y-33309523D01*
X122579523Y-33357142D01*
X122674761Y-33452380D01*
X122722380Y-33595238D01*
X122722380Y-33690476D01*
X122722380Y-32309523D02*
X122722380Y-32880952D01*
X122722380Y-32595238D02*
X121722380Y-32595238D01*
X121865238Y-32690476D01*
X121960476Y-32785714D01*
X122008095Y-32880952D01*
X121722380Y-31690476D02*
X121722380Y-31595238D01*
X121770000Y-31500000D01*
X121817619Y-31452380D01*
X121912857Y-31404761D01*
X122103333Y-31357142D01*
X122341428Y-31357142D01*
X122531904Y-31404761D01*
X122627142Y-31452380D01*
X122674761Y-31500000D01*
X122722380Y-31595238D01*
X122722380Y-31690476D01*
X122674761Y-31785714D01*
X122627142Y-31833333D01*
X122531904Y-31880952D01*
X122341428Y-31928571D01*
X122103333Y-31928571D01*
X121912857Y-31880952D01*
X121817619Y-31833333D01*
X121770000Y-31785714D01*
X121722380Y-31690476D01*
X98962380Y-32833333D02*
X99676666Y-32833333D01*
X99819523Y-32880952D01*
X99914761Y-32976190D01*
X99962380Y-33119047D01*
X99962380Y-33214285D01*
X99390952Y-32214285D02*
X99343333Y-32309523D01*
X99295714Y-32357142D01*
X99200476Y-32404761D01*
X99152857Y-32404761D01*
X99057619Y-32357142D01*
X99010000Y-32309523D01*
X98962380Y-32214285D01*
X98962380Y-32023809D01*
X99010000Y-31928571D01*
X99057619Y-31880952D01*
X99152857Y-31833333D01*
X99200476Y-31833333D01*
X99295714Y-31880952D01*
X99343333Y-31928571D01*
X99390952Y-32023809D01*
X99390952Y-32214285D01*
X99438571Y-32309523D01*
X99486190Y-32357142D01*
X99581428Y-32404761D01*
X99771904Y-32404761D01*
X99867142Y-32357142D01*
X99914761Y-32309523D01*
X99962380Y-32214285D01*
X99962380Y-32023809D01*
X99914761Y-31928571D01*
X99867142Y-31880952D01*
X99771904Y-31833333D01*
X99581428Y-31833333D01*
X99486190Y-31880952D01*
X99438571Y-31928571D01*
X99390952Y-32023809D01*
X78833333Y-50857142D02*
X78785714Y-50904761D01*
X78642857Y-50952380D01*
X78547619Y-50952380D01*
X78404761Y-50904761D01*
X78309523Y-50809523D01*
X78261904Y-50714285D01*
X78214285Y-50523809D01*
X78214285Y-50380952D01*
X78261904Y-50190476D01*
X78309523Y-50095238D01*
X78404761Y-50000000D01*
X78547619Y-49952380D01*
X78642857Y-49952380D01*
X78785714Y-50000000D01*
X78833333Y-50047619D01*
X79785714Y-50952380D02*
X79214285Y-50952380D01*
X79500000Y-50952380D02*
X79500000Y-49952380D01*
X79404761Y-50095238D01*
X79309523Y-50190476D01*
X79214285Y-50238095D01*
X134333333Y-76732143D02*
X134285714Y-76779762D01*
X134142857Y-76827381D01*
X134047619Y-76827381D01*
X133904761Y-76779762D01*
X133809523Y-76684524D01*
X133761904Y-76589286D01*
X133714285Y-76398810D01*
X133714285Y-76255953D01*
X133761904Y-76065477D01*
X133809523Y-75970239D01*
X133904761Y-75875001D01*
X134047619Y-75827381D01*
X134142857Y-75827381D01*
X134285714Y-75875001D01*
X134333333Y-75922620D01*
X134714285Y-75922620D02*
X134761904Y-75875001D01*
X134857142Y-75827381D01*
X135095238Y-75827381D01*
X135190476Y-75875001D01*
X135238095Y-75922620D01*
X135285714Y-76017858D01*
X135285714Y-76113096D01*
X135238095Y-76255953D01*
X134666666Y-76827381D01*
X135285714Y-76827381D01*
X104357142Y-54666666D02*
X104404761Y-54714285D01*
X104452380Y-54857142D01*
X104452380Y-54952380D01*
X104404761Y-55095238D01*
X104309523Y-55190476D01*
X104214285Y-55238095D01*
X104023809Y-55285714D01*
X103880952Y-55285714D01*
X103690476Y-55238095D01*
X103595238Y-55190476D01*
X103500000Y-55095238D01*
X103452380Y-54952380D01*
X103452380Y-54857142D01*
X103500000Y-54714285D01*
X103547619Y-54666666D01*
X103452380Y-54333333D02*
X103452380Y-53714285D01*
X103833333Y-54047619D01*
X103833333Y-53904761D01*
X103880952Y-53809523D01*
X103928571Y-53761904D01*
X104023809Y-53714285D01*
X104261904Y-53714285D01*
X104357142Y-53761904D01*
X104404761Y-53809523D01*
X104452380Y-53904761D01*
X104452380Y-54190476D01*
X104404761Y-54285714D01*
X104357142Y-54333333D01*
X73357142Y-92666666D02*
X73404761Y-92714285D01*
X73452380Y-92857142D01*
X73452380Y-92952380D01*
X73404761Y-93095238D01*
X73309523Y-93190476D01*
X73214285Y-93238095D01*
X73023809Y-93285714D01*
X72880952Y-93285714D01*
X72690476Y-93238095D01*
X72595238Y-93190476D01*
X72500000Y-93095238D01*
X72452380Y-92952380D01*
X72452380Y-92857142D01*
X72500000Y-92714285D01*
X72547619Y-92666666D01*
X72785714Y-91809523D02*
X73452380Y-91809523D01*
X72404761Y-92047619D02*
X73119047Y-92285714D01*
X73119047Y-91666666D01*
X136357142Y-50666666D02*
X136404761Y-50714285D01*
X136452380Y-50857142D01*
X136452380Y-50952380D01*
X136404761Y-51095238D01*
X136309523Y-51190476D01*
X136214285Y-51238095D01*
X136023809Y-51285714D01*
X135880952Y-51285714D01*
X135690476Y-51238095D01*
X135595238Y-51190476D01*
X135500000Y-51095238D01*
X135452380Y-50952380D01*
X135452380Y-50857142D01*
X135500000Y-50714285D01*
X135547619Y-50666666D01*
X135452380Y-49761904D02*
X135452380Y-50238095D01*
X135928571Y-50285714D01*
X135880952Y-50238095D01*
X135833333Y-50142857D01*
X135833333Y-49904761D01*
X135880952Y-49809523D01*
X135928571Y-49761904D01*
X136023809Y-49714285D01*
X136261904Y-49714285D01*
X136357142Y-49761904D01*
X136404761Y-49809523D01*
X136452380Y-49904761D01*
X136452380Y-50142857D01*
X136404761Y-50238095D01*
X136357142Y-50285714D01*
X54357142Y-77666666D02*
X54404761Y-77714285D01*
X54452380Y-77857142D01*
X54452380Y-77952380D01*
X54404761Y-78095238D01*
X54309523Y-78190476D01*
X54214285Y-78238095D01*
X54023809Y-78285714D01*
X53880952Y-78285714D01*
X53690476Y-78238095D01*
X53595238Y-78190476D01*
X53500000Y-78095238D01*
X53452380Y-77952380D01*
X53452380Y-77857142D01*
X53500000Y-77714285D01*
X53547619Y-77666666D01*
X53452380Y-76809523D02*
X53452380Y-77000000D01*
X53500000Y-77095238D01*
X53547619Y-77142857D01*
X53690476Y-77238095D01*
X53880952Y-77285714D01*
X54261904Y-77285714D01*
X54357142Y-77238095D01*
X54404761Y-77190476D01*
X54452380Y-77095238D01*
X54452380Y-76904761D01*
X54404761Y-76809523D01*
X54357142Y-76761904D01*
X54261904Y-76714285D01*
X54023809Y-76714285D01*
X53928571Y-76761904D01*
X53880952Y-76809523D01*
X53833333Y-76904761D01*
X53833333Y-77095238D01*
X53880952Y-77190476D01*
X53928571Y-77238095D01*
X54023809Y-77285714D01*
X189333333Y-54322143D02*
X189285714Y-54369762D01*
X189142857Y-54417381D01*
X189047619Y-54417381D01*
X188904761Y-54369762D01*
X188809523Y-54274524D01*
X188761904Y-54179286D01*
X188714285Y-53988810D01*
X188714285Y-53845953D01*
X188761904Y-53655477D01*
X188809523Y-53560239D01*
X188904761Y-53465001D01*
X189047619Y-53417381D01*
X189142857Y-53417381D01*
X189285714Y-53465001D01*
X189333333Y-53512620D01*
X189666666Y-53417381D02*
X190333333Y-53417381D01*
X189904761Y-54417381D01*
X189333333Y-71872143D02*
X189285714Y-71919762D01*
X189142857Y-71967381D01*
X189047619Y-71967381D01*
X188904761Y-71919762D01*
X188809523Y-71824524D01*
X188761904Y-71729286D01*
X188714285Y-71538810D01*
X188714285Y-71395953D01*
X188761904Y-71205477D01*
X188809523Y-71110239D01*
X188904761Y-71015001D01*
X189047619Y-70967381D01*
X189142857Y-70967381D01*
X189285714Y-71015001D01*
X189333333Y-71062620D01*
X189904761Y-71395953D02*
X189809523Y-71348334D01*
X189761904Y-71300715D01*
X189714285Y-71205477D01*
X189714285Y-71157858D01*
X189761904Y-71062620D01*
X189809523Y-71015001D01*
X189904761Y-70967381D01*
X190095238Y-70967381D01*
X190190476Y-71015001D01*
X190238095Y-71062620D01*
X190285714Y-71157858D01*
X190285714Y-71205477D01*
X190238095Y-71300715D01*
X190190476Y-71348334D01*
X190095238Y-71395953D01*
X189904761Y-71395953D01*
X189809523Y-71443572D01*
X189761904Y-71491191D01*
X189714285Y-71586429D01*
X189714285Y-71776905D01*
X189761904Y-71872143D01*
X189809523Y-71919762D01*
X189904761Y-71967381D01*
X190095238Y-71967381D01*
X190190476Y-71919762D01*
X190238095Y-71872143D01*
X190285714Y-71776905D01*
X190285714Y-71586429D01*
X190238095Y-71491191D01*
X190190476Y-71443572D01*
X190095238Y-71395953D01*
X189333333Y-78682143D02*
X189285714Y-78729762D01*
X189142857Y-78777381D01*
X189047619Y-78777381D01*
X188904761Y-78729762D01*
X188809523Y-78634524D01*
X188761904Y-78539286D01*
X188714285Y-78348810D01*
X188714285Y-78205953D01*
X188761904Y-78015477D01*
X188809523Y-77920239D01*
X188904761Y-77825001D01*
X189047619Y-77777381D01*
X189142857Y-77777381D01*
X189285714Y-77825001D01*
X189333333Y-77872620D01*
X189809523Y-78777381D02*
X190000000Y-78777381D01*
X190095238Y-78729762D01*
X190142857Y-78682143D01*
X190238095Y-78539286D01*
X190285714Y-78348810D01*
X190285714Y-77967858D01*
X190238095Y-77872620D01*
X190190476Y-77825001D01*
X190095238Y-77777381D01*
X189904761Y-77777381D01*
X189809523Y-77825001D01*
X189761904Y-77872620D01*
X189714285Y-77967858D01*
X189714285Y-78205953D01*
X189761904Y-78301191D01*
X189809523Y-78348810D01*
X189904761Y-78396429D01*
X190095238Y-78396429D01*
X190190476Y-78348810D01*
X190238095Y-78301191D01*
X190285714Y-78205953D01*
X188857142Y-95357142D02*
X188809523Y-95404761D01*
X188666666Y-95452380D01*
X188571428Y-95452380D01*
X188428571Y-95404761D01*
X188333333Y-95309523D01*
X188285714Y-95214285D01*
X188238095Y-95023809D01*
X188238095Y-94880952D01*
X188285714Y-94690476D01*
X188333333Y-94595238D01*
X188428571Y-94500000D01*
X188571428Y-94452380D01*
X188666666Y-94452380D01*
X188809523Y-94500000D01*
X188857142Y-94547619D01*
X189809523Y-95452380D02*
X189238095Y-95452380D01*
X189523809Y-95452380D02*
X189523809Y-94452380D01*
X189428571Y-94595238D01*
X189333333Y-94690476D01*
X189238095Y-94738095D01*
X190428571Y-94452380D02*
X190523809Y-94452380D01*
X190619047Y-94500000D01*
X190666666Y-94547619D01*
X190714285Y-94642857D01*
X190761904Y-94833333D01*
X190761904Y-95071428D01*
X190714285Y-95261904D01*
X190666666Y-95357142D01*
X190619047Y-95404761D01*
X190523809Y-95452380D01*
X190428571Y-95452380D01*
X190333333Y-95404761D01*
X190285714Y-95357142D01*
X190238095Y-95261904D01*
X190190476Y-95071428D01*
X190190476Y-94833333D01*
X190238095Y-94642857D01*
X190285714Y-94547619D01*
X190333333Y-94500000D01*
X190428571Y-94452380D01*
X188857142Y-102232143D02*
X188809523Y-102279762D01*
X188666666Y-102327381D01*
X188571428Y-102327381D01*
X188428571Y-102279762D01*
X188333333Y-102184524D01*
X188285714Y-102089286D01*
X188238095Y-101898810D01*
X188238095Y-101755953D01*
X188285714Y-101565477D01*
X188333333Y-101470239D01*
X188428571Y-101375001D01*
X188571428Y-101327381D01*
X188666666Y-101327381D01*
X188809523Y-101375001D01*
X188857142Y-101422620D01*
X189809523Y-102327381D02*
X189238095Y-102327381D01*
X189523809Y-102327381D02*
X189523809Y-101327381D01*
X189428571Y-101470239D01*
X189333333Y-101565477D01*
X189238095Y-101613096D01*
X190761904Y-102327381D02*
X190190476Y-102327381D01*
X190476190Y-102327381D02*
X190476190Y-101327381D01*
X190380952Y-101470239D01*
X190285714Y-101565477D01*
X190190476Y-101613096D01*
X188857142Y-119142143D02*
X188809523Y-119189762D01*
X188666666Y-119237381D01*
X188571428Y-119237381D01*
X188428571Y-119189762D01*
X188333333Y-119094524D01*
X188285714Y-118999286D01*
X188238095Y-118808810D01*
X188238095Y-118665953D01*
X188285714Y-118475477D01*
X188333333Y-118380239D01*
X188428571Y-118285001D01*
X188571428Y-118237381D01*
X188666666Y-118237381D01*
X188809523Y-118285001D01*
X188857142Y-118332620D01*
X189809523Y-119237381D02*
X189238095Y-119237381D01*
X189523809Y-119237381D02*
X189523809Y-118237381D01*
X189428571Y-118380239D01*
X189333333Y-118475477D01*
X189238095Y-118523096D01*
X190190476Y-118332620D02*
X190238095Y-118285001D01*
X190333333Y-118237381D01*
X190571428Y-118237381D01*
X190666666Y-118285001D01*
X190714285Y-118332620D01*
X190761904Y-118427858D01*
X190761904Y-118523096D01*
X190714285Y-118665953D01*
X190142857Y-119237381D01*
X190761904Y-119237381D01*
X188857142Y-126357142D02*
X188809523Y-126404761D01*
X188666666Y-126452380D01*
X188571428Y-126452380D01*
X188428571Y-126404761D01*
X188333333Y-126309523D01*
X188285714Y-126214285D01*
X188238095Y-126023809D01*
X188238095Y-125880952D01*
X188285714Y-125690476D01*
X188333333Y-125595238D01*
X188428571Y-125500000D01*
X188571428Y-125452380D01*
X188666666Y-125452380D01*
X188809523Y-125500000D01*
X188857142Y-125547619D01*
X189809523Y-126452380D02*
X189238095Y-126452380D01*
X189523809Y-126452380D02*
X189523809Y-125452380D01*
X189428571Y-125595238D01*
X189333333Y-125690476D01*
X189238095Y-125738095D01*
X190142857Y-125452380D02*
X190761904Y-125452380D01*
X190428571Y-125833333D01*
X190571428Y-125833333D01*
X190666666Y-125880952D01*
X190714285Y-125928571D01*
X190761904Y-126023809D01*
X190761904Y-126261904D01*
X190714285Y-126357142D01*
X190666666Y-126404761D01*
X190571428Y-126452380D01*
X190285714Y-126452380D01*
X190190476Y-126404761D01*
X190142857Y-126357142D01*
X188857142Y-143692143D02*
X188809523Y-143739762D01*
X188666666Y-143787381D01*
X188571428Y-143787381D01*
X188428571Y-143739762D01*
X188333333Y-143644524D01*
X188285714Y-143549286D01*
X188238095Y-143358810D01*
X188238095Y-143215953D01*
X188285714Y-143025477D01*
X188333333Y-142930239D01*
X188428571Y-142835001D01*
X188571428Y-142787381D01*
X188666666Y-142787381D01*
X188809523Y-142835001D01*
X188857142Y-142882620D01*
X189809523Y-143787381D02*
X189238095Y-143787381D01*
X189523809Y-143787381D02*
X189523809Y-142787381D01*
X189428571Y-142930239D01*
X189333333Y-143025477D01*
X189238095Y-143073096D01*
X190666666Y-143120715D02*
X190666666Y-143787381D01*
X190428571Y-142739762D02*
X190190476Y-143454048D01*
X190809523Y-143454048D01*
X161991904Y-64412380D02*
X161991904Y-63412380D01*
X162230000Y-63412380D01*
X162372857Y-63460000D01*
X162468095Y-63555238D01*
X162515714Y-63650476D01*
X162563333Y-63840952D01*
X162563333Y-63983809D01*
X162515714Y-64174285D01*
X162468095Y-64269523D01*
X162372857Y-64364761D01*
X162230000Y-64412380D01*
X161991904Y-64412380D01*
X163515714Y-64412380D02*
X162944285Y-64412380D01*
X163230000Y-64412380D02*
X163230000Y-63412380D01*
X163134761Y-63555238D01*
X163039523Y-63650476D01*
X162944285Y-63698095D01*
X161991904Y-72412380D02*
X161991904Y-71412380D01*
X162230000Y-71412380D01*
X162372857Y-71460000D01*
X162468095Y-71555238D01*
X162515714Y-71650476D01*
X162563333Y-71840952D01*
X162563333Y-71983809D01*
X162515714Y-72174285D01*
X162468095Y-72269523D01*
X162372857Y-72364761D01*
X162230000Y-72412380D01*
X161991904Y-72412380D01*
X162944285Y-71507619D02*
X162991904Y-71460000D01*
X163087142Y-71412380D01*
X163325238Y-71412380D01*
X163420476Y-71460000D01*
X163468095Y-71507619D01*
X163515714Y-71602857D01*
X163515714Y-71698095D01*
X163468095Y-71840952D01*
X162896666Y-72412380D01*
X163515714Y-72412380D01*
X161991904Y-88412380D02*
X161991904Y-87412380D01*
X162230000Y-87412380D01*
X162372857Y-87460000D01*
X162468095Y-87555238D01*
X162515714Y-87650476D01*
X162563333Y-87840952D01*
X162563333Y-87983809D01*
X162515714Y-88174285D01*
X162468095Y-88269523D01*
X162372857Y-88364761D01*
X162230000Y-88412380D01*
X161991904Y-88412380D01*
X162896666Y-87412380D02*
X163515714Y-87412380D01*
X163182380Y-87793333D01*
X163325238Y-87793333D01*
X163420476Y-87840952D01*
X163468095Y-87888571D01*
X163515714Y-87983809D01*
X163515714Y-88221904D01*
X163468095Y-88317142D01*
X163420476Y-88364761D01*
X163325238Y-88412380D01*
X163039523Y-88412380D01*
X162944285Y-88364761D01*
X162896666Y-88317142D01*
X161991904Y-96412380D02*
X161991904Y-95412380D01*
X162230000Y-95412380D01*
X162372857Y-95460000D01*
X162468095Y-95555238D01*
X162515714Y-95650476D01*
X162563333Y-95840952D01*
X162563333Y-95983809D01*
X162515714Y-96174285D01*
X162468095Y-96269523D01*
X162372857Y-96364761D01*
X162230000Y-96412380D01*
X161991904Y-96412380D01*
X163420476Y-95745714D02*
X163420476Y-96412380D01*
X163182380Y-95364761D02*
X162944285Y-96079047D01*
X163563333Y-96079047D01*
X161991904Y-112412380D02*
X161991904Y-111412380D01*
X162230000Y-111412380D01*
X162372857Y-111460000D01*
X162468095Y-111555238D01*
X162515714Y-111650476D01*
X162563333Y-111840952D01*
X162563333Y-111983809D01*
X162515714Y-112174285D01*
X162468095Y-112269523D01*
X162372857Y-112364761D01*
X162230000Y-112412380D01*
X161991904Y-112412380D01*
X163468095Y-111412380D02*
X162991904Y-111412380D01*
X162944285Y-111888571D01*
X162991904Y-111840952D01*
X163087142Y-111793333D01*
X163325238Y-111793333D01*
X163420476Y-111840952D01*
X163468095Y-111888571D01*
X163515714Y-111983809D01*
X163515714Y-112221904D01*
X163468095Y-112317142D01*
X163420476Y-112364761D01*
X163325238Y-112412380D01*
X163087142Y-112412380D01*
X162991904Y-112364761D01*
X162944285Y-112317142D01*
X161991904Y-120412380D02*
X161991904Y-119412380D01*
X162230000Y-119412380D01*
X162372857Y-119460000D01*
X162468095Y-119555238D01*
X162515714Y-119650476D01*
X162563333Y-119840952D01*
X162563333Y-119983809D01*
X162515714Y-120174285D01*
X162468095Y-120269523D01*
X162372857Y-120364761D01*
X162230000Y-120412380D01*
X161991904Y-120412380D01*
X163420476Y-119412380D02*
X163230000Y-119412380D01*
X163134761Y-119460000D01*
X163087142Y-119507619D01*
X162991904Y-119650476D01*
X162944285Y-119840952D01*
X162944285Y-120221904D01*
X162991904Y-120317142D01*
X163039523Y-120364761D01*
X163134761Y-120412380D01*
X163325238Y-120412380D01*
X163420476Y-120364761D01*
X163468095Y-120317142D01*
X163515714Y-120221904D01*
X163515714Y-119983809D01*
X163468095Y-119888571D01*
X163420476Y-119840952D01*
X163325238Y-119793333D01*
X163134761Y-119793333D01*
X163039523Y-119840952D01*
X162991904Y-119888571D01*
X162944285Y-119983809D01*
X161991904Y-136412380D02*
X161991904Y-135412380D01*
X162230000Y-135412380D01*
X162372857Y-135460000D01*
X162468095Y-135555238D01*
X162515714Y-135650476D01*
X162563333Y-135840952D01*
X162563333Y-135983809D01*
X162515714Y-136174285D01*
X162468095Y-136269523D01*
X162372857Y-136364761D01*
X162230000Y-136412380D01*
X161991904Y-136412380D01*
X162896666Y-135412380D02*
X163563333Y-135412380D01*
X163134761Y-136412380D01*
X161991904Y-144412380D02*
X161991904Y-143412380D01*
X162230000Y-143412380D01*
X162372857Y-143460000D01*
X162468095Y-143555238D01*
X162515714Y-143650476D01*
X162563333Y-143840952D01*
X162563333Y-143983809D01*
X162515714Y-144174285D01*
X162468095Y-144269523D01*
X162372857Y-144364761D01*
X162230000Y-144412380D01*
X161991904Y-144412380D01*
X163134761Y-143840952D02*
X163039523Y-143793333D01*
X162991904Y-143745714D01*
X162944285Y-143650476D01*
X162944285Y-143602857D01*
X162991904Y-143507619D01*
X163039523Y-143460000D01*
X163134761Y-143412380D01*
X163325238Y-143412380D01*
X163420476Y-143460000D01*
X163468095Y-143507619D01*
X163515714Y-143602857D01*
X163515714Y-143650476D01*
X163468095Y-143745714D01*
X163420476Y-143793333D01*
X163325238Y-143840952D01*
X163134761Y-143840952D01*
X163039523Y-143888571D01*
X162991904Y-143936190D01*
X162944285Y-144031428D01*
X162944285Y-144221904D01*
X162991904Y-144317142D01*
X163039523Y-144364761D01*
X163134761Y-144412380D01*
X163325238Y-144412380D01*
X163420476Y-144364761D01*
X163468095Y-144317142D01*
X163515714Y-144221904D01*
X163515714Y-144031428D01*
X163468095Y-143936190D01*
X163420476Y-143888571D01*
X163325238Y-143840952D01*
X82412380Y-93008095D02*
X81412380Y-93008095D01*
X81412380Y-92770000D01*
X81460000Y-92627142D01*
X81555238Y-92531904D01*
X81650476Y-92484285D01*
X81840952Y-92436666D01*
X81983809Y-92436666D01*
X82174285Y-92484285D01*
X82269523Y-92531904D01*
X82364761Y-92627142D01*
X82412380Y-92770000D01*
X82412380Y-93008095D01*
X82412380Y-91960476D02*
X82412380Y-91770000D01*
X82364761Y-91674761D01*
X82317142Y-91627142D01*
X82174285Y-91531904D01*
X81983809Y-91484285D01*
X81602857Y-91484285D01*
X81507619Y-91531904D01*
X81460000Y-91579523D01*
X81412380Y-91674761D01*
X81412380Y-91865238D01*
X81460000Y-91960476D01*
X81507619Y-92008095D01*
X81602857Y-92055714D01*
X81840952Y-92055714D01*
X81936190Y-92008095D01*
X81983809Y-91960476D01*
X82031428Y-91865238D01*
X82031428Y-91674761D01*
X81983809Y-91579523D01*
X81936190Y-91531904D01*
X81840952Y-91484285D01*
X89412380Y-93484285D02*
X88412380Y-93484285D01*
X88412380Y-93246190D01*
X88460000Y-93103333D01*
X88555238Y-93008095D01*
X88650476Y-92960476D01*
X88840952Y-92912857D01*
X88983809Y-92912857D01*
X89174285Y-92960476D01*
X89269523Y-93008095D01*
X89364761Y-93103333D01*
X89412380Y-93246190D01*
X89412380Y-93484285D01*
X89412380Y-91960476D02*
X89412380Y-92531904D01*
X89412380Y-92246190D02*
X88412380Y-92246190D01*
X88555238Y-92341428D01*
X88650476Y-92436666D01*
X88698095Y-92531904D01*
X88412380Y-91341428D02*
X88412380Y-91246190D01*
X88460000Y-91150952D01*
X88507619Y-91103333D01*
X88602857Y-91055714D01*
X88793333Y-91008095D01*
X89031428Y-91008095D01*
X89221904Y-91055714D01*
X89317142Y-91103333D01*
X89364761Y-91150952D01*
X89412380Y-91246190D01*
X89412380Y-91341428D01*
X89364761Y-91436666D01*
X89317142Y-91484285D01*
X89221904Y-91531904D01*
X89031428Y-91579523D01*
X88793333Y-91579523D01*
X88602857Y-91531904D01*
X88507619Y-91484285D01*
X88460000Y-91436666D01*
X88412380Y-91341428D01*
X96412380Y-93484285D02*
X95412380Y-93484285D01*
X95412380Y-93246190D01*
X95460000Y-93103333D01*
X95555238Y-93008095D01*
X95650476Y-92960476D01*
X95840952Y-92912857D01*
X95983809Y-92912857D01*
X96174285Y-92960476D01*
X96269523Y-93008095D01*
X96364761Y-93103333D01*
X96412380Y-93246190D01*
X96412380Y-93484285D01*
X96412380Y-91960476D02*
X96412380Y-92531904D01*
X96412380Y-92246190D02*
X95412380Y-92246190D01*
X95555238Y-92341428D01*
X95650476Y-92436666D01*
X95698095Y-92531904D01*
X96412380Y-91008095D02*
X96412380Y-91579523D01*
X96412380Y-91293809D02*
X95412380Y-91293809D01*
X95555238Y-91389047D01*
X95650476Y-91484285D01*
X95698095Y-91579523D01*
X103412380Y-93484285D02*
X102412380Y-93484285D01*
X102412380Y-93246190D01*
X102460000Y-93103333D01*
X102555238Y-93008095D01*
X102650476Y-92960476D01*
X102840952Y-92912857D01*
X102983809Y-92912857D01*
X103174285Y-92960476D01*
X103269523Y-93008095D01*
X103364761Y-93103333D01*
X103412380Y-93246190D01*
X103412380Y-93484285D01*
X103412380Y-91960476D02*
X103412380Y-92531904D01*
X103412380Y-92246190D02*
X102412380Y-92246190D01*
X102555238Y-92341428D01*
X102650476Y-92436666D01*
X102698095Y-92531904D01*
X102507619Y-91579523D02*
X102460000Y-91531904D01*
X102412380Y-91436666D01*
X102412380Y-91198571D01*
X102460000Y-91103333D01*
X102507619Y-91055714D01*
X102602857Y-91008095D01*
X102698095Y-91008095D01*
X102840952Y-91055714D01*
X103412380Y-91627142D01*
X103412380Y-91008095D01*
X110412380Y-93484285D02*
X109412380Y-93484285D01*
X109412380Y-93246190D01*
X109460000Y-93103333D01*
X109555238Y-93008095D01*
X109650476Y-92960476D01*
X109840952Y-92912857D01*
X109983809Y-92912857D01*
X110174285Y-92960476D01*
X110269523Y-93008095D01*
X110364761Y-93103333D01*
X110412380Y-93246190D01*
X110412380Y-93484285D01*
X110412380Y-91960476D02*
X110412380Y-92531904D01*
X110412380Y-92246190D02*
X109412380Y-92246190D01*
X109555238Y-92341428D01*
X109650476Y-92436666D01*
X109698095Y-92531904D01*
X109412380Y-91627142D02*
X109412380Y-91008095D01*
X109793333Y-91341428D01*
X109793333Y-91198571D01*
X109840952Y-91103333D01*
X109888571Y-91055714D01*
X109983809Y-91008095D01*
X110221904Y-91008095D01*
X110317142Y-91055714D01*
X110364761Y-91103333D01*
X110412380Y-91198571D01*
X110412380Y-91484285D01*
X110364761Y-91579523D01*
X110317142Y-91627142D01*
X117412380Y-93484285D02*
X116412380Y-93484285D01*
X116412380Y-93246190D01*
X116460000Y-93103333D01*
X116555238Y-93008095D01*
X116650476Y-92960476D01*
X116840952Y-92912857D01*
X116983809Y-92912857D01*
X117174285Y-92960476D01*
X117269523Y-93008095D01*
X117364761Y-93103333D01*
X117412380Y-93246190D01*
X117412380Y-93484285D01*
X117412380Y-91960476D02*
X117412380Y-92531904D01*
X117412380Y-92246190D02*
X116412380Y-92246190D01*
X116555238Y-92341428D01*
X116650476Y-92436666D01*
X116698095Y-92531904D01*
X116745714Y-91103333D02*
X117412380Y-91103333D01*
X116364761Y-91341428D02*
X117079047Y-91579523D01*
X117079047Y-90960476D01*
X124412380Y-93484285D02*
X123412380Y-93484285D01*
X123412380Y-93246190D01*
X123460000Y-93103333D01*
X123555238Y-93008095D01*
X123650476Y-92960476D01*
X123840952Y-92912857D01*
X123983809Y-92912857D01*
X124174285Y-92960476D01*
X124269523Y-93008095D01*
X124364761Y-93103333D01*
X124412380Y-93246190D01*
X124412380Y-93484285D01*
X124412380Y-91960476D02*
X124412380Y-92531904D01*
X124412380Y-92246190D02*
X123412380Y-92246190D01*
X123555238Y-92341428D01*
X123650476Y-92436666D01*
X123698095Y-92531904D01*
X123412380Y-91055714D02*
X123412380Y-91531904D01*
X123888571Y-91579523D01*
X123840952Y-91531904D01*
X123793333Y-91436666D01*
X123793333Y-91198571D01*
X123840952Y-91103333D01*
X123888571Y-91055714D01*
X123983809Y-91008095D01*
X124221904Y-91008095D01*
X124317142Y-91055714D01*
X124364761Y-91103333D01*
X124412380Y-91198571D01*
X124412380Y-91436666D01*
X124364761Y-91531904D01*
X124317142Y-91579523D01*
X131412380Y-93484285D02*
X130412380Y-93484285D01*
X130412380Y-93246190D01*
X130460000Y-93103333D01*
X130555238Y-93008095D01*
X130650476Y-92960476D01*
X130840952Y-92912857D01*
X130983809Y-92912857D01*
X131174285Y-92960476D01*
X131269523Y-93008095D01*
X131364761Y-93103333D01*
X131412380Y-93246190D01*
X131412380Y-93484285D01*
X131412380Y-91960476D02*
X131412380Y-92531904D01*
X131412380Y-92246190D02*
X130412380Y-92246190D01*
X130555238Y-92341428D01*
X130650476Y-92436666D01*
X130698095Y-92531904D01*
X130412380Y-91103333D02*
X130412380Y-91293809D01*
X130460000Y-91389047D01*
X130507619Y-91436666D01*
X130650476Y-91531904D01*
X130840952Y-91579523D01*
X131221904Y-91579523D01*
X131317142Y-91531904D01*
X131364761Y-91484285D01*
X131412380Y-91389047D01*
X131412380Y-91198571D01*
X131364761Y-91103333D01*
X131317142Y-91055714D01*
X131221904Y-91008095D01*
X130983809Y-91008095D01*
X130888571Y-91055714D01*
X130840952Y-91103333D01*
X130793333Y-91198571D01*
X130793333Y-91389047D01*
X130840952Y-91484285D01*
X130888571Y-91531904D01*
X130983809Y-91579523D01*
X212262380Y-36048333D02*
X212976666Y-36048333D01*
X213119523Y-36095952D01*
X213214761Y-36191190D01*
X213262380Y-36334047D01*
X213262380Y-36429285D01*
X213262380Y-35048333D02*
X213262380Y-35619761D01*
X213262380Y-35334047D02*
X212262380Y-35334047D01*
X212405238Y-35429285D01*
X212500476Y-35524523D01*
X212548095Y-35619761D01*
X212452380Y-62833333D02*
X213166666Y-62833333D01*
X213309523Y-62880952D01*
X213404761Y-62976190D01*
X213452380Y-63119047D01*
X213452380Y-63214285D01*
X212547619Y-62404761D02*
X212500000Y-62357142D01*
X212452380Y-62261904D01*
X212452380Y-62023809D01*
X212500000Y-61928571D01*
X212547619Y-61880952D01*
X212642857Y-61833333D01*
X212738095Y-61833333D01*
X212880952Y-61880952D01*
X213452380Y-62452380D01*
X213452380Y-61833333D01*
X49666666Y-67222380D02*
X49666666Y-67936666D01*
X49619047Y-68079523D01*
X49523809Y-68174761D01*
X49380952Y-68222380D01*
X49285714Y-68222380D01*
X50047619Y-67222380D02*
X50666666Y-67222380D01*
X50333333Y-67603333D01*
X50476190Y-67603333D01*
X50571428Y-67650952D01*
X50619047Y-67698571D01*
X50666666Y-67793809D01*
X50666666Y-68031904D01*
X50619047Y-68127142D01*
X50571428Y-68174761D01*
X50476190Y-68222380D01*
X50190476Y-68222380D01*
X50095238Y-68174761D01*
X50047619Y-68127142D01*
X212452380Y-86833333D02*
X213166666Y-86833333D01*
X213309523Y-86880952D01*
X213404761Y-86976190D01*
X213452380Y-87119047D01*
X213452380Y-87214285D01*
X212785714Y-85928571D02*
X213452380Y-85928571D01*
X212404761Y-86166666D02*
X213119047Y-86404761D01*
X213119047Y-85785714D01*
X212452380Y-110833333D02*
X213166666Y-110833333D01*
X213309523Y-110880952D01*
X213404761Y-110976190D01*
X213452380Y-111119047D01*
X213452380Y-111214285D01*
X212452380Y-109880952D02*
X212452380Y-110357142D01*
X212928571Y-110404761D01*
X212880952Y-110357142D01*
X212833333Y-110261904D01*
X212833333Y-110023809D01*
X212880952Y-109928571D01*
X212928571Y-109880952D01*
X213023809Y-109833333D01*
X213261904Y-109833333D01*
X213357142Y-109880952D01*
X213404761Y-109928571D01*
X213452380Y-110023809D01*
X213452380Y-110261904D01*
X213404761Y-110357142D01*
X213357142Y-110404761D01*
X212452380Y-134833333D02*
X213166666Y-134833333D01*
X213309523Y-134880952D01*
X213404761Y-134976190D01*
X213452380Y-135119047D01*
X213452380Y-135214285D01*
X212452380Y-133928571D02*
X212452380Y-134119047D01*
X212500000Y-134214285D01*
X212547619Y-134261904D01*
X212690476Y-134357142D01*
X212880952Y-134404761D01*
X213261904Y-134404761D01*
X213357142Y-134357142D01*
X213404761Y-134309523D01*
X213452380Y-134214285D01*
X213452380Y-134023809D01*
X213404761Y-133928571D01*
X213357142Y-133880952D01*
X213261904Y-133833333D01*
X213023809Y-133833333D01*
X212928571Y-133880952D01*
X212880952Y-133928571D01*
X212833333Y-134023809D01*
X212833333Y-134214285D01*
X212880952Y-134309523D01*
X212928571Y-134357142D01*
X213023809Y-134404761D01*
X144047619Y-90095238D02*
X144000000Y-90190476D01*
X143904761Y-90285714D01*
X143761904Y-90428571D01*
X143714285Y-90523809D01*
X143714285Y-90619047D01*
X143952380Y-90571428D02*
X143904761Y-90666666D01*
X143809523Y-90761904D01*
X143619047Y-90809523D01*
X143285714Y-90809523D01*
X143095238Y-90761904D01*
X143000000Y-90666666D01*
X142952380Y-90571428D01*
X142952380Y-90380952D01*
X143000000Y-90285714D01*
X143095238Y-90190476D01*
X143285714Y-90142857D01*
X143619047Y-90142857D01*
X143809523Y-90190476D01*
X143904761Y-90285714D01*
X143952380Y-90380952D01*
X143952380Y-90571428D01*
X143952380Y-89190476D02*
X143952380Y-89761904D01*
X143952380Y-89476190D02*
X142952380Y-89476190D01*
X143095238Y-89571428D01*
X143190476Y-89666666D01*
X143238095Y-89761904D01*
X129547619Y-41595238D02*
X129500000Y-41690476D01*
X129404761Y-41785714D01*
X129261904Y-41928571D01*
X129214285Y-42023809D01*
X129214285Y-42119047D01*
X129452380Y-42071428D02*
X129404761Y-42166666D01*
X129309523Y-42261904D01*
X129119047Y-42309523D01*
X128785714Y-42309523D01*
X128595238Y-42261904D01*
X128500000Y-42166666D01*
X128452380Y-42071428D01*
X128452380Y-41880952D01*
X128500000Y-41785714D01*
X128595238Y-41690476D01*
X128785714Y-41642857D01*
X129119047Y-41642857D01*
X129309523Y-41690476D01*
X129404761Y-41785714D01*
X129452380Y-41880952D01*
X129452380Y-42071428D01*
X128547619Y-41261904D02*
X128500000Y-41214285D01*
X128452380Y-41119047D01*
X128452380Y-40880952D01*
X128500000Y-40785714D01*
X128547619Y-40738095D01*
X128642857Y-40690476D01*
X128738095Y-40690476D01*
X128880952Y-40738095D01*
X129452380Y-41309523D01*
X129452380Y-40690476D01*
X121547619Y-42095238D02*
X121500000Y-42190476D01*
X121404761Y-42285714D01*
X121261904Y-42428571D01*
X121214285Y-42523809D01*
X121214285Y-42619047D01*
X121452380Y-42571428D02*
X121404761Y-42666666D01*
X121309523Y-42761904D01*
X121119047Y-42809523D01*
X120785714Y-42809523D01*
X120595238Y-42761904D01*
X120500000Y-42666666D01*
X120452380Y-42571428D01*
X120452380Y-42380952D01*
X120500000Y-42285714D01*
X120595238Y-42190476D01*
X120785714Y-42142857D01*
X121119047Y-42142857D01*
X121309523Y-42190476D01*
X121404761Y-42285714D01*
X121452380Y-42380952D01*
X121452380Y-42571428D01*
X120452380Y-41809523D02*
X120452380Y-41190476D01*
X120833333Y-41523809D01*
X120833333Y-41380952D01*
X120880952Y-41285714D01*
X120928571Y-41238095D01*
X121023809Y-41190476D01*
X121261904Y-41190476D01*
X121357142Y-41238095D01*
X121404761Y-41285714D01*
X121452380Y-41380952D01*
X121452380Y-41666666D01*
X121404761Y-41761904D01*
X121357142Y-41809523D01*
X143293333Y-55452380D02*
X142960000Y-54976190D01*
X142721904Y-55452380D02*
X142721904Y-54452380D01*
X143102857Y-54452380D01*
X143198095Y-54500000D01*
X143245714Y-54547619D01*
X143293333Y-54642857D01*
X143293333Y-54785714D01*
X143245714Y-54880952D01*
X143198095Y-54928571D01*
X143102857Y-54976190D01*
X142721904Y-54976190D01*
X144245714Y-55452380D02*
X143674285Y-55452380D01*
X143960000Y-55452380D02*
X143960000Y-54452380D01*
X143864761Y-54595238D01*
X143769523Y-54690476D01*
X143674285Y-54738095D01*
X189373333Y-60452380D02*
X189040000Y-59976190D01*
X188801904Y-60452380D02*
X188801904Y-59452380D01*
X189182857Y-59452380D01*
X189278095Y-59500000D01*
X189325714Y-59547619D01*
X189373333Y-59642857D01*
X189373333Y-59785714D01*
X189325714Y-59880952D01*
X189278095Y-59928571D01*
X189182857Y-59976190D01*
X188801904Y-59976190D01*
X189754285Y-59547619D02*
X189801904Y-59500000D01*
X189897142Y-59452380D01*
X190135238Y-59452380D01*
X190230476Y-59500000D01*
X190278095Y-59547619D01*
X190325714Y-59642857D01*
X190325714Y-59738095D01*
X190278095Y-59880952D01*
X189706666Y-60452380D01*
X190325714Y-60452380D01*
X143293333Y-58452380D02*
X142960000Y-57976190D01*
X142721904Y-58452380D02*
X142721904Y-57452380D01*
X143102857Y-57452380D01*
X143198095Y-57500000D01*
X143245714Y-57547619D01*
X143293333Y-57642857D01*
X143293333Y-57785714D01*
X143245714Y-57880952D01*
X143198095Y-57928571D01*
X143102857Y-57976190D01*
X142721904Y-57976190D01*
X143626666Y-57452380D02*
X144245714Y-57452380D01*
X143912380Y-57833333D01*
X144055238Y-57833333D01*
X144150476Y-57880952D01*
X144198095Y-57928571D01*
X144245714Y-58023809D01*
X144245714Y-58261904D01*
X144198095Y-58357142D01*
X144150476Y-58404761D01*
X144055238Y-58452380D01*
X143769523Y-58452380D01*
X143674285Y-58404761D01*
X143626666Y-58357142D01*
X189373333Y-65452380D02*
X189040000Y-64976190D01*
X188801904Y-65452380D02*
X188801904Y-64452380D01*
X189182857Y-64452380D01*
X189278095Y-64500000D01*
X189325714Y-64547619D01*
X189373333Y-64642857D01*
X189373333Y-64785714D01*
X189325714Y-64880952D01*
X189278095Y-64928571D01*
X189182857Y-64976190D01*
X188801904Y-64976190D01*
X190230476Y-64785714D02*
X190230476Y-65452380D01*
X189992380Y-64404761D02*
X189754285Y-65119047D01*
X190373333Y-65119047D01*
X143293333Y-61452380D02*
X142960000Y-60976190D01*
X142721904Y-61452380D02*
X142721904Y-60452380D01*
X143102857Y-60452380D01*
X143198095Y-60500000D01*
X143245714Y-60547619D01*
X143293333Y-60642857D01*
X143293333Y-60785714D01*
X143245714Y-60880952D01*
X143198095Y-60928571D01*
X143102857Y-60976190D01*
X142721904Y-60976190D01*
X144198095Y-60452380D02*
X143721904Y-60452380D01*
X143674285Y-60928571D01*
X143721904Y-60880952D01*
X143817142Y-60833333D01*
X144055238Y-60833333D01*
X144150476Y-60880952D01*
X144198095Y-60928571D01*
X144245714Y-61023809D01*
X144245714Y-61261904D01*
X144198095Y-61357142D01*
X144150476Y-61404761D01*
X144055238Y-61452380D01*
X143817142Y-61452380D01*
X143721904Y-61404761D01*
X143674285Y-61357142D01*
X61452380Y-65626666D02*
X60976190Y-65960000D01*
X61452380Y-66198095D02*
X60452380Y-66198095D01*
X60452380Y-65817142D01*
X60500000Y-65721904D01*
X60547619Y-65674285D01*
X60642857Y-65626666D01*
X60785714Y-65626666D01*
X60880952Y-65674285D01*
X60928571Y-65721904D01*
X60976190Y-65817142D01*
X60976190Y-66198095D01*
X60452380Y-64769523D02*
X60452380Y-64960000D01*
X60500000Y-65055238D01*
X60547619Y-65102857D01*
X60690476Y-65198095D01*
X60880952Y-65245714D01*
X61261904Y-65245714D01*
X61357142Y-65198095D01*
X61404761Y-65150476D01*
X61452380Y-65055238D01*
X61452380Y-64864761D01*
X61404761Y-64769523D01*
X61357142Y-64721904D01*
X61261904Y-64674285D01*
X61023809Y-64674285D01*
X60928571Y-64721904D01*
X60880952Y-64769523D01*
X60833333Y-64864761D01*
X60833333Y-65055238D01*
X60880952Y-65150476D01*
X60928571Y-65198095D01*
X61023809Y-65245714D01*
X189373333Y-84452380D02*
X189040000Y-83976190D01*
X188801904Y-84452380D02*
X188801904Y-83452380D01*
X189182857Y-83452380D01*
X189278095Y-83500000D01*
X189325714Y-83547619D01*
X189373333Y-83642857D01*
X189373333Y-83785714D01*
X189325714Y-83880952D01*
X189278095Y-83928571D01*
X189182857Y-83976190D01*
X188801904Y-83976190D01*
X189706666Y-83452380D02*
X190373333Y-83452380D01*
X189944761Y-84452380D01*
X143293333Y-64452380D02*
X142960000Y-63976190D01*
X142721904Y-64452380D02*
X142721904Y-63452380D01*
X143102857Y-63452380D01*
X143198095Y-63500000D01*
X143245714Y-63547619D01*
X143293333Y-63642857D01*
X143293333Y-63785714D01*
X143245714Y-63880952D01*
X143198095Y-63928571D01*
X143102857Y-63976190D01*
X142721904Y-63976190D01*
X143864761Y-63880952D02*
X143769523Y-63833333D01*
X143721904Y-63785714D01*
X143674285Y-63690476D01*
X143674285Y-63642857D01*
X143721904Y-63547619D01*
X143769523Y-63500000D01*
X143864761Y-63452380D01*
X144055238Y-63452380D01*
X144150476Y-63500000D01*
X144198095Y-63547619D01*
X144245714Y-63642857D01*
X144245714Y-63690476D01*
X144198095Y-63785714D01*
X144150476Y-63833333D01*
X144055238Y-63880952D01*
X143864761Y-63880952D01*
X143769523Y-63928571D01*
X143721904Y-63976190D01*
X143674285Y-64071428D01*
X143674285Y-64261904D01*
X143721904Y-64357142D01*
X143769523Y-64404761D01*
X143864761Y-64452380D01*
X144055238Y-64452380D01*
X144150476Y-64404761D01*
X144198095Y-64357142D01*
X144245714Y-64261904D01*
X144245714Y-64071428D01*
X144198095Y-63976190D01*
X144150476Y-63928571D01*
X144055238Y-63880952D01*
X189373333Y-89452380D02*
X189040000Y-88976190D01*
X188801904Y-89452380D02*
X188801904Y-88452380D01*
X189182857Y-88452380D01*
X189278095Y-88500000D01*
X189325714Y-88547619D01*
X189373333Y-88642857D01*
X189373333Y-88785714D01*
X189325714Y-88880952D01*
X189278095Y-88928571D01*
X189182857Y-88976190D01*
X188801904Y-88976190D01*
X189849523Y-89452380D02*
X190040000Y-89452380D01*
X190135238Y-89404761D01*
X190182857Y-89357142D01*
X190278095Y-89214285D01*
X190325714Y-89023809D01*
X190325714Y-88642857D01*
X190278095Y-88547619D01*
X190230476Y-88500000D01*
X190135238Y-88452380D01*
X189944761Y-88452380D01*
X189849523Y-88500000D01*
X189801904Y-88547619D01*
X189754285Y-88642857D01*
X189754285Y-88880952D01*
X189801904Y-88976190D01*
X189849523Y-89023809D01*
X189944761Y-89071428D01*
X190135238Y-89071428D01*
X190230476Y-89023809D01*
X190278095Y-88976190D01*
X190325714Y-88880952D01*
X142817142Y-67452380D02*
X142483809Y-66976190D01*
X142245714Y-67452380D02*
X142245714Y-66452380D01*
X142626666Y-66452380D01*
X142721904Y-66500000D01*
X142769523Y-66547619D01*
X142817142Y-66642857D01*
X142817142Y-66785714D01*
X142769523Y-66880952D01*
X142721904Y-66928571D01*
X142626666Y-66976190D01*
X142245714Y-66976190D01*
X143769523Y-67452380D02*
X143198095Y-67452380D01*
X143483809Y-67452380D02*
X143483809Y-66452380D01*
X143388571Y-66595238D01*
X143293333Y-66690476D01*
X143198095Y-66738095D01*
X144388571Y-66452380D02*
X144483809Y-66452380D01*
X144579047Y-66500000D01*
X144626666Y-66547619D01*
X144674285Y-66642857D01*
X144721904Y-66833333D01*
X144721904Y-67071428D01*
X144674285Y-67261904D01*
X144626666Y-67357142D01*
X144579047Y-67404761D01*
X144483809Y-67452380D01*
X144388571Y-67452380D01*
X144293333Y-67404761D01*
X144245714Y-67357142D01*
X144198095Y-67261904D01*
X144150476Y-67071428D01*
X144150476Y-66833333D01*
X144198095Y-66642857D01*
X144245714Y-66547619D01*
X144293333Y-66500000D01*
X144388571Y-66452380D01*
X188897142Y-108452380D02*
X188563809Y-107976190D01*
X188325714Y-108452380D02*
X188325714Y-107452380D01*
X188706666Y-107452380D01*
X188801904Y-107500000D01*
X188849523Y-107547619D01*
X188897142Y-107642857D01*
X188897142Y-107785714D01*
X188849523Y-107880952D01*
X188801904Y-107928571D01*
X188706666Y-107976190D01*
X188325714Y-107976190D01*
X189849523Y-108452380D02*
X189278095Y-108452380D01*
X189563809Y-108452380D02*
X189563809Y-107452380D01*
X189468571Y-107595238D01*
X189373333Y-107690476D01*
X189278095Y-107738095D01*
X190801904Y-108452380D02*
X190230476Y-108452380D01*
X190516190Y-108452380D02*
X190516190Y-107452380D01*
X190420952Y-107595238D01*
X190325714Y-107690476D01*
X190230476Y-107738095D01*
X142817142Y-70452380D02*
X142483809Y-69976190D01*
X142245714Y-70452380D02*
X142245714Y-69452380D01*
X142626666Y-69452380D01*
X142721904Y-69500000D01*
X142769523Y-69547619D01*
X142817142Y-69642857D01*
X142817142Y-69785714D01*
X142769523Y-69880952D01*
X142721904Y-69928571D01*
X142626666Y-69976190D01*
X142245714Y-69976190D01*
X143769523Y-70452380D02*
X143198095Y-70452380D01*
X143483809Y-70452380D02*
X143483809Y-69452380D01*
X143388571Y-69595238D01*
X143293333Y-69690476D01*
X143198095Y-69738095D01*
X144150476Y-69547619D02*
X144198095Y-69500000D01*
X144293333Y-69452380D01*
X144531428Y-69452380D01*
X144626666Y-69500000D01*
X144674285Y-69547619D01*
X144721904Y-69642857D01*
X144721904Y-69738095D01*
X144674285Y-69880952D01*
X144102857Y-70452380D01*
X144721904Y-70452380D01*
X188897142Y-113452380D02*
X188563809Y-112976190D01*
X188325714Y-113452380D02*
X188325714Y-112452380D01*
X188706666Y-112452380D01*
X188801904Y-112500000D01*
X188849523Y-112547619D01*
X188897142Y-112642857D01*
X188897142Y-112785714D01*
X188849523Y-112880952D01*
X188801904Y-112928571D01*
X188706666Y-112976190D01*
X188325714Y-112976190D01*
X189849523Y-113452380D02*
X189278095Y-113452380D01*
X189563809Y-113452380D02*
X189563809Y-112452380D01*
X189468571Y-112595238D01*
X189373333Y-112690476D01*
X189278095Y-112738095D01*
X190182857Y-112452380D02*
X190801904Y-112452380D01*
X190468571Y-112833333D01*
X190611428Y-112833333D01*
X190706666Y-112880952D01*
X190754285Y-112928571D01*
X190801904Y-113023809D01*
X190801904Y-113261904D01*
X190754285Y-113357142D01*
X190706666Y-113404761D01*
X190611428Y-113452380D01*
X190325714Y-113452380D01*
X190230476Y-113404761D01*
X190182857Y-113357142D01*
X108317142Y-41952380D02*
X107983809Y-41476190D01*
X107745714Y-41952380D02*
X107745714Y-40952380D01*
X108126666Y-40952380D01*
X108221904Y-41000000D01*
X108269523Y-41047619D01*
X108317142Y-41142857D01*
X108317142Y-41285714D01*
X108269523Y-41380952D01*
X108221904Y-41428571D01*
X108126666Y-41476190D01*
X107745714Y-41476190D01*
X109269523Y-41952380D02*
X108698095Y-41952380D01*
X108983809Y-41952380D02*
X108983809Y-40952380D01*
X108888571Y-41095238D01*
X108793333Y-41190476D01*
X108698095Y-41238095D01*
X110126666Y-41285714D02*
X110126666Y-41952380D01*
X109888571Y-40904761D02*
X109650476Y-41619047D01*
X110269523Y-41619047D01*
X108317142Y-37952380D02*
X107983809Y-37476190D01*
X107745714Y-37952380D02*
X107745714Y-36952380D01*
X108126666Y-36952380D01*
X108221904Y-37000000D01*
X108269523Y-37047619D01*
X108317142Y-37142857D01*
X108317142Y-37285714D01*
X108269523Y-37380952D01*
X108221904Y-37428571D01*
X108126666Y-37476190D01*
X107745714Y-37476190D01*
X109269523Y-37952380D02*
X108698095Y-37952380D01*
X108983809Y-37952380D02*
X108983809Y-36952380D01*
X108888571Y-37095238D01*
X108793333Y-37190476D01*
X108698095Y-37238095D01*
X110174285Y-36952380D02*
X109698095Y-36952380D01*
X109650476Y-37428571D01*
X109698095Y-37380952D01*
X109793333Y-37333333D01*
X110031428Y-37333333D01*
X110126666Y-37380952D01*
X110174285Y-37428571D01*
X110221904Y-37523809D01*
X110221904Y-37761904D01*
X110174285Y-37857142D01*
X110126666Y-37904761D01*
X110031428Y-37952380D01*
X109793333Y-37952380D01*
X109698095Y-37904761D01*
X109650476Y-37857142D01*
X142817142Y-73452380D02*
X142483809Y-72976190D01*
X142245714Y-73452380D02*
X142245714Y-72452380D01*
X142626666Y-72452380D01*
X142721904Y-72500000D01*
X142769523Y-72547619D01*
X142817142Y-72642857D01*
X142817142Y-72785714D01*
X142769523Y-72880952D01*
X142721904Y-72928571D01*
X142626666Y-72976190D01*
X142245714Y-72976190D01*
X143769523Y-73452380D02*
X143198095Y-73452380D01*
X143483809Y-73452380D02*
X143483809Y-72452380D01*
X143388571Y-72595238D01*
X143293333Y-72690476D01*
X143198095Y-72738095D01*
X144626666Y-72452380D02*
X144436190Y-72452380D01*
X144340952Y-72500000D01*
X144293333Y-72547619D01*
X144198095Y-72690476D01*
X144150476Y-72880952D01*
X144150476Y-73261904D01*
X144198095Y-73357142D01*
X144245714Y-73404761D01*
X144340952Y-73452380D01*
X144531428Y-73452380D01*
X144626666Y-73404761D01*
X144674285Y-73357142D01*
X144721904Y-73261904D01*
X144721904Y-73023809D01*
X144674285Y-72928571D01*
X144626666Y-72880952D01*
X144531428Y-72833333D01*
X144340952Y-72833333D01*
X144245714Y-72880952D01*
X144198095Y-72928571D01*
X144150476Y-73023809D01*
X188897142Y-132452380D02*
X188563809Y-131976190D01*
X188325714Y-132452380D02*
X188325714Y-131452380D01*
X188706666Y-131452380D01*
X188801904Y-131500000D01*
X188849523Y-131547619D01*
X188897142Y-131642857D01*
X188897142Y-131785714D01*
X188849523Y-131880952D01*
X188801904Y-131928571D01*
X188706666Y-131976190D01*
X188325714Y-131976190D01*
X189849523Y-132452380D02*
X189278095Y-132452380D01*
X189563809Y-132452380D02*
X189563809Y-131452380D01*
X189468571Y-131595238D01*
X189373333Y-131690476D01*
X189278095Y-131738095D01*
X190182857Y-131452380D02*
X190849523Y-131452380D01*
X190420952Y-132452380D01*
X142817142Y-76452380D02*
X142483809Y-75976190D01*
X142245714Y-76452380D02*
X142245714Y-75452380D01*
X142626666Y-75452380D01*
X142721904Y-75500000D01*
X142769523Y-75547619D01*
X142817142Y-75642857D01*
X142817142Y-75785714D01*
X142769523Y-75880952D01*
X142721904Y-75928571D01*
X142626666Y-75976190D01*
X142245714Y-75976190D01*
X143769523Y-76452380D02*
X143198095Y-76452380D01*
X143483809Y-76452380D02*
X143483809Y-75452380D01*
X143388571Y-75595238D01*
X143293333Y-75690476D01*
X143198095Y-75738095D01*
X144340952Y-75880952D02*
X144245714Y-75833333D01*
X144198095Y-75785714D01*
X144150476Y-75690476D01*
X144150476Y-75642857D01*
X144198095Y-75547619D01*
X144245714Y-75500000D01*
X144340952Y-75452380D01*
X144531428Y-75452380D01*
X144626666Y-75500000D01*
X144674285Y-75547619D01*
X144721904Y-75642857D01*
X144721904Y-75690476D01*
X144674285Y-75785714D01*
X144626666Y-75833333D01*
X144531428Y-75880952D01*
X144340952Y-75880952D01*
X144245714Y-75928571D01*
X144198095Y-75976190D01*
X144150476Y-76071428D01*
X144150476Y-76261904D01*
X144198095Y-76357142D01*
X144245714Y-76404761D01*
X144340952Y-76452380D01*
X144531428Y-76452380D01*
X144626666Y-76404761D01*
X144674285Y-76357142D01*
X144721904Y-76261904D01*
X144721904Y-76071428D01*
X144674285Y-75976190D01*
X144626666Y-75928571D01*
X144531428Y-75880952D01*
X188897142Y-137452380D02*
X188563809Y-136976190D01*
X188325714Y-137452380D02*
X188325714Y-136452380D01*
X188706666Y-136452380D01*
X188801904Y-136500000D01*
X188849523Y-136547619D01*
X188897142Y-136642857D01*
X188897142Y-136785714D01*
X188849523Y-136880952D01*
X188801904Y-136928571D01*
X188706666Y-136976190D01*
X188325714Y-136976190D01*
X189849523Y-137452380D02*
X189278095Y-137452380D01*
X189563809Y-137452380D02*
X189563809Y-136452380D01*
X189468571Y-136595238D01*
X189373333Y-136690476D01*
X189278095Y-136738095D01*
X190325714Y-137452380D02*
X190516190Y-137452380D01*
X190611428Y-137404761D01*
X190659047Y-137357142D01*
X190754285Y-137214285D01*
X190801904Y-137023809D01*
X190801904Y-136642857D01*
X190754285Y-136547619D01*
X190706666Y-136500000D01*
X190611428Y-136452380D01*
X190420952Y-136452380D01*
X190325714Y-136500000D01*
X190278095Y-136547619D01*
X190230476Y-136642857D01*
X190230476Y-136880952D01*
X190278095Y-136976190D01*
X190325714Y-137023809D01*
X190420952Y-137071428D01*
X190611428Y-137071428D01*
X190706666Y-137023809D01*
X190754285Y-136976190D01*
X190801904Y-136880952D01*
X95452380Y-102102857D02*
X94976190Y-102436190D01*
X95452380Y-102674285D02*
X94452380Y-102674285D01*
X94452380Y-102293333D01*
X94500000Y-102198095D01*
X94547619Y-102150476D01*
X94642857Y-102102857D01*
X94785714Y-102102857D01*
X94880952Y-102150476D01*
X94928571Y-102198095D01*
X94976190Y-102293333D01*
X94976190Y-102674285D01*
X94547619Y-101721904D02*
X94500000Y-101674285D01*
X94452380Y-101579047D01*
X94452380Y-101340952D01*
X94500000Y-101245714D01*
X94547619Y-101198095D01*
X94642857Y-101150476D01*
X94738095Y-101150476D01*
X94880952Y-101198095D01*
X95452380Y-101769523D01*
X95452380Y-101150476D01*
X94452380Y-100531428D02*
X94452380Y-100436190D01*
X94500000Y-100340952D01*
X94547619Y-100293333D01*
X94642857Y-100245714D01*
X94833333Y-100198095D01*
X95071428Y-100198095D01*
X95261904Y-100245714D01*
X95357142Y-100293333D01*
X95404761Y-100340952D01*
X95452380Y-100436190D01*
X95452380Y-100531428D01*
X95404761Y-100626666D01*
X95357142Y-100674285D01*
X95261904Y-100721904D01*
X95071428Y-100769523D01*
X94833333Y-100769523D01*
X94642857Y-100721904D01*
X94547619Y-100674285D01*
X94500000Y-100626666D01*
X94452380Y-100531428D01*
X98452380Y-102102857D02*
X97976190Y-102436190D01*
X98452380Y-102674285D02*
X97452380Y-102674285D01*
X97452380Y-102293333D01*
X97500000Y-102198095D01*
X97547619Y-102150476D01*
X97642857Y-102102857D01*
X97785714Y-102102857D01*
X97880952Y-102150476D01*
X97928571Y-102198095D01*
X97976190Y-102293333D01*
X97976190Y-102674285D01*
X97547619Y-101721904D02*
X97500000Y-101674285D01*
X97452380Y-101579047D01*
X97452380Y-101340952D01*
X97500000Y-101245714D01*
X97547619Y-101198095D01*
X97642857Y-101150476D01*
X97738095Y-101150476D01*
X97880952Y-101198095D01*
X98452380Y-101769523D01*
X98452380Y-101150476D01*
X98452380Y-100198095D02*
X98452380Y-100769523D01*
X98452380Y-100483809D02*
X97452380Y-100483809D01*
X97595238Y-100579047D01*
X97690476Y-100674285D01*
X97738095Y-100769523D01*
X101452380Y-102102857D02*
X100976190Y-102436190D01*
X101452380Y-102674285D02*
X100452380Y-102674285D01*
X100452380Y-102293333D01*
X100500000Y-102198095D01*
X100547619Y-102150476D01*
X100642857Y-102102857D01*
X100785714Y-102102857D01*
X100880952Y-102150476D01*
X100928571Y-102198095D01*
X100976190Y-102293333D01*
X100976190Y-102674285D01*
X100547619Y-101721904D02*
X100500000Y-101674285D01*
X100452380Y-101579047D01*
X100452380Y-101340952D01*
X100500000Y-101245714D01*
X100547619Y-101198095D01*
X100642857Y-101150476D01*
X100738095Y-101150476D01*
X100880952Y-101198095D01*
X101452380Y-101769523D01*
X101452380Y-101150476D01*
X100547619Y-100769523D02*
X100500000Y-100721904D01*
X100452380Y-100626666D01*
X100452380Y-100388571D01*
X100500000Y-100293333D01*
X100547619Y-100245714D01*
X100642857Y-100198095D01*
X100738095Y-100198095D01*
X100880952Y-100245714D01*
X101452380Y-100817142D01*
X101452380Y-100198095D01*
X127397142Y-37952380D02*
X127063809Y-37476190D01*
X126825714Y-37952380D02*
X126825714Y-36952380D01*
X127206666Y-36952380D01*
X127301904Y-37000000D01*
X127349523Y-37047619D01*
X127397142Y-37142857D01*
X127397142Y-37285714D01*
X127349523Y-37380952D01*
X127301904Y-37428571D01*
X127206666Y-37476190D01*
X126825714Y-37476190D01*
X127778095Y-37047619D02*
X127825714Y-37000000D01*
X127920952Y-36952380D01*
X128159047Y-36952380D01*
X128254285Y-37000000D01*
X128301904Y-37047619D01*
X128349523Y-37142857D01*
X128349523Y-37238095D01*
X128301904Y-37380952D01*
X127730476Y-37952380D01*
X128349523Y-37952380D01*
X128682857Y-36952380D02*
X129301904Y-36952380D01*
X128968571Y-37333333D01*
X129111428Y-37333333D01*
X129206666Y-37380952D01*
X129254285Y-37428571D01*
X129301904Y-37523809D01*
X129301904Y-37761904D01*
X129254285Y-37857142D01*
X129206666Y-37904761D01*
X129111428Y-37952380D01*
X128825714Y-37952380D01*
X128730476Y-37904761D01*
X128682857Y-37857142D01*
X104452380Y-102102857D02*
X103976190Y-102436190D01*
X104452380Y-102674285D02*
X103452380Y-102674285D01*
X103452380Y-102293333D01*
X103500000Y-102198095D01*
X103547619Y-102150476D01*
X103642857Y-102102857D01*
X103785714Y-102102857D01*
X103880952Y-102150476D01*
X103928571Y-102198095D01*
X103976190Y-102293333D01*
X103976190Y-102674285D01*
X103547619Y-101721904D02*
X103500000Y-101674285D01*
X103452380Y-101579047D01*
X103452380Y-101340952D01*
X103500000Y-101245714D01*
X103547619Y-101198095D01*
X103642857Y-101150476D01*
X103738095Y-101150476D01*
X103880952Y-101198095D01*
X104452380Y-101769523D01*
X104452380Y-101150476D01*
X103785714Y-100293333D02*
X104452380Y-100293333D01*
X103404761Y-100531428D02*
X104119047Y-100769523D01*
X104119047Y-100150476D01*
X107452380Y-102102857D02*
X106976190Y-102436190D01*
X107452380Y-102674285D02*
X106452380Y-102674285D01*
X106452380Y-102293333D01*
X106500000Y-102198095D01*
X106547619Y-102150476D01*
X106642857Y-102102857D01*
X106785714Y-102102857D01*
X106880952Y-102150476D01*
X106928571Y-102198095D01*
X106976190Y-102293333D01*
X106976190Y-102674285D01*
X106547619Y-101721904D02*
X106500000Y-101674285D01*
X106452380Y-101579047D01*
X106452380Y-101340952D01*
X106500000Y-101245714D01*
X106547619Y-101198095D01*
X106642857Y-101150476D01*
X106738095Y-101150476D01*
X106880952Y-101198095D01*
X107452380Y-101769523D01*
X107452380Y-101150476D01*
X106452380Y-100245714D02*
X106452380Y-100721904D01*
X106928571Y-100769523D01*
X106880952Y-100721904D01*
X106833333Y-100626666D01*
X106833333Y-100388571D01*
X106880952Y-100293333D01*
X106928571Y-100245714D01*
X107023809Y-100198095D01*
X107261904Y-100198095D01*
X107357142Y-100245714D01*
X107404761Y-100293333D01*
X107452380Y-100388571D01*
X107452380Y-100626666D01*
X107404761Y-100721904D01*
X107357142Y-100769523D01*
X110452380Y-102102857D02*
X109976190Y-102436190D01*
X110452380Y-102674285D02*
X109452380Y-102674285D01*
X109452380Y-102293333D01*
X109500000Y-102198095D01*
X109547619Y-102150476D01*
X109642857Y-102102857D01*
X109785714Y-102102857D01*
X109880952Y-102150476D01*
X109928571Y-102198095D01*
X109976190Y-102293333D01*
X109976190Y-102674285D01*
X109547619Y-101721904D02*
X109500000Y-101674285D01*
X109452380Y-101579047D01*
X109452380Y-101340952D01*
X109500000Y-101245714D01*
X109547619Y-101198095D01*
X109642857Y-101150476D01*
X109738095Y-101150476D01*
X109880952Y-101198095D01*
X110452380Y-101769523D01*
X110452380Y-101150476D01*
X109452380Y-100293333D02*
X109452380Y-100483809D01*
X109500000Y-100579047D01*
X109547619Y-100626666D01*
X109690476Y-100721904D01*
X109880952Y-100769523D01*
X110261904Y-100769523D01*
X110357142Y-100721904D01*
X110404761Y-100674285D01*
X110452380Y-100579047D01*
X110452380Y-100388571D01*
X110404761Y-100293333D01*
X110357142Y-100245714D01*
X110261904Y-100198095D01*
X110023809Y-100198095D01*
X109928571Y-100245714D01*
X109880952Y-100293333D01*
X109833333Y-100388571D01*
X109833333Y-100579047D01*
X109880952Y-100674285D01*
X109928571Y-100721904D01*
X110023809Y-100769523D01*
X113452380Y-102102857D02*
X112976190Y-102436190D01*
X113452380Y-102674285D02*
X112452380Y-102674285D01*
X112452380Y-102293333D01*
X112500000Y-102198095D01*
X112547619Y-102150476D01*
X112642857Y-102102857D01*
X112785714Y-102102857D01*
X112880952Y-102150476D01*
X112928571Y-102198095D01*
X112976190Y-102293333D01*
X112976190Y-102674285D01*
X112547619Y-101721904D02*
X112500000Y-101674285D01*
X112452380Y-101579047D01*
X112452380Y-101340952D01*
X112500000Y-101245714D01*
X112547619Y-101198095D01*
X112642857Y-101150476D01*
X112738095Y-101150476D01*
X112880952Y-101198095D01*
X113452380Y-101769523D01*
X113452380Y-101150476D01*
X112452380Y-100817142D02*
X112452380Y-100150476D01*
X113452380Y-100579047D01*
X116452380Y-102102857D02*
X115976190Y-102436190D01*
X116452380Y-102674285D02*
X115452380Y-102674285D01*
X115452380Y-102293333D01*
X115500000Y-102198095D01*
X115547619Y-102150476D01*
X115642857Y-102102857D01*
X115785714Y-102102857D01*
X115880952Y-102150476D01*
X115928571Y-102198095D01*
X115976190Y-102293333D01*
X115976190Y-102674285D01*
X115547619Y-101721904D02*
X115500000Y-101674285D01*
X115452380Y-101579047D01*
X115452380Y-101340952D01*
X115500000Y-101245714D01*
X115547619Y-101198095D01*
X115642857Y-101150476D01*
X115738095Y-101150476D01*
X115880952Y-101198095D01*
X116452380Y-101769523D01*
X116452380Y-101150476D01*
X115880952Y-100579047D02*
X115833333Y-100674285D01*
X115785714Y-100721904D01*
X115690476Y-100769523D01*
X115642857Y-100769523D01*
X115547619Y-100721904D01*
X115500000Y-100674285D01*
X115452380Y-100579047D01*
X115452380Y-100388571D01*
X115500000Y-100293333D01*
X115547619Y-100245714D01*
X115642857Y-100198095D01*
X115690476Y-100198095D01*
X115785714Y-100245714D01*
X115833333Y-100293333D01*
X115880952Y-100388571D01*
X115880952Y-100579047D01*
X115928571Y-100674285D01*
X115976190Y-100721904D01*
X116071428Y-100769523D01*
X116261904Y-100769523D01*
X116357142Y-100721904D01*
X116404761Y-100674285D01*
X116452380Y-100579047D01*
X116452380Y-100388571D01*
X116404761Y-100293333D01*
X116357142Y-100245714D01*
X116261904Y-100198095D01*
X116071428Y-100198095D01*
X115976190Y-100245714D01*
X115928571Y-100293333D01*
X115880952Y-100388571D01*
X51452380Y-89102857D02*
X50976190Y-89436190D01*
X51452380Y-89674285D02*
X50452380Y-89674285D01*
X50452380Y-89293333D01*
X50500000Y-89198095D01*
X50547619Y-89150476D01*
X50642857Y-89102857D01*
X50785714Y-89102857D01*
X50880952Y-89150476D01*
X50928571Y-89198095D01*
X50976190Y-89293333D01*
X50976190Y-89674285D01*
X50547619Y-88721904D02*
X50500000Y-88674285D01*
X50452380Y-88579047D01*
X50452380Y-88340952D01*
X50500000Y-88245714D01*
X50547619Y-88198095D01*
X50642857Y-88150476D01*
X50738095Y-88150476D01*
X50880952Y-88198095D01*
X51452380Y-88769523D01*
X51452380Y-88150476D01*
X51452380Y-87674285D02*
X51452380Y-87483809D01*
X51404761Y-87388571D01*
X51357142Y-87340952D01*
X51214285Y-87245714D01*
X51023809Y-87198095D01*
X50642857Y-87198095D01*
X50547619Y-87245714D01*
X50500000Y-87293333D01*
X50452380Y-87388571D01*
X50452380Y-87579047D01*
X50500000Y-87674285D01*
X50547619Y-87721904D01*
X50642857Y-87769523D01*
X50880952Y-87769523D01*
X50976190Y-87721904D01*
X51023809Y-87674285D01*
X51071428Y-87579047D01*
X51071428Y-87388571D01*
X51023809Y-87293333D01*
X50976190Y-87245714D01*
X50880952Y-87198095D01*
X117897142Y-37952380D02*
X117563809Y-37476190D01*
X117325714Y-37952380D02*
X117325714Y-36952380D01*
X117706666Y-36952380D01*
X117801904Y-37000000D01*
X117849523Y-37047619D01*
X117897142Y-37142857D01*
X117897142Y-37285714D01*
X117849523Y-37380952D01*
X117801904Y-37428571D01*
X117706666Y-37476190D01*
X117325714Y-37476190D01*
X118230476Y-36952380D02*
X118849523Y-36952380D01*
X118516190Y-37333333D01*
X118659047Y-37333333D01*
X118754285Y-37380952D01*
X118801904Y-37428571D01*
X118849523Y-37523809D01*
X118849523Y-37761904D01*
X118801904Y-37857142D01*
X118754285Y-37904761D01*
X118659047Y-37952380D01*
X118373333Y-37952380D01*
X118278095Y-37904761D01*
X118230476Y-37857142D01*
X119468571Y-36952380D02*
X119563809Y-36952380D01*
X119659047Y-37000000D01*
X119706666Y-37047619D01*
X119754285Y-37142857D01*
X119801904Y-37333333D01*
X119801904Y-37571428D01*
X119754285Y-37761904D01*
X119706666Y-37857142D01*
X119659047Y-37904761D01*
X119563809Y-37952380D01*
X119468571Y-37952380D01*
X119373333Y-37904761D01*
X119325714Y-37857142D01*
X119278095Y-37761904D01*
X119230476Y-37571428D01*
X119230476Y-37333333D01*
X119278095Y-37142857D01*
X119325714Y-37047619D01*
X119373333Y-37000000D01*
X119468571Y-36952380D01*
X54452380Y-89102857D02*
X53976190Y-89436190D01*
X54452380Y-89674285D02*
X53452380Y-89674285D01*
X53452380Y-89293333D01*
X53500000Y-89198095D01*
X53547619Y-89150476D01*
X53642857Y-89102857D01*
X53785714Y-89102857D01*
X53880952Y-89150476D01*
X53928571Y-89198095D01*
X53976190Y-89293333D01*
X53976190Y-89674285D01*
X53452380Y-88769523D02*
X53452380Y-88150476D01*
X53833333Y-88483809D01*
X53833333Y-88340952D01*
X53880952Y-88245714D01*
X53928571Y-88198095D01*
X54023809Y-88150476D01*
X54261904Y-88150476D01*
X54357142Y-88198095D01*
X54404761Y-88245714D01*
X54452380Y-88340952D01*
X54452380Y-88626666D01*
X54404761Y-88721904D01*
X54357142Y-88769523D01*
X54452380Y-87198095D02*
X54452380Y-87769523D01*
X54452380Y-87483809D02*
X53452380Y-87483809D01*
X53595238Y-87579047D01*
X53690476Y-87674285D01*
X53738095Y-87769523D01*
X57452380Y-89102857D02*
X56976190Y-89436190D01*
X57452380Y-89674285D02*
X56452380Y-89674285D01*
X56452380Y-89293333D01*
X56500000Y-89198095D01*
X56547619Y-89150476D01*
X56642857Y-89102857D01*
X56785714Y-89102857D01*
X56880952Y-89150476D01*
X56928571Y-89198095D01*
X56976190Y-89293333D01*
X56976190Y-89674285D01*
X56452380Y-88769523D02*
X56452380Y-88150476D01*
X56833333Y-88483809D01*
X56833333Y-88340952D01*
X56880952Y-88245714D01*
X56928571Y-88198095D01*
X57023809Y-88150476D01*
X57261904Y-88150476D01*
X57357142Y-88198095D01*
X57404761Y-88245714D01*
X57452380Y-88340952D01*
X57452380Y-88626666D01*
X57404761Y-88721904D01*
X57357142Y-88769523D01*
X56547619Y-87769523D02*
X56500000Y-87721904D01*
X56452380Y-87626666D01*
X56452380Y-87388571D01*
X56500000Y-87293333D01*
X56547619Y-87245714D01*
X56642857Y-87198095D01*
X56738095Y-87198095D01*
X56880952Y-87245714D01*
X57452380Y-87817142D01*
X57452380Y-87198095D01*
X60452380Y-89102857D02*
X59976190Y-89436190D01*
X60452380Y-89674285D02*
X59452380Y-89674285D01*
X59452380Y-89293333D01*
X59500000Y-89198095D01*
X59547619Y-89150476D01*
X59642857Y-89102857D01*
X59785714Y-89102857D01*
X59880952Y-89150476D01*
X59928571Y-89198095D01*
X59976190Y-89293333D01*
X59976190Y-89674285D01*
X59452380Y-88769523D02*
X59452380Y-88150476D01*
X59833333Y-88483809D01*
X59833333Y-88340952D01*
X59880952Y-88245714D01*
X59928571Y-88198095D01*
X60023809Y-88150476D01*
X60261904Y-88150476D01*
X60357142Y-88198095D01*
X60404761Y-88245714D01*
X60452380Y-88340952D01*
X60452380Y-88626666D01*
X60404761Y-88721904D01*
X60357142Y-88769523D01*
X59452380Y-87817142D02*
X59452380Y-87198095D01*
X59833333Y-87531428D01*
X59833333Y-87388571D01*
X59880952Y-87293333D01*
X59928571Y-87245714D01*
X60023809Y-87198095D01*
X60261904Y-87198095D01*
X60357142Y-87245714D01*
X60404761Y-87293333D01*
X60452380Y-87388571D01*
X60452380Y-87674285D01*
X60404761Y-87769523D01*
X60357142Y-87817142D01*
X203452380Y-33845238D02*
X202976190Y-34178571D01*
X203452380Y-34416666D02*
X202452380Y-34416666D01*
X202452380Y-34035714D01*
X202500000Y-33940476D01*
X202547619Y-33892857D01*
X202642857Y-33845238D01*
X202785714Y-33845238D01*
X202880952Y-33892857D01*
X202928571Y-33940476D01*
X202976190Y-34035714D01*
X202976190Y-34416666D01*
X202452380Y-33559523D02*
X203452380Y-33226190D01*
X202452380Y-32892857D01*
X203452380Y-32035714D02*
X203452380Y-32607142D01*
X203452380Y-32321428D02*
X202452380Y-32321428D01*
X202595238Y-32416666D01*
X202690476Y-32511904D01*
X202738095Y-32607142D01*
X56404761Y-67083333D02*
X56452380Y-66940476D01*
X56452380Y-66702380D01*
X56404761Y-66607142D01*
X56357142Y-66559523D01*
X56261904Y-66511904D01*
X56166666Y-66511904D01*
X56071428Y-66559523D01*
X56023809Y-66607142D01*
X55976190Y-66702380D01*
X55928571Y-66892857D01*
X55880952Y-66988095D01*
X55833333Y-67035714D01*
X55738095Y-67083333D01*
X55642857Y-67083333D01*
X55547619Y-67035714D01*
X55500000Y-66988095D01*
X55452380Y-66892857D01*
X55452380Y-66654761D01*
X55500000Y-66511904D01*
X55452380Y-66178571D02*
X56452380Y-65940476D01*
X55738095Y-65750000D01*
X56452380Y-65559523D01*
X55452380Y-65321428D01*
X56452380Y-64416666D02*
X56452380Y-64988095D01*
X56452380Y-64702380D02*
X55452380Y-64702380D01*
X55595238Y-64797619D01*
X55690476Y-64892857D01*
X55738095Y-64988095D01*
X56404761Y-57333333D02*
X56452380Y-57190476D01*
X56452380Y-56952380D01*
X56404761Y-56857142D01*
X56357142Y-56809523D01*
X56261904Y-56761904D01*
X56166666Y-56761904D01*
X56071428Y-56809523D01*
X56023809Y-56857142D01*
X55976190Y-56952380D01*
X55928571Y-57142857D01*
X55880952Y-57238095D01*
X55833333Y-57285714D01*
X55738095Y-57333333D01*
X55642857Y-57333333D01*
X55547619Y-57285714D01*
X55500000Y-57238095D01*
X55452380Y-57142857D01*
X55452380Y-56904761D01*
X55500000Y-56761904D01*
X55452380Y-56428571D02*
X56452380Y-56190476D01*
X55738095Y-56000000D01*
X56452380Y-55809523D01*
X55452380Y-55571428D01*
X55547619Y-55238095D02*
X55500000Y-55190476D01*
X55452380Y-55095238D01*
X55452380Y-54857142D01*
X55500000Y-54761904D01*
X55547619Y-54714285D01*
X55642857Y-54666666D01*
X55738095Y-54666666D01*
X55880952Y-54714285D01*
X56452380Y-55285714D01*
X56452380Y-54666666D01*
X52166666Y-99904761D02*
X52309523Y-99952380D01*
X52547619Y-99952380D01*
X52642857Y-99904761D01*
X52690476Y-99857142D01*
X52738095Y-99761904D01*
X52738095Y-99666666D01*
X52690476Y-99571428D01*
X52642857Y-99523809D01*
X52547619Y-99476190D01*
X52357142Y-99428571D01*
X52261904Y-99380952D01*
X52214285Y-99333333D01*
X52166666Y-99238095D01*
X52166666Y-99142857D01*
X52214285Y-99047619D01*
X52261904Y-99000000D01*
X52357142Y-98952380D01*
X52595238Y-98952380D01*
X52738095Y-99000000D01*
X53071428Y-98952380D02*
X53309523Y-99952380D01*
X53500000Y-99238095D01*
X53690476Y-99952380D01*
X53928571Y-98952380D01*
X54214285Y-98952380D02*
X54833333Y-98952380D01*
X54500000Y-99333333D01*
X54642857Y-99333333D01*
X54738095Y-99380952D01*
X54785714Y-99428571D01*
X54833333Y-99523809D01*
X54833333Y-99761904D01*
X54785714Y-99857142D01*
X54738095Y-99904761D01*
X54642857Y-99952380D01*
X54357142Y-99952380D01*
X54261904Y-99904761D01*
X54214285Y-99857142D01*
X52166666Y-113904761D02*
X52309523Y-113952380D01*
X52547619Y-113952380D01*
X52642857Y-113904761D01*
X52690476Y-113857142D01*
X52738095Y-113761904D01*
X52738095Y-113666666D01*
X52690476Y-113571428D01*
X52642857Y-113523809D01*
X52547619Y-113476190D01*
X52357142Y-113428571D01*
X52261904Y-113380952D01*
X52214285Y-113333333D01*
X52166666Y-113238095D01*
X52166666Y-113142857D01*
X52214285Y-113047619D01*
X52261904Y-113000000D01*
X52357142Y-112952380D01*
X52595238Y-112952380D01*
X52738095Y-113000000D01*
X53071428Y-112952380D02*
X53309523Y-113952380D01*
X53500000Y-113238095D01*
X53690476Y-113952380D01*
X53928571Y-112952380D01*
X54738095Y-113285714D02*
X54738095Y-113952380D01*
X54500000Y-112904761D02*
X54261904Y-113619047D01*
X54880952Y-113619047D01*
X52166666Y-127904761D02*
X52309523Y-127952380D01*
X52547619Y-127952380D01*
X52642857Y-127904761D01*
X52690476Y-127857142D01*
X52738095Y-127761904D01*
X52738095Y-127666666D01*
X52690476Y-127571428D01*
X52642857Y-127523809D01*
X52547619Y-127476190D01*
X52357142Y-127428571D01*
X52261904Y-127380952D01*
X52214285Y-127333333D01*
X52166666Y-127238095D01*
X52166666Y-127142857D01*
X52214285Y-127047619D01*
X52261904Y-127000000D01*
X52357142Y-126952380D01*
X52595238Y-126952380D01*
X52738095Y-127000000D01*
X53071428Y-126952380D02*
X53309523Y-127952380D01*
X53500000Y-127238095D01*
X53690476Y-127952380D01*
X53928571Y-126952380D01*
X54785714Y-126952380D02*
X54309523Y-126952380D01*
X54261904Y-127428571D01*
X54309523Y-127380952D01*
X54404761Y-127333333D01*
X54642857Y-127333333D01*
X54738095Y-127380952D01*
X54785714Y-127428571D01*
X54833333Y-127523809D01*
X54833333Y-127761904D01*
X54785714Y-127857142D01*
X54738095Y-127904761D01*
X54642857Y-127952380D01*
X54404761Y-127952380D01*
X54309523Y-127904761D01*
X54261904Y-127857142D01*
X52166666Y-141904761D02*
X52309523Y-141952380D01*
X52547619Y-141952380D01*
X52642857Y-141904761D01*
X52690476Y-141857142D01*
X52738095Y-141761904D01*
X52738095Y-141666666D01*
X52690476Y-141571428D01*
X52642857Y-141523809D01*
X52547619Y-141476190D01*
X52357142Y-141428571D01*
X52261904Y-141380952D01*
X52214285Y-141333333D01*
X52166666Y-141238095D01*
X52166666Y-141142857D01*
X52214285Y-141047619D01*
X52261904Y-141000000D01*
X52357142Y-140952380D01*
X52595238Y-140952380D01*
X52738095Y-141000000D01*
X53071428Y-140952380D02*
X53309523Y-141952380D01*
X53500000Y-141238095D01*
X53690476Y-141952380D01*
X53928571Y-140952380D01*
X54738095Y-140952380D02*
X54547619Y-140952380D01*
X54452380Y-141000000D01*
X54404761Y-141047619D01*
X54309523Y-141190476D01*
X54261904Y-141380952D01*
X54261904Y-141761904D01*
X54309523Y-141857142D01*
X54357142Y-141904761D01*
X54452380Y-141952380D01*
X54642857Y-141952380D01*
X54738095Y-141904761D01*
X54785714Y-141857142D01*
X54833333Y-141761904D01*
X54833333Y-141523809D01*
X54785714Y-141428571D01*
X54738095Y-141380952D01*
X54642857Y-141333333D01*
X54452380Y-141333333D01*
X54357142Y-141380952D01*
X54309523Y-141428571D01*
X54261904Y-141523809D01*
X103428571Y-95452380D02*
X104000000Y-95452380D01*
X103714285Y-96452380D02*
X103714285Y-95452380D01*
X104666666Y-95928571D02*
X104333333Y-95928571D01*
X104333333Y-96452380D02*
X104333333Y-95452380D01*
X104809523Y-95452380D01*
X105047619Y-95452380D02*
X105619047Y-95452380D01*
X105333333Y-96452380D02*
X105333333Y-95452380D01*
X106476190Y-96452380D02*
X105904761Y-96452380D01*
X106190476Y-96452380D02*
X106190476Y-95452380D01*
X106095238Y-95595238D01*
X106000000Y-95690476D01*
X105904761Y-95738095D01*
X171048095Y-59452380D02*
X171048095Y-60261904D01*
X171095714Y-60357142D01*
X171143333Y-60404761D01*
X171238571Y-60452380D01*
X171429047Y-60452380D01*
X171524285Y-60404761D01*
X171571904Y-60357142D01*
X171619523Y-60261904D01*
X171619523Y-59452380D01*
X172619523Y-60452380D02*
X172048095Y-60452380D01*
X172333809Y-60452380D02*
X172333809Y-59452380D01*
X172238571Y-59595238D01*
X172143333Y-59690476D01*
X172048095Y-59738095D01*
X144602380Y-37261904D02*
X145411904Y-37261904D01*
X145507142Y-37214285D01*
X145554761Y-37166666D01*
X145602380Y-37071428D01*
X145602380Y-36880952D01*
X145554761Y-36785714D01*
X145507142Y-36738095D01*
X145411904Y-36690476D01*
X144602380Y-36690476D01*
X144697619Y-36261904D02*
X144650000Y-36214285D01*
X144602380Y-36119047D01*
X144602380Y-35880952D01*
X144650000Y-35785714D01*
X144697619Y-35738095D01*
X144792857Y-35690476D01*
X144888095Y-35690476D01*
X145030952Y-35738095D01*
X145602380Y-36309523D01*
X145602380Y-35690476D01*
X117452380Y-61761904D02*
X118261904Y-61761904D01*
X118357142Y-61714285D01*
X118404761Y-61666666D01*
X118452380Y-61571428D01*
X118452380Y-61380952D01*
X118404761Y-61285714D01*
X118357142Y-61238095D01*
X118261904Y-61190476D01*
X117452380Y-61190476D01*
X117452380Y-60809523D02*
X117452380Y-60190476D01*
X117833333Y-60523809D01*
X117833333Y-60380952D01*
X117880952Y-60285714D01*
X117928571Y-60238095D01*
X118023809Y-60190476D01*
X118261904Y-60190476D01*
X118357142Y-60238095D01*
X118404761Y-60285714D01*
X118452380Y-60380952D01*
X118452380Y-60666666D01*
X118404761Y-60761904D01*
X118357142Y-60809523D01*
X171048095Y-68452380D02*
X171048095Y-69261904D01*
X171095714Y-69357142D01*
X171143333Y-69404761D01*
X171238571Y-69452380D01*
X171429047Y-69452380D01*
X171524285Y-69404761D01*
X171571904Y-69357142D01*
X171619523Y-69261904D01*
X171619523Y-68452380D01*
X172524285Y-68785714D02*
X172524285Y-69452380D01*
X172286190Y-68404761D02*
X172048095Y-69119047D01*
X172667142Y-69119047D01*
X171048095Y-83452380D02*
X171048095Y-84261904D01*
X171095714Y-84357142D01*
X171143333Y-84404761D01*
X171238571Y-84452380D01*
X171429047Y-84452380D01*
X171524285Y-84404761D01*
X171571904Y-84357142D01*
X171619523Y-84261904D01*
X171619523Y-83452380D01*
X172571904Y-83452380D02*
X172095714Y-83452380D01*
X172048095Y-83928571D01*
X172095714Y-83880952D01*
X172190952Y-83833333D01*
X172429047Y-83833333D01*
X172524285Y-83880952D01*
X172571904Y-83928571D01*
X172619523Y-84023809D01*
X172619523Y-84261904D01*
X172571904Y-84357142D01*
X172524285Y-84404761D01*
X172429047Y-84452380D01*
X172190952Y-84452380D01*
X172095714Y-84404761D01*
X172048095Y-84357142D01*
X171048095Y-92452380D02*
X171048095Y-93261904D01*
X171095714Y-93357142D01*
X171143333Y-93404761D01*
X171238571Y-93452380D01*
X171429047Y-93452380D01*
X171524285Y-93404761D01*
X171571904Y-93357142D01*
X171619523Y-93261904D01*
X171619523Y-92452380D01*
X172524285Y-92452380D02*
X172333809Y-92452380D01*
X172238571Y-92500000D01*
X172190952Y-92547619D01*
X172095714Y-92690476D01*
X172048095Y-92880952D01*
X172048095Y-93261904D01*
X172095714Y-93357142D01*
X172143333Y-93404761D01*
X172238571Y-93452380D01*
X172429047Y-93452380D01*
X172524285Y-93404761D01*
X172571904Y-93357142D01*
X172619523Y-93261904D01*
X172619523Y-93023809D01*
X172571904Y-92928571D01*
X172524285Y-92880952D01*
X172429047Y-92833333D01*
X172238571Y-92833333D01*
X172143333Y-92880952D01*
X172095714Y-92928571D01*
X172048095Y-93023809D01*
X171048095Y-107452380D02*
X171048095Y-108261904D01*
X171095714Y-108357142D01*
X171143333Y-108404761D01*
X171238571Y-108452380D01*
X171429047Y-108452380D01*
X171524285Y-108404761D01*
X171571904Y-108357142D01*
X171619523Y-108261904D01*
X171619523Y-107452380D01*
X172000476Y-107452380D02*
X172667142Y-107452380D01*
X172238571Y-108452380D01*
X95668095Y-79062380D02*
X95668095Y-79871904D01*
X95715714Y-79967142D01*
X95763333Y-80014761D01*
X95858571Y-80062380D01*
X96049047Y-80062380D01*
X96144285Y-80014761D01*
X96191904Y-79967142D01*
X96239523Y-79871904D01*
X96239523Y-79062380D01*
X96858571Y-79490952D02*
X96763333Y-79443333D01*
X96715714Y-79395714D01*
X96668095Y-79300476D01*
X96668095Y-79252857D01*
X96715714Y-79157619D01*
X96763333Y-79110000D01*
X96858571Y-79062380D01*
X97049047Y-79062380D01*
X97144285Y-79110000D01*
X97191904Y-79157619D01*
X97239523Y-79252857D01*
X97239523Y-79300476D01*
X97191904Y-79395714D01*
X97144285Y-79443333D01*
X97049047Y-79490952D01*
X96858571Y-79490952D01*
X96763333Y-79538571D01*
X96715714Y-79586190D01*
X96668095Y-79681428D01*
X96668095Y-79871904D01*
X96715714Y-79967142D01*
X96763333Y-80014761D01*
X96858571Y-80062380D01*
X97049047Y-80062380D01*
X97144285Y-80014761D01*
X97191904Y-79967142D01*
X97239523Y-79871904D01*
X97239523Y-79681428D01*
X97191904Y-79586190D01*
X97144285Y-79538571D01*
X97049047Y-79490952D01*
X171048095Y-116452380D02*
X171048095Y-117261904D01*
X171095714Y-117357142D01*
X171143333Y-117404761D01*
X171238571Y-117452380D01*
X171429047Y-117452380D01*
X171524285Y-117404761D01*
X171571904Y-117357142D01*
X171619523Y-117261904D01*
X171619523Y-116452380D01*
X172143333Y-117452380D02*
X172333809Y-117452380D01*
X172429047Y-117404761D01*
X172476666Y-117357142D01*
X172571904Y-117214285D01*
X172619523Y-117023809D01*
X172619523Y-116642857D01*
X172571904Y-116547619D01*
X172524285Y-116500000D01*
X172429047Y-116452380D01*
X172238571Y-116452380D01*
X172143333Y-116500000D01*
X172095714Y-116547619D01*
X172048095Y-116642857D01*
X172048095Y-116880952D01*
X172095714Y-116976190D01*
X172143333Y-117023809D01*
X172238571Y-117071428D01*
X172429047Y-117071428D01*
X172524285Y-117023809D01*
X172571904Y-116976190D01*
X172619523Y-116880952D01*
X170571904Y-130452380D02*
X170571904Y-131261904D01*
X170619523Y-131357142D01*
X170667142Y-131404761D01*
X170762380Y-131452380D01*
X170952857Y-131452380D01*
X171048095Y-131404761D01*
X171095714Y-131357142D01*
X171143333Y-131261904D01*
X171143333Y-130452380D01*
X172143333Y-131452380D02*
X171571904Y-131452380D01*
X171857619Y-131452380D02*
X171857619Y-130452380D01*
X171762380Y-130595238D01*
X171667142Y-130690476D01*
X171571904Y-130738095D01*
X172762380Y-130452380D02*
X172857619Y-130452380D01*
X172952857Y-130500000D01*
X173000476Y-130547619D01*
X173048095Y-130642857D01*
X173095714Y-130833333D01*
X173095714Y-131071428D01*
X173048095Y-131261904D01*
X173000476Y-131357142D01*
X172952857Y-131404761D01*
X172857619Y-131452380D01*
X172762380Y-131452380D01*
X172667142Y-131404761D01*
X172619523Y-131357142D01*
X172571904Y-131261904D01*
X172524285Y-131071428D01*
X172524285Y-130833333D01*
X172571904Y-130642857D01*
X172619523Y-130547619D01*
X172667142Y-130500000D01*
X172762380Y-130452380D01*
X170571904Y-140452380D02*
X170571904Y-141261904D01*
X170619523Y-141357142D01*
X170667142Y-141404761D01*
X170762380Y-141452380D01*
X170952857Y-141452380D01*
X171048095Y-141404761D01*
X171095714Y-141357142D01*
X171143333Y-141261904D01*
X171143333Y-140452380D01*
X172143333Y-141452380D02*
X171571904Y-141452380D01*
X171857619Y-141452380D02*
X171857619Y-140452380D01*
X171762380Y-140595238D01*
X171667142Y-140690476D01*
X171571904Y-140738095D01*
X173095714Y-141452380D02*
X172524285Y-141452380D01*
X172810000Y-141452380D02*
X172810000Y-140452380D01*
X172714761Y-140595238D01*
X172619523Y-140690476D01*
X172524285Y-140738095D01*
X117452380Y-77238095D02*
X118261904Y-77238095D01*
X118357142Y-77190476D01*
X118404761Y-77142857D01*
X118452380Y-77047619D01*
X118452380Y-76857142D01*
X118404761Y-76761904D01*
X118357142Y-76714285D01*
X118261904Y-76666666D01*
X117452380Y-76666666D01*
X118452380Y-75666666D02*
X118452380Y-76238095D01*
X118452380Y-75952380D02*
X117452380Y-75952380D01*
X117595238Y-76047619D01*
X117690476Y-76142857D01*
X117738095Y-76238095D01*
X117547619Y-75285714D02*
X117500000Y-75238095D01*
X117452380Y-75142857D01*
X117452380Y-74904761D01*
X117500000Y-74809523D01*
X117547619Y-74761904D01*
X117642857Y-74714285D01*
X117738095Y-74714285D01*
X117880952Y-74761904D01*
X118452380Y-75333333D01*
X118452380Y-74714285D01*
X90952380Y-43548095D02*
X91761904Y-43548095D01*
X91857142Y-43500476D01*
X91904761Y-43452857D01*
X91952380Y-43357619D01*
X91952380Y-43167142D01*
X91904761Y-43071904D01*
X91857142Y-43024285D01*
X91761904Y-42976666D01*
X90952380Y-42976666D01*
X91952380Y-41976666D02*
X91952380Y-42548095D01*
X91952380Y-42262380D02*
X90952380Y-42262380D01*
X91095238Y-42357619D01*
X91190476Y-42452857D01*
X91238095Y-42548095D01*
X90952380Y-41643333D02*
X90952380Y-41024285D01*
X91333333Y-41357619D01*
X91333333Y-41214761D01*
X91380952Y-41119523D01*
X91428571Y-41071904D01*
X91523809Y-41024285D01*
X91761904Y-41024285D01*
X91857142Y-41071904D01*
X91904761Y-41119523D01*
X91952380Y-41214761D01*
X91952380Y-41500476D01*
X91904761Y-41595714D01*
X91857142Y-41643333D01*
X127452380Y-50738095D02*
X128261904Y-50738095D01*
X128357142Y-50690476D01*
X128404761Y-50642857D01*
X128452380Y-50547619D01*
X128452380Y-50357142D01*
X128404761Y-50261904D01*
X128357142Y-50214285D01*
X128261904Y-50166666D01*
X127452380Y-50166666D01*
X128452380Y-49166666D02*
X128452380Y-49738095D01*
X128452380Y-49452380D02*
X127452380Y-49452380D01*
X127595238Y-49547619D01*
X127690476Y-49642857D01*
X127738095Y-49738095D01*
X127785714Y-48309523D02*
X128452380Y-48309523D01*
X127404761Y-48547619D02*
X128119047Y-48785714D01*
X128119047Y-48166666D01*
X117952380Y-50738095D02*
X118761904Y-50738095D01*
X118857142Y-50690476D01*
X118904761Y-50642857D01*
X118952380Y-50547619D01*
X118952380Y-50357142D01*
X118904761Y-50261904D01*
X118857142Y-50214285D01*
X118761904Y-50166666D01*
X117952380Y-50166666D01*
X118952380Y-49166666D02*
X118952380Y-49738095D01*
X118952380Y-49452380D02*
X117952380Y-49452380D01*
X118095238Y-49547619D01*
X118190476Y-49642857D01*
X118238095Y-49738095D01*
X117952380Y-48261904D02*
X117952380Y-48738095D01*
X118428571Y-48785714D01*
X118380952Y-48738095D01*
X118333333Y-48642857D01*
X118333333Y-48404761D01*
X118380952Y-48309523D01*
X118428571Y-48261904D01*
X118523809Y-48214285D01*
X118761904Y-48214285D01*
X118857142Y-48261904D01*
X118904761Y-48309523D01*
X118952380Y-48404761D01*
X118952380Y-48642857D01*
X118904761Y-48738095D01*
X118857142Y-48785714D01*
X65952380Y-42738095D02*
X66761904Y-42738095D01*
X66857142Y-42690476D01*
X66904761Y-42642857D01*
X66952380Y-42547619D01*
X66952380Y-42357142D01*
X66904761Y-42261904D01*
X66857142Y-42214285D01*
X66761904Y-42166666D01*
X65952380Y-42166666D01*
X66952380Y-41166666D02*
X66952380Y-41738095D01*
X66952380Y-41452380D02*
X65952380Y-41452380D01*
X66095238Y-41547619D01*
X66190476Y-41642857D01*
X66238095Y-41738095D01*
X65952380Y-40309523D02*
X65952380Y-40500000D01*
X66000000Y-40595238D01*
X66047619Y-40642857D01*
X66190476Y-40738095D01*
X66380952Y-40785714D01*
X66761904Y-40785714D01*
X66857142Y-40738095D01*
X66904761Y-40690476D01*
X66952380Y-40595238D01*
X66952380Y-40404761D01*
X66904761Y-40309523D01*
X66857142Y-40261904D01*
X66761904Y-40214285D01*
X66523809Y-40214285D01*
X66428571Y-40261904D01*
X66380952Y-40309523D01*
X66333333Y-40404761D01*
X66333333Y-40595238D01*
X66380952Y-40690476D01*
X66428571Y-40738095D01*
X66523809Y-40785714D01*
M02*
