M48
; DRILL file {KiCad (5.1.4)-1} date 09/14/19 19:38:40
; FORMAT={-:-/ absolute / inch / decimal}
; #@! TF.CreationDate,2019-09-14T19:38:40+02:00
; #@! TF.GenerationSoftware,Kicad,Pcbnew,(5.1.4)-1
; #@! TF.FileFunction,Plated,1,2,PTH
FMAT,2
INCH
T1C0.0157
T2C0.0276
T3C0.0315
T4C0.0354
T5C0.0394
T6C0.0398
T7C0.0433
T8C0.0472
T9C0.0512
T10C0.0551
T11C0.0787
%
G90
G05
T1
X3.6946Y-1.741
X3.732Y-1.7829
X3.7971Y-1.825
X3.9346Y-1.875
X4.0073Y-1.925
X4.0228Y-2.0995
X4.0645Y-2.1371
X4.0793Y-1.7352
X4.2643Y-2.9367
X4.2882Y-1.9893
X4.3556Y-2.9282
X4.4657Y-2.025
X4.5217Y-2.2722
X4.5882Y-2.2798
X4.6021Y-2.3453
X4.6323Y-1.7134
X4.6475Y-1.9785
X4.6829Y-2.1119
X4.9294Y-1.7932
T2
X5.7Y-2.35
X5.9Y-2.35
X5.7Y-5.25
X5.9Y-5.25
X5.7Y-3.0
X5.9Y-3.0
X5.7Y-4.0
X5.9Y-4.0
X5.7Y-5.0
X5.9Y-5.0
X6.8Y-4.5
X7.0Y-4.5
X5.7Y-5.9
X5.9Y-5.9
X3.05Y-3.0
X3.25Y-3.0
X6.8Y-2.55
X7.0Y-2.55
X3.65Y-3.0
X3.85Y-3.0
X3.95Y-3.0
X4.15Y-3.0
X5.15Y-5.85
X5.35Y-5.85
X5.7Y-3.35
X5.9Y-3.35
X5.7Y-4.35
X5.9Y-4.35
X6.8Y-3.55
X7.0Y-3.55
X2.45Y-3.0
X2.65Y-3.0
X4.25Y-3.0
X4.45Y-3.0
X3.35Y-3.0
X3.55Y-3.0
X6.8Y-3.8
X7.0Y-3.8
X5.15Y-5.55
X5.35Y-5.55
X5.15Y-5.65
X5.35Y-5.65
X3.15Y-1.95
X3.35Y-1.95
X6.8Y-2.85
X7.0Y-2.85
X6.8Y-4.75
X7.0Y-4.75
X2.75Y-3.0
X2.95Y-3.0
X6.8Y-5.7
X7.0Y-5.7
X6.8Y-5.45
X7.0Y-5.45
X5.15Y-5.75
X5.35Y-5.75
T3
X5.15Y-2.4
X5.15Y-2.5
X5.15Y-2.6
X5.15Y-2.7
X5.15Y-2.8
X5.15Y-2.9
X5.15Y-3.0
X5.15Y-3.1
X5.45Y-2.4
X5.45Y-2.5
X5.45Y-2.6
X5.45Y-2.7
X5.45Y-2.8
X5.45Y-2.9
X5.45Y-3.0
X5.45Y-3.1
X6.05Y-4.75
X6.05Y-4.85
X6.05Y-4.95
X6.35Y-4.75
X6.35Y-4.85
X6.35Y-4.95
X2.35Y-3.0531
X2.35Y-3.25
X6.05Y-5.65
X6.05Y-5.75
X6.05Y-5.85
X6.35Y-5.65
X6.35Y-5.75
X6.35Y-5.85
X2.35Y-1.45
X2.35Y-1.55
X2.35Y-1.65
X2.35Y-1.75
X2.35Y-1.85
X2.35Y-1.95
X2.35Y-2.05
X2.35Y-2.15
X2.65Y-1.45
X2.65Y-1.55
X2.65Y-1.65
X2.65Y-1.75
X2.65Y-1.85
X2.65Y-1.95
X2.65Y-2.05
X2.65Y-2.15
X5.45Y-4.9031
X5.45Y-5.1
X7.5249Y-2.1253
X7.58Y-1.83
X6.05Y-3.75
X6.05Y-3.85
X6.05Y-3.95
X6.35Y-3.75
X6.35Y-3.85
X6.35Y-3.95
X6.05Y-4.4
X6.05Y-4.5
X6.05Y-4.6
X6.35Y-4.4
X6.35Y-4.5
X6.35Y-4.6
X6.05Y-5.3
X6.05Y-5.4
X6.05Y-5.5
X6.35Y-5.3
X6.35Y-5.4
X6.35Y-5.5
X4.25Y-2.85
X4.4469Y-2.85
X3.4Y-2.1031
X3.4Y-2.3
X6.05Y-2.75
X6.05Y-2.85
X6.05Y-2.95
X6.35Y-2.75
X6.35Y-2.85
X6.35Y-2.95
X6.05Y-2.4
X6.05Y-2.5
X6.05Y-2.6
X6.35Y-2.4
X6.35Y-2.5
X6.35Y-2.6
X5.45Y-3.5
X5.45Y-3.6969
X6.05Y-3.4
X6.05Y-3.5
X6.05Y-3.6
X6.35Y-3.4
X6.35Y-3.5
X6.35Y-3.6
X2.5Y-2.55
X2.5Y-2.85
X2.6Y-2.55
X2.6Y-2.85
X2.7Y-2.55
X2.7Y-2.85
X2.8Y-2.55
X2.8Y-2.85
X2.9Y-2.55
X2.9Y-2.85
X3.0Y-2.55
X3.0Y-2.85
X3.1Y-2.55
X3.1Y-2.85
X3.2Y-2.55
X3.2Y-2.85
X5.01Y-1.28
X5.01Y-1.4769
T4
X4.3Y-3.2
X4.4Y-3.2
X2.5Y-3.2
X2.6Y-3.2
X3.7Y-3.2
X3.8Y-3.2
X5.75Y-3.8
X5.85Y-3.8
X5.75Y-3.55
X5.85Y-3.55
X5.75Y-4.8
X5.85Y-4.8
X5.75Y-5.45
X5.85Y-5.45
X3.4Y-3.2
X3.5Y-3.2
X2.8Y-3.2
X2.9Y-3.2
X5.75Y-5.7
X5.85Y-5.7
X5.75Y-2.55
X5.85Y-2.55
X5.75Y-4.55
X5.85Y-4.55
X5.75Y-2.8
X5.85Y-2.8
X4.0Y-3.2
X4.1Y-3.2
X3.1Y-3.2
X3.2Y-3.2
T5
X5.16Y-1.3
X5.16Y-1.4
X5.16Y-1.5
X5.16Y-1.6
X3.15Y-1.65
X3.15Y-1.8272
X3.4059Y-1.65
X3.4059Y-1.8272
X4.74Y-1.6
X4.74Y-1.7772
X4.9959Y-1.6
X4.9959Y-1.7772
X6.0925Y-1.3484
X6.0925Y-1.9547
X7.25Y-1.5531
X7.25Y-1.75
T6
X1.9752Y-4.25
X1.9752Y-4.35
X1.9752Y-4.4469
X1.9752Y-4.5469
X5.1642Y-3.75
X5.1642Y-3.85
X5.1642Y-3.95
X5.1642Y-4.05
X5.1642Y-4.15
X5.1642Y-4.25
X5.1642Y-4.35
X5.1642Y-4.45
X5.1642Y-4.55
X5.1642Y-4.65
X5.1642Y-4.75
X5.1642Y-4.85
X5.1642Y-4.95
X5.1642Y-5.05
T7
X4.6Y-5.65
X4.6Y-5.8469
X4.7969Y-5.65
X4.7969Y-5.8469
X2.05Y-5.65
X2.05Y-5.8469
X2.2469Y-5.65
X2.2469Y-5.8469
X2.9Y-5.65
X2.9Y-5.8469
X3.0969Y-5.65
X3.0969Y-5.8469
X3.75Y-5.65
X3.75Y-5.8469
X3.9469Y-5.65
X3.9469Y-5.8469
T8
X6.6094Y-3.05
X7.2Y-3.05
X6.6094Y-5.25
X7.2Y-5.25
X6.6094Y-2.35
X7.2Y-2.35
X6.6094Y-4.0
X7.2Y-4.0
X6.6094Y-4.95
X7.2Y-4.95
X6.6094Y-4.3
X7.2Y-4.3
X6.6094Y-5.9
X7.2Y-5.9
X6.6094Y-3.35
X7.2Y-3.35
T9
X2.05Y-1.45
X2.05Y-1.6469
X2.05Y-1.8437
X2.05Y-2.0406
X2.05Y-2.2374
X2.05Y-2.4343
X2.05Y-2.6311
X2.05Y-2.828
X2.05Y-3.0248
X2.05Y-3.2217
X2.4063Y-1.1
X2.6031Y-1.1
X2.8Y-1.1
X2.05Y-1.0
X2.05Y-1.1969
T10
X7.55Y-2.4
X7.55Y-2.5969
X7.55Y-2.7937
X7.55Y-2.9906
X7.55Y-4.3
X7.55Y-4.4969
X7.55Y-4.6937
X7.55Y-4.8906
X7.55Y-3.35
X7.55Y-3.5469
X7.55Y-3.7437
X7.55Y-3.9406
X7.55Y-5.25
X7.55Y-5.4469
X7.55Y-5.6437
X7.55Y-5.8406
T11
X7.55Y-1.15
X7.55Y-1.375
X7.55Y-1.6
T0
M30
