G04 #@! TF.GenerationSoftware,KiCad,Pcbnew,(5.1.4)-1*
G04 #@! TF.CreationDate,2019-09-14T19:38:37+02:00*
G04 #@! TF.ProjectId,regulator board,72656775-6c61-4746-9f72-20626f617264,rev?*
G04 #@! TF.SameCoordinates,Original*
G04 #@! TF.FileFunction,Copper,L1,Top*
G04 #@! TF.FilePolarity,Positive*
%FSLAX46Y46*%
G04 Gerber Fmt 4.6, Leading zero omitted, Abs format (unit mm)*
G04 Created by KiCad (PCBNEW (5.1.4)-1) date 2019-09-14 19:38:37*
%MOMM*%
%LPD*%
G04 APERTURE LIST*
%ADD10C,2.300000*%
%ADD11R,2.300000X2.000000*%
%ADD12C,1.600000*%
%ADD13C,2.400000*%
%ADD14R,1.800000X1.800000*%
%ADD15C,1.800000*%
%ADD16C,0.100000*%
%ADD17C,2.000000*%
%ADD18O,3.600000X2.000000*%
%ADD19R,1.700000X1.700000*%
%ADD20O,1.700000X1.700000*%
%ADD21R,2.600000X2.600000*%
%ADD22C,2.600000*%
%ADD23O,1.400000X1.400000*%
%ADD24C,1.400000*%
%ADD25C,1.700000*%
%ADD26R,1.600000X1.600000*%
%ADD27O,1.600000X1.600000*%
%ADD28R,5.000000X5.000000*%
%ADD29R,2.000000X0.900000*%
%ADD30R,0.900000X2.000000*%
%ADD31R,4.500880X4.500880*%
%ADD32C,4.500880*%
%ADD33C,0.800000*%
%ADD34C,0.400000*%
%ADD35C,1.500000*%
G04 APERTURE END LIST*
D10*
X154750000Y-34250000D03*
X184150000Y-39450000D03*
D11*
X184150000Y-44450000D03*
D10*
X154750000Y-49650000D03*
D12*
X138430000Y-88900000D03*
X138430000Y-93900000D03*
X59690000Y-77550000D03*
X59690000Y-82550000D03*
X107950000Y-72390000D03*
X112950000Y-72390000D03*
X127254000Y-32512000D03*
X127254000Y-37512000D03*
X138430000Y-124540000D03*
X138430000Y-129540000D03*
X86360000Y-53420000D03*
X86360000Y-58420000D03*
D13*
X167880000Y-59690000D03*
X182880000Y-59690000D03*
X182880000Y-77470000D03*
X167880000Y-77470000D03*
X182880000Y-85090000D03*
X167880000Y-85090000D03*
X167880000Y-101600000D03*
X182880000Y-101600000D03*
X182880000Y-109220000D03*
X167880000Y-109220000D03*
X167880000Y-125730000D03*
X182880000Y-125730000D03*
X182880000Y-133350000D03*
X167880000Y-133350000D03*
X167880000Y-149860000D03*
X182880000Y-149860000D03*
D14*
X148590000Y-64770000D03*
D15*
X146050000Y-64770000D03*
X146050000Y-71120000D03*
D14*
X148590000Y-71120000D03*
X148590000Y-90170000D03*
D15*
X146050000Y-90170000D03*
X146050000Y-96520000D03*
D14*
X148590000Y-96520000D03*
X148590000Y-115570000D03*
D15*
X146050000Y-115570000D03*
X146050000Y-121920000D03*
D14*
X148590000Y-121920000D03*
D15*
X146050000Y-138430000D03*
D14*
X148590000Y-138430000D03*
X148590000Y-144780000D03*
D15*
X146050000Y-144780000D03*
D14*
X63500000Y-81280000D03*
D15*
X66040000Y-81280000D03*
D14*
X71120000Y-81280000D03*
D15*
X73660000Y-81280000D03*
X81280000Y-81280000D03*
D14*
X78740000Y-81280000D03*
X86360000Y-81280000D03*
D15*
X88900000Y-81280000D03*
D14*
X93980000Y-81280000D03*
D15*
X96520000Y-81280000D03*
X104140000Y-81280000D03*
D14*
X101600000Y-81280000D03*
D15*
X111760000Y-81280000D03*
D14*
X109220000Y-81280000D03*
D16*
G36*
X193344504Y-59961204D02*
G01*
X193368773Y-59964804D01*
X193392571Y-59970765D01*
X193415671Y-59979030D01*
X193437849Y-59989520D01*
X193458893Y-60002133D01*
X193478598Y-60016747D01*
X193496777Y-60033223D01*
X193513253Y-60051402D01*
X193527867Y-60071107D01*
X193540480Y-60092151D01*
X193550970Y-60114329D01*
X193559235Y-60137429D01*
X193565196Y-60161227D01*
X193568796Y-60185496D01*
X193570000Y-60210000D01*
X193570000Y-61710000D01*
X193568796Y-61734504D01*
X193565196Y-61758773D01*
X193559235Y-61782571D01*
X193550970Y-61805671D01*
X193540480Y-61827849D01*
X193527867Y-61848893D01*
X193513253Y-61868598D01*
X193496777Y-61886777D01*
X193478598Y-61903253D01*
X193458893Y-61917867D01*
X193437849Y-61930480D01*
X193415671Y-61940970D01*
X193392571Y-61949235D01*
X193368773Y-61955196D01*
X193344504Y-61958796D01*
X193320000Y-61960000D01*
X190220000Y-61960000D01*
X190195496Y-61958796D01*
X190171227Y-61955196D01*
X190147429Y-61949235D01*
X190124329Y-61940970D01*
X190102151Y-61930480D01*
X190081107Y-61917867D01*
X190061402Y-61903253D01*
X190043223Y-61886777D01*
X190026747Y-61868598D01*
X190012133Y-61848893D01*
X189999520Y-61827849D01*
X189989030Y-61805671D01*
X189980765Y-61782571D01*
X189974804Y-61758773D01*
X189971204Y-61734504D01*
X189970000Y-61710000D01*
X189970000Y-60210000D01*
X189971204Y-60185496D01*
X189974804Y-60161227D01*
X189980765Y-60137429D01*
X189989030Y-60114329D01*
X189999520Y-60092151D01*
X190012133Y-60071107D01*
X190026747Y-60051402D01*
X190043223Y-60033223D01*
X190061402Y-60016747D01*
X190081107Y-60002133D01*
X190102151Y-59989520D01*
X190124329Y-59979030D01*
X190147429Y-59970765D01*
X190171227Y-59964804D01*
X190195496Y-59961204D01*
X190220000Y-59960000D01*
X193320000Y-59960000D01*
X193344504Y-59961204D01*
X193344504Y-59961204D01*
G37*
D17*
X191770000Y-60960000D03*
D18*
X191770000Y-65960000D03*
X191770000Y-70960000D03*
X191770000Y-75960000D03*
D19*
X131064000Y-33020000D03*
D20*
X131064000Y-35560000D03*
X131064000Y-38100000D03*
X131064000Y-40640000D03*
D18*
X191770000Y-100090000D03*
X191770000Y-95090000D03*
X191770000Y-90090000D03*
D16*
G36*
X193344504Y-84091204D02*
G01*
X193368773Y-84094804D01*
X193392571Y-84100765D01*
X193415671Y-84109030D01*
X193437849Y-84119520D01*
X193458893Y-84132133D01*
X193478598Y-84146747D01*
X193496777Y-84163223D01*
X193513253Y-84181402D01*
X193527867Y-84201107D01*
X193540480Y-84222151D01*
X193550970Y-84244329D01*
X193559235Y-84267429D01*
X193565196Y-84291227D01*
X193568796Y-84315496D01*
X193570000Y-84340000D01*
X193570000Y-85840000D01*
X193568796Y-85864504D01*
X193565196Y-85888773D01*
X193559235Y-85912571D01*
X193550970Y-85935671D01*
X193540480Y-85957849D01*
X193527867Y-85978893D01*
X193513253Y-85998598D01*
X193496777Y-86016777D01*
X193478598Y-86033253D01*
X193458893Y-86047867D01*
X193437849Y-86060480D01*
X193415671Y-86070970D01*
X193392571Y-86079235D01*
X193368773Y-86085196D01*
X193344504Y-86088796D01*
X193320000Y-86090000D01*
X190220000Y-86090000D01*
X190195496Y-86088796D01*
X190171227Y-86085196D01*
X190147429Y-86079235D01*
X190124329Y-86070970D01*
X190102151Y-86060480D01*
X190081107Y-86047867D01*
X190061402Y-86033253D01*
X190043223Y-86016777D01*
X190026747Y-85998598D01*
X190012133Y-85978893D01*
X189999520Y-85957849D01*
X189989030Y-85935671D01*
X189980765Y-85912571D01*
X189974804Y-85888773D01*
X189971204Y-85864504D01*
X189970000Y-85840000D01*
X189970000Y-84340000D01*
X189971204Y-84315496D01*
X189974804Y-84291227D01*
X189980765Y-84267429D01*
X189989030Y-84244329D01*
X189999520Y-84222151D01*
X190012133Y-84201107D01*
X190026747Y-84181402D01*
X190043223Y-84163223D01*
X190061402Y-84146747D01*
X190081107Y-84132133D01*
X190102151Y-84119520D01*
X190124329Y-84109030D01*
X190147429Y-84100765D01*
X190171227Y-84094804D01*
X190195496Y-84091204D01*
X190220000Y-84090000D01*
X193320000Y-84090000D01*
X193344504Y-84091204D01*
X193344504Y-84091204D01*
G37*
D17*
X191770000Y-85090000D03*
D16*
G36*
X193344504Y-108221204D02*
G01*
X193368773Y-108224804D01*
X193392571Y-108230765D01*
X193415671Y-108239030D01*
X193437849Y-108249520D01*
X193458893Y-108262133D01*
X193478598Y-108276747D01*
X193496777Y-108293223D01*
X193513253Y-108311402D01*
X193527867Y-108331107D01*
X193540480Y-108352151D01*
X193550970Y-108374329D01*
X193559235Y-108397429D01*
X193565196Y-108421227D01*
X193568796Y-108445496D01*
X193570000Y-108470000D01*
X193570000Y-109970000D01*
X193568796Y-109994504D01*
X193565196Y-110018773D01*
X193559235Y-110042571D01*
X193550970Y-110065671D01*
X193540480Y-110087849D01*
X193527867Y-110108893D01*
X193513253Y-110128598D01*
X193496777Y-110146777D01*
X193478598Y-110163253D01*
X193458893Y-110177867D01*
X193437849Y-110190480D01*
X193415671Y-110200970D01*
X193392571Y-110209235D01*
X193368773Y-110215196D01*
X193344504Y-110218796D01*
X193320000Y-110220000D01*
X190220000Y-110220000D01*
X190195496Y-110218796D01*
X190171227Y-110215196D01*
X190147429Y-110209235D01*
X190124329Y-110200970D01*
X190102151Y-110190480D01*
X190081107Y-110177867D01*
X190061402Y-110163253D01*
X190043223Y-110146777D01*
X190026747Y-110128598D01*
X190012133Y-110108893D01*
X189999520Y-110087849D01*
X189989030Y-110065671D01*
X189980765Y-110042571D01*
X189974804Y-110018773D01*
X189971204Y-109994504D01*
X189970000Y-109970000D01*
X189970000Y-108470000D01*
X189971204Y-108445496D01*
X189974804Y-108421227D01*
X189980765Y-108397429D01*
X189989030Y-108374329D01*
X189999520Y-108352151D01*
X190012133Y-108331107D01*
X190026747Y-108311402D01*
X190043223Y-108293223D01*
X190061402Y-108276747D01*
X190081107Y-108262133D01*
X190102151Y-108249520D01*
X190124329Y-108239030D01*
X190147429Y-108230765D01*
X190171227Y-108224804D01*
X190195496Y-108221204D01*
X190220000Y-108220000D01*
X193320000Y-108220000D01*
X193344504Y-108221204D01*
X193344504Y-108221204D01*
G37*
D17*
X191770000Y-109220000D03*
D18*
X191770000Y-114220000D03*
X191770000Y-119220000D03*
X191770000Y-124220000D03*
D21*
X71120000Y-27940000D03*
D22*
X66120000Y-27940000D03*
X61120000Y-27940000D03*
D18*
X191770000Y-148350000D03*
X191770000Y-143350000D03*
X191770000Y-138350000D03*
D16*
G36*
X193344504Y-132351204D02*
G01*
X193368773Y-132354804D01*
X193392571Y-132360765D01*
X193415671Y-132369030D01*
X193437849Y-132379520D01*
X193458893Y-132392133D01*
X193478598Y-132406747D01*
X193496777Y-132423223D01*
X193513253Y-132441402D01*
X193527867Y-132461107D01*
X193540480Y-132482151D01*
X193550970Y-132504329D01*
X193559235Y-132527429D01*
X193565196Y-132551227D01*
X193568796Y-132575496D01*
X193570000Y-132600000D01*
X193570000Y-134100000D01*
X193568796Y-134124504D01*
X193565196Y-134148773D01*
X193559235Y-134172571D01*
X193550970Y-134195671D01*
X193540480Y-134217849D01*
X193527867Y-134238893D01*
X193513253Y-134258598D01*
X193496777Y-134276777D01*
X193478598Y-134293253D01*
X193458893Y-134307867D01*
X193437849Y-134320480D01*
X193415671Y-134330970D01*
X193392571Y-134339235D01*
X193368773Y-134345196D01*
X193344504Y-134348796D01*
X193320000Y-134350000D01*
X190220000Y-134350000D01*
X190195496Y-134348796D01*
X190171227Y-134345196D01*
X190147429Y-134339235D01*
X190124329Y-134330970D01*
X190102151Y-134320480D01*
X190081107Y-134307867D01*
X190061402Y-134293253D01*
X190043223Y-134276777D01*
X190026747Y-134258598D01*
X190012133Y-134238893D01*
X189999520Y-134217849D01*
X189989030Y-134195671D01*
X189980765Y-134172571D01*
X189974804Y-134148773D01*
X189971204Y-134124504D01*
X189970000Y-134100000D01*
X189970000Y-132600000D01*
X189971204Y-132575496D01*
X189974804Y-132551227D01*
X189980765Y-132527429D01*
X189989030Y-132504329D01*
X189999520Y-132482151D01*
X190012133Y-132461107D01*
X190026747Y-132441402D01*
X190043223Y-132423223D01*
X190061402Y-132406747D01*
X190081107Y-132392133D01*
X190102151Y-132379520D01*
X190124329Y-132369030D01*
X190147429Y-132360765D01*
X190171227Y-132354804D01*
X190195496Y-132351204D01*
X190220000Y-132350000D01*
X193320000Y-132350000D01*
X193344504Y-132351204D01*
X193344504Y-132351204D01*
G37*
D17*
X191770000Y-133350000D03*
D21*
X52070000Y-25400000D03*
D22*
X52070000Y-30400000D03*
D21*
X52070000Y-36830000D03*
D22*
X52070000Y-41830000D03*
X52070000Y-46830000D03*
X52070000Y-51830000D03*
X52070000Y-56830000D03*
X52070000Y-61830000D03*
X52070000Y-66830000D03*
X52070000Y-71830000D03*
X52070000Y-76830000D03*
X52070000Y-81830000D03*
D23*
X144780000Y-59690000D03*
D24*
X149860000Y-59690000D03*
X177800000Y-64770000D03*
D23*
X172720000Y-64770000D03*
D24*
X149860000Y-76200000D03*
D23*
X144780000Y-76200000D03*
D24*
X177800000Y-72390000D03*
D23*
X172720000Y-72390000D03*
X144780000Y-85090000D03*
D24*
X149860000Y-85090000D03*
D23*
X80010000Y-49530000D03*
D24*
X85090000Y-49530000D03*
X177800000Y-90170000D03*
D23*
X172720000Y-90170000D03*
D24*
X149860000Y-101600000D03*
D23*
X144780000Y-101600000D03*
D24*
X177800000Y-96520000D03*
D23*
X172720000Y-96520000D03*
X144780000Y-110490000D03*
D24*
X149860000Y-110490000D03*
X177800000Y-114300000D03*
D23*
X172720000Y-114300000D03*
D24*
X149860000Y-127000000D03*
D23*
X144780000Y-127000000D03*
X172720000Y-120650000D03*
D24*
X177800000Y-120650000D03*
D23*
X144780000Y-133350000D03*
D24*
X149860000Y-133350000D03*
D23*
X172720000Y-138430000D03*
D24*
X177800000Y-138430000D03*
X149860000Y-149860000D03*
D23*
X144780000Y-149860000D03*
D24*
X177800000Y-144780000D03*
D23*
X172720000Y-144780000D03*
X62230000Y-76200000D03*
D24*
X67310000Y-76200000D03*
X74930000Y-76200000D03*
D23*
X69850000Y-76200000D03*
X77470000Y-76200000D03*
D24*
X82550000Y-76200000D03*
X90170000Y-76200000D03*
D23*
X85090000Y-76200000D03*
D24*
X97790000Y-76200000D03*
D23*
X92710000Y-76200000D03*
X130810000Y-140970000D03*
D24*
X135890000Y-140970000D03*
D23*
X100330000Y-76200000D03*
D24*
X105410000Y-76200000D03*
D23*
X130810000Y-143510000D03*
D24*
X135890000Y-143510000D03*
X113030000Y-76200000D03*
D23*
X107950000Y-76200000D03*
X130810000Y-146050000D03*
D24*
X135890000Y-146050000D03*
D23*
X130810000Y-148590000D03*
D24*
X135890000Y-148590000D03*
D15*
X191132000Y-53982000D03*
X192532000Y-46482000D03*
D25*
X86510000Y-46410000D03*
X80010000Y-46410000D03*
X86510000Y-41910000D03*
X80010000Y-41910000D03*
X120396000Y-40640000D03*
X126896000Y-40640000D03*
X120396000Y-45140000D03*
X126896000Y-45140000D03*
D17*
X52070000Y-143510000D03*
X57070000Y-143510000D03*
X57070000Y-148510000D03*
X52070000Y-148510000D03*
X73660000Y-148510000D03*
X78660000Y-148510000D03*
X78660000Y-143510000D03*
X73660000Y-143510000D03*
X95250000Y-143510000D03*
X100250000Y-143510000D03*
X100250000Y-148510000D03*
X95250000Y-148510000D03*
X116840000Y-148510000D03*
X121840000Y-148510000D03*
X121840000Y-143510000D03*
X116840000Y-143510000D03*
D25*
X131170000Y-95250000D03*
X131170000Y-97790000D03*
X131170000Y-100330000D03*
X131170000Y-102870000D03*
X131170000Y-105410000D03*
X131170000Y-107950000D03*
X131170000Y-110490000D03*
X131170000Y-113030000D03*
X131170000Y-120650000D03*
X131170000Y-118110000D03*
X131170000Y-125730000D03*
X131170000Y-123190000D03*
X131170000Y-115570000D03*
X131170000Y-128270000D03*
X50170000Y-110490000D03*
X50170000Y-107950000D03*
X50170000Y-115490000D03*
X50170000Y-112950000D03*
D26*
X153670000Y-60960000D03*
D27*
X161290000Y-66040000D03*
X153670000Y-63500000D03*
X161290000Y-63500000D03*
X153670000Y-66040000D03*
X161290000Y-60960000D03*
D26*
X130810000Y-60960000D03*
D27*
X138430000Y-78740000D03*
X130810000Y-63500000D03*
X138430000Y-76200000D03*
X130810000Y-66040000D03*
X138430000Y-73660000D03*
X130810000Y-68580000D03*
X138430000Y-71120000D03*
X130810000Y-71120000D03*
X138430000Y-68580000D03*
X130810000Y-73660000D03*
X138430000Y-66040000D03*
X130810000Y-76200000D03*
X138430000Y-63500000D03*
X130810000Y-78740000D03*
X138430000Y-60960000D03*
X161290000Y-69850000D03*
X153670000Y-74930000D03*
X161290000Y-72390000D03*
X153670000Y-72390000D03*
X161290000Y-74930000D03*
D26*
X153670000Y-69850000D03*
X153670000Y-86360000D03*
D27*
X161290000Y-91440000D03*
X153670000Y-88900000D03*
X161290000Y-88900000D03*
X153670000Y-91440000D03*
X161290000Y-86360000D03*
X161290000Y-95250000D03*
X153670000Y-100330000D03*
X161290000Y-97790000D03*
X153670000Y-97790000D03*
X161290000Y-100330000D03*
D26*
X153670000Y-95250000D03*
D27*
X161290000Y-111760000D03*
X153670000Y-116840000D03*
X161290000Y-114300000D03*
X153670000Y-114300000D03*
X161290000Y-116840000D03*
D26*
X153670000Y-111760000D03*
D28*
X105680000Y-47505000D03*
D29*
X98180000Y-40005000D03*
X98180000Y-41275000D03*
X98180000Y-42545000D03*
X98180000Y-43815000D03*
X98180000Y-45085000D03*
X98180000Y-46355000D03*
X98180000Y-47625000D03*
X98180000Y-48895000D03*
X98180000Y-50165000D03*
X98180000Y-51435000D03*
X98180000Y-52705000D03*
X98180000Y-53975000D03*
X98180000Y-55245000D03*
X98180000Y-56515000D03*
D30*
X100965000Y-57515000D03*
X102235000Y-57515000D03*
X103505000Y-57515000D03*
X104775000Y-57515000D03*
X106045000Y-57515000D03*
X107315000Y-57515000D03*
X108585000Y-57515000D03*
X109855000Y-57515000D03*
X111125000Y-57515000D03*
X112395000Y-57515000D03*
D29*
X115180000Y-56515000D03*
X115180000Y-55245000D03*
X115180000Y-53975000D03*
X115180000Y-52705000D03*
X115180000Y-51435000D03*
X115180000Y-50165000D03*
X115180000Y-48895000D03*
X115180000Y-47625000D03*
X115180000Y-46355000D03*
X115180000Y-45085000D03*
X115180000Y-43815000D03*
X115180000Y-42545000D03*
X115180000Y-41275000D03*
X115180000Y-40005000D03*
D26*
X153670000Y-120650000D03*
D27*
X161290000Y-125730000D03*
X153670000Y-123190000D03*
X161290000Y-123190000D03*
X153670000Y-125730000D03*
X161290000Y-120650000D03*
X161290000Y-134620000D03*
X153670000Y-139700000D03*
X161290000Y-137160000D03*
X153670000Y-137160000D03*
X161290000Y-139700000D03*
D26*
X153670000Y-134620000D03*
X153670000Y-143510000D03*
D27*
X161290000Y-148590000D03*
X153670000Y-146050000D03*
X161290000Y-146050000D03*
X153670000Y-148590000D03*
X161290000Y-143510000D03*
X63500000Y-64770000D03*
X81280000Y-72390000D03*
X66040000Y-64770000D03*
X78740000Y-72390000D03*
X68580000Y-64770000D03*
X76200000Y-72390000D03*
X71120000Y-64770000D03*
X73660000Y-72390000D03*
X73660000Y-64770000D03*
X71120000Y-72390000D03*
X76200000Y-64770000D03*
X68580000Y-72390000D03*
X78740000Y-64770000D03*
X66040000Y-72390000D03*
X81280000Y-64770000D03*
D26*
X63500000Y-72390000D03*
X59690000Y-36830000D03*
D27*
X67310000Y-54610000D03*
X59690000Y-39370000D03*
X67310000Y-52070000D03*
X59690000Y-41910000D03*
X67310000Y-49530000D03*
X59690000Y-44450000D03*
X67310000Y-46990000D03*
X59690000Y-46990000D03*
X67310000Y-44450000D03*
X59690000Y-49530000D03*
X67310000Y-41910000D03*
X59690000Y-52070000D03*
X67310000Y-39370000D03*
X59690000Y-54610000D03*
X67310000Y-36830000D03*
D31*
X191770000Y-40640000D03*
D32*
X191770000Y-34925000D03*
X191770000Y-29210000D03*
D33*
X93843900Y-44221500D03*
X94792300Y-45284700D03*
X96446200Y-46355000D03*
X99939900Y-47625000D03*
X114850100Y-57713200D03*
X110633500Y-74377300D03*
X103238600Y-54283100D03*
X108312600Y-74591600D03*
X102179600Y-53328500D03*
X101785500Y-48895000D03*
X108919500Y-50527900D03*
X118946400Y-53643200D03*
X118046000Y-50255000D03*
X116894100Y-59569700D03*
X116539400Y-57906900D03*
X113429900Y-51435000D03*
X117660800Y-43521100D03*
X125205600Y-45546600D03*
X103613800Y-44074700D03*
D34*
X66040000Y-72390000D02*
X68580000Y-72390000D01*
X63500000Y-72390000D02*
X66040000Y-72390000D01*
X125427600Y-73736600D02*
X111266000Y-73736600D01*
X111266000Y-73736600D02*
X109919400Y-72390000D01*
X109919400Y-72390000D02*
X107950000Y-72390000D01*
X115180000Y-40005000D02*
X98180000Y-40005000D01*
X127254000Y-37512000D02*
X125600800Y-37512000D01*
X125600800Y-37512000D02*
X121122500Y-41990300D01*
X121122500Y-41990300D02*
X119776300Y-41990300D01*
X119776300Y-41990300D02*
X117791000Y-40005000D01*
X117791000Y-40005000D02*
X115180000Y-40005000D01*
X107819700Y-81280000D02*
X106410300Y-82689400D01*
X106410300Y-82689400D02*
X103009400Y-82689400D01*
X103009400Y-82689400D02*
X101600000Y-81280000D01*
X101600000Y-81280000D02*
X100199700Y-81280000D01*
X100199700Y-81280000D02*
X98795000Y-82684700D01*
X98795000Y-82684700D02*
X95384700Y-82684700D01*
X95384700Y-82684700D02*
X93980000Y-81280000D01*
X93980000Y-81280000D02*
X92579700Y-81280000D01*
X85659900Y-81280000D02*
X87060200Y-82680300D01*
X87060200Y-82680300D02*
X91179400Y-82680300D01*
X91179400Y-82680300D02*
X92579700Y-81280000D01*
X85659900Y-81280000D02*
X84959700Y-81280000D01*
X86360000Y-81280000D02*
X85659900Y-81280000D01*
X131064000Y-35560000D02*
X129206000Y-35560000D01*
X129206000Y-35560000D02*
X127254000Y-37512000D01*
X78740000Y-81280000D02*
X77339700Y-81280000D01*
X71120000Y-81280000D02*
X72520300Y-82680300D01*
X72520300Y-82680300D02*
X75939400Y-82680300D01*
X75939400Y-82680300D02*
X77339700Y-81280000D01*
X70419900Y-81280000D02*
X71120000Y-81280000D01*
X78740000Y-81280000D02*
X80140300Y-79879700D01*
X80140300Y-79879700D02*
X83559400Y-79879700D01*
X83559400Y-79879700D02*
X84959700Y-81280000D01*
X70419900Y-81280000D02*
X69719700Y-81280000D01*
X109220000Y-81280000D02*
X107819700Y-81280000D01*
X125427600Y-73736600D02*
X125427600Y-70122100D01*
X125427600Y-70122100D02*
X129509700Y-66040000D01*
X129509700Y-78740000D02*
X125427600Y-74657900D01*
X125427600Y-74657900D02*
X125427600Y-73736600D01*
X63500000Y-81280000D02*
X62099700Y-81280000D01*
X59690000Y-82550000D02*
X60829700Y-82550000D01*
X60829700Y-82550000D02*
X62099700Y-81280000D01*
X63500000Y-81280000D02*
X64900300Y-82680300D01*
X64900300Y-82680300D02*
X68319400Y-82680300D01*
X68319400Y-82680300D02*
X69719700Y-81280000D01*
X130810000Y-66040000D02*
X129509700Y-66040000D01*
X130810000Y-78740000D02*
X129509700Y-78740000D01*
X86360000Y-58420000D02*
X86955300Y-59015300D01*
X86955300Y-59015300D02*
X100965000Y-59015300D01*
X100965000Y-57515000D02*
X100965000Y-59015300D01*
X153670000Y-88900000D02*
X152369700Y-88900000D01*
X152369700Y-88900000D02*
X149652800Y-91616900D01*
X149652800Y-91616900D02*
X141146900Y-91616900D01*
X141146900Y-91616900D02*
X138430000Y-88900000D01*
X80010000Y-41910000D02*
X73629700Y-35529700D01*
X73629700Y-35529700D02*
X62290600Y-35529700D01*
X62290600Y-35529700D02*
X60990300Y-36830000D01*
X59690000Y-36830000D02*
X60990300Y-36830000D01*
X153670000Y-123190000D02*
X152369700Y-123190000D01*
X152369700Y-123190000D02*
X151019700Y-124540000D01*
X151019700Y-124540000D02*
X138430000Y-124540000D01*
X98180000Y-41275000D02*
X96679700Y-41275000D01*
X96673500Y-40546700D02*
X96673500Y-41268800D01*
X96673500Y-41268800D02*
X96679700Y-41275000D01*
X127254000Y-32512000D02*
X120911600Y-38854400D01*
X120911600Y-38854400D02*
X97159800Y-38854400D01*
X97159800Y-38854400D02*
X96673500Y-39340700D01*
X96673500Y-39340700D02*
X96673500Y-40546700D01*
X96673500Y-40546700D02*
X85090000Y-40546700D01*
X85090000Y-40546700D02*
X85090000Y-49530000D01*
X72920300Y-27940000D02*
X85090000Y-40109700D01*
X85090000Y-40109700D02*
X85090000Y-40546700D01*
X59690000Y-77550000D02*
X59690000Y-69880300D01*
X59690000Y-69880300D02*
X63500000Y-66070300D01*
X71120000Y-27940000D02*
X72920300Y-27940000D01*
X132526900Y-128270000D02*
X132526900Y-111846900D01*
X132526900Y-111846900D02*
X131170000Y-110490000D01*
X132526900Y-128270000D02*
X137160000Y-128270000D01*
X137160000Y-128270000D02*
X138430000Y-129540000D01*
X131170000Y-128270000D02*
X132526900Y-128270000D01*
X116840000Y-143510000D02*
X115339600Y-145010400D01*
X115339600Y-145010400D02*
X96750400Y-145010400D01*
X96750400Y-145010400D02*
X95250000Y-143510000D01*
X63500000Y-64770000D02*
X63500000Y-66070300D01*
X52070000Y-25400000D02*
X52070000Y-27200300D01*
X59690000Y-39370000D02*
X53870300Y-33550300D01*
X53870300Y-33550300D02*
X53870300Y-29000600D01*
X53870300Y-29000600D02*
X52070000Y-27200300D01*
X138430000Y-93900000D02*
X138430000Y-103230000D01*
X138430000Y-103230000D02*
X131170000Y-110490000D01*
X129509700Y-60960000D02*
X118079700Y-72390000D01*
X118079700Y-72390000D02*
X112950000Y-72390000D01*
X130810000Y-60960000D02*
X129509700Y-60960000D01*
X73660000Y-143510000D02*
X75160400Y-145010400D01*
X75160400Y-145010400D02*
X93749600Y-145010400D01*
X93749600Y-145010400D02*
X95250000Y-143510000D01*
X73660000Y-143510000D02*
X72114400Y-145055600D01*
X72114400Y-145055600D02*
X53615600Y-145055600D01*
X53615600Y-145055600D02*
X52070000Y-143510000D01*
X130810000Y-60960000D02*
X138430000Y-60960000D01*
D35*
X182880000Y-77470000D02*
X182880000Y-85090000D01*
X191770000Y-114220000D02*
X187880000Y-114220000D01*
X187880000Y-114220000D02*
X182880000Y-109220000D01*
X191770000Y-34925000D02*
X188675000Y-34925000D01*
X188675000Y-34925000D02*
X184150000Y-39450000D01*
X172720000Y-144780000D02*
X172720000Y-147030300D01*
X172720000Y-147030300D02*
X170709700Y-147030300D01*
X170709700Y-147030300D02*
X167880000Y-149860000D01*
D34*
X148590000Y-64770000D02*
X148590000Y-63369700D01*
X153670000Y-60960000D02*
X152369700Y-60960000D01*
X152369700Y-60960000D02*
X149960000Y-63369700D01*
X149960000Y-63369700D02*
X148590000Y-63369700D01*
X148590000Y-71120000D02*
X149990300Y-71120000D01*
X153670000Y-69850000D02*
X151260300Y-69850000D01*
X151260300Y-69850000D02*
X149990300Y-71120000D01*
X148590000Y-90170000D02*
X148590000Y-88769700D01*
X153670000Y-86360000D02*
X152369700Y-86360000D01*
X152369700Y-86360000D02*
X149960000Y-88769700D01*
X149960000Y-88769700D02*
X148590000Y-88769700D01*
X149860000Y-85090000D02*
X146050000Y-88900000D01*
X146050000Y-88900000D02*
X146050000Y-90170000D01*
X149860000Y-101600000D02*
X146050000Y-97790000D01*
X146050000Y-97790000D02*
X146050000Y-96520000D01*
X148590000Y-96520000D02*
X149990300Y-96520000D01*
X153670000Y-95250000D02*
X151260300Y-95250000D01*
X151260300Y-95250000D02*
X149990300Y-96520000D01*
X148590000Y-115570000D02*
X148590000Y-114169700D01*
X153670000Y-111760000D02*
X152369700Y-111760000D01*
X152369700Y-111760000D02*
X149960000Y-114169700D01*
X149960000Y-114169700D02*
X148590000Y-114169700D01*
X148590000Y-121920000D02*
X149990300Y-121920000D01*
X153670000Y-120650000D02*
X151260300Y-120650000D01*
X151260300Y-120650000D02*
X149990300Y-121920000D01*
X148590000Y-138430000D02*
X148590000Y-137029700D01*
X153670000Y-134620000D02*
X152369700Y-134620000D01*
X152369700Y-134620000D02*
X149960000Y-137029700D01*
X149960000Y-137029700D02*
X148590000Y-137029700D01*
X148590000Y-144780000D02*
X149990300Y-144780000D01*
X153670000Y-143510000D02*
X151260300Y-143510000D01*
X151260300Y-143510000D02*
X149990300Y-144780000D01*
X149860000Y-149860000D02*
X146050000Y-146050000D01*
X146050000Y-146050000D02*
X146050000Y-144780000D01*
X97790000Y-76200000D02*
X97790000Y-80010000D01*
X97790000Y-80010000D02*
X96520000Y-81280000D01*
X105410000Y-76200000D02*
X104140000Y-77470000D01*
X104140000Y-77470000D02*
X104140000Y-81280000D01*
D35*
X161290000Y-66040000D02*
X163640300Y-66040000D01*
X163640300Y-66040000D02*
X164622600Y-67022300D01*
X164622600Y-67022300D02*
X175547700Y-67022300D01*
X175547700Y-67022300D02*
X177800000Y-64770000D01*
X177800000Y-64770000D02*
X187960000Y-64770000D01*
X187960000Y-64770000D02*
X191770000Y-60960000D01*
X177800000Y-72390000D02*
X186989700Y-72390000D01*
X186989700Y-72390000D02*
X188419700Y-70960000D01*
X163640300Y-74930000D02*
X163850600Y-74719700D01*
X163850600Y-74719700D02*
X175470300Y-74719700D01*
X175470300Y-74719700D02*
X177800000Y-72390000D01*
X191770000Y-70960000D02*
X188419700Y-70960000D01*
X161290000Y-74930000D02*
X163640300Y-74930000D01*
X184150000Y-44450000D02*
X186850300Y-44450000D01*
X192532000Y-46482000D02*
X188882300Y-46482000D01*
X188882300Y-46482000D02*
X186850300Y-44450000D01*
D34*
X115180000Y-43815000D02*
X116680300Y-43815000D01*
X116680300Y-43815000D02*
X117317000Y-44451700D01*
X117317000Y-44451700D02*
X118007400Y-44451700D01*
X118007400Y-44451700D02*
X119768500Y-42690600D01*
X119768500Y-42690600D02*
X122101400Y-42690600D01*
X122101400Y-42690600D02*
X125737200Y-39054800D01*
X125737200Y-39054800D02*
X128758900Y-39054800D01*
X128758900Y-39054800D02*
X129713700Y-38100000D01*
X131064000Y-38100000D02*
X129713700Y-38100000D01*
X115180000Y-45085000D02*
X116680300Y-45085000D01*
X116680300Y-45085000D02*
X116753000Y-45157700D01*
X116753000Y-45157700D02*
X118291700Y-45157700D01*
X118291700Y-45157700D02*
X119659800Y-43789600D01*
X119659800Y-43789600D02*
X126564100Y-43789600D01*
X126564100Y-43789600D02*
X129713700Y-40640000D01*
X131064000Y-40640000D02*
X129713700Y-40640000D01*
D35*
X177800000Y-96520000D02*
X186989700Y-96520000D01*
X186989700Y-96520000D02*
X188419700Y-95090000D01*
X163640300Y-100330000D02*
X165128500Y-98841800D01*
X165128500Y-98841800D02*
X175478200Y-98841800D01*
X175478200Y-98841800D02*
X177800000Y-96520000D01*
X191770000Y-95090000D02*
X188419700Y-95090000D01*
X161290000Y-100330000D02*
X163640300Y-100330000D01*
X161290000Y-91440000D02*
X163640300Y-91440000D01*
X163640300Y-91440000D02*
X164652300Y-92452000D01*
X164652300Y-92452000D02*
X175518000Y-92452000D01*
X175518000Y-92452000D02*
X177800000Y-90170000D01*
X191770000Y-85090000D02*
X186690000Y-90170000D01*
X186690000Y-90170000D02*
X177800000Y-90170000D01*
X161290000Y-116840000D02*
X175260000Y-116840000D01*
X175260000Y-116840000D02*
X177800000Y-114300000D01*
X177800000Y-120650000D02*
X186989700Y-120650000D01*
X186989700Y-120650000D02*
X188419700Y-119220000D01*
X163640300Y-125730000D02*
X166416800Y-122953500D01*
X166416800Y-122953500D02*
X175496500Y-122953500D01*
X175496500Y-122953500D02*
X177800000Y-120650000D01*
X191770000Y-119220000D02*
X188419700Y-119220000D01*
X161290000Y-125730000D02*
X163640300Y-125730000D01*
D34*
X66120000Y-27940000D02*
X67920400Y-29740400D01*
X67920400Y-29740400D02*
X69819000Y-29740400D01*
X69819000Y-29740400D02*
X81385000Y-41306400D01*
X81385000Y-41306400D02*
X81385000Y-42535100D01*
X81385000Y-42535100D02*
X78630300Y-45289800D01*
X78630300Y-45289800D02*
X78630300Y-49855800D01*
X78630300Y-49855800D02*
X80285900Y-51511400D01*
X80285900Y-51511400D02*
X91529200Y-51511400D01*
X91529200Y-51511400D02*
X93992800Y-53975000D01*
X93992800Y-53975000D02*
X98180000Y-53975000D01*
D35*
X191770000Y-143350000D02*
X188419700Y-143350000D01*
X177800000Y-144780000D02*
X186989700Y-144780000D01*
X186989700Y-144780000D02*
X188419700Y-143350000D01*
X191770000Y-133350000D02*
X186690000Y-138430000D01*
X186690000Y-138430000D02*
X177800000Y-138430000D01*
X163640300Y-139700000D02*
X164621600Y-140681300D01*
X164621600Y-140681300D02*
X175548700Y-140681300D01*
X175548700Y-140681300D02*
X177800000Y-138430000D01*
X161290000Y-139700000D02*
X163640300Y-139700000D01*
D34*
X59690000Y-46990000D02*
X57230000Y-46990000D01*
X57230000Y-46990000D02*
X52070000Y-41830000D01*
X59690000Y-49530000D02*
X54770000Y-49530000D01*
X54770000Y-49530000D02*
X52070000Y-46830000D01*
X59690000Y-52070000D02*
X52310000Y-52070000D01*
X52310000Y-52070000D02*
X52070000Y-51830000D01*
X66009700Y-54610000D02*
X64338500Y-54610000D01*
X64338500Y-54610000D02*
X62118500Y-56830000D01*
X62118500Y-56830000D02*
X52070000Y-56830000D01*
X67310000Y-54610000D02*
X66009700Y-54610000D01*
X67310000Y-52070000D02*
X68646400Y-53406400D01*
X68646400Y-53406400D02*
X68646400Y-55129400D01*
X68646400Y-55129400D02*
X66802800Y-56973000D01*
X66802800Y-56973000D02*
X63061600Y-56973000D01*
X63061600Y-56973000D02*
X58204600Y-61830000D01*
X58204600Y-61830000D02*
X52070000Y-61830000D01*
X52070000Y-66830000D02*
X55089400Y-66830000D01*
X55089400Y-66830000D02*
X64246100Y-57673300D01*
X64246100Y-57673300D02*
X67093200Y-57673300D01*
X67093200Y-57673300D02*
X69346800Y-55419700D01*
X69346800Y-55419700D02*
X69346800Y-51566800D01*
X69346800Y-51566800D02*
X67310000Y-49530000D01*
X67310000Y-46990000D02*
X70050800Y-49730800D01*
X70050800Y-49730800D02*
X70050800Y-55718500D01*
X70050800Y-55718500D02*
X66345100Y-59424200D01*
X66345100Y-59424200D02*
X64035200Y-59424200D01*
X64035200Y-59424200D02*
X52070000Y-71389400D01*
X52070000Y-71389400D02*
X52070000Y-71830000D01*
X98180000Y-56515000D02*
X70802000Y-56515000D01*
X70802000Y-56515000D02*
X67192500Y-60124500D01*
X67192500Y-60124500D02*
X64325500Y-60124500D01*
X64325500Y-60124500D02*
X54467500Y-69982500D01*
X54467500Y-69982500D02*
X54467500Y-74432500D01*
X54467500Y-74432500D02*
X52070000Y-76830000D01*
X102235000Y-57515000D02*
X102235000Y-59015300D01*
X102235000Y-59015300D02*
X101529900Y-59720400D01*
X101529900Y-59720400D02*
X69577100Y-59720400D01*
X69577100Y-59720400D02*
X68122600Y-61174900D01*
X68122600Y-61174900D02*
X64265500Y-61174900D01*
X64265500Y-61174900D02*
X55269600Y-70170800D01*
X55269600Y-70170800D02*
X55269600Y-78630400D01*
X55269600Y-78630400D02*
X52070000Y-81830000D01*
X144780000Y-76200000D02*
X143579700Y-76200000D01*
X130810000Y-71120000D02*
X135977200Y-76287200D01*
X135977200Y-76287200D02*
X135977200Y-78154200D01*
X135977200Y-78154200D02*
X137882500Y-80059500D01*
X137882500Y-80059500D02*
X139720200Y-80059500D01*
X139720200Y-80059500D02*
X143579700Y-76200000D01*
X144780000Y-85090000D02*
X141922500Y-85090000D01*
X141922500Y-85090000D02*
X130810000Y-73977500D01*
X130810000Y-73977500D02*
X130810000Y-73660000D01*
X87873800Y-42545000D02*
X98180000Y-42545000D01*
X86510000Y-41910000D02*
X87145000Y-42545000D01*
X87145000Y-42545000D02*
X87873800Y-42545000D01*
X87873800Y-42545000D02*
X87873800Y-48462400D01*
X87873800Y-48462400D02*
X85605300Y-50730900D01*
X85605300Y-50730900D02*
X82411200Y-50730900D01*
X82411200Y-50730900D02*
X81210300Y-49530000D01*
X80010000Y-49530000D02*
X81210300Y-49530000D01*
X62230000Y-76200000D02*
X63430300Y-76200000D01*
X71120000Y-72390000D02*
X68919300Y-74590700D01*
X68919300Y-74590700D02*
X65039600Y-74590700D01*
X65039600Y-74590700D02*
X63430300Y-76200000D01*
X77470000Y-76200000D02*
X77470000Y-74999700D01*
X76200000Y-72390000D02*
X76200000Y-73729700D01*
X76200000Y-73729700D02*
X77470000Y-74999700D01*
X85090000Y-76200000D02*
X83889700Y-76200000D01*
X78740000Y-72390000D02*
X80416800Y-74066800D01*
X80416800Y-74066800D02*
X82129500Y-74066800D01*
X82129500Y-74066800D02*
X83889700Y-75827000D01*
X83889700Y-75827000D02*
X83889700Y-76200000D01*
X92710000Y-76200000D02*
X91509700Y-76200000D01*
X81280000Y-64770000D02*
X81280000Y-66070300D01*
X81280000Y-66070300D02*
X81753000Y-66070300D01*
X81753000Y-66070300D02*
X91509700Y-75827000D01*
X91509700Y-75827000D02*
X91509700Y-76200000D01*
X130810000Y-140970000D02*
X129609700Y-140970000D01*
X57070000Y-143510000D02*
X59610000Y-140970000D01*
X59610000Y-140970000D02*
X129609700Y-140970000D01*
X98180000Y-43815000D02*
X94250400Y-43815000D01*
X94250400Y-43815000D02*
X93843900Y-44221500D01*
X100330000Y-76200000D02*
X99129700Y-76200000D01*
X78740000Y-64770000D02*
X80051500Y-63458500D01*
X80051500Y-63458500D02*
X86761200Y-63458500D01*
X86761200Y-63458500D02*
X99129700Y-75827000D01*
X99129700Y-75827000D02*
X99129700Y-76200000D01*
X96679700Y-45085000D02*
X96480000Y-45284700D01*
X96480000Y-45284700D02*
X94792300Y-45284700D01*
X98180000Y-45085000D02*
X96679700Y-45085000D01*
X106749700Y-76200000D02*
X106749700Y-75827000D01*
X106749700Y-75827000D02*
X93680800Y-62758100D01*
X93680800Y-62758100D02*
X78211900Y-62758100D01*
X78211900Y-62758100D02*
X76200000Y-64770000D01*
X107950000Y-76200000D02*
X106749700Y-76200000D01*
X130810000Y-146050000D02*
X129609700Y-146050000D01*
X100250000Y-143510000D02*
X101758800Y-142001200D01*
X101758800Y-142001200D02*
X125560900Y-142001200D01*
X125560900Y-142001200D02*
X129609700Y-146050000D01*
X96679700Y-46355000D02*
X96446200Y-46355000D01*
X98180000Y-46355000D02*
X96679700Y-46355000D01*
X98180000Y-47625000D02*
X99939900Y-47625000D01*
X121840000Y-143510000D02*
X126920000Y-148590000D01*
X126920000Y-148590000D02*
X130810000Y-148590000D01*
X115180000Y-56515000D02*
X114850100Y-56844900D01*
X114850100Y-56844900D02*
X114850100Y-57713200D01*
X110633500Y-74377300D02*
X110633500Y-75922000D01*
X110633500Y-75922000D02*
X113860800Y-79149300D01*
X113860800Y-79149300D02*
X113860800Y-80251000D01*
X113860800Y-80251000D02*
X128859800Y-95250000D01*
X128859800Y-95250000D02*
X131170000Y-95250000D01*
X98180000Y-51435000D02*
X101574700Y-51435000D01*
X101574700Y-51435000D02*
X103238600Y-53098900D01*
X103238600Y-53098900D02*
X103238600Y-54283100D01*
X108312600Y-74591600D02*
X113160400Y-79439400D01*
X113160400Y-79439400D02*
X113160400Y-80541100D01*
X113160400Y-80541100D02*
X130409300Y-97790000D01*
X130409300Y-97790000D02*
X131170000Y-97790000D01*
X98180000Y-52705000D02*
X101556100Y-52705000D01*
X101556100Y-52705000D02*
X102179600Y-53328500D01*
X98180000Y-48895000D02*
X101785500Y-48895000D01*
X99680300Y-50165000D02*
X100043200Y-50527900D01*
X100043200Y-50527900D02*
X108919500Y-50527900D01*
X98180000Y-50165000D02*
X99680300Y-50165000D01*
X115180000Y-50165000D02*
X116680300Y-50165000D01*
X116680300Y-50165000D02*
X116680300Y-51377100D01*
X116680300Y-51377100D02*
X118946400Y-53643200D01*
X131170000Y-105410000D02*
X52710000Y-105410000D01*
X52710000Y-105410000D02*
X50170000Y-107950000D01*
X116680300Y-48895000D02*
X118040300Y-50255000D01*
X118040300Y-50255000D02*
X118046000Y-50255000D01*
X50170000Y-110490000D02*
X52710000Y-107950000D01*
X52710000Y-107950000D02*
X131170000Y-107950000D01*
X115180000Y-48895000D02*
X116680300Y-48895000D01*
X116680300Y-52705000D02*
X117452400Y-53477100D01*
X117452400Y-53477100D02*
X117452400Y-59011400D01*
X117452400Y-59011400D02*
X116894100Y-59569700D01*
X115180000Y-52705000D02*
X116680300Y-52705000D01*
X115180000Y-53975000D02*
X116680300Y-53975000D01*
X116680300Y-53975000D02*
X116680300Y-57766000D01*
X116680300Y-57766000D02*
X116539400Y-57906900D01*
X113679700Y-51435000D02*
X113429900Y-51435000D01*
X115180000Y-51435000D02*
X113679700Y-51435000D01*
X115180000Y-41275000D02*
X116680300Y-41275000D01*
X116680300Y-41275000D02*
X116680300Y-42540600D01*
X116680300Y-42540600D02*
X117660800Y-43521100D01*
X50170000Y-112950000D02*
X128550000Y-112950000D01*
X128550000Y-112950000D02*
X131170000Y-115570000D01*
X50170000Y-115490000D02*
X48812100Y-114132100D01*
X48812100Y-114132100D02*
X48812100Y-104044700D01*
X48812100Y-104044700D02*
X58389600Y-94467200D01*
X58389600Y-94467200D02*
X58389600Y-68041300D01*
X58389600Y-68041300D02*
X64205500Y-62225400D01*
X64205500Y-62225400D02*
X68557400Y-62225400D01*
X68557400Y-62225400D02*
X69607900Y-61174900D01*
X69607900Y-61174900D02*
X110902200Y-61174900D01*
X110902200Y-61174900D02*
X113679700Y-58397400D01*
X113679700Y-58397400D02*
X113679700Y-55245000D01*
X115180000Y-55245000D02*
X113679700Y-55245000D01*
X125205600Y-45546600D02*
X128133300Y-48474300D01*
X128133300Y-48474300D02*
X128780600Y-48474300D01*
X128780600Y-48474300D02*
X140440400Y-60134100D01*
X140440400Y-60134100D02*
X140440400Y-64029600D01*
X140440400Y-64029600D02*
X138430000Y-66040000D01*
X103613800Y-44074700D02*
X105143500Y-42545000D01*
X105143500Y-42545000D02*
X115180000Y-42545000D01*
X66040000Y-64770000D02*
X67884300Y-62925700D01*
X67884300Y-62925700D02*
X68847500Y-62925700D01*
X68847500Y-62925700D02*
X69898000Y-61875200D01*
X69898000Y-61875200D02*
X116001700Y-61875200D01*
X116001700Y-61875200D02*
X121554400Y-56322500D01*
X121554400Y-56322500D02*
X135631500Y-56322500D01*
X135631500Y-56322500D02*
X139730400Y-60421400D01*
X139730400Y-60421400D02*
X139730400Y-62199600D01*
X139730400Y-62199600D02*
X138430000Y-63500000D01*
X121554400Y-56322500D02*
X121554400Y-51229100D01*
X121554400Y-51229100D02*
X116680300Y-46355000D01*
X115180000Y-46355000D02*
X116680300Y-46355000D01*
M02*
