G04 #@! TF.GenerationSoftware,KiCad,Pcbnew,(5.1.4)-1*
G04 #@! TF.CreationDate,2019-09-14T19:38:37+02:00*
G04 #@! TF.ProjectId,regulator board,72656775-6c61-4746-9f72-20626f617264,rev?*
G04 #@! TF.SameCoordinates,Original*
G04 #@! TF.FileFunction,Copper,L2,Bot*
G04 #@! TF.FilePolarity,Positive*
%FSLAX46Y46*%
G04 Gerber Fmt 4.6, Leading zero omitted, Abs format (unit mm)*
G04 Created by KiCad (PCBNEW (5.1.4)-1) date 2019-09-14 19:38:37*
%MOMM*%
%LPD*%
G04 APERTURE LIST*
%ADD10C,2.300000*%
%ADD11R,2.300000X2.000000*%
%ADD12C,1.600000*%
%ADD13C,2.400000*%
%ADD14R,1.800000X1.800000*%
%ADD15C,1.800000*%
%ADD16C,0.100000*%
%ADD17C,2.000000*%
%ADD18O,3.600000X2.000000*%
%ADD19R,1.700000X1.700000*%
%ADD20O,1.700000X1.700000*%
%ADD21R,2.600000X2.600000*%
%ADD22C,2.600000*%
%ADD23O,1.400000X1.400000*%
%ADD24C,1.400000*%
%ADD25C,1.700000*%
%ADD26R,1.600000X1.600000*%
%ADD27O,1.600000X1.600000*%
%ADD28R,4.500880X4.500880*%
%ADD29C,4.500880*%
%ADD30C,0.800000*%
%ADD31C,0.400000*%
%ADD32C,1.500000*%
G04 APERTURE END LIST*
D10*
X154750000Y-34250000D03*
X184150000Y-39450000D03*
D11*
X184150000Y-44450000D03*
D10*
X154750000Y-49650000D03*
D12*
X138430000Y-88900000D03*
X138430000Y-93900000D03*
X59690000Y-77550000D03*
X59690000Y-82550000D03*
X107950000Y-72390000D03*
X112950000Y-72390000D03*
X127254000Y-32512000D03*
X127254000Y-37512000D03*
X138430000Y-124540000D03*
X138430000Y-129540000D03*
X86360000Y-53420000D03*
X86360000Y-58420000D03*
D13*
X167880000Y-59690000D03*
X182880000Y-59690000D03*
X182880000Y-77470000D03*
X167880000Y-77470000D03*
X182880000Y-85090000D03*
X167880000Y-85090000D03*
X167880000Y-101600000D03*
X182880000Y-101600000D03*
X182880000Y-109220000D03*
X167880000Y-109220000D03*
X167880000Y-125730000D03*
X182880000Y-125730000D03*
X182880000Y-133350000D03*
X167880000Y-133350000D03*
X167880000Y-149860000D03*
X182880000Y-149860000D03*
D14*
X148590000Y-64770000D03*
D15*
X146050000Y-64770000D03*
X146050000Y-71120000D03*
D14*
X148590000Y-71120000D03*
X148590000Y-90170000D03*
D15*
X146050000Y-90170000D03*
X146050000Y-96520000D03*
D14*
X148590000Y-96520000D03*
X148590000Y-115570000D03*
D15*
X146050000Y-115570000D03*
X146050000Y-121920000D03*
D14*
X148590000Y-121920000D03*
D15*
X146050000Y-138430000D03*
D14*
X148590000Y-138430000D03*
X148590000Y-144780000D03*
D15*
X146050000Y-144780000D03*
D14*
X63500000Y-81280000D03*
D15*
X66040000Y-81280000D03*
D14*
X71120000Y-81280000D03*
D15*
X73660000Y-81280000D03*
X81280000Y-81280000D03*
D14*
X78740000Y-81280000D03*
X86360000Y-81280000D03*
D15*
X88900000Y-81280000D03*
D14*
X93980000Y-81280000D03*
D15*
X96520000Y-81280000D03*
X104140000Y-81280000D03*
D14*
X101600000Y-81280000D03*
D15*
X111760000Y-81280000D03*
D14*
X109220000Y-81280000D03*
D16*
G36*
X193344504Y-59961204D02*
G01*
X193368773Y-59964804D01*
X193392571Y-59970765D01*
X193415671Y-59979030D01*
X193437849Y-59989520D01*
X193458893Y-60002133D01*
X193478598Y-60016747D01*
X193496777Y-60033223D01*
X193513253Y-60051402D01*
X193527867Y-60071107D01*
X193540480Y-60092151D01*
X193550970Y-60114329D01*
X193559235Y-60137429D01*
X193565196Y-60161227D01*
X193568796Y-60185496D01*
X193570000Y-60210000D01*
X193570000Y-61710000D01*
X193568796Y-61734504D01*
X193565196Y-61758773D01*
X193559235Y-61782571D01*
X193550970Y-61805671D01*
X193540480Y-61827849D01*
X193527867Y-61848893D01*
X193513253Y-61868598D01*
X193496777Y-61886777D01*
X193478598Y-61903253D01*
X193458893Y-61917867D01*
X193437849Y-61930480D01*
X193415671Y-61940970D01*
X193392571Y-61949235D01*
X193368773Y-61955196D01*
X193344504Y-61958796D01*
X193320000Y-61960000D01*
X190220000Y-61960000D01*
X190195496Y-61958796D01*
X190171227Y-61955196D01*
X190147429Y-61949235D01*
X190124329Y-61940970D01*
X190102151Y-61930480D01*
X190081107Y-61917867D01*
X190061402Y-61903253D01*
X190043223Y-61886777D01*
X190026747Y-61868598D01*
X190012133Y-61848893D01*
X189999520Y-61827849D01*
X189989030Y-61805671D01*
X189980765Y-61782571D01*
X189974804Y-61758773D01*
X189971204Y-61734504D01*
X189970000Y-61710000D01*
X189970000Y-60210000D01*
X189971204Y-60185496D01*
X189974804Y-60161227D01*
X189980765Y-60137429D01*
X189989030Y-60114329D01*
X189999520Y-60092151D01*
X190012133Y-60071107D01*
X190026747Y-60051402D01*
X190043223Y-60033223D01*
X190061402Y-60016747D01*
X190081107Y-60002133D01*
X190102151Y-59989520D01*
X190124329Y-59979030D01*
X190147429Y-59970765D01*
X190171227Y-59964804D01*
X190195496Y-59961204D01*
X190220000Y-59960000D01*
X193320000Y-59960000D01*
X193344504Y-59961204D01*
X193344504Y-59961204D01*
G37*
D17*
X191770000Y-60960000D03*
D18*
X191770000Y-65960000D03*
X191770000Y-70960000D03*
X191770000Y-75960000D03*
D19*
X131064000Y-33020000D03*
D20*
X131064000Y-35560000D03*
X131064000Y-38100000D03*
X131064000Y-40640000D03*
D18*
X191770000Y-100090000D03*
X191770000Y-95090000D03*
X191770000Y-90090000D03*
D16*
G36*
X193344504Y-84091204D02*
G01*
X193368773Y-84094804D01*
X193392571Y-84100765D01*
X193415671Y-84109030D01*
X193437849Y-84119520D01*
X193458893Y-84132133D01*
X193478598Y-84146747D01*
X193496777Y-84163223D01*
X193513253Y-84181402D01*
X193527867Y-84201107D01*
X193540480Y-84222151D01*
X193550970Y-84244329D01*
X193559235Y-84267429D01*
X193565196Y-84291227D01*
X193568796Y-84315496D01*
X193570000Y-84340000D01*
X193570000Y-85840000D01*
X193568796Y-85864504D01*
X193565196Y-85888773D01*
X193559235Y-85912571D01*
X193550970Y-85935671D01*
X193540480Y-85957849D01*
X193527867Y-85978893D01*
X193513253Y-85998598D01*
X193496777Y-86016777D01*
X193478598Y-86033253D01*
X193458893Y-86047867D01*
X193437849Y-86060480D01*
X193415671Y-86070970D01*
X193392571Y-86079235D01*
X193368773Y-86085196D01*
X193344504Y-86088796D01*
X193320000Y-86090000D01*
X190220000Y-86090000D01*
X190195496Y-86088796D01*
X190171227Y-86085196D01*
X190147429Y-86079235D01*
X190124329Y-86070970D01*
X190102151Y-86060480D01*
X190081107Y-86047867D01*
X190061402Y-86033253D01*
X190043223Y-86016777D01*
X190026747Y-85998598D01*
X190012133Y-85978893D01*
X189999520Y-85957849D01*
X189989030Y-85935671D01*
X189980765Y-85912571D01*
X189974804Y-85888773D01*
X189971204Y-85864504D01*
X189970000Y-85840000D01*
X189970000Y-84340000D01*
X189971204Y-84315496D01*
X189974804Y-84291227D01*
X189980765Y-84267429D01*
X189989030Y-84244329D01*
X189999520Y-84222151D01*
X190012133Y-84201107D01*
X190026747Y-84181402D01*
X190043223Y-84163223D01*
X190061402Y-84146747D01*
X190081107Y-84132133D01*
X190102151Y-84119520D01*
X190124329Y-84109030D01*
X190147429Y-84100765D01*
X190171227Y-84094804D01*
X190195496Y-84091204D01*
X190220000Y-84090000D01*
X193320000Y-84090000D01*
X193344504Y-84091204D01*
X193344504Y-84091204D01*
G37*
D17*
X191770000Y-85090000D03*
D16*
G36*
X193344504Y-108221204D02*
G01*
X193368773Y-108224804D01*
X193392571Y-108230765D01*
X193415671Y-108239030D01*
X193437849Y-108249520D01*
X193458893Y-108262133D01*
X193478598Y-108276747D01*
X193496777Y-108293223D01*
X193513253Y-108311402D01*
X193527867Y-108331107D01*
X193540480Y-108352151D01*
X193550970Y-108374329D01*
X193559235Y-108397429D01*
X193565196Y-108421227D01*
X193568796Y-108445496D01*
X193570000Y-108470000D01*
X193570000Y-109970000D01*
X193568796Y-109994504D01*
X193565196Y-110018773D01*
X193559235Y-110042571D01*
X193550970Y-110065671D01*
X193540480Y-110087849D01*
X193527867Y-110108893D01*
X193513253Y-110128598D01*
X193496777Y-110146777D01*
X193478598Y-110163253D01*
X193458893Y-110177867D01*
X193437849Y-110190480D01*
X193415671Y-110200970D01*
X193392571Y-110209235D01*
X193368773Y-110215196D01*
X193344504Y-110218796D01*
X193320000Y-110220000D01*
X190220000Y-110220000D01*
X190195496Y-110218796D01*
X190171227Y-110215196D01*
X190147429Y-110209235D01*
X190124329Y-110200970D01*
X190102151Y-110190480D01*
X190081107Y-110177867D01*
X190061402Y-110163253D01*
X190043223Y-110146777D01*
X190026747Y-110128598D01*
X190012133Y-110108893D01*
X189999520Y-110087849D01*
X189989030Y-110065671D01*
X189980765Y-110042571D01*
X189974804Y-110018773D01*
X189971204Y-109994504D01*
X189970000Y-109970000D01*
X189970000Y-108470000D01*
X189971204Y-108445496D01*
X189974804Y-108421227D01*
X189980765Y-108397429D01*
X189989030Y-108374329D01*
X189999520Y-108352151D01*
X190012133Y-108331107D01*
X190026747Y-108311402D01*
X190043223Y-108293223D01*
X190061402Y-108276747D01*
X190081107Y-108262133D01*
X190102151Y-108249520D01*
X190124329Y-108239030D01*
X190147429Y-108230765D01*
X190171227Y-108224804D01*
X190195496Y-108221204D01*
X190220000Y-108220000D01*
X193320000Y-108220000D01*
X193344504Y-108221204D01*
X193344504Y-108221204D01*
G37*
D17*
X191770000Y-109220000D03*
D18*
X191770000Y-114220000D03*
X191770000Y-119220000D03*
X191770000Y-124220000D03*
D21*
X71120000Y-27940000D03*
D22*
X66120000Y-27940000D03*
X61120000Y-27940000D03*
D18*
X191770000Y-148350000D03*
X191770000Y-143350000D03*
X191770000Y-138350000D03*
D16*
G36*
X193344504Y-132351204D02*
G01*
X193368773Y-132354804D01*
X193392571Y-132360765D01*
X193415671Y-132369030D01*
X193437849Y-132379520D01*
X193458893Y-132392133D01*
X193478598Y-132406747D01*
X193496777Y-132423223D01*
X193513253Y-132441402D01*
X193527867Y-132461107D01*
X193540480Y-132482151D01*
X193550970Y-132504329D01*
X193559235Y-132527429D01*
X193565196Y-132551227D01*
X193568796Y-132575496D01*
X193570000Y-132600000D01*
X193570000Y-134100000D01*
X193568796Y-134124504D01*
X193565196Y-134148773D01*
X193559235Y-134172571D01*
X193550970Y-134195671D01*
X193540480Y-134217849D01*
X193527867Y-134238893D01*
X193513253Y-134258598D01*
X193496777Y-134276777D01*
X193478598Y-134293253D01*
X193458893Y-134307867D01*
X193437849Y-134320480D01*
X193415671Y-134330970D01*
X193392571Y-134339235D01*
X193368773Y-134345196D01*
X193344504Y-134348796D01*
X193320000Y-134350000D01*
X190220000Y-134350000D01*
X190195496Y-134348796D01*
X190171227Y-134345196D01*
X190147429Y-134339235D01*
X190124329Y-134330970D01*
X190102151Y-134320480D01*
X190081107Y-134307867D01*
X190061402Y-134293253D01*
X190043223Y-134276777D01*
X190026747Y-134258598D01*
X190012133Y-134238893D01*
X189999520Y-134217849D01*
X189989030Y-134195671D01*
X189980765Y-134172571D01*
X189974804Y-134148773D01*
X189971204Y-134124504D01*
X189970000Y-134100000D01*
X189970000Y-132600000D01*
X189971204Y-132575496D01*
X189974804Y-132551227D01*
X189980765Y-132527429D01*
X189989030Y-132504329D01*
X189999520Y-132482151D01*
X190012133Y-132461107D01*
X190026747Y-132441402D01*
X190043223Y-132423223D01*
X190061402Y-132406747D01*
X190081107Y-132392133D01*
X190102151Y-132379520D01*
X190124329Y-132369030D01*
X190147429Y-132360765D01*
X190171227Y-132354804D01*
X190195496Y-132351204D01*
X190220000Y-132350000D01*
X193320000Y-132350000D01*
X193344504Y-132351204D01*
X193344504Y-132351204D01*
G37*
D17*
X191770000Y-133350000D03*
D21*
X52070000Y-25400000D03*
D22*
X52070000Y-30400000D03*
D21*
X52070000Y-36830000D03*
D22*
X52070000Y-41830000D03*
X52070000Y-46830000D03*
X52070000Y-51830000D03*
X52070000Y-56830000D03*
X52070000Y-61830000D03*
X52070000Y-66830000D03*
X52070000Y-71830000D03*
X52070000Y-76830000D03*
X52070000Y-81830000D03*
D23*
X144780000Y-59690000D03*
D24*
X149860000Y-59690000D03*
X177800000Y-64770000D03*
D23*
X172720000Y-64770000D03*
D24*
X149860000Y-76200000D03*
D23*
X144780000Y-76200000D03*
D24*
X177800000Y-72390000D03*
D23*
X172720000Y-72390000D03*
X144780000Y-85090000D03*
D24*
X149860000Y-85090000D03*
D23*
X80010000Y-49530000D03*
D24*
X85090000Y-49530000D03*
X177800000Y-90170000D03*
D23*
X172720000Y-90170000D03*
D24*
X149860000Y-101600000D03*
D23*
X144780000Y-101600000D03*
D24*
X177800000Y-96520000D03*
D23*
X172720000Y-96520000D03*
X144780000Y-110490000D03*
D24*
X149860000Y-110490000D03*
X177800000Y-114300000D03*
D23*
X172720000Y-114300000D03*
D24*
X149860000Y-127000000D03*
D23*
X144780000Y-127000000D03*
X172720000Y-120650000D03*
D24*
X177800000Y-120650000D03*
D23*
X144780000Y-133350000D03*
D24*
X149860000Y-133350000D03*
D23*
X172720000Y-138430000D03*
D24*
X177800000Y-138430000D03*
X149860000Y-149860000D03*
D23*
X144780000Y-149860000D03*
D24*
X177800000Y-144780000D03*
D23*
X172720000Y-144780000D03*
X62230000Y-76200000D03*
D24*
X67310000Y-76200000D03*
X74930000Y-76200000D03*
D23*
X69850000Y-76200000D03*
X77470000Y-76200000D03*
D24*
X82550000Y-76200000D03*
X90170000Y-76200000D03*
D23*
X85090000Y-76200000D03*
D24*
X97790000Y-76200000D03*
D23*
X92710000Y-76200000D03*
X130810000Y-140970000D03*
D24*
X135890000Y-140970000D03*
D23*
X100330000Y-76200000D03*
D24*
X105410000Y-76200000D03*
D23*
X130810000Y-143510000D03*
D24*
X135890000Y-143510000D03*
X113030000Y-76200000D03*
D23*
X107950000Y-76200000D03*
X130810000Y-146050000D03*
D24*
X135890000Y-146050000D03*
D23*
X130810000Y-148590000D03*
D24*
X135890000Y-148590000D03*
D15*
X191132000Y-53982000D03*
X192532000Y-46482000D03*
D25*
X86510000Y-46410000D03*
X80010000Y-46410000D03*
X86510000Y-41910000D03*
X80010000Y-41910000D03*
X120396000Y-40640000D03*
X126896000Y-40640000D03*
X120396000Y-45140000D03*
X126896000Y-45140000D03*
D17*
X52070000Y-143510000D03*
X57070000Y-143510000D03*
X57070000Y-148510000D03*
X52070000Y-148510000D03*
X73660000Y-148510000D03*
X78660000Y-148510000D03*
X78660000Y-143510000D03*
X73660000Y-143510000D03*
X95250000Y-143510000D03*
X100250000Y-143510000D03*
X100250000Y-148510000D03*
X95250000Y-148510000D03*
X116840000Y-148510000D03*
X121840000Y-148510000D03*
X121840000Y-143510000D03*
X116840000Y-143510000D03*
D25*
X131170000Y-95250000D03*
X131170000Y-97790000D03*
X131170000Y-100330000D03*
X131170000Y-102870000D03*
X131170000Y-105410000D03*
X131170000Y-107950000D03*
X131170000Y-110490000D03*
X131170000Y-113030000D03*
X131170000Y-120650000D03*
X131170000Y-118110000D03*
X131170000Y-125730000D03*
X131170000Y-123190000D03*
X131170000Y-115570000D03*
X131170000Y-128270000D03*
X50170000Y-110490000D03*
X50170000Y-107950000D03*
X50170000Y-115490000D03*
X50170000Y-112950000D03*
D26*
X153670000Y-60960000D03*
D27*
X161290000Y-66040000D03*
X153670000Y-63500000D03*
X161290000Y-63500000D03*
X153670000Y-66040000D03*
X161290000Y-60960000D03*
D26*
X130810000Y-60960000D03*
D27*
X138430000Y-78740000D03*
X130810000Y-63500000D03*
X138430000Y-76200000D03*
X130810000Y-66040000D03*
X138430000Y-73660000D03*
X130810000Y-68580000D03*
X138430000Y-71120000D03*
X130810000Y-71120000D03*
X138430000Y-68580000D03*
X130810000Y-73660000D03*
X138430000Y-66040000D03*
X130810000Y-76200000D03*
X138430000Y-63500000D03*
X130810000Y-78740000D03*
X138430000Y-60960000D03*
X161290000Y-69850000D03*
X153670000Y-74930000D03*
X161290000Y-72390000D03*
X153670000Y-72390000D03*
X161290000Y-74930000D03*
D26*
X153670000Y-69850000D03*
X153670000Y-86360000D03*
D27*
X161290000Y-91440000D03*
X153670000Y-88900000D03*
X161290000Y-88900000D03*
X153670000Y-91440000D03*
X161290000Y-86360000D03*
X161290000Y-95250000D03*
X153670000Y-100330000D03*
X161290000Y-97790000D03*
X153670000Y-97790000D03*
X161290000Y-100330000D03*
D26*
X153670000Y-95250000D03*
D27*
X161290000Y-111760000D03*
X153670000Y-116840000D03*
X161290000Y-114300000D03*
X153670000Y-114300000D03*
X161290000Y-116840000D03*
D26*
X153670000Y-111760000D03*
X153670000Y-120650000D03*
D27*
X161290000Y-125730000D03*
X153670000Y-123190000D03*
X161290000Y-123190000D03*
X153670000Y-125730000D03*
X161290000Y-120650000D03*
X161290000Y-134620000D03*
X153670000Y-139700000D03*
X161290000Y-137160000D03*
X153670000Y-137160000D03*
X161290000Y-139700000D03*
D26*
X153670000Y-134620000D03*
X153670000Y-143510000D03*
D27*
X161290000Y-148590000D03*
X153670000Y-146050000D03*
X161290000Y-146050000D03*
X153670000Y-148590000D03*
X161290000Y-143510000D03*
X63500000Y-64770000D03*
X81280000Y-72390000D03*
X66040000Y-64770000D03*
X78740000Y-72390000D03*
X68580000Y-64770000D03*
X76200000Y-72390000D03*
X71120000Y-64770000D03*
X73660000Y-72390000D03*
X73660000Y-64770000D03*
X71120000Y-72390000D03*
X76200000Y-64770000D03*
X68580000Y-72390000D03*
X78740000Y-64770000D03*
X66040000Y-72390000D03*
X81280000Y-64770000D03*
D26*
X63500000Y-72390000D03*
X59690000Y-36830000D03*
D27*
X67310000Y-54610000D03*
X59690000Y-39370000D03*
X67310000Y-52070000D03*
X59690000Y-41910000D03*
X67310000Y-49530000D03*
X59690000Y-44450000D03*
X67310000Y-46990000D03*
X59690000Y-46990000D03*
X67310000Y-44450000D03*
X59690000Y-49530000D03*
X67310000Y-41910000D03*
X59690000Y-52070000D03*
X67310000Y-39370000D03*
X59690000Y-54610000D03*
X67310000Y-36830000D03*
D28*
X191770000Y-40640000D03*
D29*
X191770000Y-34925000D03*
X191770000Y-29210000D03*
D30*
X93843900Y-44221500D03*
X94792300Y-45284700D03*
X96446200Y-46355000D03*
X99939900Y-47625000D03*
X114850100Y-57713200D03*
X110633500Y-74377300D03*
X103238600Y-54283100D03*
X108312600Y-74591600D03*
X102179600Y-53328500D03*
X101785500Y-48895000D03*
X108919500Y-50527900D03*
X118946400Y-53643200D03*
X118046000Y-50255000D03*
X116894100Y-59569700D03*
X116539400Y-57906900D03*
X113429900Y-51435000D03*
X117660800Y-43521100D03*
X125205600Y-45546600D03*
X103613800Y-44074700D03*
D31*
X109220000Y-81280000D02*
X109220000Y-73660000D01*
X109220000Y-73660000D02*
X107950000Y-72390000D01*
X63500000Y-72390000D02*
X63500000Y-71089700D01*
X63500000Y-71089700D02*
X60990300Y-68580000D01*
X60990300Y-68580000D02*
X60990300Y-54610000D01*
X63500000Y-81280000D02*
X63500000Y-72390000D01*
X60990300Y-54610000D02*
X60990300Y-43210300D01*
X60990300Y-43210300D02*
X59690000Y-41910000D01*
X59690000Y-54610000D02*
X60990300Y-54610000D01*
X131064000Y-35560000D02*
X132414300Y-35560000D01*
X152369700Y-51680100D02*
X152719900Y-51680100D01*
X152719900Y-51680100D02*
X154750000Y-49650000D01*
X132414300Y-35560000D02*
X148534400Y-51680100D01*
X148534400Y-51680100D02*
X152369700Y-51680100D01*
X152369700Y-63500000D02*
X152369700Y-51680100D01*
X152369700Y-72390000D02*
X152369700Y-63500000D01*
X135890000Y-125810000D02*
X131250000Y-125810000D01*
X131250000Y-125810000D02*
X131170000Y-125730000D01*
X138430000Y-124540000D02*
X137160000Y-125810000D01*
X137160000Y-125810000D02*
X135890000Y-125810000D01*
X135890000Y-125810000D02*
X135890000Y-140970000D01*
X135890000Y-140970000D02*
X135890000Y-143510000D01*
X130810000Y-66040000D02*
X130810000Y-63500000D01*
X130810000Y-78740000D02*
X130810000Y-80040300D01*
X59690000Y-30400000D02*
X59690000Y-29370000D01*
X59690000Y-29370000D02*
X61120000Y-27940000D01*
X59690000Y-36830000D02*
X59690000Y-30400000D01*
X59690000Y-30400000D02*
X52070000Y-30400000D01*
X152369700Y-72390000D02*
X152369700Y-87599700D01*
X152369700Y-87599700D02*
X153670000Y-88900000D01*
X153670000Y-72390000D02*
X152369700Y-72390000D01*
X153670000Y-63500000D02*
X152369700Y-63500000D01*
X153670000Y-88900000D02*
X152369700Y-90200300D01*
X152369700Y-90200300D02*
X152369700Y-97790000D01*
X152369700Y-123190000D02*
X152369700Y-114300000D01*
X152369700Y-137160000D02*
X152369700Y-123190000D01*
X153670000Y-146050000D02*
X152369700Y-144749700D01*
X152369700Y-144749700D02*
X152369700Y-137160000D01*
X153670000Y-137160000D02*
X152369700Y-137160000D01*
X153670000Y-123190000D02*
X152369700Y-123190000D01*
X152369700Y-97790000D02*
X152369700Y-114300000D01*
X138430000Y-88900000D02*
X138430000Y-87660300D01*
X138430000Y-87660300D02*
X130810000Y-80040300D01*
X81280000Y-72390000D02*
X81280000Y-71089700D01*
X86360000Y-58420000D02*
X86360000Y-66009700D01*
X86360000Y-66009700D02*
X81280000Y-71089700D01*
X135890000Y-146050000D02*
X135890000Y-143510000D01*
X135890000Y-148590000D02*
X135890000Y-146050000D01*
X126896000Y-40640000D02*
X127254000Y-40282000D01*
X127254000Y-40282000D02*
X127254000Y-37512000D01*
X153670000Y-97790000D02*
X152369700Y-97790000D01*
X153670000Y-114300000D02*
X152369700Y-114300000D01*
X59690000Y-41910000D02*
X58341200Y-40561200D01*
X58341200Y-40561200D02*
X58341200Y-38178800D01*
X58341200Y-38178800D02*
X59690000Y-36830000D01*
X78740000Y-81280000D02*
X78740000Y-79879700D01*
X81280000Y-72390000D02*
X81280000Y-77339700D01*
X81280000Y-77339700D02*
X78740000Y-79879700D01*
X131064000Y-33020000D02*
X153520000Y-33020000D01*
X153520000Y-33020000D02*
X154750000Y-34250000D01*
X130716700Y-33020000D02*
X131064000Y-33020000D01*
X130716700Y-33020000D02*
X129713700Y-33020000D01*
X129235600Y-33498100D02*
X129713700Y-33020000D01*
X127254000Y-32512000D02*
X128249500Y-32512000D01*
X128249500Y-32512000D02*
X129235600Y-33498100D01*
X130810000Y-59659700D02*
X129235600Y-58085300D01*
X129235600Y-58085300D02*
X129235600Y-33498100D01*
X63500000Y-64770000D02*
X63500000Y-41879700D01*
X63500000Y-41879700D02*
X62230000Y-40609700D01*
X130810000Y-60960000D02*
X129470100Y-62299900D01*
X129470100Y-62299900D02*
X129470100Y-84940100D01*
X129470100Y-84940100D02*
X138430000Y-93900000D01*
X130810000Y-60960000D02*
X130810000Y-59659700D01*
X60990300Y-39370000D02*
X62230000Y-40609700D01*
X62230000Y-40609700D02*
X66009700Y-36830000D01*
X67310000Y-36830000D02*
X66009700Y-36830000D01*
X59690000Y-39370000D02*
X60990300Y-39370000D01*
X67310000Y-36830000D02*
X67310000Y-35529700D01*
X67310000Y-35529700D02*
X71120000Y-31719700D01*
X71120000Y-31719700D02*
X71120000Y-27940000D01*
X85090000Y-49530000D02*
X86360000Y-50800000D01*
X86360000Y-50800000D02*
X86360000Y-53420000D01*
X116840000Y-143510000D02*
X118342300Y-145012300D01*
X118342300Y-145012300D02*
X122460400Y-145012300D01*
X122460400Y-145012300D02*
X131170000Y-136302700D01*
X131170000Y-136302700D02*
X131170000Y-128270000D01*
D32*
X172720000Y-64770000D02*
X172720000Y-62519700D01*
X172720000Y-62519700D02*
X170709700Y-62519700D01*
X170709700Y-62519700D02*
X167880000Y-59690000D01*
X189860000Y-52710000D02*
X191132000Y-53982000D01*
X184150000Y-39450000D02*
X184150000Y-40074000D01*
X184150000Y-40074000D02*
X189860000Y-45784000D01*
X189860000Y-45784000D02*
X189860000Y-52710000D01*
X189860000Y-52710000D02*
X182880000Y-59690000D01*
X188419700Y-90090000D02*
X187880000Y-90090000D01*
X187880000Y-90090000D02*
X182880000Y-85090000D01*
X182880000Y-101600000D02*
X188419700Y-96060300D01*
X188419700Y-96060300D02*
X188419700Y-90090000D01*
X182880000Y-77470000D02*
X188419700Y-71930300D01*
X188419700Y-71930300D02*
X188419700Y-65960000D01*
X191770000Y-65960000D02*
X188419700Y-65960000D01*
X182880000Y-59690000D02*
X188419700Y-65229700D01*
X188419700Y-65229700D02*
X188419700Y-65960000D01*
X182880000Y-109220000D02*
X182880000Y-101600000D01*
X191770000Y-90090000D02*
X188419700Y-90090000D01*
X191770000Y-114220000D02*
X182880000Y-123110000D01*
X182880000Y-123110000D02*
X182880000Y-125730000D01*
X182880000Y-125730000D02*
X182880000Y-133350000D01*
X187880000Y-138350000D02*
X182880000Y-133350000D01*
X191770000Y-138350000D02*
X187880000Y-138350000D01*
X182880000Y-149860000D02*
X182880000Y-143350000D01*
X182880000Y-143350000D02*
X187880000Y-138350000D01*
X172720000Y-72390000D02*
X172720000Y-74640300D01*
X172720000Y-74640300D02*
X170709700Y-74640300D01*
X170709700Y-74640300D02*
X167880000Y-77470000D01*
X172720000Y-90170000D02*
X172720000Y-87919700D01*
X172720000Y-87919700D02*
X170709700Y-87919700D01*
X170709700Y-87919700D02*
X167880000Y-85090000D01*
X172720000Y-96520000D02*
X172720000Y-98770300D01*
X172720000Y-98770300D02*
X170709700Y-98770300D01*
X170709700Y-98770300D02*
X167880000Y-101600000D01*
X172720000Y-114300000D02*
X172720000Y-112049700D01*
X172720000Y-112049700D02*
X170709700Y-112049700D01*
X170709700Y-112049700D02*
X167880000Y-109220000D01*
X172720000Y-120650000D02*
X172720000Y-122900300D01*
X172720000Y-122900300D02*
X170709700Y-122900300D01*
X170709700Y-122900300D02*
X167880000Y-125730000D01*
X172720000Y-138430000D02*
X172720000Y-136179700D01*
X172720000Y-136179700D02*
X170709700Y-136179700D01*
X170709700Y-136179700D02*
X167880000Y-133350000D01*
D31*
X149860000Y-59690000D02*
X146050000Y-63500000D01*
X146050000Y-63500000D02*
X146050000Y-64770000D01*
X149860000Y-76200000D02*
X146050000Y-72390000D01*
X146050000Y-72390000D02*
X146050000Y-71120000D01*
X149860000Y-110490000D02*
X149860000Y-111760000D01*
X149860000Y-111760000D02*
X146050000Y-115570000D01*
X149860000Y-127000000D02*
X146050000Y-123190000D01*
X146050000Y-123190000D02*
X146050000Y-121920000D01*
X149860000Y-133350000D02*
X146050000Y-137160000D01*
X146050000Y-137160000D02*
X146050000Y-138430000D01*
X67310000Y-76200000D02*
X67310000Y-80010000D01*
X67310000Y-80010000D02*
X66040000Y-81280000D01*
X74930000Y-76200000D02*
X74930000Y-80010000D01*
X74930000Y-80010000D02*
X73660000Y-81280000D01*
X82550000Y-76200000D02*
X82550000Y-80010000D01*
X82550000Y-80010000D02*
X81280000Y-81280000D01*
X90170000Y-76200000D02*
X90170000Y-80010000D01*
X90170000Y-80010000D02*
X88900000Y-81280000D01*
X113030000Y-76200000D02*
X113030000Y-80010000D01*
X113030000Y-80010000D02*
X111760000Y-81280000D01*
D32*
X195120300Y-100090000D02*
X195174100Y-100036200D01*
X195174100Y-100036200D02*
X195174100Y-76013800D01*
X195174100Y-76013800D02*
X195120300Y-75960000D01*
X194545700Y-100090000D02*
X195120300Y-100090000D01*
X191770000Y-100090000D02*
X194545700Y-100090000D01*
X195120300Y-100090000D02*
X195174000Y-100143700D01*
X195174000Y-100143700D02*
X195174000Y-124166300D01*
X195174000Y-124166300D02*
X195120300Y-124220000D01*
X191770000Y-124220000D02*
X195120300Y-124220000D01*
X191770000Y-148350000D02*
X195120300Y-148350000D01*
X195120300Y-148350000D02*
X195137000Y-148333300D01*
X195137000Y-148333300D02*
X195137000Y-124236700D01*
X195137000Y-124236700D02*
X195120300Y-124220000D01*
X191770000Y-75960000D02*
X195120300Y-75960000D01*
X191770000Y-29210000D02*
X195594600Y-33034600D01*
X195594600Y-33034600D02*
X195594600Y-75485700D01*
X195594600Y-75485700D02*
X195120300Y-75960000D01*
X161290000Y-110584800D02*
X163640300Y-112935100D01*
X163640300Y-112935100D02*
X163640300Y-120650000D01*
X161290000Y-110584800D02*
X161290000Y-109409700D01*
X161290000Y-111760000D02*
X161290000Y-110584800D01*
X161290000Y-120650000D02*
X163640300Y-120650000D01*
X163065300Y-134620000D02*
X163640300Y-134045000D01*
X163640300Y-134045000D02*
X163640300Y-120650000D01*
X163065300Y-134620000D02*
X163640300Y-135195000D01*
X163640300Y-135195000D02*
X163640300Y-141159700D01*
X163640300Y-141159700D02*
X161290000Y-143510000D01*
X163065200Y-134620000D02*
X163065300Y-134620000D01*
X163640300Y-95250000D02*
X163640300Y-107059400D01*
X163640300Y-107059400D02*
X161290000Y-109409700D01*
X163640300Y-86360000D02*
X163640300Y-95250000D01*
X184150000Y-44450000D02*
X179162200Y-44450000D01*
X179162200Y-44450000D02*
X163640300Y-59971900D01*
X163640300Y-59971900D02*
X163640300Y-60960000D01*
X163640300Y-69850000D02*
X163640300Y-86360000D01*
X161290000Y-69850000D02*
X163640300Y-69850000D01*
X163640300Y-60960000D02*
X163640300Y-69850000D01*
X161290000Y-86360000D02*
X163640300Y-86360000D01*
X161290000Y-60960000D02*
X163640300Y-60960000D01*
X161290000Y-95250000D02*
X163640300Y-95250000D01*
X161290000Y-134620000D02*
X163065200Y-134620000D01*
X191770000Y-40640000D02*
X191770000Y-44440700D01*
X191770000Y-44440700D02*
X192532000Y-45202700D01*
X192532000Y-45202700D02*
X192532000Y-46482000D01*
X191770000Y-109220000D02*
X186690000Y-114300000D01*
X186690000Y-114300000D02*
X177800000Y-114300000D01*
X161290000Y-148590000D02*
X163640300Y-148590000D01*
X163640300Y-148590000D02*
X165166800Y-147063500D01*
X165166800Y-147063500D02*
X175516500Y-147063500D01*
X175516500Y-147063500D02*
X177800000Y-144780000D01*
D31*
X52070000Y-36830000D02*
X52070000Y-38630300D01*
X59690000Y-44450000D02*
X58389700Y-44450000D01*
X58389700Y-44450000D02*
X52570000Y-38630300D01*
X52570000Y-38630300D02*
X52070000Y-38630300D01*
X144780000Y-59690000D02*
X143579700Y-59690000D01*
X130810000Y-68580000D02*
X136523300Y-62866700D01*
X136523300Y-62866700D02*
X136523300Y-61008300D01*
X136523300Y-61008300D02*
X137907100Y-59624500D01*
X137907100Y-59624500D02*
X143514200Y-59624500D01*
X143514200Y-59624500D02*
X143579700Y-59690000D01*
X144780000Y-101600000D02*
X144780000Y-100399700D01*
X130810000Y-76200000D02*
X139517600Y-84907600D01*
X139517600Y-84907600D02*
X139517600Y-86537900D01*
X139517600Y-86537900D02*
X140853700Y-87874000D01*
X140853700Y-87874000D02*
X140853700Y-96473400D01*
X140853700Y-96473400D02*
X144780000Y-100399700D01*
X144780000Y-109289700D02*
X146729400Y-107340300D01*
X146729400Y-107340300D02*
X146729400Y-100200700D01*
X146729400Y-100200700D02*
X143232400Y-96703700D01*
X143232400Y-96703700D02*
X143232400Y-87362000D01*
X143232400Y-87362000D02*
X141228000Y-85357600D01*
X141228000Y-85357600D02*
X141228000Y-82838300D01*
X141228000Y-82838300D02*
X138430000Y-80040300D01*
X144780000Y-110490000D02*
X144780000Y-109289700D01*
X138430000Y-78740000D02*
X138430000Y-80040300D01*
X144780000Y-127000000D02*
X144780000Y-125799700D01*
X138430000Y-76200000D02*
X142835600Y-80605600D01*
X142835600Y-80605600D02*
X142835600Y-84984600D01*
X142835600Y-84984600D02*
X144282900Y-86431900D01*
X144282900Y-86431900D02*
X144282900Y-96763800D01*
X144282900Y-96763800D02*
X147429800Y-99910700D01*
X147429800Y-99910700D02*
X147429800Y-110457400D01*
X147429800Y-110457400D02*
X144645000Y-113242200D01*
X144645000Y-113242200D02*
X144645000Y-125664700D01*
X144645000Y-125664700D02*
X144780000Y-125799700D01*
X144780000Y-132149700D02*
X143558800Y-130928500D01*
X143558800Y-130928500D02*
X143558800Y-107808200D01*
X143558800Y-107808200D02*
X145981700Y-105385300D01*
X145981700Y-105385300D02*
X145981700Y-100443400D01*
X145981700Y-100443400D02*
X142471900Y-96933600D01*
X142471900Y-96933600D02*
X142471900Y-87591800D01*
X142471900Y-87591800D02*
X140280300Y-85400200D01*
X140280300Y-85400200D02*
X140280300Y-84409900D01*
X140280300Y-84409900D02*
X137117000Y-81246600D01*
X137117000Y-81246600D02*
X137117000Y-74973000D01*
X137117000Y-74973000D02*
X138430000Y-73660000D01*
X144780000Y-133350000D02*
X144780000Y-132149700D01*
X138430000Y-71120000D02*
X138430000Y-71646300D01*
X138430000Y-71646300D02*
X151060900Y-84277200D01*
X151060900Y-84277200D02*
X151060900Y-144845500D01*
X151060900Y-144845500D02*
X146046400Y-149860000D01*
X146046400Y-149860000D02*
X144780000Y-149860000D01*
X69850000Y-76200000D02*
X71050300Y-76200000D01*
X73660000Y-72390000D02*
X73660000Y-73690300D01*
X73660000Y-73690300D02*
X73560000Y-73690300D01*
X73560000Y-73690300D02*
X71050300Y-76200000D01*
X57070000Y-143510000D02*
X57070000Y-107470600D01*
X57070000Y-107470600D02*
X89609700Y-74930900D01*
X89609700Y-74930900D02*
X90670100Y-74930900D01*
X90670100Y-74930900D02*
X91440000Y-75700800D01*
X91440000Y-75700800D02*
X91440000Y-76630200D01*
X91440000Y-76630200D02*
X92234100Y-77424300D01*
X92234100Y-77424300D02*
X93250600Y-77424300D01*
X93250600Y-77424300D02*
X93923800Y-76751100D01*
X93923800Y-76751100D02*
X93923800Y-45778200D01*
X93923800Y-45778200D02*
X93843900Y-45698300D01*
X93843900Y-45698300D02*
X93843900Y-44221500D01*
X92523700Y-141823300D02*
X95685300Y-141823300D01*
X95685300Y-141823300D02*
X99590200Y-145728200D01*
X99590200Y-145728200D02*
X127391500Y-145728200D01*
X127391500Y-145728200D02*
X129609700Y-143510000D01*
X78660000Y-143510000D02*
X80346700Y-141823300D01*
X80346700Y-141823300D02*
X92523700Y-141823300D01*
X92523700Y-141823300D02*
X92523700Y-79636900D01*
X92523700Y-79636900D02*
X94792300Y-77368300D01*
X94792300Y-77368300D02*
X94792300Y-45284700D01*
X130810000Y-143510000D02*
X129609700Y-143510000D01*
X100250000Y-143510000D02*
X97920400Y-141180400D01*
X97920400Y-141180400D02*
X97920400Y-78947500D01*
X97920400Y-78947500D02*
X96446200Y-77473300D01*
X96446200Y-77473300D02*
X96446200Y-46355000D01*
X121840000Y-143510000D02*
X106815900Y-128485900D01*
X106815900Y-128485900D02*
X106815900Y-79303300D01*
X106815900Y-79303300D02*
X99939900Y-72427300D01*
X99939900Y-72427300D02*
X99939900Y-47625000D01*
X114850100Y-57713200D02*
X114850100Y-45029700D01*
X114850100Y-45029700D02*
X119239800Y-40640000D01*
X119239800Y-40640000D02*
X120396000Y-40640000D01*
X103238600Y-54283100D02*
X110633500Y-61678000D01*
X110633500Y-61678000D02*
X110633500Y-74377300D01*
X102179600Y-53328500D02*
X102179600Y-68458600D01*
X102179600Y-68458600D02*
X108312600Y-74591600D01*
X131170000Y-100330000D02*
X124165300Y-93325300D01*
X124165300Y-93325300D02*
X124165200Y-93325300D01*
X124165200Y-93325300D02*
X124165200Y-41506500D01*
X124165200Y-41506500D02*
X121190200Y-38531500D01*
X121190200Y-38531500D02*
X112149000Y-38531500D01*
X112149000Y-38531500D02*
X101785500Y-48895000D01*
X131170000Y-102870000D02*
X122387200Y-94087200D01*
X122387200Y-94087200D02*
X122387200Y-40719100D01*
X122387200Y-40719100D02*
X120937100Y-39269000D01*
X120937100Y-39269000D02*
X119573200Y-39269000D01*
X119573200Y-39269000D02*
X108919500Y-49922700D01*
X108919500Y-49922700D02*
X108919500Y-50527900D01*
X118946400Y-53643200D02*
X119925900Y-54622700D01*
X119925900Y-54622700D02*
X119925900Y-94165900D01*
X119925900Y-94165900D02*
X131170000Y-105410000D01*
X131170000Y-105410000D02*
X132521800Y-106761800D01*
X132521800Y-106761800D02*
X132521800Y-111678200D01*
X132521800Y-111678200D02*
X131170000Y-113030000D01*
X131170000Y-107950000D02*
X119202300Y-95982300D01*
X119202300Y-95982300D02*
X119202300Y-56445000D01*
X119202300Y-56445000D02*
X118046100Y-55288800D01*
X118046100Y-55288800D02*
X118046100Y-50255000D01*
X118046100Y-50255000D02*
X118046000Y-50255000D01*
X131170000Y-120650000D02*
X116894100Y-106374100D01*
X116894100Y-106374100D02*
X116894100Y-59569700D01*
X116539400Y-57906900D02*
X117801500Y-59169000D01*
X117801500Y-59169000D02*
X117801500Y-104741500D01*
X117801500Y-104741500D02*
X131170000Y-118110000D01*
X131170000Y-123190000D02*
X114269500Y-106289500D01*
X114269500Y-106289500D02*
X114269500Y-71595200D01*
X114269500Y-71595200D02*
X113429900Y-70755600D01*
X113429900Y-70755600D02*
X113429900Y-51435000D01*
X117660800Y-43521100D02*
X117122400Y-44059500D01*
X117122400Y-44059500D02*
X117122400Y-55935600D01*
X117122400Y-55935600D02*
X118502000Y-57315200D01*
X118502000Y-57315200D02*
X118502000Y-102902000D01*
X118502000Y-102902000D02*
X131170000Y-115570000D01*
X103613800Y-44074700D02*
X109870200Y-37818300D01*
X109870200Y-37818300D02*
X121467500Y-37818300D01*
X121467500Y-37818300D02*
X125205600Y-41556400D01*
X125205600Y-41556400D02*
X125205600Y-45546600D01*
X68653700Y-43321100D02*
X102860200Y-43321100D01*
X102860200Y-43321100D02*
X103613800Y-44074700D01*
X68653700Y-43321100D02*
X68653700Y-43253700D01*
X68653700Y-43253700D02*
X67310000Y-41910000D01*
X68580000Y-63469700D02*
X68653700Y-63396000D01*
X68653700Y-63396000D02*
X68653700Y-43321100D01*
X68580000Y-64770000D02*
X68580000Y-63469700D01*
X66040000Y-64770000D02*
X66040000Y-63469700D01*
X66040000Y-63469700D02*
X65975200Y-63404900D01*
X65975200Y-63404900D02*
X65975200Y-40704800D01*
X65975200Y-40704800D02*
X67310000Y-39370000D01*
M02*
