G04 #@! TF.GenerationSoftware,KiCad,Pcbnew,(5.1.4)-1*
G04 #@! TF.CreationDate,2019-09-14T19:38:38+02:00*
G04 #@! TF.ProjectId,regulator board,72656775-6c61-4746-9f72-20626f617264,rev?*
G04 #@! TF.SameCoordinates,Original*
G04 #@! TF.FileFunction,Legend,Top*
G04 #@! TF.FilePolarity,Positive*
%FSLAX46Y46*%
G04 Gerber Fmt 4.6, Leading zero omitted, Abs format (unit mm)*
G04 Created by KiCad (PCBNEW (5.1.4)-1) date 2019-09-14 19:38:38*
%MOMM*%
%LPD*%
G04 APERTURE LIST*
%ADD10C,0.300000*%
%ADD11C,0.150000*%
%ADD12C,0.120000*%
G04 APERTURE END LIST*
D10*
X142928571Y-140000000D02*
X142928571Y-139142857D01*
X142071428Y-139142857D01*
X142642857Y-138000000D02*
X142500000Y-137857142D01*
X142071428Y-137714285D01*
X141785714Y-137714285D01*
X141357142Y-137857142D01*
X141071428Y-138142857D01*
X140928571Y-138571428D01*
X140928571Y-138857142D01*
X141071428Y-139285714D01*
X141357142Y-139571428D01*
X141785714Y-139714285D01*
X142071428Y-139714285D01*
X142500000Y-139571428D01*
X142928571Y-139142857D01*
X142642857Y-142571428D02*
X140642857Y-142571428D01*
X143785714Y-141857142D02*
X141642857Y-141142857D01*
X141642857Y-143000000D01*
X142928571Y-144000000D02*
X142928571Y-144857142D01*
X142071428Y-144857142D01*
X142642857Y-146000000D02*
X142500000Y-146142857D01*
X142071428Y-146285714D01*
X141785714Y-146285714D01*
X141357142Y-146142857D01*
X141071428Y-145857142D01*
X140928571Y-145428571D01*
X140928571Y-145142857D01*
X141071428Y-144714285D01*
X141357142Y-144428571D01*
X141785714Y-144285714D01*
X142071428Y-144285714D01*
X142500000Y-144428571D01*
X142928571Y-144857142D01*
X142928571Y-117000000D02*
X142928571Y-116142857D01*
X142071428Y-116142857D01*
X142642857Y-115000000D02*
X142500000Y-114857142D01*
X142071428Y-114714285D01*
X141785714Y-114714285D01*
X141357142Y-114857142D01*
X141071428Y-115142857D01*
X140928571Y-115571428D01*
X140928571Y-115857142D01*
X141071428Y-116285714D01*
X141357142Y-116571428D01*
X141785714Y-116714285D01*
X142071428Y-116714285D01*
X142500000Y-116571428D01*
X142928571Y-116142857D01*
X143642857Y-118000000D02*
X143642857Y-119857142D01*
X142500000Y-118857142D01*
X142500000Y-119285714D01*
X142357142Y-119571428D01*
X142214285Y-119714285D01*
X141928571Y-119857142D01*
X141214285Y-119857142D01*
X140928571Y-119714285D01*
X140785714Y-119571428D01*
X140642857Y-119285714D01*
X140642857Y-118428571D01*
X140785714Y-118142857D01*
X140928571Y-118000000D01*
X142928571Y-121000000D02*
X142928571Y-121857142D01*
X142071428Y-121857142D01*
X142642857Y-123000000D02*
X142500000Y-123142857D01*
X142071428Y-123285714D01*
X141785714Y-123285714D01*
X141357142Y-123142857D01*
X141071428Y-122857142D01*
X140928571Y-122428571D01*
X140928571Y-122142857D01*
X141071428Y-121714285D01*
X141357142Y-121428571D01*
X141785714Y-121285714D01*
X142071428Y-121285714D01*
X142500000Y-121428571D01*
X142928571Y-121857142D01*
X142928571Y-91000000D02*
X142928571Y-90142857D01*
X142071428Y-90142857D01*
X142642857Y-89000000D02*
X142500000Y-88857142D01*
X142071428Y-88714285D01*
X141785714Y-88714285D01*
X141357142Y-88857142D01*
X141071428Y-89142857D01*
X140928571Y-89571428D01*
X140928571Y-89857142D01*
X141071428Y-90285714D01*
X141357142Y-90571428D01*
X141785714Y-90714285D01*
X142071428Y-90714285D01*
X142500000Y-90571428D01*
X142928571Y-90142857D01*
X143357142Y-92142857D02*
X143500000Y-92285714D01*
X143642857Y-92571428D01*
X143642857Y-93285714D01*
X143500000Y-93571428D01*
X143357142Y-93714285D01*
X143071428Y-93857142D01*
X142785714Y-93857142D01*
X142357142Y-93714285D01*
X140642857Y-92000000D01*
X140642857Y-93857142D01*
X142928571Y-95000000D02*
X142928571Y-95857142D01*
X142071428Y-95857142D01*
X142642857Y-97000000D02*
X142500000Y-97142857D01*
X142071428Y-97285714D01*
X141785714Y-97285714D01*
X141357142Y-97142857D01*
X141071428Y-96857142D01*
X140928571Y-96428571D01*
X140928571Y-96142857D01*
X141071428Y-95714285D01*
X141357142Y-95428571D01*
X141785714Y-95285714D01*
X142071428Y-95285714D01*
X142500000Y-95428571D01*
X142928571Y-95857142D01*
X142928571Y-66000000D02*
X142928571Y-65142857D01*
X142071428Y-65142857D01*
X142642857Y-64000000D02*
X142500000Y-63857142D01*
X142071428Y-63714285D01*
X141785714Y-63714285D01*
X141357142Y-63857142D01*
X141071428Y-64142857D01*
X140928571Y-64571428D01*
X140928571Y-64857142D01*
X141071428Y-65285714D01*
X141357142Y-65571428D01*
X141785714Y-65714285D01*
X142071428Y-65714285D01*
X142500000Y-65571428D01*
X142928571Y-65142857D01*
X140642857Y-68857142D02*
X140642857Y-67142857D01*
X140642857Y-68000000D02*
X143642857Y-68000000D01*
X143214285Y-67714285D01*
X142928571Y-67428571D01*
X142785714Y-67142857D01*
X142928571Y-70000000D02*
X142928571Y-70857142D01*
X142071428Y-70857142D01*
X142642857Y-72000000D02*
X142500000Y-72142857D01*
X142071428Y-72285714D01*
X141785714Y-72285714D01*
X141357142Y-72142857D01*
X141071428Y-71857142D01*
X140928571Y-71428571D01*
X140928571Y-71142857D01*
X141071428Y-70714285D01*
X141357142Y-70428571D01*
X141785714Y-70285714D01*
X142071428Y-70285714D01*
X142500000Y-70428571D01*
X142928571Y-70857142D01*
D11*
X198857142Y-76095238D02*
X198857142Y-75428571D01*
X199904761Y-75142857D02*
X199904761Y-76095238D01*
X197904761Y-76095238D01*
X197904761Y-75142857D01*
X197809523Y-72857142D02*
X200380952Y-74571428D01*
X198380952Y-72285714D02*
X198380952Y-71714285D01*
X198952380Y-71714285D01*
X198571428Y-70952380D02*
X198666666Y-70857142D01*
X198952380Y-70761904D01*
X199142857Y-70761904D01*
X199428571Y-70857142D01*
X199619047Y-71047619D01*
X199714285Y-71333333D01*
X199714285Y-71523809D01*
X199619047Y-71809523D01*
X199428571Y-72000000D01*
X199142857Y-72095238D01*
X198952380Y-72095238D01*
X198666666Y-72000000D01*
X198380952Y-71714285D01*
X197809523Y-68285714D02*
X200380952Y-70000000D01*
X199904761Y-67619047D02*
X197904761Y-67619047D01*
X199904761Y-66476190D01*
X197904761Y-66476190D01*
X197809523Y-64095238D02*
X200380952Y-65809523D01*
X198380952Y-61809523D02*
X198380952Y-62380952D01*
X198952380Y-62380952D01*
X198571428Y-63142857D02*
X198666666Y-63238095D01*
X198952380Y-63333333D01*
X199142857Y-63333333D01*
X199428571Y-63238095D01*
X199619047Y-63047619D01*
X199714285Y-62761904D01*
X199714285Y-62571428D01*
X199619047Y-62285714D01*
X199428571Y-62095238D01*
X199142857Y-62000000D01*
X198952380Y-62000000D01*
X198666666Y-62095238D01*
X198380952Y-62380952D01*
X198857142Y-100095238D02*
X198857142Y-99428571D01*
X199904761Y-99142857D02*
X199904761Y-100095238D01*
X197904761Y-100095238D01*
X197904761Y-99142857D01*
X197809523Y-96857142D02*
X200380952Y-98571428D01*
X198380952Y-96285714D02*
X198380952Y-95714285D01*
X198952380Y-95714285D01*
X198571428Y-94952380D02*
X198666666Y-94857142D01*
X198952380Y-94761904D01*
X199142857Y-94761904D01*
X199428571Y-94857142D01*
X199619047Y-95047619D01*
X199714285Y-95333333D01*
X199714285Y-95523809D01*
X199619047Y-95809523D01*
X199428571Y-96000000D01*
X199142857Y-96095238D01*
X198952380Y-96095238D01*
X198666666Y-96000000D01*
X198380952Y-95714285D01*
X197809523Y-92285714D02*
X200380952Y-94000000D01*
X199904761Y-91619047D02*
X197904761Y-91619047D01*
X199904761Y-90476190D01*
X197904761Y-90476190D01*
X197809523Y-88095238D02*
X200380952Y-89809523D01*
X198380952Y-85809523D02*
X198380952Y-86380952D01*
X198952380Y-86380952D01*
X198571428Y-87142857D02*
X198666666Y-87238095D01*
X198952380Y-87333333D01*
X199142857Y-87333333D01*
X199428571Y-87238095D01*
X199619047Y-87047619D01*
X199714285Y-86761904D01*
X199714285Y-86571428D01*
X199619047Y-86285714D01*
X199428571Y-86095238D01*
X199142857Y-86000000D01*
X198952380Y-86000000D01*
X198666666Y-86095238D01*
X198380952Y-86380952D01*
X198857142Y-124095238D02*
X198857142Y-123428571D01*
X199904761Y-123142857D02*
X199904761Y-124095238D01*
X197904761Y-124095238D01*
X197904761Y-123142857D01*
X197809523Y-120857142D02*
X200380952Y-122571428D01*
X198380952Y-120285714D02*
X198380952Y-119714285D01*
X198952380Y-119714285D01*
X198571428Y-118952380D02*
X198666666Y-118857142D01*
X198952380Y-118761904D01*
X199142857Y-118761904D01*
X199428571Y-118857142D01*
X199619047Y-119047619D01*
X199714285Y-119333333D01*
X199714285Y-119523809D01*
X199619047Y-119809523D01*
X199428571Y-120000000D01*
X199142857Y-120095238D01*
X198952380Y-120095238D01*
X198666666Y-120000000D01*
X198380952Y-119714285D01*
X197809523Y-116285714D02*
X200380952Y-118000000D01*
X199904761Y-115619047D02*
X197904761Y-115619047D01*
X199904761Y-114476190D01*
X197904761Y-114476190D01*
X197809523Y-112095238D02*
X200380952Y-113809523D01*
X198380952Y-109809523D02*
X198380952Y-110380952D01*
X198952380Y-110380952D01*
X198571428Y-111142857D02*
X198666666Y-111238095D01*
X198952380Y-111333333D01*
X199142857Y-111333333D01*
X199428571Y-111238095D01*
X199619047Y-111047619D01*
X199714285Y-110761904D01*
X199714285Y-110571428D01*
X199619047Y-110285714D01*
X199428571Y-110095238D01*
X199142857Y-110000000D01*
X198952380Y-110000000D01*
X198666666Y-110095238D01*
X198380952Y-110380952D01*
X198857142Y-148095238D02*
X198857142Y-147428571D01*
X199904761Y-147142857D02*
X199904761Y-148095238D01*
X197904761Y-148095238D01*
X197904761Y-147142857D01*
X197809523Y-144857142D02*
X200380952Y-146571428D01*
X198380952Y-144285714D02*
X198380952Y-143714285D01*
X198952380Y-143714285D01*
X198571428Y-142952380D02*
X198666666Y-142857142D01*
X198952380Y-142761904D01*
X199142857Y-142761904D01*
X199428571Y-142857142D01*
X199619047Y-143047619D01*
X199714285Y-143333333D01*
X199714285Y-143523809D01*
X199619047Y-143809523D01*
X199428571Y-144000000D01*
X199142857Y-144095238D01*
X198952380Y-144095238D01*
X198666666Y-144000000D01*
X198380952Y-143714285D01*
X197809523Y-140285714D02*
X200380952Y-142000000D01*
X199904761Y-139619047D02*
X197904761Y-139619047D01*
X199904761Y-138476190D01*
X197904761Y-138476190D01*
X197809523Y-136095238D02*
X200380952Y-137809523D01*
X198380952Y-133809523D02*
X198380952Y-134380952D01*
X198952380Y-134380952D01*
X198571428Y-135142857D02*
X198666666Y-135238095D01*
X198952380Y-135333333D01*
X199142857Y-135333333D01*
X199428571Y-135238095D01*
X199619047Y-135047619D01*
X199714285Y-134761904D01*
X199714285Y-134571428D01*
X199619047Y-134285714D01*
X199428571Y-134095238D01*
X199142857Y-134000000D01*
X198952380Y-134000000D01*
X198666666Y-134095238D01*
X198380952Y-134380952D01*
X157238095Y-49500000D02*
X157142857Y-49452380D01*
X157000000Y-49452380D01*
X156857142Y-49500000D01*
X156761904Y-49595238D01*
X156714285Y-49690476D01*
X156666666Y-49880952D01*
X156666666Y-50023809D01*
X156714285Y-50214285D01*
X156761904Y-50309523D01*
X156857142Y-50404761D01*
X157000000Y-50452380D01*
X157095238Y-50452380D01*
X157238095Y-50404761D01*
X157285714Y-50357142D01*
X157285714Y-50023809D01*
X157095238Y-50023809D01*
X157714285Y-50452380D02*
X157714285Y-49452380D01*
X158285714Y-50452380D01*
X158285714Y-49452380D01*
X158761904Y-50452380D02*
X158761904Y-49452380D01*
X159000000Y-49452380D01*
X159142857Y-49500000D01*
X159238095Y-49595238D01*
X159285714Y-49690476D01*
X159333333Y-49880952D01*
X159333333Y-50023809D01*
X159285714Y-50214285D01*
X159238095Y-50309523D01*
X159142857Y-50404761D01*
X159000000Y-50452380D01*
X158761904Y-50452380D01*
X156238095Y-35071428D02*
X157000000Y-35071428D01*
X156619047Y-35452380D02*
X156619047Y-34690476D01*
X157380952Y-34452380D02*
X158000000Y-34452380D01*
X157666666Y-34833333D01*
X157809523Y-34833333D01*
X157904761Y-34880952D01*
X157952380Y-34928571D01*
X158000000Y-35023809D01*
X158000000Y-35261904D01*
X157952380Y-35357142D01*
X157904761Y-35404761D01*
X157809523Y-35452380D01*
X157523809Y-35452380D01*
X157428571Y-35404761D01*
X157380952Y-35357142D01*
X158285714Y-34452380D02*
X158619047Y-35452380D01*
X158952380Y-34452380D01*
X159190476Y-34452380D02*
X159809523Y-34452380D01*
X159476190Y-34833333D01*
X159619047Y-34833333D01*
X159714285Y-34880952D01*
X159761904Y-34928571D01*
X159809523Y-35023809D01*
X159809523Y-35261904D01*
X159761904Y-35357142D01*
X159714285Y-35404761D01*
X159619047Y-35452380D01*
X159333333Y-35452380D01*
X159238095Y-35404761D01*
X159190476Y-35357142D01*
X180428571Y-40904761D02*
X180428571Y-38904761D01*
X181571428Y-40904761D01*
X181571428Y-38904761D01*
X181619047Y-45904761D02*
X180666666Y-45904761D01*
X180666666Y-43904761D01*
X198404761Y-38428571D02*
X198404761Y-39380952D01*
X196404761Y-39380952D01*
X196309523Y-36333333D02*
X198880952Y-38047619D01*
X198404761Y-35666666D02*
X196404761Y-35666666D01*
X198404761Y-34523809D01*
X196404761Y-34523809D01*
X196309523Y-32142857D02*
X198880952Y-33857142D01*
X197357142Y-31476190D02*
X197357142Y-30809523D01*
X198404761Y-30523809D02*
X198404761Y-31476190D01*
X196404761Y-31476190D01*
X196404761Y-30523809D01*
X121547619Y-38452380D02*
X121214285Y-37976190D01*
X120976190Y-38452380D02*
X120976190Y-37452380D01*
X121357142Y-37452380D01*
X121452380Y-37500000D01*
X121500000Y-37547619D01*
X121547619Y-37642857D01*
X121547619Y-37785714D01*
X121500000Y-37880952D01*
X121452380Y-37928571D01*
X121357142Y-37976190D01*
X120976190Y-37976190D01*
X121976190Y-37928571D02*
X122309523Y-37928571D01*
X122452380Y-38452380D02*
X121976190Y-38452380D01*
X121976190Y-37452380D01*
X122452380Y-37452380D01*
X122833333Y-38404761D02*
X122976190Y-38452380D01*
X123214285Y-38452380D01*
X123309523Y-38404761D01*
X123357142Y-38357142D01*
X123404761Y-38261904D01*
X123404761Y-38166666D01*
X123357142Y-38071428D01*
X123309523Y-38023809D01*
X123214285Y-37976190D01*
X123023809Y-37928571D01*
X122928571Y-37880952D01*
X122880952Y-37833333D01*
X122833333Y-37738095D01*
X122833333Y-37642857D01*
X122880952Y-37547619D01*
X122928571Y-37500000D01*
X123023809Y-37452380D01*
X123261904Y-37452380D01*
X123404761Y-37500000D01*
X123833333Y-37928571D02*
X124166666Y-37928571D01*
X124309523Y-38452380D02*
X123833333Y-38452380D01*
X123833333Y-37452380D01*
X124309523Y-37452380D01*
X124595238Y-37452380D02*
X125166666Y-37452380D01*
X124880952Y-38452380D02*
X124880952Y-37452380D01*
X79976190Y-39928571D02*
X80309523Y-39928571D01*
X80452380Y-40452380D02*
X79976190Y-40452380D01*
X79976190Y-39452380D01*
X80452380Y-39452380D01*
X80880952Y-40452380D02*
X80880952Y-39452380D01*
X81452380Y-40452380D01*
X81452380Y-39452380D01*
X81880952Y-40166666D02*
X82357142Y-40166666D01*
X81785714Y-40452380D02*
X82119047Y-39452380D01*
X82452380Y-40452380D01*
X83119047Y-39928571D02*
X83261904Y-39976190D01*
X83309523Y-40023809D01*
X83357142Y-40119047D01*
X83357142Y-40261904D01*
X83309523Y-40357142D01*
X83261904Y-40404761D01*
X83166666Y-40452380D01*
X82785714Y-40452380D01*
X82785714Y-39452380D01*
X83119047Y-39452380D01*
X83214285Y-39500000D01*
X83261904Y-39547619D01*
X83309523Y-39642857D01*
X83309523Y-39738095D01*
X83261904Y-39833333D01*
X83214285Y-39880952D01*
X83119047Y-39928571D01*
X82785714Y-39928571D01*
X84261904Y-40452380D02*
X83785714Y-40452380D01*
X83785714Y-39452380D01*
X84595238Y-39928571D02*
X84928571Y-39928571D01*
X85071428Y-40452380D02*
X84595238Y-40452380D01*
X84595238Y-39452380D01*
X85071428Y-39452380D01*
X59952380Y-21500000D02*
X59857142Y-21452380D01*
X59714285Y-21452380D01*
X59571428Y-21500000D01*
X59476190Y-21595238D01*
X59428571Y-21690476D01*
X59380952Y-21880952D01*
X59380952Y-22023809D01*
X59428571Y-22214285D01*
X59476190Y-22309523D01*
X59571428Y-22404761D01*
X59714285Y-22452380D01*
X59809523Y-22452380D01*
X59952380Y-22404761D01*
X59999999Y-22357142D01*
X59999999Y-22023809D01*
X59809523Y-22023809D01*
X60428571Y-22452380D02*
X60428571Y-21452380D01*
X60999999Y-22452380D01*
X60999999Y-21452380D01*
X61476190Y-22452380D02*
X61476190Y-21452380D01*
X61714285Y-21452380D01*
X61857142Y-21500000D01*
X61952380Y-21595238D01*
X62000000Y-21690476D01*
X62047619Y-21880952D01*
X62047619Y-22023809D01*
X62000000Y-22214285D01*
X61952380Y-22309523D01*
X61857142Y-22404761D01*
X61714285Y-22452380D01*
X61476190Y-22452380D01*
X63190476Y-21404761D02*
X62333333Y-22690476D01*
X64047619Y-22452380D02*
X63476190Y-22452380D01*
X63761904Y-22452380D02*
X63761904Y-21452380D01*
X63666666Y-21595238D01*
X63571428Y-21690476D01*
X63476190Y-21738095D01*
X64380952Y-21452380D02*
X64619047Y-22452380D01*
X64809523Y-21738095D01*
X65000000Y-22452380D01*
X65238095Y-21452380D01*
X65619047Y-22452380D02*
X65619047Y-21452380D01*
X66666666Y-22452380D02*
X66333333Y-21976190D01*
X66095238Y-22452380D02*
X66095238Y-21452380D01*
X66476190Y-21452380D01*
X66571428Y-21500000D01*
X66619047Y-21547619D01*
X66666666Y-21642857D01*
X66666666Y-21785714D01*
X66619047Y-21880952D01*
X66571428Y-21928571D01*
X66476190Y-21976190D01*
X66095238Y-21976190D01*
X67095238Y-21928571D02*
X67428571Y-21928571D01*
X67571428Y-22452380D02*
X67095238Y-22452380D01*
X67095238Y-21452380D01*
X67571428Y-21452380D01*
X68714285Y-21404761D02*
X67857142Y-22690476D01*
X69047619Y-22071428D02*
X69809523Y-22071428D01*
X69428571Y-22452380D02*
X69428571Y-21690476D01*
X70190476Y-21452380D02*
X70809523Y-21452380D01*
X70476190Y-21833333D01*
X70619047Y-21833333D01*
X70714285Y-21880952D01*
X70761904Y-21928571D01*
X70809523Y-22023809D01*
X70809523Y-22261904D01*
X70761904Y-22357142D01*
X70714285Y-22404761D01*
X70619047Y-22452380D01*
X70333333Y-22452380D01*
X70238095Y-22404761D01*
X70190476Y-22357142D01*
X71095238Y-21452380D02*
X71428571Y-22452380D01*
X71761904Y-21452380D01*
X72000000Y-21452380D02*
X72619047Y-21452380D01*
X72285714Y-21833333D01*
X72428571Y-21833333D01*
X72523809Y-21880952D01*
X72571428Y-21928571D01*
X72619047Y-22023809D01*
X72619047Y-22261904D01*
X72571428Y-22357142D01*
X72523809Y-22404761D01*
X72428571Y-22452380D01*
X72142857Y-22452380D01*
X72047619Y-22404761D01*
X72000000Y-22357142D01*
X44547619Y-54000000D02*
X45023809Y-53666666D01*
X44547619Y-53428571D02*
X45547619Y-53428571D01*
X45547619Y-53809523D01*
X45500000Y-53904761D01*
X45452380Y-53952380D01*
X45357142Y-54000000D01*
X45214285Y-54000000D01*
X45119047Y-53952380D01*
X45071428Y-53904761D01*
X45023809Y-53809523D01*
X45023809Y-53428571D01*
X44595238Y-54809523D02*
X44547619Y-54714285D01*
X44547619Y-54523809D01*
X44595238Y-54428571D01*
X44690476Y-54380952D01*
X45071428Y-54380952D01*
X45166666Y-54428571D01*
X45214285Y-54523809D01*
X45214285Y-54714285D01*
X45166666Y-54809523D01*
X45071428Y-54857142D01*
X44976190Y-54857142D01*
X44880952Y-54380952D01*
X44547619Y-55428571D02*
X44595238Y-55333333D01*
X44690476Y-55285714D01*
X45547619Y-55285714D01*
X44547619Y-56238095D02*
X45071428Y-56238095D01*
X45166666Y-56190476D01*
X45214285Y-56095238D01*
X45214285Y-55904761D01*
X45166666Y-55809523D01*
X44595238Y-56238095D02*
X44547619Y-56142857D01*
X44547619Y-55904761D01*
X44595238Y-55809523D01*
X44690476Y-55761904D01*
X44785714Y-55761904D01*
X44880952Y-55809523D01*
X44928571Y-55904761D01*
X44928571Y-56142857D01*
X44976190Y-56238095D01*
X45214285Y-56619047D02*
X44547619Y-56857142D01*
X45214285Y-57095238D02*
X44547619Y-56857142D01*
X44309523Y-56761904D01*
X44261904Y-56714285D01*
X44214285Y-56619047D01*
X44547619Y-58761904D02*
X44547619Y-58190476D01*
X44547619Y-58476190D02*
X45547619Y-58476190D01*
X45404761Y-58380952D01*
X45309523Y-58285714D01*
X45261904Y-58190476D01*
X44642857Y-59190476D02*
X44595238Y-59238095D01*
X44547619Y-59190476D01*
X44595238Y-59142857D01*
X44642857Y-59190476D01*
X44547619Y-59190476D01*
X44642857Y-59666666D02*
X44595238Y-59714285D01*
X44547619Y-59666666D01*
X44595238Y-59619047D01*
X44642857Y-59666666D01*
X44547619Y-59666666D01*
X44547619Y-60666666D02*
X44547619Y-60095238D01*
X44547619Y-60380952D02*
X45547619Y-60380952D01*
X45404761Y-60285714D01*
X45309523Y-60190476D01*
X45261904Y-60095238D01*
X45547619Y-61285714D02*
X45547619Y-61380952D01*
X45500000Y-61476190D01*
X45452380Y-61523809D01*
X45357142Y-61571428D01*
X45166666Y-61619047D01*
X44928571Y-61619047D01*
X44738095Y-61571428D01*
X44642857Y-61523809D01*
X44595238Y-61476190D01*
X44547619Y-61380952D01*
X44547619Y-61285714D01*
X44595238Y-61190476D01*
X44642857Y-61142857D01*
X44738095Y-61095238D01*
X44928571Y-61047619D01*
X45166666Y-61047619D01*
X45357142Y-61095238D01*
X45452380Y-61142857D01*
X45500000Y-61190476D01*
X45547619Y-61285714D01*
X44928571Y-28833333D02*
X44928571Y-29595238D01*
X44547619Y-29214285D02*
X45309523Y-29214285D01*
X45547619Y-29976190D02*
X45547619Y-30595238D01*
X45166666Y-30261904D01*
X45166666Y-30404761D01*
X45119047Y-30500000D01*
X45071428Y-30547619D01*
X44976190Y-30595238D01*
X44738095Y-30595238D01*
X44642857Y-30547619D01*
X44595238Y-30500000D01*
X44547619Y-30404761D01*
X44547619Y-30119047D01*
X44595238Y-30023809D01*
X44642857Y-29976190D01*
X45547619Y-30880952D02*
X44547619Y-31214285D01*
X45547619Y-31547619D01*
X45547619Y-31785714D02*
X45547619Y-32404761D01*
X45166666Y-32071428D01*
X45166666Y-32214285D01*
X45119047Y-32309523D01*
X45071428Y-32357142D01*
X44976190Y-32404761D01*
X44738095Y-32404761D01*
X44642857Y-32357142D01*
X44595238Y-32309523D01*
X44547619Y-32214285D01*
X44547619Y-31928571D01*
X44595238Y-31833333D01*
X44642857Y-31785714D01*
X45500000Y-34119047D02*
X45547619Y-34023809D01*
X45547619Y-33880952D01*
X45500000Y-33738095D01*
X45404761Y-33642857D01*
X45309523Y-33595238D01*
X45119047Y-33547619D01*
X44976190Y-33547619D01*
X44785714Y-33595238D01*
X44690476Y-33642857D01*
X44595238Y-33738095D01*
X44547619Y-33880952D01*
X44547619Y-33976190D01*
X44595238Y-34119047D01*
X44642857Y-34166666D01*
X44976190Y-34166666D01*
X44976190Y-33976190D01*
X44547619Y-34595238D02*
X45547619Y-34595238D01*
X44547619Y-35166666D01*
X45547619Y-35166666D01*
X44547619Y-35642857D02*
X45547619Y-35642857D01*
X45547619Y-35880952D01*
X45500000Y-36023809D01*
X45404761Y-36119047D01*
X45309523Y-36166666D01*
X45119047Y-36214285D01*
X44976190Y-36214285D01*
X44785714Y-36166666D01*
X44690476Y-36119047D01*
X44595238Y-36023809D01*
X44547619Y-35880952D01*
X44547619Y-35642857D01*
D12*
X186940000Y-45450000D02*
X186940000Y-43440000D01*
X152350000Y-52050000D02*
X186550000Y-52050000D01*
X152350000Y-31850000D02*
X152350000Y-52050000D01*
X186550000Y-31850000D02*
X152350000Y-31850000D01*
X186550000Y-52050000D02*
X186550000Y-31850000D01*
X137310000Y-87780000D02*
X139550000Y-87780000D01*
X137310000Y-95020000D02*
X139550000Y-95020000D01*
X139550000Y-95020000D02*
X139550000Y-87780000D01*
X137310000Y-95020000D02*
X137310000Y-87780000D01*
X60810000Y-76430000D02*
X60810000Y-83670000D01*
X58570000Y-76430000D02*
X58570000Y-83670000D01*
X60810000Y-76430000D02*
X58570000Y-76430000D01*
X60810000Y-83670000D02*
X58570000Y-83670000D01*
X106830000Y-73510000D02*
X106830000Y-71270000D01*
X114070000Y-73510000D02*
X114070000Y-71270000D01*
X114070000Y-71270000D02*
X106830000Y-71270000D01*
X114070000Y-73510000D02*
X106830000Y-73510000D01*
X128374000Y-31392000D02*
X128374000Y-38632000D01*
X126134000Y-31392000D02*
X126134000Y-38632000D01*
X128374000Y-31392000D02*
X126134000Y-31392000D01*
X128374000Y-38632000D02*
X126134000Y-38632000D01*
X137310000Y-123420000D02*
X139550000Y-123420000D01*
X137310000Y-130660000D02*
X139550000Y-130660000D01*
X139550000Y-130660000D02*
X139550000Y-123420000D01*
X137310000Y-130660000D02*
X137310000Y-123420000D01*
X87480000Y-52300000D02*
X87480000Y-59540000D01*
X85240000Y-52300000D02*
X85240000Y-59540000D01*
X87480000Y-52300000D02*
X85240000Y-52300000D01*
X87480000Y-59540000D02*
X85240000Y-59540000D01*
X166260000Y-62310000D02*
X166260000Y-57070000D01*
X184500000Y-62310000D02*
X184500000Y-57070000D01*
X184500000Y-57070000D02*
X166260000Y-57070000D01*
X184500000Y-62310000D02*
X166260000Y-62310000D01*
X184500000Y-80090000D02*
X166260000Y-80090000D01*
X184500000Y-74850000D02*
X166260000Y-74850000D01*
X184500000Y-80090000D02*
X184500000Y-74850000D01*
X166260000Y-80090000D02*
X166260000Y-74850000D01*
X184500000Y-87710000D02*
X166260000Y-87710000D01*
X184500000Y-82470000D02*
X166260000Y-82470000D01*
X184500000Y-87710000D02*
X184500000Y-82470000D01*
X166260000Y-87710000D02*
X166260000Y-82470000D01*
X166260000Y-104220000D02*
X166260000Y-98980000D01*
X184500000Y-104220000D02*
X184500000Y-98980000D01*
X184500000Y-98980000D02*
X166260000Y-98980000D01*
X184500000Y-104220000D02*
X166260000Y-104220000D01*
X184500000Y-111840000D02*
X166260000Y-111840000D01*
X184500000Y-106600000D02*
X166260000Y-106600000D01*
X184500000Y-111840000D02*
X184500000Y-106600000D01*
X166260000Y-111840000D02*
X166260000Y-106600000D01*
X166260000Y-128350000D02*
X166260000Y-123110000D01*
X184500000Y-128350000D02*
X184500000Y-123110000D01*
X184500000Y-123110000D02*
X166260000Y-123110000D01*
X184500000Y-128350000D02*
X166260000Y-128350000D01*
X184500000Y-135970000D02*
X166260000Y-135970000D01*
X184500000Y-130730000D02*
X166260000Y-130730000D01*
X184500000Y-135970000D02*
X184500000Y-130730000D01*
X166260000Y-135970000D02*
X166260000Y-130730000D01*
X166260000Y-152480000D02*
X166260000Y-147240000D01*
X184500000Y-152480000D02*
X184500000Y-147240000D01*
X184500000Y-147240000D02*
X166260000Y-147240000D01*
X184500000Y-152480000D02*
X166260000Y-152480000D01*
X144330000Y-64769538D02*
G75*
G03X149880000Y-66314830I2990000J-462D01*
G01*
X144330000Y-64770462D02*
G75*
G02X149880000Y-63225170I2990000J462D01*
G01*
X149820000Y-64770000D02*
G75*
G03X149820000Y-64770000I-2500000J0D01*
G01*
X149880000Y-66315000D02*
X149880000Y-63225000D01*
X149880000Y-72665000D02*
X149880000Y-69575000D01*
X149820000Y-71120000D02*
G75*
G03X149820000Y-71120000I-2500000J0D01*
G01*
X144330000Y-71120462D02*
G75*
G02X149880000Y-69575170I2990000J462D01*
G01*
X144330000Y-71119538D02*
G75*
G03X149880000Y-72664830I2990000J-462D01*
G01*
X144330000Y-90169538D02*
G75*
G03X149880000Y-91714830I2990000J-462D01*
G01*
X144330000Y-90170462D02*
G75*
G02X149880000Y-88625170I2990000J462D01*
G01*
X149820000Y-90170000D02*
G75*
G03X149820000Y-90170000I-2500000J0D01*
G01*
X149880000Y-91715000D02*
X149880000Y-88625000D01*
X149880000Y-98065000D02*
X149880000Y-94975000D01*
X149820000Y-96520000D02*
G75*
G03X149820000Y-96520000I-2500000J0D01*
G01*
X144330000Y-96520462D02*
G75*
G02X149880000Y-94975170I2990000J462D01*
G01*
X144330000Y-96519538D02*
G75*
G03X149880000Y-98064830I2990000J-462D01*
G01*
X144330000Y-115569538D02*
G75*
G03X149880000Y-117114830I2990000J-462D01*
G01*
X144330000Y-115570462D02*
G75*
G02X149880000Y-114025170I2990000J462D01*
G01*
X149820000Y-115570000D02*
G75*
G03X149820000Y-115570000I-2500000J0D01*
G01*
X149880000Y-117115000D02*
X149880000Y-114025000D01*
X149880000Y-123465000D02*
X149880000Y-120375000D01*
X149820000Y-121920000D02*
G75*
G03X149820000Y-121920000I-2500000J0D01*
G01*
X144330000Y-121920462D02*
G75*
G02X149880000Y-120375170I2990000J462D01*
G01*
X144330000Y-121919538D02*
G75*
G03X149880000Y-123464830I2990000J-462D01*
G01*
X149880000Y-139975000D02*
X149880000Y-136885000D01*
X149820000Y-138430000D02*
G75*
G03X149820000Y-138430000I-2500000J0D01*
G01*
X144330000Y-138430462D02*
G75*
G02X149880000Y-136885170I2990000J462D01*
G01*
X144330000Y-138429538D02*
G75*
G03X149880000Y-139974830I2990000J-462D01*
G01*
X144330000Y-144779538D02*
G75*
G03X149880000Y-146324830I2990000J-462D01*
G01*
X144330000Y-144780462D02*
G75*
G02X149880000Y-143235170I2990000J462D01*
G01*
X149820000Y-144780000D02*
G75*
G03X149820000Y-144780000I-2500000J0D01*
G01*
X149880000Y-146325000D02*
X149880000Y-143235000D01*
X67760000Y-81280462D02*
G75*
G03X62210000Y-79735170I-2990000J462D01*
G01*
X67760000Y-81279538D02*
G75*
G02X62210000Y-82824830I-2990000J-462D01*
G01*
X67270000Y-81280000D02*
G75*
G03X67270000Y-81280000I-2500000J0D01*
G01*
X62210000Y-79735000D02*
X62210000Y-82825000D01*
X75380000Y-81280462D02*
G75*
G03X69830000Y-79735170I-2990000J462D01*
G01*
X75380000Y-81279538D02*
G75*
G02X69830000Y-82824830I-2990000J-462D01*
G01*
X74890000Y-81280000D02*
G75*
G03X74890000Y-81280000I-2500000J0D01*
G01*
X69830000Y-79735000D02*
X69830000Y-82825000D01*
X77450000Y-79735000D02*
X77450000Y-82825000D01*
X82510000Y-81280000D02*
G75*
G03X82510000Y-81280000I-2500000J0D01*
G01*
X83000000Y-81279538D02*
G75*
G02X77450000Y-82824830I-2990000J-462D01*
G01*
X83000000Y-81280462D02*
G75*
G03X77450000Y-79735170I-2990000J462D01*
G01*
X90620000Y-81280462D02*
G75*
G03X85070000Y-79735170I-2990000J462D01*
G01*
X90620000Y-81279538D02*
G75*
G02X85070000Y-82824830I-2990000J-462D01*
G01*
X90130000Y-81280000D02*
G75*
G03X90130000Y-81280000I-2500000J0D01*
G01*
X85070000Y-79735000D02*
X85070000Y-82825000D01*
X98240000Y-81280462D02*
G75*
G03X92690000Y-79735170I-2990000J462D01*
G01*
X98240000Y-81279538D02*
G75*
G02X92690000Y-82824830I-2990000J-462D01*
G01*
X97750000Y-81280000D02*
G75*
G03X97750000Y-81280000I-2500000J0D01*
G01*
X92690000Y-79735000D02*
X92690000Y-82825000D01*
X100310000Y-79735000D02*
X100310000Y-82825000D01*
X105370000Y-81280000D02*
G75*
G03X105370000Y-81280000I-2500000J0D01*
G01*
X105860000Y-81279538D02*
G75*
G02X100310000Y-82824830I-2990000J-462D01*
G01*
X105860000Y-81280462D02*
G75*
G03X100310000Y-79735170I-2990000J462D01*
G01*
X107930000Y-79735000D02*
X107930000Y-82825000D01*
X112990000Y-81280000D02*
G75*
G03X112990000Y-81280000I-2500000J0D01*
G01*
X113480000Y-81279538D02*
G75*
G02X107930000Y-82824830I-2990000J-462D01*
G01*
X113480000Y-81280462D02*
G75*
G03X107930000Y-79735170I-2990000J462D01*
G01*
X189554179Y-62946841D02*
G75*
G02X189570000Y-58960000I1665821J1986841D01*
G01*
X189554179Y-67946841D02*
G75*
G02X189570000Y-63960000I1665821J1986841D01*
G01*
X189554179Y-72946841D02*
G75*
G02X189570000Y-68960000I1665821J1986841D01*
G01*
X189554179Y-77946841D02*
G75*
G02X189570000Y-73960000I1665821J1986841D01*
G01*
X196680000Y-57350000D02*
X187860000Y-57350000D01*
X187860000Y-57350000D02*
X187860000Y-79570000D01*
X187860000Y-79570000D02*
X196680000Y-79570000D01*
X196680000Y-79570000D02*
X196680000Y-57350000D01*
X195870000Y-57350000D02*
X195870000Y-59850000D01*
X195870000Y-79570000D02*
X195870000Y-77070000D01*
X195870000Y-61960000D02*
X195870000Y-64960000D01*
X195870000Y-66960000D02*
X195870000Y-69960000D01*
X195870000Y-71960000D02*
X195870000Y-74960000D01*
X194870000Y-59960000D02*
X196680000Y-59960000D01*
X196680000Y-59960000D02*
X196680000Y-61960000D01*
X196680000Y-61960000D02*
X194870000Y-61960000D01*
X194870000Y-61960000D02*
X194870000Y-59960000D01*
X194870000Y-64960000D02*
X196680000Y-64960000D01*
X196680000Y-64960000D02*
X196680000Y-66960000D01*
X196680000Y-66960000D02*
X194870000Y-66960000D01*
X194870000Y-66960000D02*
X194870000Y-64960000D01*
X194870000Y-69960000D02*
X196680000Y-69960000D01*
X196680000Y-69960000D02*
X196680000Y-71960000D01*
X196680000Y-71960000D02*
X194870000Y-71960000D01*
X194870000Y-71960000D02*
X194870000Y-69960000D01*
X194870000Y-74960000D02*
X196680000Y-74960000D01*
X196680000Y-74960000D02*
X196680000Y-76960000D01*
X196680000Y-76960000D02*
X194870000Y-76960000D01*
X194870000Y-76960000D02*
X194870000Y-74960000D01*
X189570000Y-62960000D02*
X189570000Y-63960000D01*
X189570000Y-67960000D02*
X189570000Y-68960000D01*
X189570000Y-72960000D02*
X189570000Y-73960000D01*
X189570000Y-58960000D02*
X189570000Y-58260000D01*
X189570000Y-58260000D02*
X194870000Y-58260000D01*
X194870000Y-58260000D02*
X194870000Y-78660000D01*
X194870000Y-78660000D02*
X189570000Y-78660000D01*
X189570000Y-78660000D02*
X189570000Y-77960000D01*
X197480000Y-61260000D02*
X196880000Y-60960000D01*
X196880000Y-60960000D02*
X197480000Y-60660000D01*
X197480000Y-60660000D02*
X197480000Y-61260000D01*
X129734000Y-34290000D02*
X132394000Y-34290000D01*
X129734000Y-34290000D02*
X129734000Y-41970000D01*
X129734000Y-41970000D02*
X132394000Y-41970000D01*
X132394000Y-34290000D02*
X132394000Y-41970000D01*
X132394000Y-31690000D02*
X132394000Y-33020000D01*
X131064000Y-31690000D02*
X132394000Y-31690000D01*
X197480000Y-84790000D02*
X197480000Y-85390000D01*
X196880000Y-85090000D02*
X197480000Y-84790000D01*
X197480000Y-85390000D02*
X196880000Y-85090000D01*
X189570000Y-102790000D02*
X189570000Y-102090000D01*
X194870000Y-102790000D02*
X189570000Y-102790000D01*
X194870000Y-82390000D02*
X194870000Y-102790000D01*
X189570000Y-82390000D02*
X194870000Y-82390000D01*
X189570000Y-83090000D02*
X189570000Y-82390000D01*
X189570000Y-97090000D02*
X189570000Y-98090000D01*
X189570000Y-92090000D02*
X189570000Y-93090000D01*
X189570000Y-87090000D02*
X189570000Y-88090000D01*
X194870000Y-101090000D02*
X194870000Y-99090000D01*
X196680000Y-101090000D02*
X194870000Y-101090000D01*
X196680000Y-99090000D02*
X196680000Y-101090000D01*
X194870000Y-99090000D02*
X196680000Y-99090000D01*
X194870000Y-96090000D02*
X194870000Y-94090000D01*
X196680000Y-96090000D02*
X194870000Y-96090000D01*
X196680000Y-94090000D02*
X196680000Y-96090000D01*
X194870000Y-94090000D02*
X196680000Y-94090000D01*
X194870000Y-91090000D02*
X194870000Y-89090000D01*
X196680000Y-91090000D02*
X194870000Y-91090000D01*
X196680000Y-89090000D02*
X196680000Y-91090000D01*
X194870000Y-89090000D02*
X196680000Y-89090000D01*
X194870000Y-86090000D02*
X194870000Y-84090000D01*
X196680000Y-86090000D02*
X194870000Y-86090000D01*
X196680000Y-84090000D02*
X196680000Y-86090000D01*
X194870000Y-84090000D02*
X196680000Y-84090000D01*
X195870000Y-96090000D02*
X195870000Y-99090000D01*
X195870000Y-91090000D02*
X195870000Y-94090000D01*
X195870000Y-86090000D02*
X195870000Y-89090000D01*
X195870000Y-103700000D02*
X195870000Y-101200000D01*
X195870000Y-81480000D02*
X195870000Y-83980000D01*
X196680000Y-103700000D02*
X196680000Y-81480000D01*
X187860000Y-103700000D02*
X196680000Y-103700000D01*
X187860000Y-81480000D02*
X187860000Y-103700000D01*
X196680000Y-81480000D02*
X187860000Y-81480000D01*
X189554179Y-102076841D02*
G75*
G02X189570000Y-98090000I1665821J1986841D01*
G01*
X189554179Y-97076841D02*
G75*
G02X189570000Y-93090000I1665821J1986841D01*
G01*
X189554179Y-92076841D02*
G75*
G02X189570000Y-88090000I1665821J1986841D01*
G01*
X189554179Y-87076841D02*
G75*
G02X189570000Y-83090000I1665821J1986841D01*
G01*
X189554179Y-111206841D02*
G75*
G02X189570000Y-107220000I1665821J1986841D01*
G01*
X189554179Y-116206841D02*
G75*
G02X189570000Y-112220000I1665821J1986841D01*
G01*
X189554179Y-121206841D02*
G75*
G02X189570000Y-117220000I1665821J1986841D01*
G01*
X189554179Y-126206841D02*
G75*
G02X189570000Y-122220000I1665821J1986841D01*
G01*
X196680000Y-105610000D02*
X187860000Y-105610000D01*
X187860000Y-105610000D02*
X187860000Y-127830000D01*
X187860000Y-127830000D02*
X196680000Y-127830000D01*
X196680000Y-127830000D02*
X196680000Y-105610000D01*
X195870000Y-105610000D02*
X195870000Y-108110000D01*
X195870000Y-127830000D02*
X195870000Y-125330000D01*
X195870000Y-110220000D02*
X195870000Y-113220000D01*
X195870000Y-115220000D02*
X195870000Y-118220000D01*
X195870000Y-120220000D02*
X195870000Y-123220000D01*
X194870000Y-108220000D02*
X196680000Y-108220000D01*
X196680000Y-108220000D02*
X196680000Y-110220000D01*
X196680000Y-110220000D02*
X194870000Y-110220000D01*
X194870000Y-110220000D02*
X194870000Y-108220000D01*
X194870000Y-113220000D02*
X196680000Y-113220000D01*
X196680000Y-113220000D02*
X196680000Y-115220000D01*
X196680000Y-115220000D02*
X194870000Y-115220000D01*
X194870000Y-115220000D02*
X194870000Y-113220000D01*
X194870000Y-118220000D02*
X196680000Y-118220000D01*
X196680000Y-118220000D02*
X196680000Y-120220000D01*
X196680000Y-120220000D02*
X194870000Y-120220000D01*
X194870000Y-120220000D02*
X194870000Y-118220000D01*
X194870000Y-123220000D02*
X196680000Y-123220000D01*
X196680000Y-123220000D02*
X196680000Y-125220000D01*
X196680000Y-125220000D02*
X194870000Y-125220000D01*
X194870000Y-125220000D02*
X194870000Y-123220000D01*
X189570000Y-111220000D02*
X189570000Y-112220000D01*
X189570000Y-116220000D02*
X189570000Y-117220000D01*
X189570000Y-121220000D02*
X189570000Y-122220000D01*
X189570000Y-107220000D02*
X189570000Y-106520000D01*
X189570000Y-106520000D02*
X194870000Y-106520000D01*
X194870000Y-106520000D02*
X194870000Y-126920000D01*
X194870000Y-126920000D02*
X189570000Y-126920000D01*
X189570000Y-126920000D02*
X189570000Y-126220000D01*
X197480000Y-109520000D02*
X196880000Y-109220000D01*
X196880000Y-109220000D02*
X197480000Y-108920000D01*
X197480000Y-108920000D02*
X197480000Y-109520000D01*
X70436682Y-26405244D02*
G75*
G02X71120000Y-26260000I683318J-1534756D01*
G01*
X69584574Y-28623042D02*
G75*
G02X69585000Y-27256000I1535426J683042D01*
G01*
X71803042Y-29475426D02*
G75*
G02X70436000Y-29475000I-683042J1535426D01*
G01*
X72655426Y-27256958D02*
G75*
G02X72655000Y-28624000I-1535426J-683042D01*
G01*
X71091195Y-26259747D02*
G75*
G02X71804000Y-26405000I28805J-1680253D01*
G01*
X67800000Y-27940000D02*
G75*
G03X67800000Y-27940000I-1680000J0D01*
G01*
X62800000Y-27940000D02*
G75*
G03X62800000Y-27940000I-1680000J0D01*
G01*
X73680000Y-23840000D02*
X58560000Y-23840000D01*
X73680000Y-25340000D02*
X58560000Y-25340000D01*
X73680000Y-30241000D02*
X58560000Y-30241000D01*
X73680000Y-33201000D02*
X58560000Y-33201000D01*
X73680000Y-23280000D02*
X58560000Y-23280000D01*
X73680000Y-33201000D02*
X73680000Y-23280000D01*
X58560000Y-33201000D02*
X58560000Y-23280000D01*
X64845000Y-29009000D02*
X64892000Y-28963000D01*
X67154000Y-26701000D02*
X67189000Y-26666000D01*
X65050000Y-29215000D02*
X65085000Y-29179000D01*
X67347000Y-26917000D02*
X67394000Y-26871000D01*
X59845000Y-29009000D02*
X59892000Y-28963000D01*
X62154000Y-26701000D02*
X62189000Y-26666000D01*
X60050000Y-29215000D02*
X60085000Y-29179000D01*
X62347000Y-26917000D02*
X62394000Y-26871000D01*
X73920000Y-23780000D02*
X73920000Y-23040000D01*
X73920000Y-23040000D02*
X73420000Y-23040000D01*
X197480000Y-133050000D02*
X197480000Y-133650000D01*
X196880000Y-133350000D02*
X197480000Y-133050000D01*
X197480000Y-133650000D02*
X196880000Y-133350000D01*
X189570000Y-151050000D02*
X189570000Y-150350000D01*
X194870000Y-151050000D02*
X189570000Y-151050000D01*
X194870000Y-130650000D02*
X194870000Y-151050000D01*
X189570000Y-130650000D02*
X194870000Y-130650000D01*
X189570000Y-131350000D02*
X189570000Y-130650000D01*
X189570000Y-145350000D02*
X189570000Y-146350000D01*
X189570000Y-140350000D02*
X189570000Y-141350000D01*
X189570000Y-135350000D02*
X189570000Y-136350000D01*
X194870000Y-149350000D02*
X194870000Y-147350000D01*
X196680000Y-149350000D02*
X194870000Y-149350000D01*
X196680000Y-147350000D02*
X196680000Y-149350000D01*
X194870000Y-147350000D02*
X196680000Y-147350000D01*
X194870000Y-144350000D02*
X194870000Y-142350000D01*
X196680000Y-144350000D02*
X194870000Y-144350000D01*
X196680000Y-142350000D02*
X196680000Y-144350000D01*
X194870000Y-142350000D02*
X196680000Y-142350000D01*
X194870000Y-139350000D02*
X194870000Y-137350000D01*
X196680000Y-139350000D02*
X194870000Y-139350000D01*
X196680000Y-137350000D02*
X196680000Y-139350000D01*
X194870000Y-137350000D02*
X196680000Y-137350000D01*
X194870000Y-134350000D02*
X194870000Y-132350000D01*
X196680000Y-134350000D02*
X194870000Y-134350000D01*
X196680000Y-132350000D02*
X196680000Y-134350000D01*
X194870000Y-132350000D02*
X196680000Y-132350000D01*
X195870000Y-144350000D02*
X195870000Y-147350000D01*
X195870000Y-139350000D02*
X195870000Y-142350000D01*
X195870000Y-134350000D02*
X195870000Y-137350000D01*
X195870000Y-151960000D02*
X195870000Y-149460000D01*
X195870000Y-129740000D02*
X195870000Y-132240000D01*
X196680000Y-151960000D02*
X196680000Y-129740000D01*
X187860000Y-151960000D02*
X196680000Y-151960000D01*
X187860000Y-129740000D02*
X187860000Y-151960000D01*
X196680000Y-129740000D02*
X187860000Y-129740000D01*
X189554179Y-150336841D02*
G75*
G02X189570000Y-146350000I1665821J1986841D01*
G01*
X189554179Y-145336841D02*
G75*
G02X189570000Y-141350000I1665821J1986841D01*
G01*
X189554179Y-140336841D02*
G75*
G02X189570000Y-136350000I1665821J1986841D01*
G01*
X189554179Y-135336841D02*
G75*
G02X189570000Y-131350000I1665821J1986841D01*
G01*
X50535244Y-26083318D02*
G75*
G02X50390000Y-25400000I1534756J683318D01*
G01*
X52753042Y-26935426D02*
G75*
G02X51386000Y-26935000I-683042J1535426D01*
G01*
X53605426Y-24716958D02*
G75*
G02X53605000Y-26084000I-1535426J-683042D01*
G01*
X51386958Y-23864574D02*
G75*
G02X52754000Y-23865000I683042J-1535426D01*
G01*
X50389747Y-25428805D02*
G75*
G02X50535000Y-24716000I1680253J28805D01*
G01*
X53750000Y-30400000D02*
G75*
G03X53750000Y-30400000I-1680000J0D01*
G01*
X47970000Y-22840000D02*
X47970000Y-32960000D01*
X49470000Y-22840000D02*
X49470000Y-32960000D01*
X54371000Y-22840000D02*
X54371000Y-32960000D01*
X57331000Y-22840000D02*
X57331000Y-32960000D01*
X47410000Y-22840000D02*
X47410000Y-32960000D01*
X57331000Y-22840000D02*
X47410000Y-22840000D01*
X57331000Y-32960000D02*
X47410000Y-32960000D01*
X53139000Y-31675000D02*
X53093000Y-31628000D01*
X50831000Y-29366000D02*
X50796000Y-29331000D01*
X53345000Y-31470000D02*
X53309000Y-31435000D01*
X51047000Y-29173000D02*
X51001000Y-29126000D01*
X47910000Y-22600000D02*
X47170000Y-22600000D01*
X47170000Y-22600000D02*
X47170000Y-23100000D01*
X50535244Y-37513318D02*
G75*
G02X50390000Y-36830000I1534756J683318D01*
G01*
X52753042Y-38365426D02*
G75*
G02X51386000Y-38365000I-683042J1535426D01*
G01*
X53605426Y-36146958D02*
G75*
G02X53605000Y-37514000I-1535426J-683042D01*
G01*
X51386958Y-35294574D02*
G75*
G02X52754000Y-35295000I683042J-1535426D01*
G01*
X50389747Y-36858805D02*
G75*
G02X50535000Y-36146000I1680253J28805D01*
G01*
X53750000Y-41830000D02*
G75*
G03X53750000Y-41830000I-1680000J0D01*
G01*
X53750000Y-46830000D02*
G75*
G03X53750000Y-46830000I-1680000J0D01*
G01*
X53750000Y-51830000D02*
G75*
G03X53750000Y-51830000I-1680000J0D01*
G01*
X53750000Y-56830000D02*
G75*
G03X53750000Y-56830000I-1680000J0D01*
G01*
X53750000Y-61830000D02*
G75*
G03X53750000Y-61830000I-1680000J0D01*
G01*
X53750000Y-66830000D02*
G75*
G03X53750000Y-66830000I-1680000J0D01*
G01*
X53750000Y-71830000D02*
G75*
G03X53750000Y-71830000I-1680000J0D01*
G01*
X53750000Y-76830000D02*
G75*
G03X53750000Y-76830000I-1680000J0D01*
G01*
X53750000Y-81830000D02*
G75*
G03X53750000Y-81830000I-1680000J0D01*
G01*
X47970000Y-34270000D02*
X47970000Y-84390000D01*
X49470000Y-34270000D02*
X49470000Y-84390000D01*
X54371000Y-34270000D02*
X54371000Y-84390000D01*
X57331000Y-34270000D02*
X57331000Y-84390000D01*
X47410000Y-34270000D02*
X47410000Y-84390000D01*
X57331000Y-34270000D02*
X47410000Y-34270000D01*
X57331000Y-84390000D02*
X47410000Y-84390000D01*
X53139000Y-43105000D02*
X53093000Y-43058000D01*
X50831000Y-40796000D02*
X50796000Y-40761000D01*
X53345000Y-42900000D02*
X53309000Y-42865000D01*
X51047000Y-40603000D02*
X51001000Y-40556000D01*
X53139000Y-48105000D02*
X53093000Y-48058000D01*
X50831000Y-45796000D02*
X50796000Y-45761000D01*
X53345000Y-47900000D02*
X53309000Y-47865000D01*
X51047000Y-45603000D02*
X51001000Y-45556000D01*
X53139000Y-53105000D02*
X53093000Y-53058000D01*
X50831000Y-50796000D02*
X50796000Y-50761000D01*
X53345000Y-52900000D02*
X53309000Y-52865000D01*
X51047000Y-50603000D02*
X51001000Y-50556000D01*
X53139000Y-58105000D02*
X53093000Y-58058000D01*
X50831000Y-55796000D02*
X50796000Y-55761000D01*
X53345000Y-57900000D02*
X53309000Y-57865000D01*
X51047000Y-55603000D02*
X51001000Y-55556000D01*
X53139000Y-63105000D02*
X53093000Y-63058000D01*
X50831000Y-60796000D02*
X50796000Y-60761000D01*
X53345000Y-62900000D02*
X53309000Y-62865000D01*
X51047000Y-60603000D02*
X51001000Y-60556000D01*
X53139000Y-68105000D02*
X53093000Y-68058000D01*
X50831000Y-65796000D02*
X50796000Y-65761000D01*
X53345000Y-67900000D02*
X53309000Y-67865000D01*
X51047000Y-65603000D02*
X51001000Y-65556000D01*
X53139000Y-73105000D02*
X53093000Y-73058000D01*
X50831000Y-70796000D02*
X50796000Y-70761000D01*
X53345000Y-72900000D02*
X53309000Y-72865000D01*
X51047000Y-70603000D02*
X51001000Y-70556000D01*
X53139000Y-78105000D02*
X53093000Y-78058000D01*
X50831000Y-75796000D02*
X50796000Y-75761000D01*
X53345000Y-77900000D02*
X53309000Y-77865000D01*
X51047000Y-75603000D02*
X51001000Y-75556000D01*
X53139000Y-83105000D02*
X53093000Y-83058000D01*
X50831000Y-80796000D02*
X50796000Y-80761000D01*
X53345000Y-82900000D02*
X53309000Y-82865000D01*
X51047000Y-80603000D02*
X51001000Y-80556000D01*
X47910000Y-34030000D02*
X47170000Y-34030000D01*
X47170000Y-34030000D02*
X47170000Y-34530000D01*
X149240000Y-58770000D02*
X145400000Y-58770000D01*
X149240000Y-60610000D02*
X145400000Y-60610000D01*
X177180000Y-65690000D02*
X173340000Y-65690000D01*
X177180000Y-63850000D02*
X173340000Y-63850000D01*
X149240000Y-77120000D02*
X145400000Y-77120000D01*
X149240000Y-75280000D02*
X145400000Y-75280000D01*
X177180000Y-73310000D02*
X173340000Y-73310000D01*
X177180000Y-71470000D02*
X173340000Y-71470000D01*
X149240000Y-84170000D02*
X145400000Y-84170000D01*
X149240000Y-86010000D02*
X145400000Y-86010000D01*
X84470000Y-48610000D02*
X80630000Y-48610000D01*
X84470000Y-50450000D02*
X80630000Y-50450000D01*
X177180000Y-91090000D02*
X173340000Y-91090000D01*
X177180000Y-89250000D02*
X173340000Y-89250000D01*
X149240000Y-102520000D02*
X145400000Y-102520000D01*
X149240000Y-100680000D02*
X145400000Y-100680000D01*
X177180000Y-97440000D02*
X173340000Y-97440000D01*
X177180000Y-95600000D02*
X173340000Y-95600000D01*
X149240000Y-109570000D02*
X145400000Y-109570000D01*
X149240000Y-111410000D02*
X145400000Y-111410000D01*
X177180000Y-115220000D02*
X173340000Y-115220000D01*
X177180000Y-113380000D02*
X173340000Y-113380000D01*
X149240000Y-127920000D02*
X145400000Y-127920000D01*
X149240000Y-126080000D02*
X145400000Y-126080000D01*
X177180000Y-119730000D02*
X173340000Y-119730000D01*
X177180000Y-121570000D02*
X173340000Y-121570000D01*
X149240000Y-132430000D02*
X145400000Y-132430000D01*
X149240000Y-134270000D02*
X145400000Y-134270000D01*
X177180000Y-137510000D02*
X173340000Y-137510000D01*
X177180000Y-139350000D02*
X173340000Y-139350000D01*
X149240000Y-150780000D02*
X145400000Y-150780000D01*
X149240000Y-148940000D02*
X145400000Y-148940000D01*
X177180000Y-145700000D02*
X173340000Y-145700000D01*
X177180000Y-143860000D02*
X173340000Y-143860000D01*
X66690000Y-75280000D02*
X62850000Y-75280000D01*
X66690000Y-77120000D02*
X62850000Y-77120000D01*
X74310000Y-77120000D02*
X70470000Y-77120000D01*
X74310000Y-75280000D02*
X70470000Y-75280000D01*
X81930000Y-75280000D02*
X78090000Y-75280000D01*
X81930000Y-77120000D02*
X78090000Y-77120000D01*
X89550000Y-77120000D02*
X85710000Y-77120000D01*
X89550000Y-75280000D02*
X85710000Y-75280000D01*
X97170000Y-77120000D02*
X93330000Y-77120000D01*
X97170000Y-75280000D02*
X93330000Y-75280000D01*
X135270000Y-140050000D02*
X131430000Y-140050000D01*
X135270000Y-141890000D02*
X131430000Y-141890000D01*
X104790000Y-75280000D02*
X100950000Y-75280000D01*
X104790000Y-77120000D02*
X100950000Y-77120000D01*
X135270000Y-142590000D02*
X131430000Y-142590000D01*
X135270000Y-144430000D02*
X131430000Y-144430000D01*
X112410000Y-77120000D02*
X108570000Y-77120000D01*
X112410000Y-75280000D02*
X108570000Y-75280000D01*
X135270000Y-145130000D02*
X131430000Y-145130000D01*
X135270000Y-146970000D02*
X131430000Y-146970000D01*
X135270000Y-147670000D02*
X131430000Y-147670000D01*
X135270000Y-149510000D02*
X131430000Y-149510000D01*
D11*
X193782000Y-56232000D02*
X193782000Y-44232000D01*
X189882000Y-56232000D02*
X189882000Y-44232000D01*
X189882000Y-44232000D02*
X193782000Y-44232000D01*
X189882000Y-56232000D02*
X193782000Y-56232000D01*
D12*
X84674214Y-44160000D02*
G75*
G03X84674214Y-44160000I-1414214J0D01*
G01*
X80290000Y-47280000D02*
X86230000Y-47280000D01*
X80290000Y-41040000D02*
X86230000Y-41040000D01*
X80140000Y-45500000D02*
X80140000Y-42820000D01*
X86380000Y-42820000D02*
X86380000Y-45500000D01*
X126766000Y-41550000D02*
X126766000Y-44230000D01*
X120526000Y-44230000D02*
X120526000Y-41550000D01*
X120676000Y-39770000D02*
X126616000Y-39770000D01*
X120676000Y-46010000D02*
X126616000Y-46010000D01*
X125060214Y-42890000D02*
G75*
G03X125060214Y-42890000I-1414214J0D01*
G01*
D11*
X56960000Y-151650000D02*
X52180000Y-151650000D01*
X56966843Y-151647095D02*
G75*
G03X52180000Y-151650000I-2396843J5637095D01*
G01*
X78556843Y-151647095D02*
G75*
G03X73770000Y-151650000I-2396843J5637095D01*
G01*
X78550000Y-151650000D02*
X73770000Y-151650000D01*
X100140000Y-151650000D02*
X95360000Y-151650000D01*
X100146843Y-151647095D02*
G75*
G03X95360000Y-151650000I-2396843J5637095D01*
G01*
X121736843Y-151647095D02*
G75*
G03X116950000Y-151650000I-2396843J5637095D01*
G01*
X121730000Y-151650000D02*
X116950000Y-151650000D01*
X133670000Y-86260000D02*
X133670000Y-89260000D01*
X133670000Y-86260000D02*
X130670000Y-86260000D01*
X133670000Y-137260000D02*
X130670000Y-137260000D01*
X133670000Y-137260000D02*
X133670000Y-134260000D01*
X46670000Y-137260000D02*
X49670000Y-137260000D01*
X46670000Y-137260000D02*
X46670000Y-134260000D01*
X46670000Y-86260000D02*
X46670000Y-89260000D01*
X46670000Y-86260000D02*
X49670000Y-86260000D01*
D12*
X158480000Y-59630000D02*
G75*
G02X156480000Y-59630000I-1000000J0D01*
G01*
X156480000Y-59630000D02*
X154830000Y-59630000D01*
X154830000Y-59630000D02*
X154830000Y-67370000D01*
X154830000Y-67370000D02*
X160130000Y-67370000D01*
X160130000Y-67370000D02*
X160130000Y-59630000D01*
X160130000Y-59630000D02*
X158480000Y-59630000D01*
X152340000Y-59570000D02*
X152340000Y-67430000D01*
X152340000Y-67430000D02*
X162620000Y-67430000D01*
X162620000Y-67430000D02*
X162620000Y-59570000D01*
X162620000Y-59570000D02*
X152340000Y-59570000D01*
X135620000Y-59630000D02*
G75*
G02X133620000Y-59630000I-1000000J0D01*
G01*
X133620000Y-59630000D02*
X131970000Y-59630000D01*
X131970000Y-59630000D02*
X131970000Y-80070000D01*
X131970000Y-80070000D02*
X137270000Y-80070000D01*
X137270000Y-80070000D02*
X137270000Y-59630000D01*
X137270000Y-59630000D02*
X135620000Y-59630000D01*
X162620000Y-68460000D02*
X152340000Y-68460000D01*
X162620000Y-76320000D02*
X162620000Y-68460000D01*
X152340000Y-76320000D02*
X162620000Y-76320000D01*
X152340000Y-68460000D02*
X152340000Y-76320000D01*
X160130000Y-68520000D02*
X158480000Y-68520000D01*
X160130000Y-76260000D02*
X160130000Y-68520000D01*
X154830000Y-76260000D02*
X160130000Y-76260000D01*
X154830000Y-68520000D02*
X154830000Y-76260000D01*
X156480000Y-68520000D02*
X154830000Y-68520000D01*
X158480000Y-68520000D02*
G75*
G02X156480000Y-68520000I-1000000J0D01*
G01*
X158480000Y-85030000D02*
G75*
G02X156480000Y-85030000I-1000000J0D01*
G01*
X156480000Y-85030000D02*
X154830000Y-85030000D01*
X154830000Y-85030000D02*
X154830000Y-92770000D01*
X154830000Y-92770000D02*
X160130000Y-92770000D01*
X160130000Y-92770000D02*
X160130000Y-85030000D01*
X160130000Y-85030000D02*
X158480000Y-85030000D01*
X152340000Y-84970000D02*
X152340000Y-92830000D01*
X152340000Y-92830000D02*
X162620000Y-92830000D01*
X162620000Y-92830000D02*
X162620000Y-84970000D01*
X162620000Y-84970000D02*
X152340000Y-84970000D01*
X162620000Y-93860000D02*
X152340000Y-93860000D01*
X162620000Y-101720000D02*
X162620000Y-93860000D01*
X152340000Y-101720000D02*
X162620000Y-101720000D01*
X152340000Y-93860000D02*
X152340000Y-101720000D01*
X160130000Y-93920000D02*
X158480000Y-93920000D01*
X160130000Y-101660000D02*
X160130000Y-93920000D01*
X154830000Y-101660000D02*
X160130000Y-101660000D01*
X154830000Y-93920000D02*
X154830000Y-101660000D01*
X156480000Y-93920000D02*
X154830000Y-93920000D01*
X158480000Y-93920000D02*
G75*
G02X156480000Y-93920000I-1000000J0D01*
G01*
X162620000Y-110370000D02*
X152340000Y-110370000D01*
X162620000Y-118230000D02*
X162620000Y-110370000D01*
X152340000Y-118230000D02*
X162620000Y-118230000D01*
X152340000Y-110370000D02*
X152340000Y-118230000D01*
X160130000Y-110430000D02*
X158480000Y-110430000D01*
X160130000Y-118170000D02*
X160130000Y-110430000D01*
X154830000Y-118170000D02*
X160130000Y-118170000D01*
X154830000Y-110430000D02*
X154830000Y-118170000D01*
X156480000Y-110430000D02*
X154830000Y-110430000D01*
X158480000Y-110430000D02*
G75*
G02X156480000Y-110430000I-1000000J0D01*
G01*
X97560000Y-57360000D02*
X97560000Y-58140000D01*
X97560000Y-58140000D02*
X98560000Y-58140000D01*
X115800000Y-57360000D02*
X115800000Y-58140000D01*
X115800000Y-58140000D02*
X114800000Y-58140000D01*
X97560000Y-32395000D02*
X115800000Y-32395000D01*
X115800000Y-32395000D02*
X115800000Y-38815000D01*
X97560000Y-32395000D02*
X97560000Y-38815000D01*
X97560000Y-38815000D02*
X97180000Y-38815000D01*
X158480000Y-119320000D02*
G75*
G02X156480000Y-119320000I-1000000J0D01*
G01*
X156480000Y-119320000D02*
X154830000Y-119320000D01*
X154830000Y-119320000D02*
X154830000Y-127060000D01*
X154830000Y-127060000D02*
X160130000Y-127060000D01*
X160130000Y-127060000D02*
X160130000Y-119320000D01*
X160130000Y-119320000D02*
X158480000Y-119320000D01*
X152340000Y-119260000D02*
X152340000Y-127120000D01*
X152340000Y-127120000D02*
X162620000Y-127120000D01*
X162620000Y-127120000D02*
X162620000Y-119260000D01*
X162620000Y-119260000D02*
X152340000Y-119260000D01*
X162620000Y-133230000D02*
X152340000Y-133230000D01*
X162620000Y-141090000D02*
X162620000Y-133230000D01*
X152340000Y-141090000D02*
X162620000Y-141090000D01*
X152340000Y-133230000D02*
X152340000Y-141090000D01*
X160130000Y-133290000D02*
X158480000Y-133290000D01*
X160130000Y-141030000D02*
X160130000Y-133290000D01*
X154830000Y-141030000D02*
X160130000Y-141030000D01*
X154830000Y-133290000D02*
X154830000Y-141030000D01*
X156480000Y-133290000D02*
X154830000Y-133290000D01*
X158480000Y-133290000D02*
G75*
G02X156480000Y-133290000I-1000000J0D01*
G01*
X158480000Y-142180000D02*
G75*
G02X156480000Y-142180000I-1000000J0D01*
G01*
X156480000Y-142180000D02*
X154830000Y-142180000D01*
X154830000Y-142180000D02*
X154830000Y-149920000D01*
X154830000Y-149920000D02*
X160130000Y-149920000D01*
X160130000Y-149920000D02*
X160130000Y-142180000D01*
X160130000Y-142180000D02*
X158480000Y-142180000D01*
X152340000Y-142120000D02*
X152340000Y-149980000D01*
X152340000Y-149980000D02*
X162620000Y-149980000D01*
X162620000Y-149980000D02*
X162620000Y-142120000D01*
X162620000Y-142120000D02*
X152340000Y-142120000D01*
X62170000Y-65930000D02*
X62170000Y-67580000D01*
X82610000Y-65930000D02*
X62170000Y-65930000D01*
X82610000Y-71230000D02*
X82610000Y-65930000D01*
X62170000Y-71230000D02*
X82610000Y-71230000D01*
X62170000Y-69580000D02*
X62170000Y-71230000D01*
X62170000Y-67580000D02*
G75*
G02X62170000Y-69580000I0J-1000000D01*
G01*
X64500000Y-35500000D02*
G75*
G02X62500000Y-35500000I-1000000J0D01*
G01*
X62500000Y-35500000D02*
X60850000Y-35500000D01*
X60850000Y-35500000D02*
X60850000Y-55940000D01*
X60850000Y-55940000D02*
X66150000Y-55940000D01*
X66150000Y-55940000D02*
X66150000Y-35500000D01*
X66150000Y-35500000D02*
X64500000Y-35500000D01*
D11*
X168965714Y-43632380D02*
X168965714Y-42632380D01*
X169346666Y-42632380D01*
X169441904Y-42680000D01*
X169489523Y-42727619D01*
X169537142Y-42822857D01*
X169537142Y-42965714D01*
X169489523Y-43060952D01*
X169441904Y-43108571D01*
X169346666Y-43156190D01*
X168965714Y-43156190D01*
X169918095Y-43584761D02*
X170060952Y-43632380D01*
X170299047Y-43632380D01*
X170394285Y-43584761D01*
X170441904Y-43537142D01*
X170489523Y-43441904D01*
X170489523Y-43346666D01*
X170441904Y-43251428D01*
X170394285Y-43203809D01*
X170299047Y-43156190D01*
X170108571Y-43108571D01*
X170013333Y-43060952D01*
X169965714Y-43013333D01*
X169918095Y-42918095D01*
X169918095Y-42822857D01*
X169965714Y-42727619D01*
X170013333Y-42680000D01*
X170108571Y-42632380D01*
X170346666Y-42632380D01*
X170489523Y-42680000D01*
X171441904Y-43632380D02*
X170870476Y-43632380D01*
X171156190Y-43632380D02*
X171156190Y-42632380D01*
X171060952Y-42775238D01*
X170965714Y-42870476D01*
X170870476Y-42918095D01*
X138752141Y-91566666D02*
X138799760Y-91614285D01*
X138847379Y-91757142D01*
X138847379Y-91852380D01*
X138799760Y-91995238D01*
X138704522Y-92090476D01*
X138609284Y-92138095D01*
X138418808Y-92185714D01*
X138275951Y-92185714D01*
X138085475Y-92138095D01*
X137990237Y-92090476D01*
X137894999Y-91995238D01*
X137847379Y-91852380D01*
X137847379Y-91757142D01*
X137894999Y-91614285D01*
X137942618Y-91566666D01*
X138847379Y-90614285D02*
X138847379Y-91185714D01*
X138847379Y-90900000D02*
X137847379Y-90900000D01*
X137990237Y-90995238D01*
X138085475Y-91090476D01*
X138133094Y-91185714D01*
X60047142Y-80256666D02*
X60094761Y-80304285D01*
X60142380Y-80447142D01*
X60142380Y-80542380D01*
X60094761Y-80685238D01*
X59999523Y-80780476D01*
X59904285Y-80828095D01*
X59713809Y-80875714D01*
X59570952Y-80875714D01*
X59380476Y-80828095D01*
X59285238Y-80780476D01*
X59190000Y-80685238D01*
X59142380Y-80542380D01*
X59142380Y-80447142D01*
X59190000Y-80304285D01*
X59237619Y-80256666D01*
X59237619Y-79875714D02*
X59190000Y-79828095D01*
X59142380Y-79732857D01*
X59142380Y-79494761D01*
X59190000Y-79399523D01*
X59237619Y-79351904D01*
X59332857Y-79304285D01*
X59428095Y-79304285D01*
X59570952Y-79351904D01*
X60142380Y-79923333D01*
X60142380Y-79304285D01*
X110283333Y-72747142D02*
X110235714Y-72794761D01*
X110092857Y-72842380D01*
X109997619Y-72842380D01*
X109854761Y-72794761D01*
X109759523Y-72699523D01*
X109711904Y-72604285D01*
X109664285Y-72413809D01*
X109664285Y-72270952D01*
X109711904Y-72080476D01*
X109759523Y-71985238D01*
X109854761Y-71890000D01*
X109997619Y-71842380D01*
X110092857Y-71842380D01*
X110235714Y-71890000D01*
X110283333Y-71937619D01*
X110616666Y-71842380D02*
X111235714Y-71842380D01*
X110902380Y-72223333D01*
X111045238Y-72223333D01*
X111140476Y-72270952D01*
X111188095Y-72318571D01*
X111235714Y-72413809D01*
X111235714Y-72651904D01*
X111188095Y-72747142D01*
X111140476Y-72794761D01*
X111045238Y-72842380D01*
X110759523Y-72842380D01*
X110664285Y-72794761D01*
X110616666Y-72747142D01*
X127611142Y-35218666D02*
X127658761Y-35266285D01*
X127706380Y-35409142D01*
X127706380Y-35504380D01*
X127658761Y-35647238D01*
X127563523Y-35742476D01*
X127468285Y-35790095D01*
X127277809Y-35837714D01*
X127134952Y-35837714D01*
X126944476Y-35790095D01*
X126849238Y-35742476D01*
X126754000Y-35647238D01*
X126706380Y-35504380D01*
X126706380Y-35409142D01*
X126754000Y-35266285D01*
X126801619Y-35218666D01*
X127039714Y-34361523D02*
X127706380Y-34361523D01*
X126658761Y-34599619D02*
X127373047Y-34837714D01*
X127373047Y-34218666D01*
X138752141Y-127206666D02*
X138799760Y-127254285D01*
X138847379Y-127397142D01*
X138847379Y-127492380D01*
X138799760Y-127635238D01*
X138704522Y-127730476D01*
X138609284Y-127778095D01*
X138418808Y-127825714D01*
X138275951Y-127825714D01*
X138085475Y-127778095D01*
X137990237Y-127730476D01*
X137894999Y-127635238D01*
X137847379Y-127492380D01*
X137847379Y-127397142D01*
X137894999Y-127254285D01*
X137942618Y-127206666D01*
X137847379Y-126301904D02*
X137847379Y-126778095D01*
X138323570Y-126825714D01*
X138275951Y-126778095D01*
X138228332Y-126682857D01*
X138228332Y-126444761D01*
X138275951Y-126349523D01*
X138323570Y-126301904D01*
X138418808Y-126254285D01*
X138656903Y-126254285D01*
X138752141Y-126301904D01*
X138799760Y-126349523D01*
X138847379Y-126444761D01*
X138847379Y-126682857D01*
X138799760Y-126778095D01*
X138752141Y-126825714D01*
X86752143Y-56086666D02*
X86799762Y-56134285D01*
X86847381Y-56277142D01*
X86847381Y-56372380D01*
X86799762Y-56515238D01*
X86704524Y-56610476D01*
X86609286Y-56658095D01*
X86418810Y-56705714D01*
X86275953Y-56705714D01*
X86085477Y-56658095D01*
X85990239Y-56610476D01*
X85895001Y-56515238D01*
X85847381Y-56372380D01*
X85847381Y-56277142D01*
X85895001Y-56134285D01*
X85942620Y-56086666D01*
X85847381Y-55229523D02*
X85847381Y-55420000D01*
X85895001Y-55515238D01*
X85942620Y-55562857D01*
X86085477Y-55658095D01*
X86275953Y-55705714D01*
X86656905Y-55705714D01*
X86752143Y-55658095D01*
X86799762Y-55610476D01*
X86847381Y-55515238D01*
X86847381Y-55324761D01*
X86799762Y-55229523D01*
X86752143Y-55181904D01*
X86656905Y-55134285D01*
X86418810Y-55134285D01*
X86323572Y-55181904D01*
X86275953Y-55229523D01*
X86228334Y-55324761D01*
X86228334Y-55515238D01*
X86275953Y-55610476D01*
X86323572Y-55658095D01*
X86418810Y-55705714D01*
X175093333Y-60047142D02*
X175045714Y-60094761D01*
X174902857Y-60142380D01*
X174807619Y-60142380D01*
X174664761Y-60094761D01*
X174569523Y-59999523D01*
X174521904Y-59904285D01*
X174474285Y-59713809D01*
X174474285Y-59570952D01*
X174521904Y-59380476D01*
X174569523Y-59285238D01*
X174664761Y-59190000D01*
X174807619Y-59142380D01*
X174902857Y-59142380D01*
X175045714Y-59190000D01*
X175093333Y-59237619D01*
X175426666Y-59142380D02*
X176093333Y-59142380D01*
X175664761Y-60142380D01*
X175213333Y-77827142D02*
X175165714Y-77874761D01*
X175022857Y-77922380D01*
X174927619Y-77922380D01*
X174784761Y-77874761D01*
X174689523Y-77779523D01*
X174641904Y-77684285D01*
X174594285Y-77493809D01*
X174594285Y-77350952D01*
X174641904Y-77160476D01*
X174689523Y-77065238D01*
X174784761Y-76970000D01*
X174927619Y-76922380D01*
X175022857Y-76922380D01*
X175165714Y-76970000D01*
X175213333Y-77017619D01*
X175784761Y-77350952D02*
X175689523Y-77303333D01*
X175641904Y-77255714D01*
X175594285Y-77160476D01*
X175594285Y-77112857D01*
X175641904Y-77017619D01*
X175689523Y-76970000D01*
X175784761Y-76922380D01*
X175975238Y-76922380D01*
X176070476Y-76970000D01*
X176118095Y-77017619D01*
X176165714Y-77112857D01*
X176165714Y-77160476D01*
X176118095Y-77255714D01*
X176070476Y-77303333D01*
X175975238Y-77350952D01*
X175784761Y-77350952D01*
X175689523Y-77398571D01*
X175641904Y-77446190D01*
X175594285Y-77541428D01*
X175594285Y-77731904D01*
X175641904Y-77827142D01*
X175689523Y-77874761D01*
X175784761Y-77922380D01*
X175975238Y-77922380D01*
X176070476Y-77874761D01*
X176118095Y-77827142D01*
X176165714Y-77731904D01*
X176165714Y-77541428D01*
X176118095Y-77446190D01*
X176070476Y-77398571D01*
X175975238Y-77350952D01*
X175093333Y-85447142D02*
X175045714Y-85494761D01*
X174902857Y-85542380D01*
X174807619Y-85542380D01*
X174664761Y-85494761D01*
X174569523Y-85399523D01*
X174521904Y-85304285D01*
X174474285Y-85113809D01*
X174474285Y-84970952D01*
X174521904Y-84780476D01*
X174569523Y-84685238D01*
X174664761Y-84590000D01*
X174807619Y-84542380D01*
X174902857Y-84542380D01*
X175045714Y-84590000D01*
X175093333Y-84637619D01*
X175569523Y-85542380D02*
X175760000Y-85542380D01*
X175855238Y-85494761D01*
X175902857Y-85447142D01*
X175998095Y-85304285D01*
X176045714Y-85113809D01*
X176045714Y-84732857D01*
X175998095Y-84637619D01*
X175950476Y-84590000D01*
X175855238Y-84542380D01*
X175664761Y-84542380D01*
X175569523Y-84590000D01*
X175521904Y-84637619D01*
X175474285Y-84732857D01*
X175474285Y-84970952D01*
X175521904Y-85066190D01*
X175569523Y-85113809D01*
X175664761Y-85161428D01*
X175855238Y-85161428D01*
X175950476Y-85113809D01*
X175998095Y-85066190D01*
X176045714Y-84970952D01*
X174617142Y-101957142D02*
X174569523Y-102004761D01*
X174426666Y-102052380D01*
X174331428Y-102052380D01*
X174188571Y-102004761D01*
X174093333Y-101909523D01*
X174045714Y-101814285D01*
X173998095Y-101623809D01*
X173998095Y-101480952D01*
X174045714Y-101290476D01*
X174093333Y-101195238D01*
X174188571Y-101100000D01*
X174331428Y-101052380D01*
X174426666Y-101052380D01*
X174569523Y-101100000D01*
X174617142Y-101147619D01*
X175569523Y-102052380D02*
X174998095Y-102052380D01*
X175283809Y-102052380D02*
X175283809Y-101052380D01*
X175188571Y-101195238D01*
X175093333Y-101290476D01*
X174998095Y-101338095D01*
X176188571Y-101052380D02*
X176283809Y-101052380D01*
X176379047Y-101100000D01*
X176426666Y-101147619D01*
X176474285Y-101242857D01*
X176521904Y-101433333D01*
X176521904Y-101671428D01*
X176474285Y-101861904D01*
X176426666Y-101957142D01*
X176379047Y-102004761D01*
X176283809Y-102052380D01*
X176188571Y-102052380D01*
X176093333Y-102004761D01*
X176045714Y-101957142D01*
X175998095Y-101861904D01*
X175950476Y-101671428D01*
X175950476Y-101433333D01*
X175998095Y-101242857D01*
X176045714Y-101147619D01*
X176093333Y-101100000D01*
X176188571Y-101052380D01*
X174737142Y-109577142D02*
X174689523Y-109624761D01*
X174546666Y-109672380D01*
X174451428Y-109672380D01*
X174308571Y-109624761D01*
X174213333Y-109529523D01*
X174165714Y-109434285D01*
X174118095Y-109243809D01*
X174118095Y-109100952D01*
X174165714Y-108910476D01*
X174213333Y-108815238D01*
X174308571Y-108720000D01*
X174451428Y-108672380D01*
X174546666Y-108672380D01*
X174689523Y-108720000D01*
X174737142Y-108767619D01*
X175689523Y-109672380D02*
X175118095Y-109672380D01*
X175403809Y-109672380D02*
X175403809Y-108672380D01*
X175308571Y-108815238D01*
X175213333Y-108910476D01*
X175118095Y-108958095D01*
X176641904Y-109672380D02*
X176070476Y-109672380D01*
X176356190Y-109672380D02*
X176356190Y-108672380D01*
X176260952Y-108815238D01*
X176165714Y-108910476D01*
X176070476Y-108958095D01*
X174617142Y-126087142D02*
X174569523Y-126134761D01*
X174426666Y-126182380D01*
X174331428Y-126182380D01*
X174188571Y-126134761D01*
X174093333Y-126039523D01*
X174045714Y-125944285D01*
X173998095Y-125753809D01*
X173998095Y-125610952D01*
X174045714Y-125420476D01*
X174093333Y-125325238D01*
X174188571Y-125230000D01*
X174331428Y-125182380D01*
X174426666Y-125182380D01*
X174569523Y-125230000D01*
X174617142Y-125277619D01*
X175569523Y-126182380D02*
X174998095Y-126182380D01*
X175283809Y-126182380D02*
X175283809Y-125182380D01*
X175188571Y-125325238D01*
X175093333Y-125420476D01*
X174998095Y-125468095D01*
X175950476Y-125277619D02*
X175998095Y-125230000D01*
X176093333Y-125182380D01*
X176331428Y-125182380D01*
X176426666Y-125230000D01*
X176474285Y-125277619D01*
X176521904Y-125372857D01*
X176521904Y-125468095D01*
X176474285Y-125610952D01*
X175902857Y-126182380D01*
X176521904Y-126182380D01*
X174617142Y-133707142D02*
X174569523Y-133754761D01*
X174426666Y-133802380D01*
X174331428Y-133802380D01*
X174188571Y-133754761D01*
X174093333Y-133659523D01*
X174045714Y-133564285D01*
X173998095Y-133373809D01*
X173998095Y-133230952D01*
X174045714Y-133040476D01*
X174093333Y-132945238D01*
X174188571Y-132850000D01*
X174331428Y-132802380D01*
X174426666Y-132802380D01*
X174569523Y-132850000D01*
X174617142Y-132897619D01*
X175569523Y-133802380D02*
X174998095Y-133802380D01*
X175283809Y-133802380D02*
X175283809Y-132802380D01*
X175188571Y-132945238D01*
X175093333Y-133040476D01*
X174998095Y-133088095D01*
X175902857Y-132802380D02*
X176521904Y-132802380D01*
X176188571Y-133183333D01*
X176331428Y-133183333D01*
X176426666Y-133230952D01*
X176474285Y-133278571D01*
X176521904Y-133373809D01*
X176521904Y-133611904D01*
X176474285Y-133707142D01*
X176426666Y-133754761D01*
X176331428Y-133802380D01*
X176045714Y-133802380D01*
X175950476Y-133754761D01*
X175902857Y-133707142D01*
X174737142Y-150217142D02*
X174689523Y-150264761D01*
X174546666Y-150312380D01*
X174451428Y-150312380D01*
X174308571Y-150264761D01*
X174213333Y-150169523D01*
X174165714Y-150074285D01*
X174118095Y-149883809D01*
X174118095Y-149740952D01*
X174165714Y-149550476D01*
X174213333Y-149455238D01*
X174308571Y-149360000D01*
X174451428Y-149312380D01*
X174546666Y-149312380D01*
X174689523Y-149360000D01*
X174737142Y-149407619D01*
X175689523Y-150312380D02*
X175118095Y-150312380D01*
X175403809Y-150312380D02*
X175403809Y-149312380D01*
X175308571Y-149455238D01*
X175213333Y-149550476D01*
X175118095Y-149598095D01*
X176546666Y-149645714D02*
X176546666Y-150312380D01*
X176308571Y-149264761D02*
X176070476Y-149979047D01*
X176689523Y-149979047D01*
X146581904Y-67722380D02*
X146581904Y-66722380D01*
X146820000Y-66722380D01*
X146962857Y-66770000D01*
X147058095Y-66865238D01*
X147105714Y-66960476D01*
X147153333Y-67150952D01*
X147153333Y-67293809D01*
X147105714Y-67484285D01*
X147058095Y-67579523D01*
X146962857Y-67674761D01*
X146820000Y-67722380D01*
X146581904Y-67722380D01*
X148105714Y-67722380D02*
X147534285Y-67722380D01*
X147820000Y-67722380D02*
X147820000Y-66722380D01*
X147724761Y-66865238D01*
X147629523Y-66960476D01*
X147534285Y-67008095D01*
X146581904Y-74072380D02*
X146581904Y-73072380D01*
X146820000Y-73072380D01*
X146962857Y-73120000D01*
X147058095Y-73215238D01*
X147105714Y-73310476D01*
X147153333Y-73500952D01*
X147153333Y-73643809D01*
X147105714Y-73834285D01*
X147058095Y-73929523D01*
X146962857Y-74024761D01*
X146820000Y-74072380D01*
X146581904Y-74072380D01*
X147534285Y-73167619D02*
X147581904Y-73120000D01*
X147677142Y-73072380D01*
X147915238Y-73072380D01*
X148010476Y-73120000D01*
X148058095Y-73167619D01*
X148105714Y-73262857D01*
X148105714Y-73358095D01*
X148058095Y-73500952D01*
X147486666Y-74072380D01*
X148105714Y-74072380D01*
X146581904Y-93122380D02*
X146581904Y-92122380D01*
X146820000Y-92122380D01*
X146962857Y-92170000D01*
X147058095Y-92265238D01*
X147105714Y-92360476D01*
X147153333Y-92550952D01*
X147153333Y-92693809D01*
X147105714Y-92884285D01*
X147058095Y-92979523D01*
X146962857Y-93074761D01*
X146820000Y-93122380D01*
X146581904Y-93122380D01*
X147486666Y-92122380D02*
X148105714Y-92122380D01*
X147772380Y-92503333D01*
X147915238Y-92503333D01*
X148010476Y-92550952D01*
X148058095Y-92598571D01*
X148105714Y-92693809D01*
X148105714Y-92931904D01*
X148058095Y-93027142D01*
X148010476Y-93074761D01*
X147915238Y-93122380D01*
X147629523Y-93122380D01*
X147534285Y-93074761D01*
X147486666Y-93027142D01*
X146581904Y-99472380D02*
X146581904Y-98472380D01*
X146820000Y-98472380D01*
X146962857Y-98520000D01*
X147058095Y-98615238D01*
X147105714Y-98710476D01*
X147153333Y-98900952D01*
X147153333Y-99043809D01*
X147105714Y-99234285D01*
X147058095Y-99329523D01*
X146962857Y-99424761D01*
X146820000Y-99472380D01*
X146581904Y-99472380D01*
X148010476Y-98805714D02*
X148010476Y-99472380D01*
X147772380Y-98424761D02*
X147534285Y-99139047D01*
X148153333Y-99139047D01*
X146581904Y-118522380D02*
X146581904Y-117522380D01*
X146820000Y-117522380D01*
X146962857Y-117570000D01*
X147058095Y-117665238D01*
X147105714Y-117760476D01*
X147153333Y-117950952D01*
X147153333Y-118093809D01*
X147105714Y-118284285D01*
X147058095Y-118379523D01*
X146962857Y-118474761D01*
X146820000Y-118522380D01*
X146581904Y-118522380D01*
X148058095Y-117522380D02*
X147581904Y-117522380D01*
X147534285Y-117998571D01*
X147581904Y-117950952D01*
X147677142Y-117903333D01*
X147915238Y-117903333D01*
X148010476Y-117950952D01*
X148058095Y-117998571D01*
X148105714Y-118093809D01*
X148105714Y-118331904D01*
X148058095Y-118427142D01*
X148010476Y-118474761D01*
X147915238Y-118522380D01*
X147677142Y-118522380D01*
X147581904Y-118474761D01*
X147534285Y-118427142D01*
X146581904Y-124872380D02*
X146581904Y-123872380D01*
X146820000Y-123872380D01*
X146962857Y-123920000D01*
X147058095Y-124015238D01*
X147105714Y-124110476D01*
X147153333Y-124300952D01*
X147153333Y-124443809D01*
X147105714Y-124634285D01*
X147058095Y-124729523D01*
X146962857Y-124824761D01*
X146820000Y-124872380D01*
X146581904Y-124872380D01*
X148010476Y-123872380D02*
X147820000Y-123872380D01*
X147724761Y-123920000D01*
X147677142Y-123967619D01*
X147581904Y-124110476D01*
X147534285Y-124300952D01*
X147534285Y-124681904D01*
X147581904Y-124777142D01*
X147629523Y-124824761D01*
X147724761Y-124872380D01*
X147915238Y-124872380D01*
X148010476Y-124824761D01*
X148058095Y-124777142D01*
X148105714Y-124681904D01*
X148105714Y-124443809D01*
X148058095Y-124348571D01*
X148010476Y-124300952D01*
X147915238Y-124253333D01*
X147724761Y-124253333D01*
X147629523Y-124300952D01*
X147581904Y-124348571D01*
X147534285Y-124443809D01*
X146581904Y-141382380D02*
X146581904Y-140382380D01*
X146820000Y-140382380D01*
X146962857Y-140430000D01*
X147058095Y-140525238D01*
X147105714Y-140620476D01*
X147153333Y-140810952D01*
X147153333Y-140953809D01*
X147105714Y-141144285D01*
X147058095Y-141239523D01*
X146962857Y-141334761D01*
X146820000Y-141382380D01*
X146581904Y-141382380D01*
X147486666Y-140382380D02*
X148153333Y-140382380D01*
X147724761Y-141382380D01*
X146581904Y-147732380D02*
X146581904Y-146732380D01*
X146820000Y-146732380D01*
X146962857Y-146780000D01*
X147058095Y-146875238D01*
X147105714Y-146970476D01*
X147153333Y-147160952D01*
X147153333Y-147303809D01*
X147105714Y-147494285D01*
X147058095Y-147589523D01*
X146962857Y-147684761D01*
X146820000Y-147732380D01*
X146581904Y-147732380D01*
X147724761Y-147160952D02*
X147629523Y-147113333D01*
X147581904Y-147065714D01*
X147534285Y-146970476D01*
X147534285Y-146922857D01*
X147581904Y-146827619D01*
X147629523Y-146780000D01*
X147724761Y-146732380D01*
X147915238Y-146732380D01*
X148010476Y-146780000D01*
X148058095Y-146827619D01*
X148105714Y-146922857D01*
X148105714Y-146970476D01*
X148058095Y-147065714D01*
X148010476Y-147113333D01*
X147915238Y-147160952D01*
X147724761Y-147160952D01*
X147629523Y-147208571D01*
X147581904Y-147256190D01*
X147534285Y-147351428D01*
X147534285Y-147541904D01*
X147581904Y-147637142D01*
X147629523Y-147684761D01*
X147724761Y-147732380D01*
X147915238Y-147732380D01*
X148010476Y-147684761D01*
X148058095Y-147637142D01*
X148105714Y-147541904D01*
X148105714Y-147351428D01*
X148058095Y-147256190D01*
X148010476Y-147208571D01*
X147915238Y-147160952D01*
X64031904Y-79232380D02*
X64031904Y-78232380D01*
X64270000Y-78232380D01*
X64412857Y-78280000D01*
X64508095Y-78375238D01*
X64555714Y-78470476D01*
X64603333Y-78660952D01*
X64603333Y-78803809D01*
X64555714Y-78994285D01*
X64508095Y-79089523D01*
X64412857Y-79184761D01*
X64270000Y-79232380D01*
X64031904Y-79232380D01*
X65079523Y-79232380D02*
X65270000Y-79232380D01*
X65365238Y-79184761D01*
X65412857Y-79137142D01*
X65508095Y-78994285D01*
X65555714Y-78803809D01*
X65555714Y-78422857D01*
X65508095Y-78327619D01*
X65460476Y-78280000D01*
X65365238Y-78232380D01*
X65174761Y-78232380D01*
X65079523Y-78280000D01*
X65031904Y-78327619D01*
X64984285Y-78422857D01*
X64984285Y-78660952D01*
X65031904Y-78756190D01*
X65079523Y-78803809D01*
X65174761Y-78851428D01*
X65365238Y-78851428D01*
X65460476Y-78803809D01*
X65508095Y-78756190D01*
X65555714Y-78660952D01*
X71175714Y-79192380D02*
X71175714Y-78192380D01*
X71413809Y-78192380D01*
X71556666Y-78240000D01*
X71651904Y-78335238D01*
X71699523Y-78430476D01*
X71747142Y-78620952D01*
X71747142Y-78763809D01*
X71699523Y-78954285D01*
X71651904Y-79049523D01*
X71556666Y-79144761D01*
X71413809Y-79192380D01*
X71175714Y-79192380D01*
X72699523Y-79192380D02*
X72128095Y-79192380D01*
X72413809Y-79192380D02*
X72413809Y-78192380D01*
X72318571Y-78335238D01*
X72223333Y-78430476D01*
X72128095Y-78478095D01*
X73318571Y-78192380D02*
X73413809Y-78192380D01*
X73509047Y-78240000D01*
X73556666Y-78287619D01*
X73604285Y-78382857D01*
X73651904Y-78573333D01*
X73651904Y-78811428D01*
X73604285Y-79001904D01*
X73556666Y-79097142D01*
X73509047Y-79144761D01*
X73413809Y-79192380D01*
X73318571Y-79192380D01*
X73223333Y-79144761D01*
X73175714Y-79097142D01*
X73128095Y-79001904D01*
X73080476Y-78811428D01*
X73080476Y-78573333D01*
X73128095Y-78382857D01*
X73175714Y-78287619D01*
X73223333Y-78240000D01*
X73318571Y-78192380D01*
X78795714Y-79192380D02*
X78795714Y-78192380D01*
X79033809Y-78192380D01*
X79176666Y-78240000D01*
X79271904Y-78335238D01*
X79319523Y-78430476D01*
X79367142Y-78620952D01*
X79367142Y-78763809D01*
X79319523Y-78954285D01*
X79271904Y-79049523D01*
X79176666Y-79144761D01*
X79033809Y-79192380D01*
X78795714Y-79192380D01*
X80319523Y-79192380D02*
X79748095Y-79192380D01*
X80033809Y-79192380D02*
X80033809Y-78192380D01*
X79938571Y-78335238D01*
X79843333Y-78430476D01*
X79748095Y-78478095D01*
X81271904Y-79192380D02*
X80700476Y-79192380D01*
X80986190Y-79192380D02*
X80986190Y-78192380D01*
X80890952Y-78335238D01*
X80795714Y-78430476D01*
X80700476Y-78478095D01*
X86415714Y-79192380D02*
X86415714Y-78192380D01*
X86653809Y-78192380D01*
X86796666Y-78240000D01*
X86891904Y-78335238D01*
X86939523Y-78430476D01*
X86987142Y-78620952D01*
X86987142Y-78763809D01*
X86939523Y-78954285D01*
X86891904Y-79049523D01*
X86796666Y-79144761D01*
X86653809Y-79192380D01*
X86415714Y-79192380D01*
X87939523Y-79192380D02*
X87368095Y-79192380D01*
X87653809Y-79192380D02*
X87653809Y-78192380D01*
X87558571Y-78335238D01*
X87463333Y-78430476D01*
X87368095Y-78478095D01*
X88320476Y-78287619D02*
X88368095Y-78240000D01*
X88463333Y-78192380D01*
X88701428Y-78192380D01*
X88796666Y-78240000D01*
X88844285Y-78287619D01*
X88891904Y-78382857D01*
X88891904Y-78478095D01*
X88844285Y-78620952D01*
X88272857Y-79192380D01*
X88891904Y-79192380D01*
X94035714Y-79232380D02*
X94035714Y-78232380D01*
X94273809Y-78232380D01*
X94416666Y-78280000D01*
X94511904Y-78375238D01*
X94559523Y-78470476D01*
X94607142Y-78660952D01*
X94607142Y-78803809D01*
X94559523Y-78994285D01*
X94511904Y-79089523D01*
X94416666Y-79184761D01*
X94273809Y-79232380D01*
X94035714Y-79232380D01*
X95559523Y-79232380D02*
X94988095Y-79232380D01*
X95273809Y-79232380D02*
X95273809Y-78232380D01*
X95178571Y-78375238D01*
X95083333Y-78470476D01*
X94988095Y-78518095D01*
X95892857Y-78232380D02*
X96511904Y-78232380D01*
X96178571Y-78613333D01*
X96321428Y-78613333D01*
X96416666Y-78660952D01*
X96464285Y-78708571D01*
X96511904Y-78803809D01*
X96511904Y-79041904D01*
X96464285Y-79137142D01*
X96416666Y-79184761D01*
X96321428Y-79232380D01*
X96035714Y-79232380D01*
X95940476Y-79184761D01*
X95892857Y-79137142D01*
X101655714Y-79192380D02*
X101655714Y-78192380D01*
X101893809Y-78192380D01*
X102036666Y-78240000D01*
X102131904Y-78335238D01*
X102179523Y-78430476D01*
X102227142Y-78620952D01*
X102227142Y-78763809D01*
X102179523Y-78954285D01*
X102131904Y-79049523D01*
X102036666Y-79144761D01*
X101893809Y-79192380D01*
X101655714Y-79192380D01*
X103179523Y-79192380D02*
X102608095Y-79192380D01*
X102893809Y-79192380D02*
X102893809Y-78192380D01*
X102798571Y-78335238D01*
X102703333Y-78430476D01*
X102608095Y-78478095D01*
X104036666Y-78525714D02*
X104036666Y-79192380D01*
X103798571Y-78144761D02*
X103560476Y-78859047D01*
X104179523Y-78859047D01*
X109275714Y-79192380D02*
X109275714Y-78192380D01*
X109513809Y-78192380D01*
X109656666Y-78240000D01*
X109751904Y-78335238D01*
X109799523Y-78430476D01*
X109847142Y-78620952D01*
X109847142Y-78763809D01*
X109799523Y-78954285D01*
X109751904Y-79049523D01*
X109656666Y-79144761D01*
X109513809Y-79192380D01*
X109275714Y-79192380D01*
X110799523Y-79192380D02*
X110228095Y-79192380D01*
X110513809Y-79192380D02*
X110513809Y-78192380D01*
X110418571Y-78335238D01*
X110323333Y-78430476D01*
X110228095Y-78478095D01*
X111704285Y-78192380D02*
X111228095Y-78192380D01*
X111180476Y-78668571D01*
X111228095Y-78620952D01*
X111323333Y-78573333D01*
X111561428Y-78573333D01*
X111656666Y-78620952D01*
X111704285Y-78668571D01*
X111751904Y-78763809D01*
X111751904Y-79001904D01*
X111704285Y-79097142D01*
X111656666Y-79144761D01*
X111561428Y-79192380D01*
X111323333Y-79192380D01*
X111228095Y-79144761D01*
X111180476Y-79097142D01*
X195032380Y-68913333D02*
X195746666Y-68913333D01*
X195889523Y-68960952D01*
X195984761Y-69056190D01*
X196032380Y-69199047D01*
X196032380Y-69294285D01*
X196032380Y-67913333D02*
X196032380Y-68484761D01*
X196032380Y-68199047D02*
X195032380Y-68199047D01*
X195175238Y-68294285D01*
X195270476Y-68389523D01*
X195318095Y-68484761D01*
X130730666Y-29702380D02*
X130730666Y-30416666D01*
X130683047Y-30559523D01*
X130587809Y-30654761D01*
X130444952Y-30702380D01*
X130349714Y-30702380D01*
X131111619Y-29702380D02*
X131730666Y-29702380D01*
X131397333Y-30083333D01*
X131540190Y-30083333D01*
X131635428Y-30130952D01*
X131683047Y-30178571D01*
X131730666Y-30273809D01*
X131730666Y-30511904D01*
X131683047Y-30607142D01*
X131635428Y-30654761D01*
X131540190Y-30702380D01*
X131254476Y-30702380D01*
X131159238Y-30654761D01*
X131111619Y-30607142D01*
X195032380Y-92923333D02*
X195746666Y-92923333D01*
X195889523Y-92970952D01*
X195984761Y-93066190D01*
X196032380Y-93209047D01*
X196032380Y-93304285D01*
X195365714Y-92018571D02*
X196032380Y-92018571D01*
X194984761Y-92256666D02*
X195699047Y-92494761D01*
X195699047Y-91875714D01*
X195032380Y-117053333D02*
X195746666Y-117053333D01*
X195889523Y-117100952D01*
X195984761Y-117196190D01*
X196032380Y-117339047D01*
X196032380Y-117434285D01*
X195032380Y-116100952D02*
X195032380Y-116577142D01*
X195508571Y-116624761D01*
X195460952Y-116577142D01*
X195413333Y-116481904D01*
X195413333Y-116243809D01*
X195460952Y-116148571D01*
X195508571Y-116100952D01*
X195603809Y-116053333D01*
X195841904Y-116053333D01*
X195937142Y-116100952D01*
X195984761Y-116148571D01*
X196032380Y-116243809D01*
X196032380Y-116481904D01*
X195984761Y-116577142D01*
X195937142Y-116624761D01*
X65786666Y-31202380D02*
X65786666Y-31916666D01*
X65739047Y-32059523D01*
X65643809Y-32154761D01*
X65500952Y-32202380D01*
X65405714Y-32202380D01*
X66691428Y-31202380D02*
X66500952Y-31202380D01*
X66405714Y-31250000D01*
X66358095Y-31297619D01*
X66262857Y-31440476D01*
X66215238Y-31630952D01*
X66215238Y-32011904D01*
X66262857Y-32107142D01*
X66310476Y-32154761D01*
X66405714Y-32202380D01*
X66596190Y-32202380D01*
X66691428Y-32154761D01*
X66739047Y-32107142D01*
X66786666Y-32011904D01*
X66786666Y-31773809D01*
X66739047Y-31678571D01*
X66691428Y-31630952D01*
X66596190Y-31583333D01*
X66405714Y-31583333D01*
X66310476Y-31630952D01*
X66262857Y-31678571D01*
X66215238Y-31773809D01*
X195032380Y-141183333D02*
X195746666Y-141183333D01*
X195889523Y-141230952D01*
X195984761Y-141326190D01*
X196032380Y-141469047D01*
X196032380Y-141564285D01*
X195032380Y-140802380D02*
X195032380Y-140135714D01*
X196032380Y-140564285D01*
X57782380Y-28233333D02*
X58496666Y-28233333D01*
X58639523Y-28280952D01*
X58734761Y-28376190D01*
X58782380Y-28519047D01*
X58782380Y-28614285D01*
X58210952Y-27614285D02*
X58163333Y-27709523D01*
X58115714Y-27757142D01*
X58020476Y-27804761D01*
X57972857Y-27804761D01*
X57877619Y-27757142D01*
X57830000Y-27709523D01*
X57782380Y-27614285D01*
X57782380Y-27423809D01*
X57830000Y-27328571D01*
X57877619Y-27280952D01*
X57972857Y-27233333D01*
X58020476Y-27233333D01*
X58115714Y-27280952D01*
X58163333Y-27328571D01*
X58210952Y-27423809D01*
X58210952Y-27614285D01*
X58258571Y-27709523D01*
X58306190Y-27757142D01*
X58401428Y-27804761D01*
X58591904Y-27804761D01*
X58687142Y-27757142D01*
X58734761Y-27709523D01*
X58782380Y-27614285D01*
X58782380Y-27423809D01*
X58734761Y-27328571D01*
X58687142Y-27280952D01*
X58591904Y-27233333D01*
X58401428Y-27233333D01*
X58306190Y-27280952D01*
X58258571Y-27328571D01*
X58210952Y-27423809D01*
X57782380Y-59663333D02*
X58496666Y-59663333D01*
X58639523Y-59710952D01*
X58734761Y-59806190D01*
X58782380Y-59949047D01*
X58782380Y-60044285D01*
X58782380Y-59139523D02*
X58782380Y-58949047D01*
X58734761Y-58853809D01*
X58687142Y-58806190D01*
X58544285Y-58710952D01*
X58353809Y-58663333D01*
X57972857Y-58663333D01*
X57877619Y-58710952D01*
X57830000Y-58758571D01*
X57782380Y-58853809D01*
X57782380Y-59044285D01*
X57830000Y-59139523D01*
X57877619Y-59187142D01*
X57972857Y-59234761D01*
X58210952Y-59234761D01*
X58306190Y-59187142D01*
X58353809Y-59139523D01*
X58401428Y-59044285D01*
X58401428Y-58853809D01*
X58353809Y-58758571D01*
X58306190Y-58710952D01*
X58210952Y-58663333D01*
X147153333Y-60142380D02*
X146820000Y-59666190D01*
X146581904Y-60142380D02*
X146581904Y-59142380D01*
X146962857Y-59142380D01*
X147058095Y-59190000D01*
X147105714Y-59237619D01*
X147153333Y-59332857D01*
X147153333Y-59475714D01*
X147105714Y-59570952D01*
X147058095Y-59618571D01*
X146962857Y-59666190D01*
X146581904Y-59666190D01*
X148105714Y-60142380D02*
X147534285Y-60142380D01*
X147820000Y-60142380D02*
X147820000Y-59142380D01*
X147724761Y-59285238D01*
X147629523Y-59380476D01*
X147534285Y-59428095D01*
X175093333Y-65222380D02*
X174760000Y-64746190D01*
X174521904Y-65222380D02*
X174521904Y-64222380D01*
X174902857Y-64222380D01*
X174998095Y-64270000D01*
X175045714Y-64317619D01*
X175093333Y-64412857D01*
X175093333Y-64555714D01*
X175045714Y-64650952D01*
X174998095Y-64698571D01*
X174902857Y-64746190D01*
X174521904Y-64746190D01*
X175474285Y-64317619D02*
X175521904Y-64270000D01*
X175617142Y-64222380D01*
X175855238Y-64222380D01*
X175950476Y-64270000D01*
X175998095Y-64317619D01*
X176045714Y-64412857D01*
X176045714Y-64508095D01*
X175998095Y-64650952D01*
X175426666Y-65222380D01*
X176045714Y-65222380D01*
X147153333Y-76652380D02*
X146820000Y-76176190D01*
X146581904Y-76652380D02*
X146581904Y-75652380D01*
X146962857Y-75652380D01*
X147058095Y-75700000D01*
X147105714Y-75747619D01*
X147153333Y-75842857D01*
X147153333Y-75985714D01*
X147105714Y-76080952D01*
X147058095Y-76128571D01*
X146962857Y-76176190D01*
X146581904Y-76176190D01*
X147486666Y-75652380D02*
X148105714Y-75652380D01*
X147772380Y-76033333D01*
X147915238Y-76033333D01*
X148010476Y-76080952D01*
X148058095Y-76128571D01*
X148105714Y-76223809D01*
X148105714Y-76461904D01*
X148058095Y-76557142D01*
X148010476Y-76604761D01*
X147915238Y-76652380D01*
X147629523Y-76652380D01*
X147534285Y-76604761D01*
X147486666Y-76557142D01*
X175093333Y-72842380D02*
X174760000Y-72366190D01*
X174521904Y-72842380D02*
X174521904Y-71842380D01*
X174902857Y-71842380D01*
X174998095Y-71890000D01*
X175045714Y-71937619D01*
X175093333Y-72032857D01*
X175093333Y-72175714D01*
X175045714Y-72270952D01*
X174998095Y-72318571D01*
X174902857Y-72366190D01*
X174521904Y-72366190D01*
X175950476Y-72175714D02*
X175950476Y-72842380D01*
X175712380Y-71794761D02*
X175474285Y-72509047D01*
X176093333Y-72509047D01*
X147153333Y-85542380D02*
X146820000Y-85066190D01*
X146581904Y-85542380D02*
X146581904Y-84542380D01*
X146962857Y-84542380D01*
X147058095Y-84590000D01*
X147105714Y-84637619D01*
X147153333Y-84732857D01*
X147153333Y-84875714D01*
X147105714Y-84970952D01*
X147058095Y-85018571D01*
X146962857Y-85066190D01*
X146581904Y-85066190D01*
X148058095Y-84542380D02*
X147581904Y-84542380D01*
X147534285Y-85018571D01*
X147581904Y-84970952D01*
X147677142Y-84923333D01*
X147915238Y-84923333D01*
X148010476Y-84970952D01*
X148058095Y-85018571D01*
X148105714Y-85113809D01*
X148105714Y-85351904D01*
X148058095Y-85447142D01*
X148010476Y-85494761D01*
X147915238Y-85542380D01*
X147677142Y-85542380D01*
X147581904Y-85494761D01*
X147534285Y-85447142D01*
X82383333Y-49982380D02*
X82050000Y-49506190D01*
X81811904Y-49982380D02*
X81811904Y-48982380D01*
X82192857Y-48982380D01*
X82288095Y-49030000D01*
X82335714Y-49077619D01*
X82383333Y-49172857D01*
X82383333Y-49315714D01*
X82335714Y-49410952D01*
X82288095Y-49458571D01*
X82192857Y-49506190D01*
X81811904Y-49506190D01*
X83240476Y-48982380D02*
X83050000Y-48982380D01*
X82954761Y-49030000D01*
X82907142Y-49077619D01*
X82811904Y-49220476D01*
X82764285Y-49410952D01*
X82764285Y-49791904D01*
X82811904Y-49887142D01*
X82859523Y-49934761D01*
X82954761Y-49982380D01*
X83145238Y-49982380D01*
X83240476Y-49934761D01*
X83288095Y-49887142D01*
X83335714Y-49791904D01*
X83335714Y-49553809D01*
X83288095Y-49458571D01*
X83240476Y-49410952D01*
X83145238Y-49363333D01*
X82954761Y-49363333D01*
X82859523Y-49410952D01*
X82811904Y-49458571D01*
X82764285Y-49553809D01*
X175093333Y-90622380D02*
X174760000Y-90146190D01*
X174521904Y-90622380D02*
X174521904Y-89622380D01*
X174902857Y-89622380D01*
X174998095Y-89670000D01*
X175045714Y-89717619D01*
X175093333Y-89812857D01*
X175093333Y-89955714D01*
X175045714Y-90050952D01*
X174998095Y-90098571D01*
X174902857Y-90146190D01*
X174521904Y-90146190D01*
X175426666Y-89622380D02*
X176093333Y-89622380D01*
X175664761Y-90622380D01*
X147153333Y-102052380D02*
X146820000Y-101576190D01*
X146581904Y-102052380D02*
X146581904Y-101052380D01*
X146962857Y-101052380D01*
X147058095Y-101100000D01*
X147105714Y-101147619D01*
X147153333Y-101242857D01*
X147153333Y-101385714D01*
X147105714Y-101480952D01*
X147058095Y-101528571D01*
X146962857Y-101576190D01*
X146581904Y-101576190D01*
X147724761Y-101480952D02*
X147629523Y-101433333D01*
X147581904Y-101385714D01*
X147534285Y-101290476D01*
X147534285Y-101242857D01*
X147581904Y-101147619D01*
X147629523Y-101100000D01*
X147724761Y-101052380D01*
X147915238Y-101052380D01*
X148010476Y-101100000D01*
X148058095Y-101147619D01*
X148105714Y-101242857D01*
X148105714Y-101290476D01*
X148058095Y-101385714D01*
X148010476Y-101433333D01*
X147915238Y-101480952D01*
X147724761Y-101480952D01*
X147629523Y-101528571D01*
X147581904Y-101576190D01*
X147534285Y-101671428D01*
X147534285Y-101861904D01*
X147581904Y-101957142D01*
X147629523Y-102004761D01*
X147724761Y-102052380D01*
X147915238Y-102052380D01*
X148010476Y-102004761D01*
X148058095Y-101957142D01*
X148105714Y-101861904D01*
X148105714Y-101671428D01*
X148058095Y-101576190D01*
X148010476Y-101528571D01*
X147915238Y-101480952D01*
X175093333Y-96972380D02*
X174760000Y-96496190D01*
X174521904Y-96972380D02*
X174521904Y-95972380D01*
X174902857Y-95972380D01*
X174998095Y-96020000D01*
X175045714Y-96067619D01*
X175093333Y-96162857D01*
X175093333Y-96305714D01*
X175045714Y-96400952D01*
X174998095Y-96448571D01*
X174902857Y-96496190D01*
X174521904Y-96496190D01*
X175569523Y-96972380D02*
X175760000Y-96972380D01*
X175855238Y-96924761D01*
X175902857Y-96877142D01*
X175998095Y-96734285D01*
X176045714Y-96543809D01*
X176045714Y-96162857D01*
X175998095Y-96067619D01*
X175950476Y-96020000D01*
X175855238Y-95972380D01*
X175664761Y-95972380D01*
X175569523Y-96020000D01*
X175521904Y-96067619D01*
X175474285Y-96162857D01*
X175474285Y-96400952D01*
X175521904Y-96496190D01*
X175569523Y-96543809D01*
X175664761Y-96591428D01*
X175855238Y-96591428D01*
X175950476Y-96543809D01*
X175998095Y-96496190D01*
X176045714Y-96400952D01*
X146677142Y-110942380D02*
X146343809Y-110466190D01*
X146105714Y-110942380D02*
X146105714Y-109942380D01*
X146486666Y-109942380D01*
X146581904Y-109990000D01*
X146629523Y-110037619D01*
X146677142Y-110132857D01*
X146677142Y-110275714D01*
X146629523Y-110370952D01*
X146581904Y-110418571D01*
X146486666Y-110466190D01*
X146105714Y-110466190D01*
X147629523Y-110942380D02*
X147058095Y-110942380D01*
X147343809Y-110942380D02*
X147343809Y-109942380D01*
X147248571Y-110085238D01*
X147153333Y-110180476D01*
X147058095Y-110228095D01*
X148248571Y-109942380D02*
X148343809Y-109942380D01*
X148439047Y-109990000D01*
X148486666Y-110037619D01*
X148534285Y-110132857D01*
X148581904Y-110323333D01*
X148581904Y-110561428D01*
X148534285Y-110751904D01*
X148486666Y-110847142D01*
X148439047Y-110894761D01*
X148343809Y-110942380D01*
X148248571Y-110942380D01*
X148153333Y-110894761D01*
X148105714Y-110847142D01*
X148058095Y-110751904D01*
X148010476Y-110561428D01*
X148010476Y-110323333D01*
X148058095Y-110132857D01*
X148105714Y-110037619D01*
X148153333Y-109990000D01*
X148248571Y-109942380D01*
X174617142Y-114752380D02*
X174283809Y-114276190D01*
X174045714Y-114752380D02*
X174045714Y-113752380D01*
X174426666Y-113752380D01*
X174521904Y-113800000D01*
X174569523Y-113847619D01*
X174617142Y-113942857D01*
X174617142Y-114085714D01*
X174569523Y-114180952D01*
X174521904Y-114228571D01*
X174426666Y-114276190D01*
X174045714Y-114276190D01*
X175569523Y-114752380D02*
X174998095Y-114752380D01*
X175283809Y-114752380D02*
X175283809Y-113752380D01*
X175188571Y-113895238D01*
X175093333Y-113990476D01*
X174998095Y-114038095D01*
X176521904Y-114752380D02*
X175950476Y-114752380D01*
X176236190Y-114752380D02*
X176236190Y-113752380D01*
X176140952Y-113895238D01*
X176045714Y-113990476D01*
X175950476Y-114038095D01*
X146677142Y-127452380D02*
X146343809Y-126976190D01*
X146105714Y-127452380D02*
X146105714Y-126452380D01*
X146486666Y-126452380D01*
X146581904Y-126500000D01*
X146629523Y-126547619D01*
X146677142Y-126642857D01*
X146677142Y-126785714D01*
X146629523Y-126880952D01*
X146581904Y-126928571D01*
X146486666Y-126976190D01*
X146105714Y-126976190D01*
X147629523Y-127452380D02*
X147058095Y-127452380D01*
X147343809Y-127452380D02*
X147343809Y-126452380D01*
X147248571Y-126595238D01*
X147153333Y-126690476D01*
X147058095Y-126738095D01*
X148010476Y-126547619D02*
X148058095Y-126500000D01*
X148153333Y-126452380D01*
X148391428Y-126452380D01*
X148486666Y-126500000D01*
X148534285Y-126547619D01*
X148581904Y-126642857D01*
X148581904Y-126738095D01*
X148534285Y-126880952D01*
X147962857Y-127452380D01*
X148581904Y-127452380D01*
X174617142Y-121102380D02*
X174283809Y-120626190D01*
X174045714Y-121102380D02*
X174045714Y-120102380D01*
X174426666Y-120102380D01*
X174521904Y-120150000D01*
X174569523Y-120197619D01*
X174617142Y-120292857D01*
X174617142Y-120435714D01*
X174569523Y-120530952D01*
X174521904Y-120578571D01*
X174426666Y-120626190D01*
X174045714Y-120626190D01*
X175569523Y-121102380D02*
X174998095Y-121102380D01*
X175283809Y-121102380D02*
X175283809Y-120102380D01*
X175188571Y-120245238D01*
X175093333Y-120340476D01*
X174998095Y-120388095D01*
X175902857Y-120102380D02*
X176521904Y-120102380D01*
X176188571Y-120483333D01*
X176331428Y-120483333D01*
X176426666Y-120530952D01*
X176474285Y-120578571D01*
X176521904Y-120673809D01*
X176521904Y-120911904D01*
X176474285Y-121007142D01*
X176426666Y-121054761D01*
X176331428Y-121102380D01*
X176045714Y-121102380D01*
X175950476Y-121054761D01*
X175902857Y-121007142D01*
X146677142Y-133802380D02*
X146343809Y-133326190D01*
X146105714Y-133802380D02*
X146105714Y-132802380D01*
X146486666Y-132802380D01*
X146581904Y-132850000D01*
X146629523Y-132897619D01*
X146677142Y-132992857D01*
X146677142Y-133135714D01*
X146629523Y-133230952D01*
X146581904Y-133278571D01*
X146486666Y-133326190D01*
X146105714Y-133326190D01*
X147629523Y-133802380D02*
X147058095Y-133802380D01*
X147343809Y-133802380D02*
X147343809Y-132802380D01*
X147248571Y-132945238D01*
X147153333Y-133040476D01*
X147058095Y-133088095D01*
X148486666Y-133135714D02*
X148486666Y-133802380D01*
X148248571Y-132754761D02*
X148010476Y-133469047D01*
X148629523Y-133469047D01*
X174617142Y-138882380D02*
X174283809Y-138406190D01*
X174045714Y-138882380D02*
X174045714Y-137882380D01*
X174426666Y-137882380D01*
X174521904Y-137930000D01*
X174569523Y-137977619D01*
X174617142Y-138072857D01*
X174617142Y-138215714D01*
X174569523Y-138310952D01*
X174521904Y-138358571D01*
X174426666Y-138406190D01*
X174045714Y-138406190D01*
X175569523Y-138882380D02*
X174998095Y-138882380D01*
X175283809Y-138882380D02*
X175283809Y-137882380D01*
X175188571Y-138025238D01*
X175093333Y-138120476D01*
X174998095Y-138168095D01*
X176474285Y-137882380D02*
X175998095Y-137882380D01*
X175950476Y-138358571D01*
X175998095Y-138310952D01*
X176093333Y-138263333D01*
X176331428Y-138263333D01*
X176426666Y-138310952D01*
X176474285Y-138358571D01*
X176521904Y-138453809D01*
X176521904Y-138691904D01*
X176474285Y-138787142D01*
X176426666Y-138834761D01*
X176331428Y-138882380D01*
X176093333Y-138882380D01*
X175998095Y-138834761D01*
X175950476Y-138787142D01*
X146677142Y-150312380D02*
X146343809Y-149836190D01*
X146105714Y-150312380D02*
X146105714Y-149312380D01*
X146486666Y-149312380D01*
X146581904Y-149360000D01*
X146629523Y-149407619D01*
X146677142Y-149502857D01*
X146677142Y-149645714D01*
X146629523Y-149740952D01*
X146581904Y-149788571D01*
X146486666Y-149836190D01*
X146105714Y-149836190D01*
X147629523Y-150312380D02*
X147058095Y-150312380D01*
X147343809Y-150312380D02*
X147343809Y-149312380D01*
X147248571Y-149455238D01*
X147153333Y-149550476D01*
X147058095Y-149598095D01*
X148486666Y-149312380D02*
X148296190Y-149312380D01*
X148200952Y-149360000D01*
X148153333Y-149407619D01*
X148058095Y-149550476D01*
X148010476Y-149740952D01*
X148010476Y-150121904D01*
X148058095Y-150217142D01*
X148105714Y-150264761D01*
X148200952Y-150312380D01*
X148391428Y-150312380D01*
X148486666Y-150264761D01*
X148534285Y-150217142D01*
X148581904Y-150121904D01*
X148581904Y-149883809D01*
X148534285Y-149788571D01*
X148486666Y-149740952D01*
X148391428Y-149693333D01*
X148200952Y-149693333D01*
X148105714Y-149740952D01*
X148058095Y-149788571D01*
X148010476Y-149883809D01*
X174617142Y-145232380D02*
X174283809Y-144756190D01*
X174045714Y-145232380D02*
X174045714Y-144232380D01*
X174426666Y-144232380D01*
X174521904Y-144280000D01*
X174569523Y-144327619D01*
X174617142Y-144422857D01*
X174617142Y-144565714D01*
X174569523Y-144660952D01*
X174521904Y-144708571D01*
X174426666Y-144756190D01*
X174045714Y-144756190D01*
X175569523Y-145232380D02*
X174998095Y-145232380D01*
X175283809Y-145232380D02*
X175283809Y-144232380D01*
X175188571Y-144375238D01*
X175093333Y-144470476D01*
X174998095Y-144518095D01*
X175902857Y-144232380D02*
X176569523Y-144232380D01*
X176140952Y-145232380D01*
X64127142Y-76652380D02*
X63793809Y-76176190D01*
X63555714Y-76652380D02*
X63555714Y-75652380D01*
X63936666Y-75652380D01*
X64031904Y-75700000D01*
X64079523Y-75747619D01*
X64127142Y-75842857D01*
X64127142Y-75985714D01*
X64079523Y-76080952D01*
X64031904Y-76128571D01*
X63936666Y-76176190D01*
X63555714Y-76176190D01*
X65079523Y-76652380D02*
X64508095Y-76652380D01*
X64793809Y-76652380D02*
X64793809Y-75652380D01*
X64698571Y-75795238D01*
X64603333Y-75890476D01*
X64508095Y-75938095D01*
X65650952Y-76080952D02*
X65555714Y-76033333D01*
X65508095Y-75985714D01*
X65460476Y-75890476D01*
X65460476Y-75842857D01*
X65508095Y-75747619D01*
X65555714Y-75700000D01*
X65650952Y-75652380D01*
X65841428Y-75652380D01*
X65936666Y-75700000D01*
X65984285Y-75747619D01*
X66031904Y-75842857D01*
X66031904Y-75890476D01*
X65984285Y-75985714D01*
X65936666Y-76033333D01*
X65841428Y-76080952D01*
X65650952Y-76080952D01*
X65555714Y-76128571D01*
X65508095Y-76176190D01*
X65460476Y-76271428D01*
X65460476Y-76461904D01*
X65508095Y-76557142D01*
X65555714Y-76604761D01*
X65650952Y-76652380D01*
X65841428Y-76652380D01*
X65936666Y-76604761D01*
X65984285Y-76557142D01*
X66031904Y-76461904D01*
X66031904Y-76271428D01*
X65984285Y-76176190D01*
X65936666Y-76128571D01*
X65841428Y-76080952D01*
X71747142Y-76652380D02*
X71413809Y-76176190D01*
X71175714Y-76652380D02*
X71175714Y-75652380D01*
X71556666Y-75652380D01*
X71651904Y-75700000D01*
X71699523Y-75747619D01*
X71747142Y-75842857D01*
X71747142Y-75985714D01*
X71699523Y-76080952D01*
X71651904Y-76128571D01*
X71556666Y-76176190D01*
X71175714Y-76176190D01*
X72699523Y-76652380D02*
X72128095Y-76652380D01*
X72413809Y-76652380D02*
X72413809Y-75652380D01*
X72318571Y-75795238D01*
X72223333Y-75890476D01*
X72128095Y-75938095D01*
X73175714Y-76652380D02*
X73366190Y-76652380D01*
X73461428Y-76604761D01*
X73509047Y-76557142D01*
X73604285Y-76414285D01*
X73651904Y-76223809D01*
X73651904Y-75842857D01*
X73604285Y-75747619D01*
X73556666Y-75700000D01*
X73461428Y-75652380D01*
X73270952Y-75652380D01*
X73175714Y-75700000D01*
X73128095Y-75747619D01*
X73080476Y-75842857D01*
X73080476Y-76080952D01*
X73128095Y-76176190D01*
X73175714Y-76223809D01*
X73270952Y-76271428D01*
X73461428Y-76271428D01*
X73556666Y-76223809D01*
X73604285Y-76176190D01*
X73651904Y-76080952D01*
X79367142Y-76652380D02*
X79033809Y-76176190D01*
X78795714Y-76652380D02*
X78795714Y-75652380D01*
X79176666Y-75652380D01*
X79271904Y-75700000D01*
X79319523Y-75747619D01*
X79367142Y-75842857D01*
X79367142Y-75985714D01*
X79319523Y-76080952D01*
X79271904Y-76128571D01*
X79176666Y-76176190D01*
X78795714Y-76176190D01*
X79748095Y-75747619D02*
X79795714Y-75700000D01*
X79890952Y-75652380D01*
X80129047Y-75652380D01*
X80224285Y-75700000D01*
X80271904Y-75747619D01*
X80319523Y-75842857D01*
X80319523Y-75938095D01*
X80271904Y-76080952D01*
X79700476Y-76652380D01*
X80319523Y-76652380D01*
X80938571Y-75652380D02*
X81033809Y-75652380D01*
X81129047Y-75700000D01*
X81176666Y-75747619D01*
X81224285Y-75842857D01*
X81271904Y-76033333D01*
X81271904Y-76271428D01*
X81224285Y-76461904D01*
X81176666Y-76557142D01*
X81129047Y-76604761D01*
X81033809Y-76652380D01*
X80938571Y-76652380D01*
X80843333Y-76604761D01*
X80795714Y-76557142D01*
X80748095Y-76461904D01*
X80700476Y-76271428D01*
X80700476Y-76033333D01*
X80748095Y-75842857D01*
X80795714Y-75747619D01*
X80843333Y-75700000D01*
X80938571Y-75652380D01*
X86987142Y-76652380D02*
X86653809Y-76176190D01*
X86415714Y-76652380D02*
X86415714Y-75652380D01*
X86796666Y-75652380D01*
X86891904Y-75700000D01*
X86939523Y-75747619D01*
X86987142Y-75842857D01*
X86987142Y-75985714D01*
X86939523Y-76080952D01*
X86891904Y-76128571D01*
X86796666Y-76176190D01*
X86415714Y-76176190D01*
X87368095Y-75747619D02*
X87415714Y-75700000D01*
X87510952Y-75652380D01*
X87749047Y-75652380D01*
X87844285Y-75700000D01*
X87891904Y-75747619D01*
X87939523Y-75842857D01*
X87939523Y-75938095D01*
X87891904Y-76080952D01*
X87320476Y-76652380D01*
X87939523Y-76652380D01*
X88891904Y-76652380D02*
X88320476Y-76652380D01*
X88606190Y-76652380D02*
X88606190Y-75652380D01*
X88510952Y-75795238D01*
X88415714Y-75890476D01*
X88320476Y-75938095D01*
X94607142Y-76652380D02*
X94273809Y-76176190D01*
X94035714Y-76652380D02*
X94035714Y-75652380D01*
X94416666Y-75652380D01*
X94511904Y-75700000D01*
X94559523Y-75747619D01*
X94607142Y-75842857D01*
X94607142Y-75985714D01*
X94559523Y-76080952D01*
X94511904Y-76128571D01*
X94416666Y-76176190D01*
X94035714Y-76176190D01*
X94988095Y-75747619D02*
X95035714Y-75700000D01*
X95130952Y-75652380D01*
X95369047Y-75652380D01*
X95464285Y-75700000D01*
X95511904Y-75747619D01*
X95559523Y-75842857D01*
X95559523Y-75938095D01*
X95511904Y-76080952D01*
X94940476Y-76652380D01*
X95559523Y-76652380D01*
X95940476Y-75747619D02*
X95988095Y-75700000D01*
X96083333Y-75652380D01*
X96321428Y-75652380D01*
X96416666Y-75700000D01*
X96464285Y-75747619D01*
X96511904Y-75842857D01*
X96511904Y-75938095D01*
X96464285Y-76080952D01*
X95892857Y-76652380D01*
X96511904Y-76652380D01*
X132707142Y-141422380D02*
X132373809Y-140946190D01*
X132135714Y-141422380D02*
X132135714Y-140422380D01*
X132516666Y-140422380D01*
X132611904Y-140470000D01*
X132659523Y-140517619D01*
X132707142Y-140612857D01*
X132707142Y-140755714D01*
X132659523Y-140850952D01*
X132611904Y-140898571D01*
X132516666Y-140946190D01*
X132135714Y-140946190D01*
X133088095Y-140517619D02*
X133135714Y-140470000D01*
X133230952Y-140422380D01*
X133469047Y-140422380D01*
X133564285Y-140470000D01*
X133611904Y-140517619D01*
X133659523Y-140612857D01*
X133659523Y-140708095D01*
X133611904Y-140850952D01*
X133040476Y-141422380D01*
X133659523Y-141422380D01*
X133992857Y-140422380D02*
X134611904Y-140422380D01*
X134278571Y-140803333D01*
X134421428Y-140803333D01*
X134516666Y-140850952D01*
X134564285Y-140898571D01*
X134611904Y-140993809D01*
X134611904Y-141231904D01*
X134564285Y-141327142D01*
X134516666Y-141374761D01*
X134421428Y-141422380D01*
X134135714Y-141422380D01*
X134040476Y-141374761D01*
X133992857Y-141327142D01*
X102227142Y-76652380D02*
X101893809Y-76176190D01*
X101655714Y-76652380D02*
X101655714Y-75652380D01*
X102036666Y-75652380D01*
X102131904Y-75700000D01*
X102179523Y-75747619D01*
X102227142Y-75842857D01*
X102227142Y-75985714D01*
X102179523Y-76080952D01*
X102131904Y-76128571D01*
X102036666Y-76176190D01*
X101655714Y-76176190D01*
X102608095Y-75747619D02*
X102655714Y-75700000D01*
X102750952Y-75652380D01*
X102989047Y-75652380D01*
X103084285Y-75700000D01*
X103131904Y-75747619D01*
X103179523Y-75842857D01*
X103179523Y-75938095D01*
X103131904Y-76080952D01*
X102560476Y-76652380D01*
X103179523Y-76652380D01*
X104036666Y-75985714D02*
X104036666Y-76652380D01*
X103798571Y-75604761D02*
X103560476Y-76319047D01*
X104179523Y-76319047D01*
X132707142Y-143962380D02*
X132373809Y-143486190D01*
X132135714Y-143962380D02*
X132135714Y-142962380D01*
X132516666Y-142962380D01*
X132611904Y-143010000D01*
X132659523Y-143057619D01*
X132707142Y-143152857D01*
X132707142Y-143295714D01*
X132659523Y-143390952D01*
X132611904Y-143438571D01*
X132516666Y-143486190D01*
X132135714Y-143486190D01*
X133088095Y-143057619D02*
X133135714Y-143010000D01*
X133230952Y-142962380D01*
X133469047Y-142962380D01*
X133564285Y-143010000D01*
X133611904Y-143057619D01*
X133659523Y-143152857D01*
X133659523Y-143248095D01*
X133611904Y-143390952D01*
X133040476Y-143962380D01*
X133659523Y-143962380D01*
X134564285Y-142962380D02*
X134088095Y-142962380D01*
X134040476Y-143438571D01*
X134088095Y-143390952D01*
X134183333Y-143343333D01*
X134421428Y-143343333D01*
X134516666Y-143390952D01*
X134564285Y-143438571D01*
X134611904Y-143533809D01*
X134611904Y-143771904D01*
X134564285Y-143867142D01*
X134516666Y-143914761D01*
X134421428Y-143962380D01*
X134183333Y-143962380D01*
X134088095Y-143914761D01*
X134040476Y-143867142D01*
X109847142Y-76652380D02*
X109513809Y-76176190D01*
X109275714Y-76652380D02*
X109275714Y-75652380D01*
X109656666Y-75652380D01*
X109751904Y-75700000D01*
X109799523Y-75747619D01*
X109847142Y-75842857D01*
X109847142Y-75985714D01*
X109799523Y-76080952D01*
X109751904Y-76128571D01*
X109656666Y-76176190D01*
X109275714Y-76176190D01*
X110228095Y-75747619D02*
X110275714Y-75700000D01*
X110370952Y-75652380D01*
X110609047Y-75652380D01*
X110704285Y-75700000D01*
X110751904Y-75747619D01*
X110799523Y-75842857D01*
X110799523Y-75938095D01*
X110751904Y-76080952D01*
X110180476Y-76652380D01*
X110799523Y-76652380D01*
X111656666Y-75652380D02*
X111466190Y-75652380D01*
X111370952Y-75700000D01*
X111323333Y-75747619D01*
X111228095Y-75890476D01*
X111180476Y-76080952D01*
X111180476Y-76461904D01*
X111228095Y-76557142D01*
X111275714Y-76604761D01*
X111370952Y-76652380D01*
X111561428Y-76652380D01*
X111656666Y-76604761D01*
X111704285Y-76557142D01*
X111751904Y-76461904D01*
X111751904Y-76223809D01*
X111704285Y-76128571D01*
X111656666Y-76080952D01*
X111561428Y-76033333D01*
X111370952Y-76033333D01*
X111275714Y-76080952D01*
X111228095Y-76128571D01*
X111180476Y-76223809D01*
X132707142Y-146502380D02*
X132373809Y-146026190D01*
X132135714Y-146502380D02*
X132135714Y-145502380D01*
X132516666Y-145502380D01*
X132611904Y-145550000D01*
X132659523Y-145597619D01*
X132707142Y-145692857D01*
X132707142Y-145835714D01*
X132659523Y-145930952D01*
X132611904Y-145978571D01*
X132516666Y-146026190D01*
X132135714Y-146026190D01*
X133088095Y-145597619D02*
X133135714Y-145550000D01*
X133230952Y-145502380D01*
X133469047Y-145502380D01*
X133564285Y-145550000D01*
X133611904Y-145597619D01*
X133659523Y-145692857D01*
X133659523Y-145788095D01*
X133611904Y-145930952D01*
X133040476Y-146502380D01*
X133659523Y-146502380D01*
X133992857Y-145502380D02*
X134659523Y-145502380D01*
X134230952Y-146502380D01*
X132707142Y-149042380D02*
X132373809Y-148566190D01*
X132135714Y-149042380D02*
X132135714Y-148042380D01*
X132516666Y-148042380D01*
X132611904Y-148090000D01*
X132659523Y-148137619D01*
X132707142Y-148232857D01*
X132707142Y-148375714D01*
X132659523Y-148470952D01*
X132611904Y-148518571D01*
X132516666Y-148566190D01*
X132135714Y-148566190D01*
X133088095Y-148137619D02*
X133135714Y-148090000D01*
X133230952Y-148042380D01*
X133469047Y-148042380D01*
X133564285Y-148090000D01*
X133611904Y-148137619D01*
X133659523Y-148232857D01*
X133659523Y-148328095D01*
X133611904Y-148470952D01*
X133040476Y-149042380D01*
X133659523Y-149042380D01*
X134230952Y-148470952D02*
X134135714Y-148423333D01*
X134088095Y-148375714D01*
X134040476Y-148280476D01*
X134040476Y-148232857D01*
X134088095Y-148137619D01*
X134135714Y-148090000D01*
X134230952Y-148042380D01*
X134421428Y-148042380D01*
X134516666Y-148090000D01*
X134564285Y-148137619D01*
X134611904Y-148232857D01*
X134611904Y-148280476D01*
X134564285Y-148375714D01*
X134516666Y-148423333D01*
X134421428Y-148470952D01*
X134230952Y-148470952D01*
X134135714Y-148518571D01*
X134088095Y-148566190D01*
X134040476Y-148661428D01*
X134040476Y-148851904D01*
X134088095Y-148947142D01*
X134135714Y-148994761D01*
X134230952Y-149042380D01*
X134421428Y-149042380D01*
X134516666Y-148994761D01*
X134564285Y-148947142D01*
X134611904Y-148851904D01*
X134611904Y-148661428D01*
X134564285Y-148566190D01*
X134516666Y-148518571D01*
X134421428Y-148470952D01*
X192854380Y-50767238D02*
X192378190Y-51100571D01*
X192854380Y-51338666D02*
X191854380Y-51338666D01*
X191854380Y-50957714D01*
X191902000Y-50862476D01*
X191949619Y-50814857D01*
X192044857Y-50767238D01*
X192187714Y-50767238D01*
X192282952Y-50814857D01*
X192330571Y-50862476D01*
X192378190Y-50957714D01*
X192378190Y-51338666D01*
X191854380Y-50481523D02*
X192854380Y-50148190D01*
X191854380Y-49814857D01*
X192854380Y-48957714D02*
X192854380Y-49529142D01*
X192854380Y-49243428D02*
X191854380Y-49243428D01*
X191997238Y-49338666D01*
X192092476Y-49433904D01*
X192140095Y-49529142D01*
X81926666Y-44564761D02*
X82069523Y-44612380D01*
X82307619Y-44612380D01*
X82402857Y-44564761D01*
X82450476Y-44517142D01*
X82498095Y-44421904D01*
X82498095Y-44326666D01*
X82450476Y-44231428D01*
X82402857Y-44183809D01*
X82307619Y-44136190D01*
X82117142Y-44088571D01*
X82021904Y-44040952D01*
X81974285Y-43993333D01*
X81926666Y-43898095D01*
X81926666Y-43802857D01*
X81974285Y-43707619D01*
X82021904Y-43660000D01*
X82117142Y-43612380D01*
X82355238Y-43612380D01*
X82498095Y-43660000D01*
X82831428Y-43612380D02*
X83069523Y-44612380D01*
X83260000Y-43898095D01*
X83450476Y-44612380D01*
X83688571Y-43612380D01*
X84593333Y-44612380D02*
X84021904Y-44612380D01*
X84307619Y-44612380D02*
X84307619Y-43612380D01*
X84212380Y-43755238D01*
X84117142Y-43850476D01*
X84021904Y-43898095D01*
X122312666Y-43294761D02*
X122455523Y-43342380D01*
X122693619Y-43342380D01*
X122788857Y-43294761D01*
X122836476Y-43247142D01*
X122884095Y-43151904D01*
X122884095Y-43056666D01*
X122836476Y-42961428D01*
X122788857Y-42913809D01*
X122693619Y-42866190D01*
X122503142Y-42818571D01*
X122407904Y-42770952D01*
X122360285Y-42723333D01*
X122312666Y-42628095D01*
X122312666Y-42532857D01*
X122360285Y-42437619D01*
X122407904Y-42390000D01*
X122503142Y-42342380D01*
X122741238Y-42342380D01*
X122884095Y-42390000D01*
X123217428Y-42342380D02*
X123455523Y-43342380D01*
X123646000Y-42628095D01*
X123836476Y-43342380D01*
X124074571Y-42342380D01*
X124407904Y-42437619D02*
X124455523Y-42390000D01*
X124550761Y-42342380D01*
X124788857Y-42342380D01*
X124884095Y-42390000D01*
X124931714Y-42437619D01*
X124979333Y-42532857D01*
X124979333Y-42628095D01*
X124931714Y-42770952D01*
X124360285Y-43342380D01*
X124979333Y-43342380D01*
X53236666Y-139414761D02*
X53379523Y-139462380D01*
X53617619Y-139462380D01*
X53712857Y-139414761D01*
X53760476Y-139367142D01*
X53808095Y-139271904D01*
X53808095Y-139176666D01*
X53760476Y-139081428D01*
X53712857Y-139033809D01*
X53617619Y-138986190D01*
X53427142Y-138938571D01*
X53331904Y-138890952D01*
X53284285Y-138843333D01*
X53236666Y-138748095D01*
X53236666Y-138652857D01*
X53284285Y-138557619D01*
X53331904Y-138510000D01*
X53427142Y-138462380D01*
X53665238Y-138462380D01*
X53808095Y-138510000D01*
X54141428Y-138462380D02*
X54379523Y-139462380D01*
X54570000Y-138748095D01*
X54760476Y-139462380D01*
X54998571Y-138462380D01*
X55284285Y-138462380D02*
X55903333Y-138462380D01*
X55570000Y-138843333D01*
X55712857Y-138843333D01*
X55808095Y-138890952D01*
X55855714Y-138938571D01*
X55903333Y-139033809D01*
X55903333Y-139271904D01*
X55855714Y-139367142D01*
X55808095Y-139414761D01*
X55712857Y-139462380D01*
X55427142Y-139462380D01*
X55331904Y-139414761D01*
X55284285Y-139367142D01*
X74826666Y-139414761D02*
X74969523Y-139462380D01*
X75207619Y-139462380D01*
X75302857Y-139414761D01*
X75350476Y-139367142D01*
X75398095Y-139271904D01*
X75398095Y-139176666D01*
X75350476Y-139081428D01*
X75302857Y-139033809D01*
X75207619Y-138986190D01*
X75017142Y-138938571D01*
X74921904Y-138890952D01*
X74874285Y-138843333D01*
X74826666Y-138748095D01*
X74826666Y-138652857D01*
X74874285Y-138557619D01*
X74921904Y-138510000D01*
X75017142Y-138462380D01*
X75255238Y-138462380D01*
X75398095Y-138510000D01*
X75731428Y-138462380D02*
X75969523Y-139462380D01*
X76160000Y-138748095D01*
X76350476Y-139462380D01*
X76588571Y-138462380D01*
X77398095Y-138795714D02*
X77398095Y-139462380D01*
X77160000Y-138414761D02*
X76921904Y-139129047D01*
X77540952Y-139129047D01*
X96416666Y-139414761D02*
X96559523Y-139462380D01*
X96797619Y-139462380D01*
X96892857Y-139414761D01*
X96940476Y-139367142D01*
X96988095Y-139271904D01*
X96988095Y-139176666D01*
X96940476Y-139081428D01*
X96892857Y-139033809D01*
X96797619Y-138986190D01*
X96607142Y-138938571D01*
X96511904Y-138890952D01*
X96464285Y-138843333D01*
X96416666Y-138748095D01*
X96416666Y-138652857D01*
X96464285Y-138557619D01*
X96511904Y-138510000D01*
X96607142Y-138462380D01*
X96845238Y-138462380D01*
X96988095Y-138510000D01*
X97321428Y-138462380D02*
X97559523Y-139462380D01*
X97750000Y-138748095D01*
X97940476Y-139462380D01*
X98178571Y-138462380D01*
X99035714Y-138462380D02*
X98559523Y-138462380D01*
X98511904Y-138938571D01*
X98559523Y-138890952D01*
X98654761Y-138843333D01*
X98892857Y-138843333D01*
X98988095Y-138890952D01*
X99035714Y-138938571D01*
X99083333Y-139033809D01*
X99083333Y-139271904D01*
X99035714Y-139367142D01*
X98988095Y-139414761D01*
X98892857Y-139462380D01*
X98654761Y-139462380D01*
X98559523Y-139414761D01*
X98511904Y-139367142D01*
X118006666Y-139414761D02*
X118149523Y-139462380D01*
X118387619Y-139462380D01*
X118482857Y-139414761D01*
X118530476Y-139367142D01*
X118578095Y-139271904D01*
X118578095Y-139176666D01*
X118530476Y-139081428D01*
X118482857Y-139033809D01*
X118387619Y-138986190D01*
X118197142Y-138938571D01*
X118101904Y-138890952D01*
X118054285Y-138843333D01*
X118006666Y-138748095D01*
X118006666Y-138652857D01*
X118054285Y-138557619D01*
X118101904Y-138510000D01*
X118197142Y-138462380D01*
X118435238Y-138462380D01*
X118578095Y-138510000D01*
X118911428Y-138462380D02*
X119149523Y-139462380D01*
X119340000Y-138748095D01*
X119530476Y-139462380D01*
X119768571Y-138462380D01*
X120578095Y-138462380D02*
X120387619Y-138462380D01*
X120292380Y-138510000D01*
X120244761Y-138557619D01*
X120149523Y-138700476D01*
X120101904Y-138890952D01*
X120101904Y-139271904D01*
X120149523Y-139367142D01*
X120197142Y-139414761D01*
X120292380Y-139462380D01*
X120482857Y-139462380D01*
X120578095Y-139414761D01*
X120625714Y-139367142D01*
X120673333Y-139271904D01*
X120673333Y-139033809D01*
X120625714Y-138938571D01*
X120578095Y-138890952D01*
X120482857Y-138843333D01*
X120292380Y-138843333D01*
X120197142Y-138890952D01*
X120149523Y-138938571D01*
X120101904Y-139033809D01*
X88598571Y-109942380D02*
X89170000Y-109942380D01*
X88884285Y-110942380D02*
X88884285Y-109942380D01*
X89836666Y-110418571D02*
X89503333Y-110418571D01*
X89503333Y-110942380D02*
X89503333Y-109942380D01*
X89979523Y-109942380D01*
X90217619Y-109942380D02*
X90789047Y-109942380D01*
X90503333Y-110942380D02*
X90503333Y-109942380D01*
X91646190Y-110942380D02*
X91074761Y-110942380D01*
X91360476Y-110942380D02*
X91360476Y-109942380D01*
X91265238Y-110085238D01*
X91170000Y-110180476D01*
X91074761Y-110228095D01*
X156718095Y-62952380D02*
X156718095Y-63761904D01*
X156765714Y-63857142D01*
X156813333Y-63904761D01*
X156908571Y-63952380D01*
X157099047Y-63952380D01*
X157194285Y-63904761D01*
X157241904Y-63857142D01*
X157289523Y-63761904D01*
X157289523Y-62952380D01*
X158289523Y-63952380D02*
X157718095Y-63952380D01*
X158003809Y-63952380D02*
X158003809Y-62952380D01*
X157908571Y-63095238D01*
X157813333Y-63190476D01*
X157718095Y-63238095D01*
X133858095Y-69302380D02*
X133858095Y-70111904D01*
X133905714Y-70207142D01*
X133953333Y-70254761D01*
X134048571Y-70302380D01*
X134239047Y-70302380D01*
X134334285Y-70254761D01*
X134381904Y-70207142D01*
X134429523Y-70111904D01*
X134429523Y-69302380D01*
X134858095Y-69397619D02*
X134905714Y-69350000D01*
X135000952Y-69302380D01*
X135239047Y-69302380D01*
X135334285Y-69350000D01*
X135381904Y-69397619D01*
X135429523Y-69492857D01*
X135429523Y-69588095D01*
X135381904Y-69730952D01*
X134810476Y-70302380D01*
X135429523Y-70302380D01*
X156718095Y-71842380D02*
X156718095Y-72651904D01*
X156765714Y-72747142D01*
X156813333Y-72794761D01*
X156908571Y-72842380D01*
X157099047Y-72842380D01*
X157194285Y-72794761D01*
X157241904Y-72747142D01*
X157289523Y-72651904D01*
X157289523Y-71842380D01*
X157670476Y-71842380D02*
X158289523Y-71842380D01*
X157956190Y-72223333D01*
X158099047Y-72223333D01*
X158194285Y-72270952D01*
X158241904Y-72318571D01*
X158289523Y-72413809D01*
X158289523Y-72651904D01*
X158241904Y-72747142D01*
X158194285Y-72794761D01*
X158099047Y-72842380D01*
X157813333Y-72842380D01*
X157718095Y-72794761D01*
X157670476Y-72747142D01*
X156718095Y-88352380D02*
X156718095Y-89161904D01*
X156765714Y-89257142D01*
X156813333Y-89304761D01*
X156908571Y-89352380D01*
X157099047Y-89352380D01*
X157194285Y-89304761D01*
X157241904Y-89257142D01*
X157289523Y-89161904D01*
X157289523Y-88352380D01*
X158194285Y-88685714D02*
X158194285Y-89352380D01*
X157956190Y-88304761D02*
X157718095Y-89019047D01*
X158337142Y-89019047D01*
X156718095Y-97242380D02*
X156718095Y-98051904D01*
X156765714Y-98147142D01*
X156813333Y-98194761D01*
X156908571Y-98242380D01*
X157099047Y-98242380D01*
X157194285Y-98194761D01*
X157241904Y-98147142D01*
X157289523Y-98051904D01*
X157289523Y-97242380D01*
X158241904Y-97242380D02*
X157765714Y-97242380D01*
X157718095Y-97718571D01*
X157765714Y-97670952D01*
X157860952Y-97623333D01*
X158099047Y-97623333D01*
X158194285Y-97670952D01*
X158241904Y-97718571D01*
X158289523Y-97813809D01*
X158289523Y-98051904D01*
X158241904Y-98147142D01*
X158194285Y-98194761D01*
X158099047Y-98242380D01*
X157860952Y-98242380D01*
X157765714Y-98194761D01*
X157718095Y-98147142D01*
X156718095Y-113752380D02*
X156718095Y-114561904D01*
X156765714Y-114657142D01*
X156813333Y-114704761D01*
X156908571Y-114752380D01*
X157099047Y-114752380D01*
X157194285Y-114704761D01*
X157241904Y-114657142D01*
X157289523Y-114561904D01*
X157289523Y-113752380D01*
X158194285Y-113752380D02*
X158003809Y-113752380D01*
X157908571Y-113800000D01*
X157860952Y-113847619D01*
X157765714Y-113990476D01*
X157718095Y-114180952D01*
X157718095Y-114561904D01*
X157765714Y-114657142D01*
X157813333Y-114704761D01*
X157908571Y-114752380D01*
X158099047Y-114752380D01*
X158194285Y-114704761D01*
X158241904Y-114657142D01*
X158289523Y-114561904D01*
X158289523Y-114323809D01*
X158241904Y-114228571D01*
X158194285Y-114180952D01*
X158099047Y-114133333D01*
X157908571Y-114133333D01*
X157813333Y-114180952D01*
X157765714Y-114228571D01*
X157718095Y-114323809D01*
X95522380Y-57451904D02*
X96331904Y-57451904D01*
X96427142Y-57404285D01*
X96474761Y-57356666D01*
X96522380Y-57261428D01*
X96522380Y-57070952D01*
X96474761Y-56975714D01*
X96427142Y-56928095D01*
X96331904Y-56880476D01*
X95522380Y-56880476D01*
X95522380Y-56499523D02*
X95522380Y-55832857D01*
X96522380Y-56261428D01*
X156718095Y-122642380D02*
X156718095Y-123451904D01*
X156765714Y-123547142D01*
X156813333Y-123594761D01*
X156908571Y-123642380D01*
X157099047Y-123642380D01*
X157194285Y-123594761D01*
X157241904Y-123547142D01*
X157289523Y-123451904D01*
X157289523Y-122642380D01*
X157908571Y-123070952D02*
X157813333Y-123023333D01*
X157765714Y-122975714D01*
X157718095Y-122880476D01*
X157718095Y-122832857D01*
X157765714Y-122737619D01*
X157813333Y-122690000D01*
X157908571Y-122642380D01*
X158099047Y-122642380D01*
X158194285Y-122690000D01*
X158241904Y-122737619D01*
X158289523Y-122832857D01*
X158289523Y-122880476D01*
X158241904Y-122975714D01*
X158194285Y-123023333D01*
X158099047Y-123070952D01*
X157908571Y-123070952D01*
X157813333Y-123118571D01*
X157765714Y-123166190D01*
X157718095Y-123261428D01*
X157718095Y-123451904D01*
X157765714Y-123547142D01*
X157813333Y-123594761D01*
X157908571Y-123642380D01*
X158099047Y-123642380D01*
X158194285Y-123594761D01*
X158241904Y-123547142D01*
X158289523Y-123451904D01*
X158289523Y-123261428D01*
X158241904Y-123166190D01*
X158194285Y-123118571D01*
X158099047Y-123070952D01*
X156718095Y-136612380D02*
X156718095Y-137421904D01*
X156765714Y-137517142D01*
X156813333Y-137564761D01*
X156908571Y-137612380D01*
X157099047Y-137612380D01*
X157194285Y-137564761D01*
X157241904Y-137517142D01*
X157289523Y-137421904D01*
X157289523Y-136612380D01*
X157813333Y-137612380D02*
X158003809Y-137612380D01*
X158099047Y-137564761D01*
X158146666Y-137517142D01*
X158241904Y-137374285D01*
X158289523Y-137183809D01*
X158289523Y-136802857D01*
X158241904Y-136707619D01*
X158194285Y-136660000D01*
X158099047Y-136612380D01*
X157908571Y-136612380D01*
X157813333Y-136660000D01*
X157765714Y-136707619D01*
X157718095Y-136802857D01*
X157718095Y-137040952D01*
X157765714Y-137136190D01*
X157813333Y-137183809D01*
X157908571Y-137231428D01*
X158099047Y-137231428D01*
X158194285Y-137183809D01*
X158241904Y-137136190D01*
X158289523Y-137040952D01*
X156241904Y-145502380D02*
X156241904Y-146311904D01*
X156289523Y-146407142D01*
X156337142Y-146454761D01*
X156432380Y-146502380D01*
X156622857Y-146502380D01*
X156718095Y-146454761D01*
X156765714Y-146407142D01*
X156813333Y-146311904D01*
X156813333Y-145502380D01*
X157813333Y-146502380D02*
X157241904Y-146502380D01*
X157527619Y-146502380D02*
X157527619Y-145502380D01*
X157432380Y-145645238D01*
X157337142Y-145740476D01*
X157241904Y-145788095D01*
X158432380Y-145502380D02*
X158527619Y-145502380D01*
X158622857Y-145550000D01*
X158670476Y-145597619D01*
X158718095Y-145692857D01*
X158765714Y-145883333D01*
X158765714Y-146121428D01*
X158718095Y-146311904D01*
X158670476Y-146407142D01*
X158622857Y-146454761D01*
X158527619Y-146502380D01*
X158432380Y-146502380D01*
X158337142Y-146454761D01*
X158289523Y-146407142D01*
X158241904Y-146311904D01*
X158194285Y-146121428D01*
X158194285Y-145883333D01*
X158241904Y-145692857D01*
X158289523Y-145597619D01*
X158337142Y-145550000D01*
X158432380Y-145502380D01*
X71842380Y-69818095D02*
X72651904Y-69818095D01*
X72747142Y-69770476D01*
X72794761Y-69722857D01*
X72842380Y-69627619D01*
X72842380Y-69437142D01*
X72794761Y-69341904D01*
X72747142Y-69294285D01*
X72651904Y-69246666D01*
X71842380Y-69246666D01*
X72842380Y-68246666D02*
X72842380Y-68818095D01*
X72842380Y-68532380D02*
X71842380Y-68532380D01*
X71985238Y-68627619D01*
X72080476Y-68722857D01*
X72128095Y-68818095D01*
X72842380Y-67294285D02*
X72842380Y-67865714D01*
X72842380Y-67580000D02*
X71842380Y-67580000D01*
X71985238Y-67675238D01*
X72080476Y-67770476D01*
X72128095Y-67865714D01*
X62261904Y-45172380D02*
X62261904Y-45981904D01*
X62309523Y-46077142D01*
X62357142Y-46124761D01*
X62452380Y-46172380D01*
X62642857Y-46172380D01*
X62738095Y-46124761D01*
X62785714Y-46077142D01*
X62833333Y-45981904D01*
X62833333Y-45172380D01*
X63833333Y-46172380D02*
X63261904Y-46172380D01*
X63547619Y-46172380D02*
X63547619Y-45172380D01*
X63452380Y-45315238D01*
X63357142Y-45410476D01*
X63261904Y-45458095D01*
X64214285Y-45267619D02*
X64261904Y-45220000D01*
X64357142Y-45172380D01*
X64595238Y-45172380D01*
X64690476Y-45220000D01*
X64738095Y-45267619D01*
X64785714Y-45362857D01*
X64785714Y-45458095D01*
X64738095Y-45600952D01*
X64166666Y-46172380D01*
X64785714Y-46172380D01*
X187412380Y-35258333D02*
X188126666Y-35258333D01*
X188269523Y-35305952D01*
X188364761Y-35401190D01*
X188412380Y-35544047D01*
X188412380Y-35639285D01*
X187507619Y-34829761D02*
X187460000Y-34782142D01*
X187412380Y-34686904D01*
X187412380Y-34448809D01*
X187460000Y-34353571D01*
X187507619Y-34305952D01*
X187602857Y-34258333D01*
X187698095Y-34258333D01*
X187840952Y-34305952D01*
X188412380Y-34877380D01*
X188412380Y-34258333D01*
M02*
