M48
; DRILL file {KiCad (5.1.4)-1} date 09/29/19 20:04:38
; FORMAT={-:-/ absolute / inch / decimal}
; #@! TF.CreationDate,2019-09-29T20:04:38+02:00
; #@! TF.GenerationSoftware,Kicad,Pcbnew,(5.1.4)-1
; #@! TF.FileFunction,Plated,1,2,PTH
FMAT,2
INCH
T1C0.0157
T2C0.0276
T3C0.0315
T4C0.0354
T5C0.0394
T6C0.0398
T7C0.0433
T8C0.0472
T9C0.0551
T10C0.0591
T11C0.0787
%
G90
G05
T1
X3.1771Y-3.1221
X3.2364Y-2.2353
X3.2381Y-2.8996
X3.2761Y-2.3124
X3.3583Y-1.6763
X3.4413Y-2.5792
X3.4877Y-2.4496
X3.546Y-2.4498
X3.5574Y-2.5418
X3.5909Y-2.4508
X3.6517Y-2.4504
X3.695Y-2.4498
X4.2327Y-3.2776
X4.4701Y-3.2203
X4.6108Y-1.683
X4.6979Y-1.9738
X4.871Y-2.0216
X4.9192Y-2.0665
X5.1035Y-2.0665
X5.2167Y-2.9042
X5.7008Y-3.5039
T2
X5.548Y-2.9921
X5.748Y-2.9921
X7.3622Y-5.1969
X7.5622Y-5.1969
X3.9764Y-3.8945
X3.9764Y-4.0945
X7.3622Y-4.252
X7.5622Y-4.252
X4.5669Y-3.8945
X4.5669Y-4.0945
X5.548Y-2.7559
X5.748Y-2.7559
X2.3622Y-3.3827
X2.3622Y-3.5827
X5.548Y-2.874
X5.748Y-2.874
X4.3307Y-3.8945
X4.3307Y-4.0945
X2.4016Y-2.4772
X2.4016Y-2.6772
X7.3622Y-2.5591
X7.5622Y-2.5591
X7.3622Y-2.3622
X7.5622Y-2.3622
X3.7402Y-3.8945
X3.7402Y-4.0945
X4.9409Y-1.4764
X5.1409Y-1.4764
X4.0945Y-3.8945
X4.0945Y-4.0945
X5.548Y-2.5197
X5.748Y-2.5197
X2.126Y-3.3827
X2.126Y-3.5827
X4.1898Y-1.6339
X4.3898Y-1.6339
X7.3622Y-3.5039
X7.5622Y-3.5039
X2.0079Y-3.3827
X2.0079Y-3.5827
X5.548Y-2.4016
X5.748Y-2.4016
X5.548Y-2.1654
X5.748Y-2.1654
X3.8583Y-3.8945
X3.8583Y-4.0945
X7.3622Y-5.3937
X7.5622Y-5.3937
X5.548Y-2.6378
X5.748Y-2.6378
X2.2441Y-3.3827
X2.2441Y-3.5827
X4.2126Y-3.8945
X4.2126Y-4.0945
X7.3622Y-4.4488
X7.5622Y-4.4488
X4.4488Y-3.8945
X4.4488Y-4.0945
X4.1898Y-1.4764
X4.3898Y-1.4764
X4.5669Y-1.4764
X4.7669Y-1.4764
X5.548Y-2.2835
X5.748Y-2.2835
X7.3622Y-3.3071
X7.5622Y-3.3071
T3
X3.2961Y-1.5157
X3.2961Y-1.8157
X3.3961Y-1.5157
X3.3961Y-1.8157
X3.4961Y-1.5157
X3.4961Y-1.8157
X3.5961Y-1.5157
X3.5961Y-1.8157
X3.6961Y-1.5157
X3.6961Y-1.8157
X3.7961Y-1.5157
X3.7961Y-1.8157
X3.8961Y-1.5157
X3.8961Y-1.8157
X3.9961Y-1.5157
X3.9961Y-1.8157
X2.3118Y-1.5157
X2.3118Y-1.8157
X2.4118Y-1.5157
X2.4118Y-1.8157
X2.5118Y-1.5157
X2.5118Y-1.8157
X2.6118Y-1.5157
X2.6118Y-1.8157
X2.7118Y-1.5157
X2.7118Y-1.8157
X2.8118Y-1.5157
X2.8118Y-1.8157
X2.9118Y-1.5157
X2.9118Y-1.8157
X3.0118Y-1.5157
X3.0118Y-1.8157
X5.1969Y-2.9921
X5.3937Y-2.9921
X6.6142Y-2.5984
X6.6142Y-2.6984
X6.6142Y-2.7984
X6.9142Y-2.5984
X6.9142Y-2.6984
X6.9142Y-2.7984
X3.0118Y-1.9882
X3.2087Y-1.9882
X6.6142Y-4.1339
X6.6142Y-4.2339
X6.6142Y-4.3339
X6.9142Y-4.1339
X6.9142Y-4.2339
X6.9142Y-4.3339
X6.6142Y-3.189
X6.6142Y-3.289
X6.6142Y-3.389
X6.9142Y-3.189
X6.9142Y-3.289
X6.9142Y-3.389
X4.0945Y-2.0472
X4.0945Y-2.2441
X6.6142Y-5.4331
X6.6142Y-5.5331
X6.6142Y-5.6331
X6.9142Y-5.4331
X6.9142Y-5.5331
X6.9142Y-5.6331
X5.3543Y-1.8898
X5.3543Y-2.0866
X6.6142Y-3.5433
X6.6142Y-3.6433
X6.6142Y-3.7433
X6.9142Y-3.5433
X6.9142Y-3.6433
X6.9142Y-3.7433
X4.3Y-2.2441
X4.3Y-2.5441
X4.4Y-2.2441
X4.4Y-2.5441
X4.5Y-2.2441
X4.5Y-2.5441
X4.6Y-2.2441
X4.6Y-2.5441
X4.7Y-2.2441
X4.7Y-2.5441
X4.8Y-2.2441
X4.8Y-2.5441
X4.9Y-2.2441
X4.9Y-2.5441
X5.0Y-2.2441
X5.0Y-2.5441
X7.9528Y-1.4567
X8.0079Y-1.1614
X4.2913Y-2.8496
X4.2913Y-3.1496
X4.3913Y-2.8496
X4.3913Y-3.1496
X4.4913Y-2.8496
X4.4913Y-3.1496
X4.5913Y-2.8496
X4.5913Y-3.1496
X4.6913Y-2.8496
X4.6913Y-3.1496
X4.7913Y-2.8496
X4.7913Y-3.1496
X4.8913Y-2.8496
X4.8913Y-3.1496
X4.9913Y-2.8496
X4.9913Y-3.1496
X2.874Y-3.5433
X2.874Y-3.7402
X6.6142Y-4.4882
X6.6142Y-4.5882
X6.6142Y-4.6882
X6.9142Y-4.4882
X6.9142Y-4.5882
X6.9142Y-4.6882
X6.6142Y-2.2441
X6.6142Y-2.3441
X6.6142Y-2.4441
X6.9142Y-2.2441
X6.9142Y-2.3441
X6.9142Y-2.4441
X2.126Y-2.9528
X2.126Y-3.1496
X6.6142Y-5.0787
X6.6142Y-5.1787
X6.6142Y-5.2787
X6.9142Y-5.0787
X6.9142Y-5.1787
X6.9142Y-5.2787
T4
X4.4488Y-3.5827
X4.4488Y-3.6827
X4.1732Y-3.5827
X4.1732Y-3.6827
X3.0709Y-3.5827
X3.0709Y-3.6827
X6.3567Y-4.252
X6.4567Y-4.252
X6.3567Y-2.3622
X6.4567Y-2.3622
X6.3567Y-3.3071
X6.4567Y-3.3071
X3.622Y-3.5827
X3.622Y-3.6827
X4.7244Y-3.5827
X4.7244Y-3.6827
X6.3567Y-4.5669
X6.4567Y-4.5669
X6.3567Y-5.1969
X6.4567Y-5.1969
X6.3567Y-2.6772
X6.4567Y-2.6772
X5.0Y-3.5827
X5.0Y-3.6827
X3.8976Y-3.5827
X3.8976Y-3.6827
X6.3567Y-5.5118
X6.4567Y-5.5118
X3.3465Y-3.5827
X3.3465Y-3.6827
X6.3567Y-3.622
X6.4567Y-3.622
T5
X4.0142Y-1.2795
X4.1142Y-1.2795
X2.126Y-2.4606
X2.126Y-2.7165
X2.3031Y-2.4606
X2.3031Y-2.7165
X2.3087Y-1.2795
X2.4087Y-1.2795
X2.5087Y-1.2795
X2.6087Y-1.2795
X2.7087Y-1.2795
X2.8087Y-1.2795
X2.9087Y-1.2795
X3.0087Y-1.2795
X3.1087Y-1.2795
X3.2087Y-1.2795
X3.3087Y-1.2795
X3.4087Y-1.2795
X3.5087Y-1.2795
X3.6087Y-1.2795
X3.7087Y-1.2795
X3.8087Y-1.2795
X4.311Y-1.2795
X4.411Y-1.2795
X2.126Y-2.0669
X2.126Y-2.3228
X2.3031Y-2.0669
X2.3031Y-2.3228
X4.6047Y-1.2795
X4.7047Y-1.2795
X1.9685Y-2.2591
X1.9685Y-2.3591
X1.9685Y-2.4591
X1.9685Y-2.5591
T6
X2.5591Y-4.6531
X2.5591Y-4.7531
X2.5591Y-4.85
X2.5591Y-4.95
X5.748Y-4.1531
X5.748Y-4.2531
X5.748Y-4.3531
X5.748Y-4.4531
X5.748Y-4.5531
X5.748Y-4.6531
X5.748Y-4.7531
X5.748Y-4.8531
X5.748Y-4.9531
X5.748Y-5.0531
X5.748Y-5.1531
X5.748Y-5.2531
X5.748Y-5.3531
X5.748Y-5.4531
T7
X2.0079Y-4.9213
X2.0079Y-5.1181
X2.2047Y-4.9213
X2.2047Y-5.1181
X2.0079Y-5.4724
X2.0079Y-5.6693
X2.2047Y-5.4724
X2.2047Y-5.6693
X2.0079Y-3.8189
X2.0079Y-4.0157
X2.2047Y-3.8189
X2.2047Y-4.0157
X2.0079Y-4.3701
X2.0079Y-4.5669
X2.2047Y-4.3701
X2.2047Y-4.5669
T8
X7.1654Y-3.7402
X7.7559Y-3.7402
X7.1654Y-2.7953
X7.7559Y-2.7953
X7.1654Y-4.9606
X7.7559Y-4.9606
X7.1654Y-5.6299
X7.7559Y-5.6299
X7.1654Y-4.0157
X7.7559Y-4.0157
X7.1654Y-4.685
X7.7559Y-4.685
X7.1654Y-2.126
X7.7559Y-2.126
X7.1654Y-3.0709
X7.7559Y-3.0709
T9
X8.1496Y-4.0551
X8.1496Y-4.252
X8.1496Y-4.4488
X8.1496Y-4.6457
X8.1496Y-2.1654
X8.1496Y-2.3622
X8.1496Y-2.5591
X8.1496Y-2.7559
X8.1496Y-3.1102
X8.1496Y-3.3071
X8.1496Y-3.5039
X8.1496Y-3.7008
X8.1496Y-5.0
X8.1496Y-5.1969
X8.1496Y-5.3937
X8.1496Y-5.5906
T10
X5.8858Y-1.0039
X5.8858Y-1.3189
X7.6575Y-1.0039
X7.6575Y-1.8228
T11
X8.2283Y-1.1811
X8.2283Y-1.4061
X8.2283Y-1.6311
T0
M30
